G04 #@! TF.FileFunction,Legend,Bot*
%FSLAX46Y46*%
G04 Gerber Fmt 4.6, Leading zero omitted, Abs format (unit mm)*
G04 Created by KiCad (PCBNEW 4.0.7-e2-6376~58~ubuntu14.04.1) date Mon Jan 15 11:45:40 2018*
%MOMM*%
%LPD*%
G01*
G04 APERTURE LIST*
%ADD10C,0.100000*%
%ADD11C,0.200000*%
%ADD12C,0.150000*%
%ADD13C,0.125000*%
%ADD14C,0.300000*%
%ADD15C,0.010000*%
G04 APERTURE END LIST*
D10*
D11*
X129500000Y-95750000D02*
X129500000Y-98500000D01*
X127500000Y-95750000D02*
X129500000Y-95750000D01*
X127500000Y-98500000D02*
X127500000Y-95750000D01*
X137250000Y-63000000D02*
X137250000Y-60500000D01*
X135250000Y-63000000D02*
X137250000Y-63000000D01*
X135250000Y-60500000D02*
X135250000Y-63000000D01*
D12*
X164802381Y-58130952D02*
X165040476Y-58130952D01*
X164945238Y-57892857D02*
X165040476Y-58130952D01*
X164945238Y-58369048D01*
X165230952Y-57988095D02*
X165040476Y-58130952D01*
X165230952Y-58273810D01*
X165802381Y-60035715D02*
X165802381Y-59464286D01*
X165802381Y-59750000D02*
X164802381Y-59750000D01*
X164945238Y-59654762D01*
X165040476Y-59559524D01*
X165088095Y-59464286D01*
X165802381Y-60464286D02*
X164802381Y-60464286D01*
X165421429Y-60559524D02*
X165802381Y-60845239D01*
X165135714Y-60845239D02*
X165516667Y-60464286D01*
X165802381Y-61416667D02*
X165754762Y-61321429D01*
X165707143Y-61273810D01*
X165611905Y-61226191D01*
X165326190Y-61226191D01*
X165230952Y-61273810D01*
X165183333Y-61321429D01*
X165135714Y-61416667D01*
X165135714Y-61559525D01*
X165183333Y-61654763D01*
X165230952Y-61702382D01*
X165326190Y-61750001D01*
X165611905Y-61750001D01*
X165707143Y-61702382D01*
X165754762Y-61654763D01*
X165802381Y-61559525D01*
X165802381Y-61416667D01*
X165802381Y-62178572D02*
X165135714Y-62178572D01*
X165326190Y-62178572D02*
X165230952Y-62226191D01*
X165183333Y-62273810D01*
X165135714Y-62369048D01*
X165135714Y-62464287D01*
X164802381Y-62988096D02*
X164802381Y-63083335D01*
X164850000Y-63178573D01*
X164897619Y-63226192D01*
X164992857Y-63273811D01*
X165183333Y-63321430D01*
X165421429Y-63321430D01*
X165611905Y-63273811D01*
X165707143Y-63226192D01*
X165754762Y-63178573D01*
X165802381Y-63083335D01*
X165802381Y-62988096D01*
X165754762Y-62892858D01*
X165707143Y-62845239D01*
X165611905Y-62797620D01*
X165421429Y-62750001D01*
X165183333Y-62750001D01*
X164992857Y-62797620D01*
X164897619Y-62845239D01*
X164850000Y-62892858D01*
X164802381Y-62988096D01*
X165707143Y-64511906D02*
X165754762Y-64559525D01*
X165802381Y-64511906D01*
X165754762Y-64464287D01*
X165707143Y-64511906D01*
X165802381Y-64511906D01*
X165183333Y-64511906D02*
X165230952Y-64559525D01*
X165278571Y-64511906D01*
X165230952Y-64464287D01*
X165183333Y-64511906D01*
X165278571Y-64511906D01*
X165707143Y-66321430D02*
X165754762Y-66273811D01*
X165802381Y-66130954D01*
X165802381Y-66035716D01*
X165754762Y-65892858D01*
X165659524Y-65797620D01*
X165564286Y-65750001D01*
X165373810Y-65702382D01*
X165230952Y-65702382D01*
X165040476Y-65750001D01*
X164945238Y-65797620D01*
X164850000Y-65892858D01*
X164802381Y-66035716D01*
X164802381Y-66130954D01*
X164850000Y-66273811D01*
X164897619Y-66321430D01*
X165802381Y-66892858D02*
X165754762Y-66797620D01*
X165707143Y-66750001D01*
X165611905Y-66702382D01*
X165326190Y-66702382D01*
X165230952Y-66750001D01*
X165183333Y-66797620D01*
X165135714Y-66892858D01*
X165135714Y-67035716D01*
X165183333Y-67130954D01*
X165230952Y-67178573D01*
X165326190Y-67226192D01*
X165611905Y-67226192D01*
X165707143Y-67178573D01*
X165754762Y-67130954D01*
X165802381Y-67035716D01*
X165802381Y-66892858D01*
X165135714Y-67654763D02*
X165802381Y-67654763D01*
X165230952Y-67654763D02*
X165183333Y-67702382D01*
X165135714Y-67797620D01*
X165135714Y-67940478D01*
X165183333Y-68035716D01*
X165278571Y-68083335D01*
X165802381Y-68083335D01*
X165135714Y-68559525D02*
X165802381Y-68559525D01*
X165230952Y-68559525D02*
X165183333Y-68607144D01*
X165135714Y-68702382D01*
X165135714Y-68845240D01*
X165183333Y-68940478D01*
X165278571Y-68988097D01*
X165802381Y-68988097D01*
X165754762Y-69845240D02*
X165802381Y-69750002D01*
X165802381Y-69559525D01*
X165754762Y-69464287D01*
X165659524Y-69416668D01*
X165278571Y-69416668D01*
X165183333Y-69464287D01*
X165135714Y-69559525D01*
X165135714Y-69750002D01*
X165183333Y-69845240D01*
X165278571Y-69892859D01*
X165373810Y-69892859D01*
X165469048Y-69416668D01*
X165754762Y-70750002D02*
X165802381Y-70654764D01*
X165802381Y-70464287D01*
X165754762Y-70369049D01*
X165707143Y-70321430D01*
X165611905Y-70273811D01*
X165326190Y-70273811D01*
X165230952Y-70321430D01*
X165183333Y-70369049D01*
X165135714Y-70464287D01*
X165135714Y-70654764D01*
X165183333Y-70750002D01*
X165135714Y-71035716D02*
X165135714Y-71416668D01*
X164802381Y-71178573D02*
X165659524Y-71178573D01*
X165754762Y-71226192D01*
X165802381Y-71321430D01*
X165802381Y-71416668D01*
X165802381Y-73035717D02*
X165802381Y-72464288D01*
X165802381Y-72750002D02*
X164802381Y-72750002D01*
X164945238Y-72654764D01*
X165040476Y-72559526D01*
X165088095Y-72464288D01*
X165802381Y-73464288D02*
X164802381Y-73464288D01*
X165421429Y-73559526D02*
X165802381Y-73845241D01*
X165135714Y-73845241D02*
X165516667Y-73464288D01*
X165802381Y-74226193D02*
X165802381Y-74464288D01*
X165611905Y-74464288D01*
X165564286Y-74369050D01*
X165469048Y-74273812D01*
X165326190Y-74226193D01*
X165088095Y-74226193D01*
X164945238Y-74273812D01*
X164850000Y-74369050D01*
X164802381Y-74511907D01*
X164802381Y-74702384D01*
X164850000Y-74845241D01*
X164945238Y-74940479D01*
X165088095Y-74988098D01*
X165326190Y-74988098D01*
X165469048Y-74940479D01*
X165564286Y-74845241D01*
X165611905Y-74750003D01*
X165802381Y-74750003D01*
X165802381Y-74988098D01*
X165802381Y-76178574D02*
X165135714Y-76178574D01*
X164802381Y-76178574D02*
X164850000Y-76130955D01*
X164897619Y-76178574D01*
X164850000Y-76226193D01*
X164802381Y-76178574D01*
X164897619Y-76178574D01*
X165135714Y-76511907D02*
X165135714Y-76892859D01*
X165802381Y-76654764D02*
X164945238Y-76654764D01*
X164850000Y-76702383D01*
X164802381Y-76797621D01*
X164802381Y-76892859D01*
X164802381Y-77892860D02*
X165802381Y-78130955D01*
X165088095Y-78321432D01*
X165802381Y-78511908D01*
X164802381Y-78750003D01*
X165754762Y-79511908D02*
X165802381Y-79416670D01*
X165802381Y-79226193D01*
X165754762Y-79130955D01*
X165659524Y-79083336D01*
X165278571Y-79083336D01*
X165183333Y-79130955D01*
X165135714Y-79226193D01*
X165135714Y-79416670D01*
X165183333Y-79511908D01*
X165278571Y-79559527D01*
X165373810Y-79559527D01*
X165469048Y-79083336D01*
X165802381Y-79988098D02*
X165135714Y-79988098D01*
X165230952Y-79988098D02*
X165183333Y-80035717D01*
X165135714Y-80130955D01*
X165135714Y-80273813D01*
X165183333Y-80369051D01*
X165278571Y-80416670D01*
X165802381Y-80416670D01*
X165278571Y-80416670D02*
X165183333Y-80464289D01*
X165135714Y-80559527D01*
X165135714Y-80702384D01*
X165183333Y-80797622D01*
X165278571Y-80845241D01*
X165802381Y-80845241D01*
X165802381Y-81464288D02*
X165754762Y-81369050D01*
X165707143Y-81321431D01*
X165611905Y-81273812D01*
X165326190Y-81273812D01*
X165230952Y-81321431D01*
X165183333Y-81369050D01*
X165135714Y-81464288D01*
X165135714Y-81607146D01*
X165183333Y-81702384D01*
X165230952Y-81750003D01*
X165326190Y-81797622D01*
X165611905Y-81797622D01*
X165707143Y-81750003D01*
X165754762Y-81702384D01*
X165802381Y-81607146D01*
X165802381Y-81464288D01*
X165754762Y-82178574D02*
X165802381Y-82273812D01*
X165802381Y-82464288D01*
X165754762Y-82559527D01*
X165659524Y-82607146D01*
X165611905Y-82607146D01*
X165516667Y-82559527D01*
X165469048Y-82464288D01*
X165469048Y-82321431D01*
X165421429Y-82226193D01*
X165326190Y-82178574D01*
X165278571Y-82178574D01*
X165183333Y-82226193D01*
X165135714Y-82321431D01*
X165135714Y-82464288D01*
X165183333Y-82559527D01*
X166183333Y-84083337D02*
X166135714Y-84035717D01*
X165992857Y-83940479D01*
X165897619Y-83892860D01*
X165754762Y-83845241D01*
X165516667Y-83797622D01*
X165326190Y-83797622D01*
X165088095Y-83845241D01*
X164945238Y-83892860D01*
X164850000Y-83940479D01*
X164707143Y-84035717D01*
X164659524Y-84083337D01*
X164802381Y-84369051D02*
X164802381Y-84988099D01*
X165183333Y-84654765D01*
X165183333Y-84797623D01*
X165230952Y-84892861D01*
X165278571Y-84940480D01*
X165373810Y-84988099D01*
X165611905Y-84988099D01*
X165707143Y-84940480D01*
X165754762Y-84892861D01*
X165802381Y-84797623D01*
X165802381Y-84511908D01*
X165754762Y-84416670D01*
X165707143Y-84369051D01*
X164802381Y-85273813D02*
X165802381Y-85607146D01*
X164802381Y-85940480D01*
X164802381Y-86178575D02*
X164802381Y-86797623D01*
X165183333Y-86464289D01*
X165183333Y-86607147D01*
X165230952Y-86702385D01*
X165278571Y-86750004D01*
X165373810Y-86797623D01*
X165611905Y-86797623D01*
X165707143Y-86750004D01*
X165754762Y-86702385D01*
X165802381Y-86607147D01*
X165802381Y-86321432D01*
X165754762Y-86226194D01*
X165707143Y-86178575D01*
X166183333Y-87130956D02*
X166135714Y-87178575D01*
X165992857Y-87273813D01*
X165897619Y-87321432D01*
X165754762Y-87369051D01*
X165516667Y-87416670D01*
X165326190Y-87416670D01*
X165088095Y-87369051D01*
X164945238Y-87321432D01*
X164850000Y-87273813D01*
X164707143Y-87178575D01*
X164659524Y-87130956D01*
X167357143Y-58559524D02*
X167404762Y-58511905D01*
X167452381Y-58369048D01*
X167452381Y-58273810D01*
X167404762Y-58130952D01*
X167309524Y-58035714D01*
X167214286Y-57988095D01*
X167023810Y-57940476D01*
X166880952Y-57940476D01*
X166690476Y-57988095D01*
X166595238Y-58035714D01*
X166500000Y-58130952D01*
X166452381Y-58273810D01*
X166452381Y-58369048D01*
X166500000Y-58511905D01*
X166547619Y-58559524D01*
X167452381Y-59130952D02*
X167404762Y-59035714D01*
X167357143Y-58988095D01*
X167261905Y-58940476D01*
X166976190Y-58940476D01*
X166880952Y-58988095D01*
X166833333Y-59035714D01*
X166785714Y-59130952D01*
X166785714Y-59273810D01*
X166833333Y-59369048D01*
X166880952Y-59416667D01*
X166976190Y-59464286D01*
X167261905Y-59464286D01*
X167357143Y-59416667D01*
X167404762Y-59369048D01*
X167452381Y-59273810D01*
X167452381Y-59130952D01*
X166785714Y-59892857D02*
X167452381Y-59892857D01*
X166880952Y-59892857D02*
X166833333Y-59940476D01*
X166785714Y-60035714D01*
X166785714Y-60178572D01*
X166833333Y-60273810D01*
X166928571Y-60321429D01*
X167452381Y-60321429D01*
X166785714Y-60797619D02*
X167452381Y-60797619D01*
X166880952Y-60797619D02*
X166833333Y-60845238D01*
X166785714Y-60940476D01*
X166785714Y-61083334D01*
X166833333Y-61178572D01*
X166928571Y-61226191D01*
X167452381Y-61226191D01*
X167404762Y-62083334D02*
X167452381Y-61988096D01*
X167452381Y-61797619D01*
X167404762Y-61702381D01*
X167309524Y-61654762D01*
X166928571Y-61654762D01*
X166833333Y-61702381D01*
X166785714Y-61797619D01*
X166785714Y-61988096D01*
X166833333Y-62083334D01*
X166928571Y-62130953D01*
X167023810Y-62130953D01*
X167119048Y-61654762D01*
X167404762Y-62988096D02*
X167452381Y-62892858D01*
X167452381Y-62702381D01*
X167404762Y-62607143D01*
X167357143Y-62559524D01*
X167261905Y-62511905D01*
X166976190Y-62511905D01*
X166880952Y-62559524D01*
X166833333Y-62607143D01*
X166785714Y-62702381D01*
X166785714Y-62892858D01*
X166833333Y-62988096D01*
X166785714Y-63273810D02*
X166785714Y-63654762D01*
X166452381Y-63416667D02*
X167309524Y-63416667D01*
X167404762Y-63464286D01*
X167452381Y-63559524D01*
X167452381Y-63654762D01*
X166452381Y-64940477D02*
X166452381Y-65035716D01*
X166500000Y-65130954D01*
X166547619Y-65178573D01*
X166642857Y-65226192D01*
X166833333Y-65273811D01*
X167071429Y-65273811D01*
X167261905Y-65226192D01*
X167357143Y-65178573D01*
X167404762Y-65130954D01*
X167452381Y-65035716D01*
X167452381Y-64940477D01*
X167404762Y-64845239D01*
X167357143Y-64797620D01*
X167261905Y-64750001D01*
X167071429Y-64702382D01*
X166833333Y-64702382D01*
X166642857Y-64750001D01*
X166547619Y-64797620D01*
X166500000Y-64845239D01*
X166452381Y-64940477D01*
X167452381Y-65654763D02*
X167452381Y-65892858D01*
X167261905Y-65892858D01*
X167214286Y-65797620D01*
X167119048Y-65702382D01*
X166976190Y-65654763D01*
X166738095Y-65654763D01*
X166595238Y-65702382D01*
X166500000Y-65797620D01*
X166452381Y-65940477D01*
X166452381Y-66130954D01*
X166500000Y-66273811D01*
X166595238Y-66369049D01*
X166738095Y-66416668D01*
X166976190Y-66416668D01*
X167119048Y-66369049D01*
X167214286Y-66273811D01*
X167261905Y-66178573D01*
X167452381Y-66178573D01*
X167452381Y-66416668D01*
X167452381Y-67607144D02*
X166785714Y-67607144D01*
X166452381Y-67607144D02*
X166500000Y-67559525D01*
X166547619Y-67607144D01*
X166500000Y-67654763D01*
X166452381Y-67607144D01*
X166547619Y-67607144D01*
X166785714Y-67940477D02*
X166785714Y-68321429D01*
X167452381Y-68083334D02*
X166595238Y-68083334D01*
X166500000Y-68130953D01*
X166452381Y-68226191D01*
X166452381Y-68321429D01*
X167452381Y-69845240D02*
X166928571Y-69845240D01*
X166833333Y-69797621D01*
X166785714Y-69702383D01*
X166785714Y-69511906D01*
X166833333Y-69416668D01*
X167404762Y-69845240D02*
X167452381Y-69750002D01*
X167452381Y-69511906D01*
X167404762Y-69416668D01*
X167309524Y-69369049D01*
X167214286Y-69369049D01*
X167119048Y-69416668D01*
X167071429Y-69511906D01*
X167071429Y-69750002D01*
X167023810Y-69845240D01*
X167452381Y-70321430D02*
X166785714Y-70321430D01*
X166976190Y-70321430D02*
X166880952Y-70369049D01*
X166833333Y-70416668D01*
X166785714Y-70511906D01*
X166785714Y-70607145D01*
X167452381Y-71369050D02*
X166452381Y-71369050D01*
X167404762Y-71369050D02*
X167452381Y-71273812D01*
X167452381Y-71083335D01*
X167404762Y-70988097D01*
X167357143Y-70940478D01*
X167261905Y-70892859D01*
X166976190Y-70892859D01*
X166880952Y-70940478D01*
X166833333Y-70988097D01*
X166785714Y-71083335D01*
X166785714Y-71273812D01*
X166833333Y-71369050D01*
X166785714Y-72273812D02*
X167452381Y-72273812D01*
X166785714Y-71845240D02*
X167309524Y-71845240D01*
X167404762Y-71892859D01*
X167452381Y-71988097D01*
X167452381Y-72130955D01*
X167404762Y-72226193D01*
X167357143Y-72273812D01*
X167452381Y-72750002D02*
X166785714Y-72750002D01*
X166452381Y-72750002D02*
X166500000Y-72702383D01*
X166547619Y-72750002D01*
X166500000Y-72797621D01*
X166452381Y-72750002D01*
X166547619Y-72750002D01*
X166785714Y-73226192D02*
X167452381Y-73226192D01*
X166880952Y-73226192D02*
X166833333Y-73273811D01*
X166785714Y-73369049D01*
X166785714Y-73511907D01*
X166833333Y-73607145D01*
X166928571Y-73654764D01*
X167452381Y-73654764D01*
X167452381Y-74273811D02*
X167404762Y-74178573D01*
X167357143Y-74130954D01*
X167261905Y-74083335D01*
X166976190Y-74083335D01*
X166880952Y-74130954D01*
X166833333Y-74178573D01*
X166785714Y-74273811D01*
X166785714Y-74416669D01*
X166833333Y-74511907D01*
X166880952Y-74559526D01*
X166976190Y-74607145D01*
X167261905Y-74607145D01*
X167357143Y-74559526D01*
X167404762Y-74511907D01*
X167452381Y-74416669D01*
X167452381Y-74273811D01*
X167833333Y-76083336D02*
X167785714Y-76035716D01*
X167642857Y-75940478D01*
X167547619Y-75892859D01*
X167404762Y-75845240D01*
X167166667Y-75797621D01*
X166976190Y-75797621D01*
X166738095Y-75845240D01*
X166595238Y-75892859D01*
X166500000Y-75940478D01*
X166357143Y-76035716D01*
X166309524Y-76083336D01*
X166452381Y-76940479D02*
X166452381Y-76464288D01*
X166928571Y-76416669D01*
X166880952Y-76464288D01*
X166833333Y-76559526D01*
X166833333Y-76797622D01*
X166880952Y-76892860D01*
X166928571Y-76940479D01*
X167023810Y-76988098D01*
X167261905Y-76988098D01*
X167357143Y-76940479D01*
X167404762Y-76892860D01*
X167452381Y-76797622D01*
X167452381Y-76559526D01*
X167404762Y-76464288D01*
X167357143Y-76416669D01*
X166452381Y-77273812D02*
X167452381Y-77607145D01*
X166452381Y-77940479D01*
X167833333Y-78178574D02*
X167785714Y-78226193D01*
X167642857Y-78321431D01*
X167547619Y-78369050D01*
X167404762Y-78416669D01*
X167166667Y-78464288D01*
X166976190Y-78464288D01*
X166738095Y-78416669D01*
X166595238Y-78369050D01*
X166500000Y-78321431D01*
X166357143Y-78226193D01*
X166309524Y-78178574D01*
X169102381Y-58464286D02*
X169102381Y-57988095D01*
X168102381Y-57988095D01*
X168578571Y-58797619D02*
X168578571Y-59130953D01*
X169102381Y-59273810D02*
X169102381Y-58797619D01*
X168102381Y-58797619D01*
X168102381Y-59273810D01*
X169102381Y-59702381D02*
X168102381Y-59702381D01*
X168102381Y-59940476D01*
X168150000Y-60083334D01*
X168245238Y-60178572D01*
X168340476Y-60226191D01*
X168530952Y-60273810D01*
X168673810Y-60273810D01*
X168864286Y-60226191D01*
X168959524Y-60178572D01*
X169054762Y-60083334D01*
X169102381Y-59940476D01*
X169102381Y-59702381D01*
X169197619Y-60464286D02*
X169197619Y-61226191D01*
X168102381Y-61369048D02*
X169102381Y-61607143D01*
X168388095Y-61797620D01*
X169102381Y-61988096D01*
X168102381Y-62226191D01*
X169054762Y-62559524D02*
X169102381Y-62702381D01*
X169102381Y-62940477D01*
X169054762Y-63035715D01*
X169007143Y-63083334D01*
X168911905Y-63130953D01*
X168816667Y-63130953D01*
X168721429Y-63083334D01*
X168673810Y-63035715D01*
X168626190Y-62940477D01*
X168578571Y-62750000D01*
X168530952Y-62654762D01*
X168483333Y-62607143D01*
X168388095Y-62559524D01*
X168292857Y-62559524D01*
X168197619Y-62607143D01*
X168150000Y-62654762D01*
X168102381Y-62750000D01*
X168102381Y-62988096D01*
X168150000Y-63130953D01*
X168197619Y-63511905D02*
X168150000Y-63559524D01*
X168102381Y-63654762D01*
X168102381Y-63892858D01*
X168150000Y-63988096D01*
X168197619Y-64035715D01*
X168292857Y-64083334D01*
X168388095Y-64083334D01*
X168530952Y-64035715D01*
X169102381Y-63464286D01*
X169102381Y-64083334D01*
X168530952Y-64654762D02*
X168483333Y-64559524D01*
X168435714Y-64511905D01*
X168340476Y-64464286D01*
X168292857Y-64464286D01*
X168197619Y-64511905D01*
X168150000Y-64559524D01*
X168102381Y-64654762D01*
X168102381Y-64845239D01*
X168150000Y-64940477D01*
X168197619Y-64988096D01*
X168292857Y-65035715D01*
X168340476Y-65035715D01*
X168435714Y-64988096D01*
X168483333Y-64940477D01*
X168530952Y-64845239D01*
X168530952Y-64654762D01*
X168578571Y-64559524D01*
X168626190Y-64511905D01*
X168721429Y-64464286D01*
X168911905Y-64464286D01*
X169007143Y-64511905D01*
X169054762Y-64559524D01*
X169102381Y-64654762D01*
X169102381Y-64845239D01*
X169054762Y-64940477D01*
X169007143Y-64988096D01*
X168911905Y-65035715D01*
X168721429Y-65035715D01*
X168626190Y-64988096D01*
X168578571Y-64940477D01*
X168530952Y-64845239D01*
X169102381Y-65988096D02*
X169102381Y-65416667D01*
X169102381Y-65702381D02*
X168102381Y-65702381D01*
X168245238Y-65607143D01*
X168340476Y-65511905D01*
X168388095Y-65416667D01*
X168197619Y-66369048D02*
X168150000Y-66416667D01*
X168102381Y-66511905D01*
X168102381Y-66750001D01*
X168150000Y-66845239D01*
X168197619Y-66892858D01*
X168292857Y-66940477D01*
X168388095Y-66940477D01*
X168530952Y-66892858D01*
X169102381Y-66321429D01*
X169102381Y-66940477D01*
X168578571Y-67702382D02*
X168626190Y-67845239D01*
X168673810Y-67892858D01*
X168769048Y-67940477D01*
X168911905Y-67940477D01*
X169007143Y-67892858D01*
X169054762Y-67845239D01*
X169102381Y-67750001D01*
X169102381Y-67369048D01*
X168102381Y-67369048D01*
X168102381Y-67702382D01*
X168150000Y-67797620D01*
X168197619Y-67845239D01*
X168292857Y-67892858D01*
X168388095Y-67892858D01*
X168483333Y-67845239D01*
X168530952Y-67797620D01*
X168578571Y-67702382D01*
X168578571Y-67369048D01*
X168435714Y-69130953D02*
X169102381Y-69130953D01*
X168530952Y-69130953D02*
X168483333Y-69178572D01*
X168435714Y-69273810D01*
X168435714Y-69416668D01*
X168483333Y-69511906D01*
X168578571Y-69559525D01*
X169102381Y-69559525D01*
X169054762Y-70416668D02*
X169102381Y-70321430D01*
X169102381Y-70130953D01*
X169054762Y-70035715D01*
X168959524Y-69988096D01*
X168578571Y-69988096D01*
X168483333Y-70035715D01*
X168435714Y-70130953D01*
X168435714Y-70321430D01*
X168483333Y-70416668D01*
X168578571Y-70464287D01*
X168673810Y-70464287D01*
X168769048Y-69988096D01*
X169054762Y-71273811D02*
X169102381Y-71178573D01*
X169102381Y-70988096D01*
X169054762Y-70892858D01*
X168959524Y-70845239D01*
X168578571Y-70845239D01*
X168483333Y-70892858D01*
X168435714Y-70988096D01*
X168435714Y-71178573D01*
X168483333Y-71273811D01*
X168578571Y-71321430D01*
X168673810Y-71321430D01*
X168769048Y-70845239D01*
X169102381Y-72178573D02*
X168102381Y-72178573D01*
X169054762Y-72178573D02*
X169102381Y-72083335D01*
X169102381Y-71892858D01*
X169054762Y-71797620D01*
X169007143Y-71750001D01*
X168911905Y-71702382D01*
X168626190Y-71702382D01*
X168530952Y-71750001D01*
X168483333Y-71797620D01*
X168435714Y-71892858D01*
X168435714Y-72083335D01*
X168483333Y-72178573D01*
X169054762Y-72607144D02*
X169102381Y-72702382D01*
X169102381Y-72892858D01*
X169054762Y-72988097D01*
X168959524Y-73035716D01*
X168911905Y-73035716D01*
X168816667Y-72988097D01*
X168769048Y-72892858D01*
X168769048Y-72750001D01*
X168721429Y-72654763D01*
X168626190Y-72607144D01*
X168578571Y-72607144D01*
X168483333Y-72654763D01*
X168435714Y-72750001D01*
X168435714Y-72892858D01*
X168483333Y-72988097D01*
X168102381Y-74702383D02*
X168102381Y-74226192D01*
X168578571Y-74178573D01*
X168530952Y-74226192D01*
X168483333Y-74321430D01*
X168483333Y-74559526D01*
X168530952Y-74654764D01*
X168578571Y-74702383D01*
X168673810Y-74750002D01*
X168911905Y-74750002D01*
X169007143Y-74702383D01*
X169054762Y-74654764D01*
X169102381Y-74559526D01*
X169102381Y-74321430D01*
X169054762Y-74226192D01*
X169007143Y-74178573D01*
X168102381Y-75035716D02*
X169102381Y-75369049D01*
X168102381Y-75702383D01*
X169102381Y-77226193D02*
X168578571Y-77226193D01*
X168483333Y-77178574D01*
X168435714Y-77083336D01*
X168435714Y-76892859D01*
X168483333Y-76797621D01*
X169054762Y-77226193D02*
X169102381Y-77130955D01*
X169102381Y-76892859D01*
X169054762Y-76797621D01*
X168959524Y-76750002D01*
X168864286Y-76750002D01*
X168769048Y-76797621D01*
X168721429Y-76892859D01*
X168721429Y-77130955D01*
X168673810Y-77226193D01*
X169054762Y-77654764D02*
X169102381Y-77750002D01*
X169102381Y-77940478D01*
X169054762Y-78035717D01*
X168959524Y-78083336D01*
X168911905Y-78083336D01*
X168816667Y-78035717D01*
X168769048Y-77940478D01*
X168769048Y-77797621D01*
X168721429Y-77702383D01*
X168626190Y-77654764D01*
X168578571Y-77654764D01*
X168483333Y-77702383D01*
X168435714Y-77797621D01*
X168435714Y-77940478D01*
X168483333Y-78035717D01*
X169102381Y-79273812D02*
X168435714Y-79273812D01*
X168102381Y-79273812D02*
X168150000Y-79226193D01*
X168197619Y-79273812D01*
X168150000Y-79321431D01*
X168102381Y-79273812D01*
X168197619Y-79273812D01*
X168435714Y-79750002D02*
X169102381Y-79750002D01*
X168530952Y-79750002D02*
X168483333Y-79797621D01*
X168435714Y-79892859D01*
X168435714Y-80035717D01*
X168483333Y-80130955D01*
X168578571Y-80178574D01*
X169102381Y-80178574D01*
X168435714Y-80654764D02*
X169435714Y-80654764D01*
X168483333Y-80654764D02*
X168435714Y-80750002D01*
X168435714Y-80940479D01*
X168483333Y-81035717D01*
X168530952Y-81083336D01*
X168626190Y-81130955D01*
X168911905Y-81130955D01*
X169007143Y-81083336D01*
X169054762Y-81035717D01*
X169102381Y-80940479D01*
X169102381Y-80750002D01*
X169054762Y-80654764D01*
X168435714Y-81988098D02*
X169102381Y-81988098D01*
X168435714Y-81559526D02*
X168959524Y-81559526D01*
X169054762Y-81607145D01*
X169102381Y-81702383D01*
X169102381Y-81845241D01*
X169054762Y-81940479D01*
X169007143Y-81988098D01*
X168435714Y-82321431D02*
X168435714Y-82702383D01*
X168102381Y-82464288D02*
X168959524Y-82464288D01*
X169054762Y-82511907D01*
X169102381Y-82607145D01*
X169102381Y-82702383D01*
X169054762Y-83083336D02*
X169102381Y-83083336D01*
X169197619Y-83035717D01*
X169245238Y-82988098D01*
X169054762Y-84654765D02*
X169102381Y-84559527D01*
X169102381Y-84369050D01*
X169054762Y-84273812D01*
X168959524Y-84226193D01*
X168578571Y-84226193D01*
X168483333Y-84273812D01*
X168435714Y-84369050D01*
X168435714Y-84559527D01*
X168483333Y-84654765D01*
X168578571Y-84702384D01*
X168673810Y-84702384D01*
X168769048Y-84226193D01*
X169102381Y-85273812D02*
X169054762Y-85178574D01*
X168959524Y-85130955D01*
X168102381Y-85130955D01*
X169054762Y-85607146D02*
X169102381Y-85702384D01*
X169102381Y-85892860D01*
X169054762Y-85988099D01*
X168959524Y-86035718D01*
X168911905Y-86035718D01*
X168816667Y-85988099D01*
X168769048Y-85892860D01*
X168769048Y-85750003D01*
X168721429Y-85654765D01*
X168626190Y-85607146D01*
X168578571Y-85607146D01*
X168483333Y-85654765D01*
X168435714Y-85750003D01*
X168435714Y-85892860D01*
X168483333Y-85988099D01*
X169054762Y-86845242D02*
X169102381Y-86750004D01*
X169102381Y-86559527D01*
X169054762Y-86464289D01*
X168959524Y-86416670D01*
X168578571Y-86416670D01*
X168483333Y-86464289D01*
X168435714Y-86559527D01*
X168435714Y-86750004D01*
X168483333Y-86845242D01*
X168578571Y-86892861D01*
X168673810Y-86892861D01*
X168769048Y-86416670D01*
X169102381Y-88607147D02*
X169102381Y-88035718D01*
X169102381Y-88321432D02*
X168102381Y-88321432D01*
X168245238Y-88226194D01*
X168340476Y-88130956D01*
X168388095Y-88035718D01*
X168197619Y-88988099D02*
X168150000Y-89035718D01*
X168102381Y-89130956D01*
X168102381Y-89369052D01*
X168150000Y-89464290D01*
X168197619Y-89511909D01*
X168292857Y-89559528D01*
X168388095Y-89559528D01*
X168530952Y-89511909D01*
X169102381Y-88940480D01*
X169102381Y-89559528D01*
X168102381Y-89845242D02*
X169102381Y-90178575D01*
X168102381Y-90511909D01*
D11*
X127189286Y-99842858D02*
X128346429Y-99071429D01*
X128046429Y-100142858D02*
X128089286Y-100185715D01*
X128132143Y-100142858D01*
X128089286Y-100100001D01*
X128046429Y-100142858D01*
X128132143Y-100142858D01*
X127789286Y-100142858D02*
X127275000Y-100100001D01*
X127232143Y-100142858D01*
X127275000Y-100185715D01*
X127789286Y-100142858D01*
X127232143Y-100142858D01*
X127146429Y-100271429D02*
X128303571Y-101042857D01*
X128089286Y-101814286D02*
X128132143Y-101942857D01*
X128132143Y-102157143D01*
X128089286Y-102242857D01*
X128046429Y-102285714D01*
X127960714Y-102328571D01*
X127875000Y-102328571D01*
X127789286Y-102285714D01*
X127746429Y-102242857D01*
X127703571Y-102157143D01*
X127660714Y-101985714D01*
X127617857Y-101900000D01*
X127575000Y-101857143D01*
X127489286Y-101814286D01*
X127403571Y-101814286D01*
X127317857Y-101857143D01*
X127275000Y-101900000D01*
X127232143Y-101985714D01*
X127232143Y-102200000D01*
X127275000Y-102328571D01*
X128132143Y-102714286D02*
X127232143Y-102714286D01*
X127660714Y-102714286D02*
X127660714Y-103228571D01*
X128132143Y-103228571D02*
X127232143Y-103228571D01*
X127232143Y-103657143D02*
X127960714Y-103657143D01*
X128046429Y-103700000D01*
X128089286Y-103742857D01*
X128132143Y-103828571D01*
X128132143Y-104000000D01*
X128089286Y-104085714D01*
X128046429Y-104128571D01*
X127960714Y-104171428D01*
X127232143Y-104171428D01*
X128132143Y-104600000D02*
X127232143Y-104600000D01*
X128132143Y-105114285D01*
X127232143Y-105114285D01*
X127232143Y-105414285D02*
X127232143Y-105928571D01*
X128132143Y-105671428D02*
X127232143Y-105671428D01*
X129682143Y-99521429D02*
X129082143Y-99521429D01*
X128782143Y-99521429D02*
X128825000Y-99478572D01*
X128867857Y-99521429D01*
X128825000Y-99564286D01*
X128782143Y-99521429D01*
X128867857Y-99521429D01*
X129082143Y-99821428D02*
X129082143Y-100164285D01*
X129682143Y-99950000D02*
X128910714Y-99950000D01*
X128825000Y-99992857D01*
X128782143Y-100078571D01*
X128782143Y-100164285D01*
X128782143Y-101021428D02*
X129682143Y-101321428D01*
X128782143Y-101621428D01*
X129682143Y-101921429D02*
X129082143Y-101921429D01*
X128782143Y-101921429D02*
X128825000Y-101878572D01*
X128867857Y-101921429D01*
X128825000Y-101964286D01*
X128782143Y-101921429D01*
X128867857Y-101921429D01*
X129082143Y-102350000D02*
X129682143Y-102350000D01*
X129167857Y-102350000D02*
X129125000Y-102392857D01*
X129082143Y-102478571D01*
X129082143Y-102607143D01*
X129125000Y-102692857D01*
X129210714Y-102735714D01*
X129682143Y-102735714D01*
X129210714Y-103164286D02*
X129210714Y-103850000D01*
X129467857Y-103850000D02*
X129467857Y-103164286D01*
X128782143Y-104707143D02*
X128782143Y-104278572D01*
X129210714Y-104235715D01*
X129167857Y-104278572D01*
X129125000Y-104364286D01*
X129125000Y-104578572D01*
X129167857Y-104664286D01*
X129210714Y-104707143D01*
X129296429Y-104750000D01*
X129510714Y-104750000D01*
X129596429Y-104707143D01*
X129639286Y-104664286D01*
X129682143Y-104578572D01*
X129682143Y-104364286D01*
X129639286Y-104278572D01*
X129596429Y-104235715D01*
X128782143Y-105007143D02*
X129682143Y-105307143D01*
X128782143Y-105607143D01*
X135189286Y-54092858D02*
X136346429Y-53321429D01*
X136046429Y-54392858D02*
X136089286Y-54435715D01*
X136132143Y-54392858D01*
X136089286Y-54350001D01*
X136046429Y-54392858D01*
X136132143Y-54392858D01*
X135789286Y-54392858D02*
X135275000Y-54350001D01*
X135232143Y-54392858D01*
X135275000Y-54435715D01*
X135789286Y-54392858D01*
X135232143Y-54392858D01*
X135146429Y-54521429D02*
X136303571Y-55292857D01*
X136089286Y-56064286D02*
X136132143Y-56192857D01*
X136132143Y-56407143D01*
X136089286Y-56492857D01*
X136046429Y-56535714D01*
X135960714Y-56578571D01*
X135875000Y-56578571D01*
X135789286Y-56535714D01*
X135746429Y-56492857D01*
X135703571Y-56407143D01*
X135660714Y-56235714D01*
X135617857Y-56150000D01*
X135575000Y-56107143D01*
X135489286Y-56064286D01*
X135403571Y-56064286D01*
X135317857Y-56107143D01*
X135275000Y-56150000D01*
X135232143Y-56235714D01*
X135232143Y-56450000D01*
X135275000Y-56578571D01*
X136132143Y-56964286D02*
X135232143Y-56964286D01*
X135660714Y-56964286D02*
X135660714Y-57478571D01*
X136132143Y-57478571D02*
X135232143Y-57478571D01*
X135232143Y-57907143D02*
X135960714Y-57907143D01*
X136046429Y-57950000D01*
X136089286Y-57992857D01*
X136132143Y-58078571D01*
X136132143Y-58250000D01*
X136089286Y-58335714D01*
X136046429Y-58378571D01*
X135960714Y-58421428D01*
X135232143Y-58421428D01*
X136132143Y-58850000D02*
X135232143Y-58850000D01*
X136132143Y-59364285D01*
X135232143Y-59364285D01*
X135232143Y-59664285D02*
X135232143Y-60178571D01*
X136132143Y-59921428D02*
X135232143Y-59921428D01*
X137682143Y-53342857D02*
X137082143Y-53342857D01*
X136782143Y-53342857D02*
X136825000Y-53300000D01*
X136867857Y-53342857D01*
X136825000Y-53385714D01*
X136782143Y-53342857D01*
X136867857Y-53342857D01*
X137082143Y-53642856D02*
X137082143Y-53985713D01*
X137682143Y-53771428D02*
X136910714Y-53771428D01*
X136825000Y-53814285D01*
X136782143Y-53899999D01*
X136782143Y-53985713D01*
X136782143Y-54842856D02*
X137682143Y-55142856D01*
X136782143Y-55442856D01*
X137682143Y-55742857D02*
X137082143Y-55742857D01*
X136782143Y-55742857D02*
X136825000Y-55700000D01*
X136867857Y-55742857D01*
X136825000Y-55785714D01*
X136782143Y-55742857D01*
X136867857Y-55742857D01*
X137082143Y-56171428D02*
X137682143Y-56171428D01*
X137167857Y-56171428D02*
X137125000Y-56214285D01*
X137082143Y-56299999D01*
X137082143Y-56428571D01*
X137125000Y-56514285D01*
X137210714Y-56557142D01*
X137682143Y-56557142D01*
X137210714Y-56985714D02*
X137210714Y-57671428D01*
X137467857Y-57671428D02*
X137467857Y-56985714D01*
X137682143Y-58571428D02*
X137682143Y-58057143D01*
X137682143Y-58314285D02*
X136782143Y-58314285D01*
X136910714Y-58228571D01*
X136996429Y-58142857D01*
X137039286Y-58057143D01*
X136867857Y-58914286D02*
X136825000Y-58957143D01*
X136782143Y-59042857D01*
X136782143Y-59257143D01*
X136825000Y-59342857D01*
X136867857Y-59385714D01*
X136953571Y-59428571D01*
X137039286Y-59428571D01*
X137167857Y-59385714D01*
X137682143Y-58871428D01*
X137682143Y-59428571D01*
X136782143Y-59685714D02*
X137682143Y-59985714D01*
X136782143Y-60285714D01*
X156400000Y-83750000D02*
X156485714Y-83702381D01*
X156614285Y-83702381D01*
X156742857Y-83750000D01*
X156828571Y-83845238D01*
X156871428Y-83940476D01*
X156914285Y-84130952D01*
X156914285Y-84273810D01*
X156871428Y-84464286D01*
X156828571Y-84559524D01*
X156742857Y-84654762D01*
X156614285Y-84702381D01*
X156528571Y-84702381D01*
X156400000Y-84654762D01*
X156357143Y-84607143D01*
X156357143Y-84273810D01*
X156528571Y-84273810D01*
X155842857Y-84702381D02*
X155928571Y-84654762D01*
X155971428Y-84607143D01*
X156014285Y-84511905D01*
X156014285Y-84226190D01*
X155971428Y-84130952D01*
X155928571Y-84083333D01*
X155842857Y-84035714D01*
X155714285Y-84035714D01*
X155628571Y-84083333D01*
X155585714Y-84130952D01*
X155542857Y-84226190D01*
X155542857Y-84511905D01*
X155585714Y-84607143D01*
X155628571Y-84654762D01*
X155714285Y-84702381D01*
X155842857Y-84702381D01*
X155157142Y-84702381D02*
X155157142Y-83702381D01*
X154728571Y-84035714D02*
X154728571Y-84702381D01*
X154728571Y-84130952D02*
X154685714Y-84083333D01*
X154600000Y-84035714D01*
X154471428Y-84035714D01*
X154385714Y-84083333D01*
X154342857Y-84178571D01*
X154342857Y-84702381D01*
X153914285Y-84702381D02*
X153914285Y-83702381D01*
X153400000Y-84702381D02*
X153785714Y-84130952D01*
X153400000Y-83702381D02*
X153914285Y-84273810D01*
X152328571Y-84178571D02*
X152028571Y-84178571D01*
X151900000Y-84702381D02*
X152328571Y-84702381D01*
X152328571Y-83702381D01*
X151900000Y-83702381D01*
X151385714Y-84702381D02*
X151471428Y-84654762D01*
X151514285Y-84559524D01*
X151514285Y-83702381D01*
X149842857Y-84607143D02*
X149885714Y-84654762D01*
X150014285Y-84702381D01*
X150099999Y-84702381D01*
X150228571Y-84654762D01*
X150314285Y-84559524D01*
X150357142Y-84464286D01*
X150399999Y-84273810D01*
X150399999Y-84130952D01*
X150357142Y-83940476D01*
X150314285Y-83845238D01*
X150228571Y-83750000D01*
X150099999Y-83702381D01*
X150014285Y-83702381D01*
X149885714Y-83750000D01*
X149842857Y-83797619D01*
X149071428Y-84702381D02*
X149071428Y-84178571D01*
X149114285Y-84083333D01*
X149199999Y-84035714D01*
X149371428Y-84035714D01*
X149457142Y-84083333D01*
X149071428Y-84654762D02*
X149157142Y-84702381D01*
X149371428Y-84702381D01*
X149457142Y-84654762D01*
X149499999Y-84559524D01*
X149499999Y-84464286D01*
X149457142Y-84369048D01*
X149371428Y-84321429D01*
X149157142Y-84321429D01*
X149071428Y-84273810D01*
X148642856Y-84702381D02*
X148642856Y-83702381D01*
X148128571Y-84702381D01*
X148128571Y-83702381D01*
X147314285Y-84702381D02*
X147314285Y-84178571D01*
X147357142Y-84083333D01*
X147442856Y-84035714D01*
X147614285Y-84035714D01*
X147699999Y-84083333D01*
X147314285Y-84654762D02*
X147399999Y-84702381D01*
X147614285Y-84702381D01*
X147699999Y-84654762D01*
X147742856Y-84559524D01*
X147742856Y-84464286D01*
X147699999Y-84369048D01*
X147614285Y-84321429D01*
X147399999Y-84321429D01*
X147314285Y-84273810D01*
X146371428Y-84702381D02*
X146671428Y-84226190D01*
X146885713Y-84702381D02*
X146885713Y-83702381D01*
X146542856Y-83702381D01*
X146457142Y-83750000D01*
X146414285Y-83797619D01*
X146371428Y-83892857D01*
X146371428Y-84035714D01*
X146414285Y-84130952D01*
X146457142Y-84178571D01*
X146542856Y-84226190D01*
X146885713Y-84226190D01*
X145985713Y-84702381D02*
X145985713Y-84035714D01*
X145985713Y-83702381D02*
X146028570Y-83750000D01*
X145985713Y-83797619D01*
X145942856Y-83750000D01*
X145985713Y-83702381D01*
X145985713Y-83797619D01*
X145599999Y-84654762D02*
X145471428Y-84702381D01*
X145257142Y-84702381D01*
X145171428Y-84654762D01*
X145128571Y-84607143D01*
X145085714Y-84511905D01*
X145085714Y-84416667D01*
X145128571Y-84321429D01*
X145171428Y-84273810D01*
X145257142Y-84226190D01*
X145428571Y-84178571D01*
X145514285Y-84130952D01*
X145557142Y-84083333D01*
X145599999Y-83988095D01*
X145599999Y-83892857D01*
X145557142Y-83797619D01*
X145514285Y-83750000D01*
X145428571Y-83702381D01*
X145214285Y-83702381D01*
X145085714Y-83750000D01*
D12*
X168714285Y-101452381D02*
X169285714Y-101452381D01*
X169000000Y-101452381D02*
X169000000Y-100452381D01*
X169095238Y-100595238D01*
X169190476Y-100690476D01*
X169285714Y-100738095D01*
X167952380Y-100928571D02*
X167809523Y-100976190D01*
X167761904Y-101023810D01*
X167714285Y-101119048D01*
X167714285Y-101261905D01*
X167761904Y-101357143D01*
X167809523Y-101404762D01*
X167904761Y-101452381D01*
X168285714Y-101452381D01*
X168285714Y-100452381D01*
X167952380Y-100452381D01*
X167857142Y-100500000D01*
X167809523Y-100547619D01*
X167761904Y-100642857D01*
X167761904Y-100738095D01*
X167809523Y-100833333D01*
X167857142Y-100880952D01*
X167952380Y-100928571D01*
X168285714Y-100928571D01*
X163214285Y-101452381D02*
X163785714Y-101452381D01*
X163500000Y-101452381D02*
X163500000Y-100452381D01*
X163595238Y-100595238D01*
X163690476Y-100690476D01*
X163785714Y-100738095D01*
X162214285Y-101452381D02*
X162547619Y-100976190D01*
X162785714Y-101452381D02*
X162785714Y-100452381D01*
X162404761Y-100452381D01*
X162309523Y-100500000D01*
X162261904Y-100547619D01*
X162214285Y-100642857D01*
X162214285Y-100785714D01*
X162261904Y-100880952D01*
X162309523Y-100928571D01*
X162404761Y-100976190D01*
X162785714Y-100976190D01*
X157714285Y-101452381D02*
X158285714Y-101452381D01*
X158000000Y-101452381D02*
X158000000Y-100452381D01*
X158095238Y-100595238D01*
X158190476Y-100690476D01*
X158285714Y-100738095D01*
X156761904Y-100500000D02*
X156857142Y-100452381D01*
X156999999Y-100452381D01*
X157142857Y-100500000D01*
X157238095Y-100595238D01*
X157285714Y-100690476D01*
X157333333Y-100880952D01*
X157333333Y-101023810D01*
X157285714Y-101214286D01*
X157238095Y-101309524D01*
X157142857Y-101404762D01*
X156999999Y-101452381D01*
X156904761Y-101452381D01*
X156761904Y-101404762D01*
X156714285Y-101357143D01*
X156714285Y-101023810D01*
X156904761Y-101023810D01*
X152047619Y-100452381D02*
X151952380Y-100452381D01*
X151857142Y-100500000D01*
X151809523Y-100547619D01*
X151761904Y-100642857D01*
X151714285Y-100833333D01*
X151714285Y-101071429D01*
X151761904Y-101261905D01*
X151809523Y-101357143D01*
X151857142Y-101404762D01*
X151952380Y-101452381D01*
X152047619Y-101452381D01*
X152142857Y-101404762D01*
X152190476Y-101357143D01*
X152238095Y-101261905D01*
X152285714Y-101071429D01*
X152285714Y-100833333D01*
X152238095Y-100642857D01*
X152190476Y-100547619D01*
X152142857Y-100500000D01*
X152047619Y-100452381D01*
X150952380Y-100928571D02*
X150809523Y-100976190D01*
X150761904Y-101023810D01*
X150714285Y-101119048D01*
X150714285Y-101261905D01*
X150761904Y-101357143D01*
X150809523Y-101404762D01*
X150904761Y-101452381D01*
X151285714Y-101452381D01*
X151285714Y-100452381D01*
X150952380Y-100452381D01*
X150857142Y-100500000D01*
X150809523Y-100547619D01*
X150761904Y-100642857D01*
X150761904Y-100738095D01*
X150809523Y-100833333D01*
X150857142Y-100880952D01*
X150952380Y-100928571D01*
X151285714Y-100928571D01*
X146547619Y-100452381D02*
X146452380Y-100452381D01*
X146357142Y-100500000D01*
X146309523Y-100547619D01*
X146261904Y-100642857D01*
X146214285Y-100833333D01*
X146214285Y-101071429D01*
X146261904Y-101261905D01*
X146309523Y-101357143D01*
X146357142Y-101404762D01*
X146452380Y-101452381D01*
X146547619Y-101452381D01*
X146642857Y-101404762D01*
X146690476Y-101357143D01*
X146738095Y-101261905D01*
X146785714Y-101071429D01*
X146785714Y-100833333D01*
X146738095Y-100642857D01*
X146690476Y-100547619D01*
X146642857Y-100500000D01*
X146547619Y-100452381D01*
X145214285Y-101452381D02*
X145547619Y-100976190D01*
X145785714Y-101452381D02*
X145785714Y-100452381D01*
X145404761Y-100452381D01*
X145309523Y-100500000D01*
X145261904Y-100547619D01*
X145214285Y-100642857D01*
X145214285Y-100785714D01*
X145261904Y-100880952D01*
X145309523Y-100928571D01*
X145404761Y-100976190D01*
X145785714Y-100976190D01*
X141047619Y-100452381D02*
X140952380Y-100452381D01*
X140857142Y-100500000D01*
X140809523Y-100547619D01*
X140761904Y-100642857D01*
X140714285Y-100833333D01*
X140714285Y-101071429D01*
X140761904Y-101261905D01*
X140809523Y-101357143D01*
X140857142Y-101404762D01*
X140952380Y-101452381D01*
X141047619Y-101452381D01*
X141142857Y-101404762D01*
X141190476Y-101357143D01*
X141238095Y-101261905D01*
X141285714Y-101071429D01*
X141285714Y-100833333D01*
X141238095Y-100642857D01*
X141190476Y-100547619D01*
X141142857Y-100500000D01*
X141047619Y-100452381D01*
X139761904Y-100500000D02*
X139857142Y-100452381D01*
X139999999Y-100452381D01*
X140142857Y-100500000D01*
X140238095Y-100595238D01*
X140285714Y-100690476D01*
X140333333Y-100880952D01*
X140333333Y-101023810D01*
X140285714Y-101214286D01*
X140238095Y-101309524D01*
X140142857Y-101404762D01*
X139999999Y-101452381D01*
X139904761Y-101452381D01*
X139761904Y-101404762D01*
X139714285Y-101357143D01*
X139714285Y-101023810D01*
X139904761Y-101023810D01*
X133261904Y-54750000D02*
X133357142Y-54702381D01*
X133499999Y-54702381D01*
X133642857Y-54750000D01*
X133738095Y-54845238D01*
X133785714Y-54940476D01*
X133833333Y-55130952D01*
X133833333Y-55273810D01*
X133785714Y-55464286D01*
X133738095Y-55559524D01*
X133642857Y-55654762D01*
X133499999Y-55702381D01*
X133404761Y-55702381D01*
X133261904Y-55654762D01*
X133214285Y-55607143D01*
X133214285Y-55273810D01*
X133404761Y-55273810D01*
X132785714Y-55702381D02*
X132785714Y-54702381D01*
X132214285Y-55702381D01*
X132214285Y-54702381D01*
X131738095Y-55702381D02*
X131738095Y-54702381D01*
X131500000Y-54702381D01*
X131357142Y-54750000D01*
X131261904Y-54845238D01*
X131214285Y-54940476D01*
X131166666Y-55130952D01*
X131166666Y-55273810D01*
X131214285Y-55464286D01*
X131261904Y-55559524D01*
X131357142Y-55654762D01*
X131500000Y-55702381D01*
X131738095Y-55702381D01*
X146595238Y-58452381D02*
X146100000Y-58452381D01*
X146366667Y-58833333D01*
X146252381Y-58833333D01*
X146176191Y-58880952D01*
X146138095Y-58928571D01*
X146100000Y-59023810D01*
X146100000Y-59261905D01*
X146138095Y-59357143D01*
X146176191Y-59404762D01*
X146252381Y-59452381D01*
X146480953Y-59452381D01*
X146557143Y-59404762D01*
X146595238Y-59357143D01*
X145871429Y-58452381D02*
X145604762Y-59452381D01*
X145338095Y-58452381D01*
X145147619Y-58452381D02*
X144652381Y-58452381D01*
X144919048Y-58833333D01*
X144804762Y-58833333D01*
X144728572Y-58880952D01*
X144690476Y-58928571D01*
X144652381Y-59023810D01*
X144652381Y-59261905D01*
X144690476Y-59357143D01*
X144728572Y-59404762D01*
X144804762Y-59452381D01*
X145033334Y-59452381D01*
X145109524Y-59404762D01*
X145147619Y-59357143D01*
X141652380Y-83952381D02*
X142033333Y-83952381D01*
X142071428Y-84428571D01*
X142033333Y-84380952D01*
X141957142Y-84333333D01*
X141766666Y-84333333D01*
X141690476Y-84380952D01*
X141652380Y-84428571D01*
X141614285Y-84523810D01*
X141614285Y-84761905D01*
X141652380Y-84857143D01*
X141690476Y-84904762D01*
X141766666Y-84952381D01*
X141957142Y-84952381D01*
X142033333Y-84904762D01*
X142071428Y-84857143D01*
X141385714Y-83952381D02*
X141119047Y-84952381D01*
X140852380Y-83952381D01*
X162535714Y-83828000D02*
X162630952Y-83780381D01*
X162773809Y-83780381D01*
X162916667Y-83828000D01*
X163011905Y-83923238D01*
X163059524Y-84018476D01*
X163107143Y-84208952D01*
X163107143Y-84351810D01*
X163059524Y-84542286D01*
X163011905Y-84637524D01*
X162916667Y-84732762D01*
X162773809Y-84780381D01*
X162678571Y-84780381D01*
X162535714Y-84732762D01*
X162488095Y-84685143D01*
X162488095Y-84351810D01*
X162678571Y-84351810D01*
X162059524Y-84780381D02*
X162059524Y-83780381D01*
X161488095Y-84780381D01*
X161488095Y-83780381D01*
X161011905Y-84780381D02*
X161011905Y-83780381D01*
X160773810Y-83780381D01*
X160630952Y-83828000D01*
X160535714Y-83923238D01*
X160488095Y-84018476D01*
X160440476Y-84208952D01*
X160440476Y-84351810D01*
X160488095Y-84542286D01*
X160535714Y-84637524D01*
X160630952Y-84732762D01*
X160773810Y-84780381D01*
X161011905Y-84780381D01*
D13*
X157142857Y-77202381D02*
X157380952Y-77202381D01*
X157380952Y-76202381D01*
X156976190Y-76678571D02*
X156809524Y-76678571D01*
X156738095Y-77202381D02*
X156976190Y-77202381D01*
X156976190Y-76202381D01*
X156738095Y-76202381D01*
X156523809Y-77202381D02*
X156523809Y-76202381D01*
X156404762Y-76202381D01*
X156333333Y-76250000D01*
X156285714Y-76345238D01*
X156261905Y-76440476D01*
X156238095Y-76630952D01*
X156238095Y-76773810D01*
X156261905Y-76964286D01*
X156285714Y-77059524D01*
X156333333Y-77154762D01*
X156404762Y-77202381D01*
X156523809Y-77202381D01*
X156071428Y-76202381D02*
X155952381Y-77202381D01*
X155857143Y-76488095D01*
X155761905Y-77202381D01*
X155642857Y-76202381D01*
X155476190Y-77154762D02*
X155404761Y-77202381D01*
X155285714Y-77202381D01*
X155238095Y-77154762D01*
X155214285Y-77107143D01*
X155190476Y-77011905D01*
X155190476Y-76916667D01*
X155214285Y-76821429D01*
X155238095Y-76773810D01*
X155285714Y-76726190D01*
X155380952Y-76678571D01*
X155428571Y-76630952D01*
X155452380Y-76583333D01*
X155476190Y-76488095D01*
X155476190Y-76392857D01*
X155452380Y-76297619D01*
X155428571Y-76250000D01*
X155380952Y-76202381D01*
X155261904Y-76202381D01*
X155190476Y-76250000D01*
X155095238Y-77297619D02*
X154714286Y-77297619D01*
X154595238Y-77202381D02*
X154595238Y-76202381D01*
X154476191Y-76202381D01*
X154404762Y-76250000D01*
X154357143Y-76345238D01*
X154333334Y-76440476D01*
X154309524Y-76630952D01*
X154309524Y-76773810D01*
X154333334Y-76964286D01*
X154357143Y-77059524D01*
X154404762Y-77154762D01*
X154476191Y-77202381D01*
X154595238Y-77202381D01*
X154095238Y-77202381D02*
X154095238Y-76535714D01*
X154095238Y-76202381D02*
X154119048Y-76250000D01*
X154095238Y-76297619D01*
X154071429Y-76250000D01*
X154095238Y-76202381D01*
X154095238Y-76297619D01*
X153857143Y-76535714D02*
X153857143Y-77202381D01*
X153857143Y-76630952D02*
X153833334Y-76583333D01*
X153785715Y-76535714D01*
X153714286Y-76535714D01*
X153666667Y-76583333D01*
X153642858Y-76678571D01*
X153642858Y-77202381D01*
D12*
X156928571Y-72202381D02*
X157309524Y-72202381D01*
X157309524Y-71202381D01*
X156661905Y-71678571D02*
X156395238Y-71678571D01*
X156280952Y-72202381D02*
X156661905Y-72202381D01*
X156661905Y-71202381D01*
X156280952Y-71202381D01*
X155938095Y-72202381D02*
X155938095Y-71202381D01*
X155747619Y-71202381D01*
X155633333Y-71250000D01*
X155557142Y-71345238D01*
X155519047Y-71440476D01*
X155480952Y-71630952D01*
X155480952Y-71773810D01*
X155519047Y-71964286D01*
X155557142Y-72059524D01*
X155633333Y-72154762D01*
X155747619Y-72202381D01*
X155938095Y-72202381D01*
X154985714Y-71202381D02*
X154909523Y-71202381D01*
X154833333Y-71250000D01*
X154795238Y-71297619D01*
X154757142Y-71392857D01*
X154719047Y-71583333D01*
X154719047Y-71821429D01*
X154757142Y-72011905D01*
X154795238Y-72107143D01*
X154833333Y-72154762D01*
X154909523Y-72202381D01*
X154985714Y-72202381D01*
X155061904Y-72154762D01*
X155100000Y-72107143D01*
X155138095Y-72011905D01*
X155176190Y-71821429D01*
X155176190Y-71583333D01*
X155138095Y-71392857D01*
X155100000Y-71297619D01*
X155061904Y-71250000D01*
X154985714Y-71202381D01*
X154566666Y-72297619D02*
X153957142Y-72297619D01*
X153499999Y-71678571D02*
X153385713Y-71726190D01*
X153347618Y-71773810D01*
X153309523Y-71869048D01*
X153309523Y-72011905D01*
X153347618Y-72107143D01*
X153385713Y-72154762D01*
X153461904Y-72202381D01*
X153766666Y-72202381D01*
X153766666Y-71202381D01*
X153499999Y-71202381D01*
X153423809Y-71250000D01*
X153385713Y-71297619D01*
X153347618Y-71392857D01*
X153347618Y-71488095D01*
X153385713Y-71583333D01*
X153423809Y-71630952D01*
X153499999Y-71678571D01*
X153766666Y-71678571D01*
X156928571Y-74702381D02*
X157309524Y-74702381D01*
X157309524Y-73702381D01*
X156661905Y-74178571D02*
X156395238Y-74178571D01*
X156280952Y-74702381D02*
X156661905Y-74702381D01*
X156661905Y-73702381D01*
X156280952Y-73702381D01*
X155938095Y-74702381D02*
X155938095Y-73702381D01*
X155747619Y-73702381D01*
X155633333Y-73750000D01*
X155557142Y-73845238D01*
X155519047Y-73940476D01*
X155480952Y-74130952D01*
X155480952Y-74273810D01*
X155519047Y-74464286D01*
X155557142Y-74559524D01*
X155633333Y-74654762D01*
X155747619Y-74702381D01*
X155938095Y-74702381D01*
X154719047Y-74702381D02*
X155176190Y-74702381D01*
X154947619Y-74702381D02*
X154947619Y-73702381D01*
X155023809Y-73845238D01*
X155100000Y-73940476D01*
X155176190Y-73988095D01*
X154566666Y-74797619D02*
X153957142Y-74797619D01*
X153309523Y-74702381D02*
X153576190Y-74226190D01*
X153766666Y-74702381D02*
X153766666Y-73702381D01*
X153461904Y-73702381D01*
X153385713Y-73750000D01*
X153347618Y-73797619D01*
X153309523Y-73892857D01*
X153309523Y-74035714D01*
X153347618Y-74130952D01*
X153385713Y-74178571D01*
X153461904Y-74226190D01*
X153766666Y-74226190D01*
X156964286Y-79702381D02*
X157321429Y-79702381D01*
X157321429Y-78702381D01*
X156714286Y-79178571D02*
X156464286Y-79178571D01*
X156357143Y-79702381D02*
X156714286Y-79702381D01*
X156714286Y-78702381D01*
X156357143Y-78702381D01*
X156035715Y-79702381D02*
X156035715Y-78702381D01*
X155857143Y-78702381D01*
X155750000Y-78750000D01*
X155678572Y-78845238D01*
X155642857Y-78940476D01*
X155607143Y-79130952D01*
X155607143Y-79273810D01*
X155642857Y-79464286D01*
X155678572Y-79559524D01*
X155750000Y-79654762D01*
X155857143Y-79702381D01*
X156035715Y-79702381D01*
X154892857Y-79702381D02*
X155321429Y-79702381D01*
X155107143Y-79702381D02*
X155107143Y-78702381D01*
X155178572Y-78845238D01*
X155250000Y-78940476D01*
X155321429Y-78988095D01*
X154750000Y-79797619D02*
X154178571Y-79797619D01*
X153607142Y-78750000D02*
X153678571Y-78702381D01*
X153785714Y-78702381D01*
X153892857Y-78750000D01*
X153964285Y-78845238D01*
X154000000Y-78940476D01*
X154035714Y-79130952D01*
X154035714Y-79273810D01*
X154000000Y-79464286D01*
X153964285Y-79559524D01*
X153892857Y-79654762D01*
X153785714Y-79702381D01*
X153714285Y-79702381D01*
X153607142Y-79654762D01*
X153571428Y-79607143D01*
X153571428Y-79273810D01*
X153714285Y-79273810D01*
X156785714Y-64452381D02*
X157261905Y-64452381D01*
X157261905Y-63452381D01*
X156452381Y-63928571D02*
X156119047Y-63928571D01*
X155976190Y-64452381D02*
X156452381Y-64452381D01*
X156452381Y-63452381D01*
X155976190Y-63452381D01*
X155547619Y-64452381D02*
X155547619Y-63452381D01*
X155309524Y-63452381D01*
X155166666Y-63500000D01*
X155071428Y-63595238D01*
X155023809Y-63690476D01*
X154976190Y-63880952D01*
X154976190Y-64023810D01*
X155023809Y-64214286D01*
X155071428Y-64309524D01*
X155166666Y-64404762D01*
X155309524Y-64452381D01*
X155547619Y-64452381D01*
X154357143Y-63452381D02*
X154261904Y-63452381D01*
X154166666Y-63500000D01*
X154119047Y-63547619D01*
X154071428Y-63642857D01*
X154023809Y-63833333D01*
X154023809Y-64071429D01*
X154071428Y-64261905D01*
X154119047Y-64357143D01*
X154166666Y-64404762D01*
X154261904Y-64452381D01*
X154357143Y-64452381D01*
X154452381Y-64404762D01*
X154500000Y-64357143D01*
X154547619Y-64261905D01*
X154595238Y-64071429D01*
X154595238Y-63833333D01*
X154547619Y-63642857D01*
X154500000Y-63547619D01*
X154452381Y-63500000D01*
X154357143Y-63452381D01*
X153833333Y-64547619D02*
X153071428Y-64547619D01*
X152261904Y-64452381D02*
X152595238Y-63976190D01*
X152833333Y-64452381D02*
X152833333Y-63452381D01*
X152452380Y-63452381D01*
X152357142Y-63500000D01*
X152309523Y-63547619D01*
X152261904Y-63642857D01*
X152261904Y-63785714D01*
X152309523Y-63880952D01*
X152357142Y-63928571D01*
X152452380Y-63976190D01*
X152833333Y-63976190D01*
X156785714Y-61952381D02*
X157261905Y-61952381D01*
X157261905Y-60952381D01*
X156452381Y-61428571D02*
X156119047Y-61428571D01*
X155976190Y-61952381D02*
X156452381Y-61952381D01*
X156452381Y-60952381D01*
X155976190Y-60952381D01*
X155547619Y-61952381D02*
X155547619Y-60952381D01*
X155309524Y-60952381D01*
X155166666Y-61000000D01*
X155071428Y-61095238D01*
X155023809Y-61190476D01*
X154976190Y-61380952D01*
X154976190Y-61523810D01*
X155023809Y-61714286D01*
X155071428Y-61809524D01*
X155166666Y-61904762D01*
X155309524Y-61952381D01*
X155547619Y-61952381D01*
X154357143Y-60952381D02*
X154261904Y-60952381D01*
X154166666Y-61000000D01*
X154119047Y-61047619D01*
X154071428Y-61142857D01*
X154023809Y-61333333D01*
X154023809Y-61571429D01*
X154071428Y-61761905D01*
X154119047Y-61857143D01*
X154166666Y-61904762D01*
X154261904Y-61952381D01*
X154357143Y-61952381D01*
X154452381Y-61904762D01*
X154500000Y-61857143D01*
X154547619Y-61761905D01*
X154595238Y-61571429D01*
X154595238Y-61333333D01*
X154547619Y-61142857D01*
X154500000Y-61047619D01*
X154452381Y-61000000D01*
X154357143Y-60952381D01*
X153833333Y-62047619D02*
X153071428Y-62047619D01*
X152309523Y-61000000D02*
X152404761Y-60952381D01*
X152547618Y-60952381D01*
X152690476Y-61000000D01*
X152785714Y-61095238D01*
X152833333Y-61190476D01*
X152880952Y-61380952D01*
X152880952Y-61523810D01*
X152833333Y-61714286D01*
X152785714Y-61809524D01*
X152690476Y-61904762D01*
X152547618Y-61952381D01*
X152452380Y-61952381D01*
X152309523Y-61904762D01*
X152261904Y-61857143D01*
X152261904Y-61523810D01*
X152452380Y-61523810D01*
X156785714Y-60202381D02*
X157261905Y-60202381D01*
X157261905Y-59202381D01*
X156452381Y-59678571D02*
X156119047Y-59678571D01*
X155976190Y-60202381D02*
X156452381Y-60202381D01*
X156452381Y-59202381D01*
X155976190Y-59202381D01*
X155547619Y-60202381D02*
X155547619Y-59202381D01*
X155309524Y-59202381D01*
X155166666Y-59250000D01*
X155071428Y-59345238D01*
X155023809Y-59440476D01*
X154976190Y-59630952D01*
X154976190Y-59773810D01*
X155023809Y-59964286D01*
X155071428Y-60059524D01*
X155166666Y-60154762D01*
X155309524Y-60202381D01*
X155547619Y-60202381D01*
X154023809Y-60202381D02*
X154595238Y-60202381D01*
X154309524Y-60202381D02*
X154309524Y-59202381D01*
X154404762Y-59345238D01*
X154500000Y-59440476D01*
X154595238Y-59488095D01*
X153833333Y-60297619D02*
X153071428Y-60297619D01*
X152499999Y-59678571D02*
X152357142Y-59726190D01*
X152309523Y-59773810D01*
X152261904Y-59869048D01*
X152261904Y-60011905D01*
X152309523Y-60107143D01*
X152357142Y-60154762D01*
X152452380Y-60202381D01*
X152833333Y-60202381D01*
X152833333Y-59202381D01*
X152499999Y-59202381D01*
X152404761Y-59250000D01*
X152357142Y-59297619D01*
X152309523Y-59392857D01*
X152309523Y-59488095D01*
X152357142Y-59583333D01*
X152404761Y-59630952D01*
X152499999Y-59678571D01*
X152833333Y-59678571D01*
X157261905Y-56952381D02*
X157261905Y-55952381D01*
X156214286Y-56952381D02*
X156547620Y-56476190D01*
X156785715Y-56952381D02*
X156785715Y-55952381D01*
X156404762Y-55952381D01*
X156309524Y-56000000D01*
X156261905Y-56047619D01*
X156214286Y-56142857D01*
X156214286Y-56285714D01*
X156261905Y-56380952D01*
X156309524Y-56428571D01*
X156404762Y-56476190D01*
X156785715Y-56476190D01*
X151369047Y-108452381D02*
X151845238Y-108452381D01*
X151845238Y-107452381D01*
X151035714Y-107928571D02*
X150702380Y-107928571D01*
X150559523Y-108452381D02*
X151035714Y-108452381D01*
X151035714Y-107452381D01*
X150559523Y-107452381D01*
X150130952Y-108452381D02*
X150130952Y-107452381D01*
X149892857Y-107452381D01*
X149749999Y-107500000D01*
X149654761Y-107595238D01*
X149607142Y-107690476D01*
X149559523Y-107880952D01*
X149559523Y-108023810D01*
X149607142Y-108214286D01*
X149654761Y-108309524D01*
X149749999Y-108404762D01*
X149892857Y-108452381D01*
X150130952Y-108452381D01*
X148940476Y-107452381D02*
X148845237Y-107452381D01*
X148749999Y-107500000D01*
X148702380Y-107547619D01*
X148654761Y-107642857D01*
X148607142Y-107833333D01*
X148607142Y-108071429D01*
X148654761Y-108261905D01*
X148702380Y-108357143D01*
X148749999Y-108404762D01*
X148845237Y-108452381D01*
X148940476Y-108452381D01*
X149035714Y-108404762D01*
X149083333Y-108357143D01*
X149130952Y-108261905D01*
X149178571Y-108071429D01*
X149178571Y-107833333D01*
X149130952Y-107642857D01*
X149083333Y-107547619D01*
X149035714Y-107500000D01*
X148940476Y-107452381D01*
X163869047Y-108452381D02*
X164345238Y-108452381D01*
X164345238Y-107452381D01*
X163535714Y-107928571D02*
X163202380Y-107928571D01*
X163059523Y-108452381D02*
X163535714Y-108452381D01*
X163535714Y-107452381D01*
X163059523Y-107452381D01*
X162630952Y-108452381D02*
X162630952Y-107452381D01*
X162392857Y-107452381D01*
X162249999Y-107500000D01*
X162154761Y-107595238D01*
X162107142Y-107690476D01*
X162059523Y-107880952D01*
X162059523Y-108023810D01*
X162107142Y-108214286D01*
X162154761Y-108309524D01*
X162249999Y-108404762D01*
X162392857Y-108452381D01*
X162630952Y-108452381D01*
X161107142Y-108452381D02*
X161678571Y-108452381D01*
X161392857Y-108452381D02*
X161392857Y-107452381D01*
X161488095Y-107595238D01*
X161583333Y-107690476D01*
X161678571Y-107738095D01*
X158588095Y-108750000D02*
X158683333Y-108702381D01*
X158826190Y-108702381D01*
X158969048Y-108750000D01*
X159064286Y-108845238D01*
X159111905Y-108940476D01*
X159159524Y-109130952D01*
X159159524Y-109273810D01*
X159111905Y-109464286D01*
X159064286Y-109559524D01*
X158969048Y-109654762D01*
X158826190Y-109702381D01*
X158730952Y-109702381D01*
X158588095Y-109654762D01*
X158540476Y-109607143D01*
X158540476Y-109273810D01*
X158730952Y-109273810D01*
X161140476Y-109702381D02*
X161473810Y-109226190D01*
X161711905Y-109702381D02*
X161711905Y-108702381D01*
X161330952Y-108702381D01*
X161235714Y-108750000D01*
X161188095Y-108797619D01*
X161140476Y-108892857D01*
X161140476Y-109035714D01*
X161188095Y-109130952D01*
X161235714Y-109178571D01*
X161330952Y-109226190D01*
X161711905Y-109226190D01*
X163928571Y-109178571D02*
X163785714Y-109226190D01*
X163738095Y-109273810D01*
X163690476Y-109369048D01*
X163690476Y-109511905D01*
X163738095Y-109607143D01*
X163785714Y-109654762D01*
X163880952Y-109702381D01*
X164261905Y-109702381D01*
X164261905Y-108702381D01*
X163928571Y-108702381D01*
X163833333Y-108750000D01*
X163785714Y-108797619D01*
X163738095Y-108892857D01*
X163738095Y-108988095D01*
X163785714Y-109083333D01*
X163833333Y-109130952D01*
X163928571Y-109178571D01*
X164261905Y-109178571D01*
X167690476Y-108702381D02*
X167357143Y-109702381D01*
X167023809Y-108702381D01*
X166261904Y-109654762D02*
X166357142Y-109702381D01*
X166547619Y-109702381D01*
X166642857Y-109654762D01*
X166690476Y-109607143D01*
X166738095Y-109511905D01*
X166738095Y-109226190D01*
X166690476Y-109130952D01*
X166642857Y-109083333D01*
X166547619Y-109035714D01*
X166357142Y-109035714D01*
X166261904Y-109083333D01*
X165404761Y-109654762D02*
X165499999Y-109702381D01*
X165690476Y-109702381D01*
X165785714Y-109654762D01*
X165833333Y-109607143D01*
X165880952Y-109511905D01*
X165880952Y-109226190D01*
X165833333Y-109130952D01*
X165785714Y-109083333D01*
X165690476Y-109035714D01*
X165499999Y-109035714D01*
X165404761Y-109083333D01*
X146088095Y-108750000D02*
X146183333Y-108702381D01*
X146326190Y-108702381D01*
X146469048Y-108750000D01*
X146564286Y-108845238D01*
X146611905Y-108940476D01*
X146659524Y-109130952D01*
X146659524Y-109273810D01*
X146611905Y-109464286D01*
X146564286Y-109559524D01*
X146469048Y-109654762D01*
X146326190Y-109702381D01*
X146230952Y-109702381D01*
X146088095Y-109654762D01*
X146040476Y-109607143D01*
X146040476Y-109273810D01*
X146230952Y-109273810D01*
X148640476Y-109702381D02*
X148973810Y-109226190D01*
X149211905Y-109702381D02*
X149211905Y-108702381D01*
X148830952Y-108702381D01*
X148735714Y-108750000D01*
X148688095Y-108797619D01*
X148640476Y-108892857D01*
X148640476Y-109035714D01*
X148688095Y-109130952D01*
X148735714Y-109178571D01*
X148830952Y-109226190D01*
X149211905Y-109226190D01*
X151428571Y-109178571D02*
X151285714Y-109226190D01*
X151238095Y-109273810D01*
X151190476Y-109369048D01*
X151190476Y-109511905D01*
X151238095Y-109607143D01*
X151285714Y-109654762D01*
X151380952Y-109702381D01*
X151761905Y-109702381D01*
X151761905Y-108702381D01*
X151428571Y-108702381D01*
X151333333Y-108750000D01*
X151285714Y-108797619D01*
X151238095Y-108892857D01*
X151238095Y-108988095D01*
X151285714Y-109083333D01*
X151333333Y-109130952D01*
X151428571Y-109178571D01*
X151761905Y-109178571D01*
X155190476Y-108702381D02*
X154857143Y-109702381D01*
X154523809Y-108702381D01*
X153761904Y-109654762D02*
X153857142Y-109702381D01*
X154047619Y-109702381D01*
X154142857Y-109654762D01*
X154190476Y-109607143D01*
X154238095Y-109511905D01*
X154238095Y-109226190D01*
X154190476Y-109130952D01*
X154142857Y-109083333D01*
X154047619Y-109035714D01*
X153857142Y-109035714D01*
X153761904Y-109083333D01*
X152904761Y-109654762D02*
X152999999Y-109702381D01*
X153190476Y-109702381D01*
X153285714Y-109654762D01*
X153333333Y-109607143D01*
X153380952Y-109511905D01*
X153380952Y-109226190D01*
X153333333Y-109130952D01*
X153285714Y-109083333D01*
X153190476Y-109035714D01*
X152999999Y-109035714D01*
X152904761Y-109083333D01*
X140261905Y-109702381D02*
X140261905Y-108702381D01*
X140071429Y-108702381D01*
X139957143Y-108750000D01*
X139880952Y-108845238D01*
X139842857Y-108940476D01*
X139804762Y-109130952D01*
X139804762Y-109273810D01*
X139842857Y-109464286D01*
X139880952Y-109559524D01*
X139957143Y-109654762D01*
X140071429Y-109702381D01*
X140261905Y-109702381D01*
X139461905Y-109702381D02*
X139461905Y-109035714D01*
X139461905Y-108702381D02*
X139500000Y-108750000D01*
X139461905Y-108797619D01*
X139423810Y-108750000D01*
X139461905Y-108702381D01*
X139461905Y-108797619D01*
X139080953Y-109035714D02*
X139080953Y-109702381D01*
X139080953Y-109130952D02*
X139042858Y-109083333D01*
X138966667Y-109035714D01*
X138852381Y-109035714D01*
X138776191Y-109083333D01*
X138738096Y-109178571D01*
X138738096Y-109702381D01*
X138190476Y-108702381D02*
X137857143Y-109702381D01*
X137523809Y-108702381D01*
X136761904Y-109654762D02*
X136857142Y-109702381D01*
X137047619Y-109702381D01*
X137142857Y-109654762D01*
X137190476Y-109607143D01*
X137238095Y-109511905D01*
X137238095Y-109226190D01*
X137190476Y-109130952D01*
X137142857Y-109083333D01*
X137047619Y-109035714D01*
X136857142Y-109035714D01*
X136761904Y-109083333D01*
X135904761Y-109654762D02*
X135999999Y-109702381D01*
X136190476Y-109702381D01*
X136285714Y-109654762D01*
X136333333Y-109607143D01*
X136380952Y-109511905D01*
X136380952Y-109226190D01*
X136333333Y-109130952D01*
X136285714Y-109083333D01*
X136190476Y-109035714D01*
X135999999Y-109035714D01*
X135904761Y-109083333D01*
X142609523Y-108750000D02*
X142685714Y-108702381D01*
X142799999Y-108702381D01*
X142914285Y-108750000D01*
X142990476Y-108845238D01*
X143028571Y-108940476D01*
X143066666Y-109130952D01*
X143066666Y-109273810D01*
X143028571Y-109464286D01*
X142990476Y-109559524D01*
X142914285Y-109654762D01*
X142799999Y-109702381D01*
X142723809Y-109702381D01*
X142609523Y-109654762D01*
X142571428Y-109607143D01*
X142571428Y-109273810D01*
X142723809Y-109273810D01*
X142228571Y-109702381D02*
X142228571Y-108702381D01*
X141771428Y-109702381D01*
X141771428Y-108702381D01*
X141390476Y-109702381D02*
X141390476Y-108702381D01*
X141200000Y-108702381D01*
X141085714Y-108750000D01*
X141009523Y-108845238D01*
X140971428Y-108940476D01*
X140933333Y-109130952D01*
X140933333Y-109273810D01*
X140971428Y-109464286D01*
X141009523Y-109559524D01*
X141085714Y-109654762D01*
X141200000Y-109702381D01*
X141390476Y-109702381D01*
X127500000Y-109702381D02*
X127500000Y-108702381D01*
X126452381Y-109702381D02*
X126785715Y-109226190D01*
X127023810Y-109702381D02*
X127023810Y-108702381D01*
X126642857Y-108702381D01*
X126547619Y-108750000D01*
X126500000Y-108797619D01*
X126452381Y-108892857D01*
X126452381Y-109035714D01*
X126500000Y-109130952D01*
X126547619Y-109178571D01*
X126642857Y-109226190D01*
X127023810Y-109226190D01*
X130109523Y-108750000D02*
X130185714Y-108702381D01*
X130299999Y-108702381D01*
X130414285Y-108750000D01*
X130490476Y-108845238D01*
X130528571Y-108940476D01*
X130566666Y-109130952D01*
X130566666Y-109273810D01*
X130528571Y-109464286D01*
X130490476Y-109559524D01*
X130414285Y-109654762D01*
X130299999Y-109702381D01*
X130223809Y-109702381D01*
X130109523Y-109654762D01*
X130071428Y-109607143D01*
X130071428Y-109273810D01*
X130223809Y-109273810D01*
X129728571Y-109702381D02*
X129728571Y-108702381D01*
X129271428Y-109702381D01*
X129271428Y-108702381D01*
X128890476Y-109702381D02*
X128890476Y-108702381D01*
X128700000Y-108702381D01*
X128585714Y-108750000D01*
X128509523Y-108845238D01*
X128471428Y-108940476D01*
X128433333Y-109130952D01*
X128433333Y-109273810D01*
X128471428Y-109464286D01*
X128509523Y-109559524D01*
X128585714Y-109654762D01*
X128700000Y-109702381D01*
X128890476Y-109702381D01*
X132190476Y-108702381D02*
X132666667Y-108702381D01*
X132714286Y-109178571D01*
X132666667Y-109130952D01*
X132571429Y-109083333D01*
X132333333Y-109083333D01*
X132238095Y-109130952D01*
X132190476Y-109178571D01*
X132142857Y-109273810D01*
X132142857Y-109511905D01*
X132190476Y-109607143D01*
X132238095Y-109654762D01*
X132333333Y-109702381D01*
X132571429Y-109702381D01*
X132666667Y-109654762D01*
X132714286Y-109607143D01*
X131857143Y-108702381D02*
X131523810Y-109702381D01*
X131190476Y-108702381D01*
X134035714Y-85452381D02*
X134511905Y-85452381D01*
X134559524Y-85928571D01*
X134511905Y-85880952D01*
X134416667Y-85833333D01*
X134178571Y-85833333D01*
X134083333Y-85880952D01*
X134035714Y-85928571D01*
X133988095Y-86023810D01*
X133988095Y-86261905D01*
X134035714Y-86357143D01*
X134083333Y-86404762D01*
X134178571Y-86452381D01*
X134416667Y-86452381D01*
X134511905Y-86404762D01*
X134559524Y-86357143D01*
X133702381Y-85452381D02*
X133369048Y-86452381D01*
X133035714Y-85452381D01*
X133988095Y-80500000D02*
X134083333Y-80452381D01*
X134226190Y-80452381D01*
X134369048Y-80500000D01*
X134464286Y-80595238D01*
X134511905Y-80690476D01*
X134559524Y-80880952D01*
X134559524Y-81023810D01*
X134511905Y-81214286D01*
X134464286Y-81309524D01*
X134369048Y-81404762D01*
X134226190Y-81452381D01*
X134130952Y-81452381D01*
X133988095Y-81404762D01*
X133940476Y-81357143D01*
X133940476Y-81023810D01*
X134130952Y-81023810D01*
X133511905Y-81452381D02*
X133511905Y-80452381D01*
X132940476Y-81452381D01*
X132940476Y-80452381D01*
X132464286Y-81452381D02*
X132464286Y-80452381D01*
X132226191Y-80452381D01*
X132083333Y-80500000D01*
X131988095Y-80595238D01*
X131940476Y-80690476D01*
X131892857Y-80880952D01*
X131892857Y-81023810D01*
X131940476Y-81214286D01*
X131988095Y-81309524D01*
X132083333Y-81404762D01*
X132226191Y-81452381D01*
X132464286Y-81452381D01*
X128511904Y-63250000D02*
X128607142Y-63202381D01*
X128749999Y-63202381D01*
X128892857Y-63250000D01*
X128988095Y-63345238D01*
X129035714Y-63440476D01*
X129083333Y-63630952D01*
X129083333Y-63773810D01*
X129035714Y-63964286D01*
X128988095Y-64059524D01*
X128892857Y-64154762D01*
X128749999Y-64202381D01*
X128654761Y-64202381D01*
X128511904Y-64154762D01*
X128464285Y-64107143D01*
X128464285Y-63773810D01*
X128654761Y-63773810D01*
X128035714Y-64202381D02*
X128035714Y-63202381D01*
X127464285Y-64202381D01*
X127464285Y-63202381D01*
X126988095Y-64202381D02*
X126988095Y-63202381D01*
X126750000Y-63202381D01*
X126607142Y-63250000D01*
X126511904Y-63345238D01*
X126464285Y-63440476D01*
X126416666Y-63630952D01*
X126416666Y-63773810D01*
X126464285Y-63964286D01*
X126511904Y-64059524D01*
X126607142Y-64154762D01*
X126750000Y-64202381D01*
X126988095Y-64202381D01*
X133119047Y-61952381D02*
X133690476Y-61952381D01*
X133404762Y-61952381D02*
X133404762Y-60952381D01*
X133500000Y-61095238D01*
X133595238Y-61190476D01*
X133690476Y-61238095D01*
X132738095Y-61047619D02*
X132690476Y-61000000D01*
X132595238Y-60952381D01*
X132357142Y-60952381D01*
X132261904Y-61000000D01*
X132214285Y-61047619D01*
X132166666Y-61142857D01*
X132166666Y-61238095D01*
X132214285Y-61380952D01*
X132785714Y-61952381D01*
X132166666Y-61952381D01*
X131880952Y-60952381D02*
X131547619Y-61952381D01*
X131214285Y-60952381D01*
D14*
X163214286Y-95475000D02*
X162500000Y-95475000D01*
X163357143Y-95903571D02*
X162857143Y-94403571D01*
X162357143Y-95903571D01*
X161857143Y-95903571D02*
X161857143Y-94903571D01*
X161857143Y-95189286D02*
X161785715Y-95046429D01*
X161714286Y-94975000D01*
X161571429Y-94903571D01*
X161428572Y-94903571D01*
X160285715Y-95903571D02*
X160285715Y-94403571D01*
X160285715Y-95832143D02*
X160428572Y-95903571D01*
X160714286Y-95903571D01*
X160857144Y-95832143D01*
X160928572Y-95760714D01*
X161000001Y-95617857D01*
X161000001Y-95189286D01*
X160928572Y-95046429D01*
X160857144Y-94975000D01*
X160714286Y-94903571D01*
X160428572Y-94903571D01*
X160285715Y-94975000D01*
X158928572Y-94903571D02*
X158928572Y-95903571D01*
X159571429Y-94903571D02*
X159571429Y-95689286D01*
X159500001Y-95832143D01*
X159357143Y-95903571D01*
X159142858Y-95903571D01*
X159000001Y-95832143D01*
X158928572Y-95760714D01*
X158214286Y-95903571D02*
X158214286Y-94903571D01*
X158214286Y-94403571D02*
X158285715Y-94475000D01*
X158214286Y-94546429D01*
X158142858Y-94475000D01*
X158214286Y-94403571D01*
X158214286Y-94546429D01*
X157500000Y-94903571D02*
X157500000Y-95903571D01*
X157500000Y-95046429D02*
X157428572Y-94975000D01*
X157285714Y-94903571D01*
X157071429Y-94903571D01*
X156928572Y-94975000D01*
X156857143Y-95117857D01*
X156857143Y-95903571D01*
X155928571Y-95903571D02*
X156071429Y-95832143D01*
X156142857Y-95760714D01*
X156214286Y-95617857D01*
X156214286Y-95189286D01*
X156142857Y-95046429D01*
X156071429Y-94975000D01*
X155928571Y-94903571D01*
X155714286Y-94903571D01*
X155571429Y-94975000D01*
X155500000Y-95046429D01*
X155428571Y-95189286D01*
X155428571Y-95617857D01*
X155500000Y-95760714D01*
X155571429Y-95832143D01*
X155714286Y-95903571D01*
X155928571Y-95903571D01*
X152928571Y-95903571D02*
X153642857Y-95903571D01*
X153642857Y-94403571D01*
X152428571Y-95117857D02*
X151928571Y-95117857D01*
X151714285Y-95903571D02*
X152428571Y-95903571D01*
X152428571Y-94403571D01*
X151714285Y-94403571D01*
X151071428Y-95903571D02*
X151071428Y-94403571D01*
X150714285Y-94403571D01*
X150500000Y-94475000D01*
X150357142Y-94617857D01*
X150285714Y-94760714D01*
X150214285Y-95046429D01*
X150214285Y-95260714D01*
X150285714Y-95546429D01*
X150357142Y-95689286D01*
X150500000Y-95832143D01*
X150714285Y-95903571D01*
X151071428Y-95903571D01*
X148500000Y-95832143D02*
X148285714Y-95903571D01*
X147928571Y-95903571D01*
X147785714Y-95832143D01*
X147714285Y-95760714D01*
X147642857Y-95617857D01*
X147642857Y-95475000D01*
X147714285Y-95332143D01*
X147785714Y-95260714D01*
X147928571Y-95189286D01*
X148214285Y-95117857D01*
X148357143Y-95046429D01*
X148428571Y-94975000D01*
X148500000Y-94832143D01*
X148500000Y-94689286D01*
X148428571Y-94546429D01*
X148357143Y-94475000D01*
X148214285Y-94403571D01*
X147857143Y-94403571D01*
X147642857Y-94475000D01*
X147214286Y-94903571D02*
X146642857Y-94903571D01*
X147000000Y-94403571D02*
X147000000Y-95689286D01*
X146928572Y-95832143D01*
X146785714Y-95903571D01*
X146642857Y-95903571D01*
X146142857Y-95903571D02*
X146142857Y-94903571D01*
X146142857Y-95189286D02*
X146071429Y-95046429D01*
X146000000Y-94975000D01*
X145857143Y-94903571D01*
X145714286Y-94903571D01*
X145214286Y-95903571D02*
X145214286Y-94903571D01*
X145214286Y-94403571D02*
X145285715Y-94475000D01*
X145214286Y-94546429D01*
X145142858Y-94475000D01*
X145214286Y-94403571D01*
X145214286Y-94546429D01*
X144500000Y-94903571D02*
X144500000Y-96403571D01*
X144500000Y-94975000D02*
X144357143Y-94903571D01*
X144071429Y-94903571D01*
X143928572Y-94975000D01*
X143857143Y-95046429D01*
X143785714Y-95189286D01*
X143785714Y-95617857D01*
X143857143Y-95760714D01*
X143928572Y-95832143D01*
X144071429Y-95903571D01*
X144357143Y-95903571D01*
X144500000Y-95832143D01*
X142214286Y-94403571D02*
X141714286Y-95903571D01*
X141214286Y-94403571D01*
X139928572Y-95903571D02*
X140785715Y-95903571D01*
X140357143Y-95903571D02*
X140357143Y-94403571D01*
X140500000Y-94617857D01*
X140642858Y-94760714D01*
X140785715Y-94832143D01*
X139285715Y-95903571D02*
X139285715Y-94903571D01*
X139285715Y-95189286D02*
X139214287Y-95046429D01*
X139142858Y-94975000D01*
X139000001Y-94903571D01*
X138857144Y-94903571D01*
X138428573Y-94546429D02*
X138357144Y-94475000D01*
X138214287Y-94403571D01*
X137857144Y-94403571D01*
X137714287Y-94475000D01*
X137642858Y-94546429D01*
X137571430Y-94689286D01*
X137571430Y-94832143D01*
X137642858Y-95046429D01*
X138500001Y-95903571D01*
X137571430Y-95903571D01*
X162642857Y-97667857D02*
X162428571Y-97739286D01*
X162357143Y-97810714D01*
X162285714Y-97953571D01*
X162285714Y-98167857D01*
X162357143Y-98310714D01*
X162428571Y-98382143D01*
X162571429Y-98453571D01*
X163142857Y-98453571D01*
X163142857Y-96953571D01*
X162642857Y-96953571D01*
X162500000Y-97025000D01*
X162428571Y-97096429D01*
X162357143Y-97239286D01*
X162357143Y-97382143D01*
X162428571Y-97525000D01*
X162500000Y-97596429D01*
X162642857Y-97667857D01*
X163142857Y-97667857D01*
X161785714Y-97453571D02*
X161428571Y-98453571D01*
X161071429Y-97453571D02*
X161428571Y-98453571D01*
X161571429Y-98810714D01*
X161642857Y-98882143D01*
X161785714Y-98953571D01*
X158571429Y-97025000D02*
X158714286Y-96953571D01*
X158928572Y-96953571D01*
X159142857Y-97025000D01*
X159285715Y-97167857D01*
X159357143Y-97310714D01*
X159428572Y-97596429D01*
X159428572Y-97810714D01*
X159357143Y-98096429D01*
X159285715Y-98239286D01*
X159142857Y-98382143D01*
X158928572Y-98453571D01*
X158785715Y-98453571D01*
X158571429Y-98382143D01*
X158500000Y-98310714D01*
X158500000Y-97810714D01*
X158785715Y-97810714D01*
X157642857Y-98453571D02*
X157785715Y-98382143D01*
X157857143Y-98310714D01*
X157928572Y-98167857D01*
X157928572Y-97739286D01*
X157857143Y-97596429D01*
X157785715Y-97525000D01*
X157642857Y-97453571D01*
X157428572Y-97453571D01*
X157285715Y-97525000D01*
X157214286Y-97596429D01*
X157142857Y-97739286D01*
X157142857Y-98167857D01*
X157214286Y-98310714D01*
X157285715Y-98382143D01*
X157428572Y-98453571D01*
X157642857Y-98453571D01*
X156500000Y-98453571D02*
X156500000Y-96953571D01*
X155785714Y-97453571D02*
X155785714Y-98453571D01*
X155785714Y-97596429D02*
X155714286Y-97525000D01*
X155571428Y-97453571D01*
X155357143Y-97453571D01*
X155214286Y-97525000D01*
X155142857Y-97667857D01*
X155142857Y-98453571D01*
X154428571Y-98453571D02*
X154428571Y-96953571D01*
X153571428Y-98453571D02*
X154214285Y-97596429D01*
X153571428Y-96953571D02*
X154428571Y-97810714D01*
X152857143Y-98382143D02*
X152857143Y-98453571D01*
X152928571Y-98596429D01*
X153000000Y-98667857D01*
X151142857Y-97096429D02*
X151071428Y-97025000D01*
X150928571Y-96953571D01*
X150571428Y-96953571D01*
X150428571Y-97025000D01*
X150357142Y-97096429D01*
X150285714Y-97239286D01*
X150285714Y-97382143D01*
X150357142Y-97596429D01*
X151214285Y-98453571D01*
X150285714Y-98453571D01*
X149357143Y-96953571D02*
X149214286Y-96953571D01*
X149071429Y-97025000D01*
X149000000Y-97096429D01*
X148928571Y-97239286D01*
X148857143Y-97525000D01*
X148857143Y-97882143D01*
X148928571Y-98167857D01*
X149000000Y-98310714D01*
X149071429Y-98382143D01*
X149214286Y-98453571D01*
X149357143Y-98453571D01*
X149500000Y-98382143D01*
X149571429Y-98310714D01*
X149642857Y-98167857D01*
X149714286Y-97882143D01*
X149714286Y-97525000D01*
X149642857Y-97239286D01*
X149571429Y-97096429D01*
X149500000Y-97025000D01*
X149357143Y-96953571D01*
X147428572Y-98453571D02*
X148285715Y-98453571D01*
X147857143Y-98453571D02*
X147857143Y-96953571D01*
X148000000Y-97167857D01*
X148142858Y-97310714D01*
X148285715Y-97382143D01*
X146571429Y-97596429D02*
X146714287Y-97525000D01*
X146785715Y-97453571D01*
X146857144Y-97310714D01*
X146857144Y-97239286D01*
X146785715Y-97096429D01*
X146714287Y-97025000D01*
X146571429Y-96953571D01*
X146285715Y-96953571D01*
X146142858Y-97025000D01*
X146071429Y-97096429D01*
X146000001Y-97239286D01*
X146000001Y-97310714D01*
X146071429Y-97453571D01*
X146142858Y-97525000D01*
X146285715Y-97596429D01*
X146571429Y-97596429D01*
X146714287Y-97667857D01*
X146785715Y-97739286D01*
X146857144Y-97882143D01*
X146857144Y-98167857D01*
X146785715Y-98310714D01*
X146714287Y-98382143D01*
X146571429Y-98453571D01*
X146285715Y-98453571D01*
X146142858Y-98382143D01*
X146071429Y-98310714D01*
X146000001Y-98167857D01*
X146000001Y-97882143D01*
X146071429Y-97739286D01*
X146142858Y-97667857D01*
X146285715Y-97596429D01*
X144285716Y-96882143D02*
X145571430Y-98810714D01*
X143500001Y-96953571D02*
X143357144Y-96953571D01*
X143214287Y-97025000D01*
X143142858Y-97096429D01*
X143071429Y-97239286D01*
X143000001Y-97525000D01*
X143000001Y-97882143D01*
X143071429Y-98167857D01*
X143142858Y-98310714D01*
X143214287Y-98382143D01*
X143357144Y-98453571D01*
X143500001Y-98453571D01*
X143642858Y-98382143D01*
X143714287Y-98310714D01*
X143785715Y-98167857D01*
X143857144Y-97882143D01*
X143857144Y-97525000D01*
X143785715Y-97239286D01*
X143714287Y-97096429D01*
X143642858Y-97025000D01*
X143500001Y-96953571D01*
X141571430Y-98453571D02*
X142428573Y-98453571D01*
X142000001Y-98453571D02*
X142000001Y-96953571D01*
X142142858Y-97167857D01*
X142285716Y-97310714D01*
X142428573Y-97382143D01*
X139857145Y-96882143D02*
X141142859Y-98810714D01*
X138571430Y-98453571D02*
X139428573Y-98453571D01*
X139000001Y-98453571D02*
X139000001Y-96953571D01*
X139142858Y-97167857D01*
X139285716Y-97310714D01*
X139428573Y-97382143D01*
X137285716Y-97453571D02*
X137285716Y-98453571D01*
X137642859Y-96882143D02*
X138000002Y-97953571D01*
X137071430Y-97953571D01*
D15*
G36*
X142855001Y-65944876D02*
X142708765Y-66133160D01*
X142517607Y-66413338D01*
X142301159Y-66757892D01*
X142267038Y-66814573D01*
X141705277Y-67753146D01*
X142084856Y-68197448D01*
X142331037Y-68522741D01*
X142568226Y-68896187D01*
X142699051Y-69142708D01*
X142817956Y-69421625D01*
X142888913Y-69673436D01*
X142923569Y-69960836D01*
X142933570Y-70346524D01*
X142933667Y-70405667D01*
X142925717Y-70810633D01*
X142894351Y-71108629D01*
X142828291Y-71361583D01*
X142716261Y-71631421D01*
X142706755Y-71651796D01*
X142517205Y-71987101D01*
X142267404Y-72341891D01*
X142087397Y-72555483D01*
X141694950Y-72975041D01*
X141834680Y-73245249D01*
X141916860Y-73441909D01*
X141908432Y-73559912D01*
X141794559Y-73602181D01*
X141560405Y-73571642D01*
X141191136Y-73471219D01*
X140996914Y-73410423D01*
X140519027Y-73233359D01*
X140115602Y-73037153D01*
X139811052Y-72837089D01*
X139629795Y-72648446D01*
X139589333Y-72529403D01*
X139523357Y-72388985D01*
X139357299Y-72209328D01*
X139138969Y-72033667D01*
X138916176Y-71905239D01*
X138885322Y-71892720D01*
X138550643Y-71810664D01*
X138281596Y-71862189D01*
X138027253Y-72058045D01*
X138008311Y-72077833D01*
X137766785Y-72371707D01*
X137543484Y-72729165D01*
X137330398Y-73169545D01*
X137119513Y-73712185D01*
X136902818Y-74376422D01*
X136672299Y-75181594D01*
X136580926Y-75522789D01*
X136474889Y-75945622D01*
X136410644Y-76279129D01*
X136381500Y-76589900D01*
X136380766Y-76944527D01*
X136398118Y-77342173D01*
X136506580Y-78348378D01*
X136725121Y-79247662D01*
X137063932Y-80069844D01*
X137533208Y-80844741D01*
X137650739Y-81006192D01*
X137887270Y-81305586D01*
X138108098Y-81536084D01*
X138360758Y-81738132D01*
X138692783Y-81952177D01*
X138919066Y-82085401D01*
X139392425Y-82350970D01*
X139800191Y-82554449D01*
X140181120Y-82706766D01*
X140573970Y-82818850D01*
X141017498Y-82901630D01*
X141550462Y-82966033D01*
X142211619Y-83022989D01*
X142256333Y-83026418D01*
X144167673Y-83118173D01*
X146191521Y-83109618D01*
X147675000Y-83044427D01*
X148211423Y-83004449D01*
X148772450Y-82948618D01*
X149296753Y-82883867D01*
X149722999Y-82817127D01*
X149778137Y-82806701D01*
X150197251Y-82717101D01*
X150505852Y-82625879D01*
X150761422Y-82510202D01*
X151021447Y-82347232D01*
X151132803Y-82268571D01*
X151578219Y-81918329D01*
X151994965Y-81536391D01*
X152346213Y-81159673D01*
X152595133Y-80825092D01*
X152626935Y-80770925D01*
X153040854Y-79980895D01*
X153341287Y-79289506D01*
X153531275Y-78672536D01*
X153613861Y-78105765D01*
X153592088Y-77564972D01*
X153468998Y-77025938D01*
X153247634Y-76464440D01*
X153184496Y-76332333D01*
X153006610Y-76009837D01*
X152784412Y-75688151D01*
X152496964Y-75342599D01*
X152123326Y-74948505D01*
X151642559Y-74481194D01*
X151499176Y-74346292D01*
X151132258Y-73977174D01*
X150898710Y-73668538D01*
X150788220Y-73391259D01*
X150790477Y-73116210D01*
X150895169Y-72814266D01*
X150930954Y-72741277D01*
X151178859Y-72376578D01*
X151521900Y-72092729D01*
X151990979Y-71866449D01*
X152180675Y-71799796D01*
X152872495Y-71516925D01*
X153473633Y-71157354D01*
X153951228Y-70741914D01*
X154072868Y-70600238D01*
X154310312Y-70238961D01*
X154400278Y-69931925D01*
X154346934Y-69658024D01*
X154281157Y-69545439D01*
X154202663Y-69461059D01*
X154084854Y-69404744D01*
X153891783Y-69368416D01*
X153629098Y-69347333D01*
X149580000Y-69347333D01*
X149522487Y-69526791D01*
X149382971Y-69721156D01*
X149372182Y-69732182D01*
X149180037Y-69875334D01*
X148996803Y-69939721D01*
X148987333Y-69940000D01*
X148807876Y-69882487D01*
X148613511Y-69742970D01*
X148602485Y-69732182D01*
X148459333Y-69540037D01*
X148394946Y-69356802D01*
X148394667Y-69347333D01*
X148452180Y-69167875D01*
X148591696Y-68973511D01*
X148602485Y-68962485D01*
X148794630Y-68819332D01*
X148977864Y-68754945D01*
X148987333Y-68754667D01*
X149166791Y-68812180D01*
X149361156Y-68951696D01*
X149372182Y-68962485D01*
X149515334Y-69154630D01*
X149579721Y-69337864D01*
X149580000Y-69347333D01*
X153629098Y-69347333D01*
X153587507Y-69343995D01*
X153328657Y-69331352D01*
X152816528Y-69293811D01*
X152447704Y-69229712D01*
X152212933Y-69143239D01*
X151819002Y-68896762D01*
X151408997Y-68578099D01*
X151049022Y-68241428D01*
X150887180Y-68056677D01*
X150626120Y-67785471D01*
X150274653Y-67500283D01*
X149888917Y-67240376D01*
X149525052Y-67045014D01*
X149340878Y-66975197D01*
X148887184Y-66876079D01*
X148339237Y-66805778D01*
X147761418Y-66768459D01*
X147218104Y-66768282D01*
X146774531Y-66809268D01*
X146035644Y-67004584D01*
X145381234Y-67320051D01*
X144829732Y-67742097D01*
X144399569Y-68257152D01*
X144149199Y-68742213D01*
X144000243Y-69310954D01*
X143952054Y-69963890D01*
X144004646Y-70649118D01*
X144148425Y-71284183D01*
X144254276Y-71603123D01*
X144366853Y-71878385D01*
X144507055Y-72146823D01*
X144695779Y-72445291D01*
X144953922Y-72810642D01*
X145210420Y-73157085D01*
X145417495Y-73442591D01*
X145578547Y-73681279D01*
X145670808Y-73838554D01*
X145684037Y-73876751D01*
X145603033Y-74075421D01*
X145391867Y-74232609D01*
X145088601Y-74326214D01*
X144881725Y-74342667D01*
X144656696Y-74326372D01*
X144387123Y-74284874D01*
X144124328Y-74229252D01*
X143919631Y-74170587D01*
X143824353Y-74119956D01*
X143822667Y-74114031D01*
X143871269Y-74031667D01*
X143996137Y-73862035D01*
X144106241Y-73721916D01*
X144304309Y-73460554D01*
X144481391Y-73202528D01*
X144541439Y-73104651D01*
X144693063Y-72840301D01*
X144385896Y-72342651D01*
X144069460Y-71776057D01*
X143862713Y-71256189D01*
X143747432Y-70718814D01*
X143705390Y-70099700D01*
X143704162Y-69940000D01*
X143725907Y-69362877D01*
X143799575Y-68905831D01*
X143939463Y-68523841D01*
X144159867Y-68171886D01*
X144332505Y-67961175D01*
X144605037Y-67650778D01*
X144369837Y-67292556D01*
X144203720Y-67071642D01*
X143974190Y-66807643D01*
X143711238Y-66530203D01*
X143444854Y-66268963D01*
X143205030Y-66053568D01*
X143021755Y-65913661D01*
X142936683Y-65876000D01*
X142855001Y-65944876D01*
X142855001Y-65944876D01*
G37*
X142855001Y-65944876D02*
X142708765Y-66133160D01*
X142517607Y-66413338D01*
X142301159Y-66757892D01*
X142267038Y-66814573D01*
X141705277Y-67753146D01*
X142084856Y-68197448D01*
X142331037Y-68522741D01*
X142568226Y-68896187D01*
X142699051Y-69142708D01*
X142817956Y-69421625D01*
X142888913Y-69673436D01*
X142923569Y-69960836D01*
X142933570Y-70346524D01*
X142933667Y-70405667D01*
X142925717Y-70810633D01*
X142894351Y-71108629D01*
X142828291Y-71361583D01*
X142716261Y-71631421D01*
X142706755Y-71651796D01*
X142517205Y-71987101D01*
X142267404Y-72341891D01*
X142087397Y-72555483D01*
X141694950Y-72975041D01*
X141834680Y-73245249D01*
X141916860Y-73441909D01*
X141908432Y-73559912D01*
X141794559Y-73602181D01*
X141560405Y-73571642D01*
X141191136Y-73471219D01*
X140996914Y-73410423D01*
X140519027Y-73233359D01*
X140115602Y-73037153D01*
X139811052Y-72837089D01*
X139629795Y-72648446D01*
X139589333Y-72529403D01*
X139523357Y-72388985D01*
X139357299Y-72209328D01*
X139138969Y-72033667D01*
X138916176Y-71905239D01*
X138885322Y-71892720D01*
X138550643Y-71810664D01*
X138281596Y-71862189D01*
X138027253Y-72058045D01*
X138008311Y-72077833D01*
X137766785Y-72371707D01*
X137543484Y-72729165D01*
X137330398Y-73169545D01*
X137119513Y-73712185D01*
X136902818Y-74376422D01*
X136672299Y-75181594D01*
X136580926Y-75522789D01*
X136474889Y-75945622D01*
X136410644Y-76279129D01*
X136381500Y-76589900D01*
X136380766Y-76944527D01*
X136398118Y-77342173D01*
X136506580Y-78348378D01*
X136725121Y-79247662D01*
X137063932Y-80069844D01*
X137533208Y-80844741D01*
X137650739Y-81006192D01*
X137887270Y-81305586D01*
X138108098Y-81536084D01*
X138360758Y-81738132D01*
X138692783Y-81952177D01*
X138919066Y-82085401D01*
X139392425Y-82350970D01*
X139800191Y-82554449D01*
X140181120Y-82706766D01*
X140573970Y-82818850D01*
X141017498Y-82901630D01*
X141550462Y-82966033D01*
X142211619Y-83022989D01*
X142256333Y-83026418D01*
X144167673Y-83118173D01*
X146191521Y-83109618D01*
X147675000Y-83044427D01*
X148211423Y-83004449D01*
X148772450Y-82948618D01*
X149296753Y-82883867D01*
X149722999Y-82817127D01*
X149778137Y-82806701D01*
X150197251Y-82717101D01*
X150505852Y-82625879D01*
X150761422Y-82510202D01*
X151021447Y-82347232D01*
X151132803Y-82268571D01*
X151578219Y-81918329D01*
X151994965Y-81536391D01*
X152346213Y-81159673D01*
X152595133Y-80825092D01*
X152626935Y-80770925D01*
X153040854Y-79980895D01*
X153341287Y-79289506D01*
X153531275Y-78672536D01*
X153613861Y-78105765D01*
X153592088Y-77564972D01*
X153468998Y-77025938D01*
X153247634Y-76464440D01*
X153184496Y-76332333D01*
X153006610Y-76009837D01*
X152784412Y-75688151D01*
X152496964Y-75342599D01*
X152123326Y-74948505D01*
X151642559Y-74481194D01*
X151499176Y-74346292D01*
X151132258Y-73977174D01*
X150898710Y-73668538D01*
X150788220Y-73391259D01*
X150790477Y-73116210D01*
X150895169Y-72814266D01*
X150930954Y-72741277D01*
X151178859Y-72376578D01*
X151521900Y-72092729D01*
X151990979Y-71866449D01*
X152180675Y-71799796D01*
X152872495Y-71516925D01*
X153473633Y-71157354D01*
X153951228Y-70741914D01*
X154072868Y-70600238D01*
X154310312Y-70238961D01*
X154400278Y-69931925D01*
X154346934Y-69658024D01*
X154281157Y-69545439D01*
X154202663Y-69461059D01*
X154084854Y-69404744D01*
X153891783Y-69368416D01*
X153629098Y-69347333D01*
X149580000Y-69347333D01*
X149522487Y-69526791D01*
X149382971Y-69721156D01*
X149372182Y-69732182D01*
X149180037Y-69875334D01*
X148996803Y-69939721D01*
X148987333Y-69940000D01*
X148807876Y-69882487D01*
X148613511Y-69742970D01*
X148602485Y-69732182D01*
X148459333Y-69540037D01*
X148394946Y-69356802D01*
X148394667Y-69347333D01*
X148452180Y-69167875D01*
X148591696Y-68973511D01*
X148602485Y-68962485D01*
X148794630Y-68819332D01*
X148977864Y-68754945D01*
X148987333Y-68754667D01*
X149166791Y-68812180D01*
X149361156Y-68951696D01*
X149372182Y-68962485D01*
X149515334Y-69154630D01*
X149579721Y-69337864D01*
X149580000Y-69347333D01*
X153629098Y-69347333D01*
X153587507Y-69343995D01*
X153328657Y-69331352D01*
X152816528Y-69293811D01*
X152447704Y-69229712D01*
X152212933Y-69143239D01*
X151819002Y-68896762D01*
X151408997Y-68578099D01*
X151049022Y-68241428D01*
X150887180Y-68056677D01*
X150626120Y-67785471D01*
X150274653Y-67500283D01*
X149888917Y-67240376D01*
X149525052Y-67045014D01*
X149340878Y-66975197D01*
X148887184Y-66876079D01*
X148339237Y-66805778D01*
X147761418Y-66768459D01*
X147218104Y-66768282D01*
X146774531Y-66809268D01*
X146035644Y-67004584D01*
X145381234Y-67320051D01*
X144829732Y-67742097D01*
X144399569Y-68257152D01*
X144149199Y-68742213D01*
X144000243Y-69310954D01*
X143952054Y-69963890D01*
X144004646Y-70649118D01*
X144148425Y-71284183D01*
X144254276Y-71603123D01*
X144366853Y-71878385D01*
X144507055Y-72146823D01*
X144695779Y-72445291D01*
X144953922Y-72810642D01*
X145210420Y-73157085D01*
X145417495Y-73442591D01*
X145578547Y-73681279D01*
X145670808Y-73838554D01*
X145684037Y-73876751D01*
X145603033Y-74075421D01*
X145391867Y-74232609D01*
X145088601Y-74326214D01*
X144881725Y-74342667D01*
X144656696Y-74326372D01*
X144387123Y-74284874D01*
X144124328Y-74229252D01*
X143919631Y-74170587D01*
X143824353Y-74119956D01*
X143822667Y-74114031D01*
X143871269Y-74031667D01*
X143996137Y-73862035D01*
X144106241Y-73721916D01*
X144304309Y-73460554D01*
X144481391Y-73202528D01*
X144541439Y-73104651D01*
X144693063Y-72840301D01*
X144385896Y-72342651D01*
X144069460Y-71776057D01*
X143862713Y-71256189D01*
X143747432Y-70718814D01*
X143705390Y-70099700D01*
X143704162Y-69940000D01*
X143725907Y-69362877D01*
X143799575Y-68905831D01*
X143939463Y-68523841D01*
X144159867Y-68171886D01*
X144332505Y-67961175D01*
X144605037Y-67650778D01*
X144369837Y-67292556D01*
X144203720Y-67071642D01*
X143974190Y-66807643D01*
X143711238Y-66530203D01*
X143444854Y-66268963D01*
X143205030Y-66053568D01*
X143021755Y-65913661D01*
X142936683Y-65876000D01*
X142855001Y-65944876D01*
G36*
X136071164Y-74538663D02*
X135659966Y-74683094D01*
X135331255Y-74948263D01*
X135099267Y-75299939D01*
X134978240Y-75703890D01*
X134982410Y-76125884D01*
X135126015Y-76531689D01*
X135196302Y-76642198D01*
X135382228Y-76839580D01*
X135619921Y-77013445D01*
X135845586Y-77121058D01*
X135934448Y-77136667D01*
X135976640Y-77058625D01*
X136021257Y-76850419D01*
X136060779Y-76550923D01*
X136072955Y-76420579D01*
X136129896Y-75972602D01*
X136215344Y-75596189D01*
X136294636Y-75386677D01*
X136397201Y-75154928D01*
X136453169Y-74969001D01*
X136456667Y-74934364D01*
X136513119Y-74756484D01*
X136555491Y-74701042D01*
X136589001Y-74602576D01*
X136485349Y-74538457D01*
X136274980Y-74518891D01*
X136071164Y-74538663D01*
X136071164Y-74538663D01*
G37*
X136071164Y-74538663D02*
X135659966Y-74683094D01*
X135331255Y-74948263D01*
X135099267Y-75299939D01*
X134978240Y-75703890D01*
X134982410Y-76125884D01*
X135126015Y-76531689D01*
X135196302Y-76642198D01*
X135382228Y-76839580D01*
X135619921Y-77013445D01*
X135845586Y-77121058D01*
X135934448Y-77136667D01*
X135976640Y-77058625D01*
X136021257Y-76850419D01*
X136060779Y-76550923D01*
X136072955Y-76420579D01*
X136129896Y-75972602D01*
X136215344Y-75596189D01*
X136294636Y-75386677D01*
X136397201Y-75154928D01*
X136453169Y-74969001D01*
X136456667Y-74934364D01*
X136513119Y-74756484D01*
X136555491Y-74701042D01*
X136589001Y-74602576D01*
X136485349Y-74538457D01*
X136274980Y-74518891D01*
X136071164Y-74538663D01*
G36*
X134632661Y-70830099D02*
X134318747Y-70836364D01*
X134119369Y-70852250D01*
X134007128Y-70882209D01*
X133954626Y-70930694D01*
X133934466Y-71002160D01*
X133932281Y-71016935D01*
X133942654Y-71337707D01*
X134037040Y-71756918D01*
X134200007Y-72235948D01*
X134416123Y-72736178D01*
X134669957Y-73218990D01*
X134946077Y-73645765D01*
X135023445Y-73747638D01*
X135222610Y-73992342D01*
X135355131Y-74122188D01*
X135456176Y-74157623D01*
X135560914Y-74119094D01*
X135610000Y-74088667D01*
X135762259Y-74042534D01*
X136016918Y-74012173D01*
X136208533Y-74005296D01*
X136680065Y-74004000D01*
X136955064Y-73378246D01*
X137230063Y-72752491D01*
X136893624Y-72307980D01*
X136676511Y-71970754D01*
X136479559Y-71581156D01*
X136387601Y-71346234D01*
X136218016Y-70829000D01*
X135088508Y-70829000D01*
X134632661Y-70830099D01*
X134632661Y-70830099D01*
G37*
X134632661Y-70830099D02*
X134318747Y-70836364D01*
X134119369Y-70852250D01*
X134007128Y-70882209D01*
X133954626Y-70930694D01*
X133934466Y-71002160D01*
X133932281Y-71016935D01*
X133942654Y-71337707D01*
X134037040Y-71756918D01*
X134200007Y-72235948D01*
X134416123Y-72736178D01*
X134669957Y-73218990D01*
X134946077Y-73645765D01*
X135023445Y-73747638D01*
X135222610Y-73992342D01*
X135355131Y-74122188D01*
X135456176Y-74157623D01*
X135560914Y-74119094D01*
X135610000Y-74088667D01*
X135762259Y-74042534D01*
X136016918Y-74012173D01*
X136208533Y-74005296D01*
X136680065Y-74004000D01*
X136955064Y-73378246D01*
X137230063Y-72752491D01*
X136893624Y-72307980D01*
X136676511Y-71970754D01*
X136479559Y-71581156D01*
X136387601Y-71346234D01*
X136218016Y-70829000D01*
X135088508Y-70829000D01*
X134632661Y-70830099D01*
G36*
X139168011Y-64815033D02*
X138785516Y-64857467D01*
X138536628Y-64905137D01*
X138386188Y-64977127D01*
X138299037Y-65092518D01*
X138240015Y-65270392D01*
X138225627Y-65326492D01*
X138055876Y-65722416D01*
X137771636Y-66106755D01*
X137421423Y-66422079D01*
X137181059Y-66562974D01*
X136839992Y-66664978D01*
X136424738Y-66715169D01*
X136010515Y-66709853D01*
X135672543Y-66645340D01*
X135652368Y-66638013D01*
X135493224Y-66599953D01*
X135364342Y-66651040D01*
X135202493Y-66816355D01*
X135202356Y-66816512D01*
X134761936Y-67419125D01*
X134388294Y-68112084D01*
X134108185Y-68837334D01*
X133948365Y-69536821D01*
X133948228Y-69537833D01*
X133893650Y-69940000D01*
X136126641Y-69940000D01*
X136252167Y-69622500D01*
X136573457Y-68917934D01*
X136931008Y-68357029D01*
X137346093Y-67914774D01*
X137839986Y-67566162D01*
X138128610Y-67416585D01*
X138382037Y-67307638D01*
X138612821Y-67239708D01*
X138875275Y-67203500D01*
X139223709Y-67189721D01*
X139462333Y-67188333D01*
X139855501Y-67195030D01*
X140212284Y-67213007D01*
X140480477Y-67239096D01*
X140570828Y-67255631D01*
X140680175Y-67278922D01*
X140769891Y-67269612D01*
X140860406Y-67206056D01*
X140972150Y-67066614D01*
X141125553Y-66829641D01*
X141341047Y-66473496D01*
X141396328Y-66381162D01*
X141607466Y-66023358D01*
X141782584Y-65717000D01*
X141905219Y-65491600D01*
X141958908Y-65376676D01*
X141960000Y-65370557D01*
X141880842Y-65274811D01*
X141664583Y-65173643D01*
X141343048Y-65073383D01*
X140948061Y-64980365D01*
X140511446Y-64900920D01*
X140065028Y-64841381D01*
X139640630Y-64808079D01*
X139270078Y-64807348D01*
X139168011Y-64815033D01*
X139168011Y-64815033D01*
G37*
X139168011Y-64815033D02*
X138785516Y-64857467D01*
X138536628Y-64905137D01*
X138386188Y-64977127D01*
X138299037Y-65092518D01*
X138240015Y-65270392D01*
X138225627Y-65326492D01*
X138055876Y-65722416D01*
X137771636Y-66106755D01*
X137421423Y-66422079D01*
X137181059Y-66562974D01*
X136839992Y-66664978D01*
X136424738Y-66715169D01*
X136010515Y-66709853D01*
X135672543Y-66645340D01*
X135652368Y-66638013D01*
X135493224Y-66599953D01*
X135364342Y-66651040D01*
X135202493Y-66816355D01*
X135202356Y-66816512D01*
X134761936Y-67419125D01*
X134388294Y-68112084D01*
X134108185Y-68837334D01*
X133948365Y-69536821D01*
X133948228Y-69537833D01*
X133893650Y-69940000D01*
X136126641Y-69940000D01*
X136252167Y-69622500D01*
X136573457Y-68917934D01*
X136931008Y-68357029D01*
X137346093Y-67914774D01*
X137839986Y-67566162D01*
X138128610Y-67416585D01*
X138382037Y-67307638D01*
X138612821Y-67239708D01*
X138875275Y-67203500D01*
X139223709Y-67189721D01*
X139462333Y-67188333D01*
X139855501Y-67195030D01*
X140212284Y-67213007D01*
X140480477Y-67239096D01*
X140570828Y-67255631D01*
X140680175Y-67278922D01*
X140769891Y-67269612D01*
X140860406Y-67206056D01*
X140972150Y-67066614D01*
X141125553Y-66829641D01*
X141341047Y-66473496D01*
X141396328Y-66381162D01*
X141607466Y-66023358D01*
X141782584Y-65717000D01*
X141905219Y-65491600D01*
X141958908Y-65376676D01*
X141960000Y-65370557D01*
X141880842Y-65274811D01*
X141664583Y-65173643D01*
X141343048Y-65073383D01*
X140948061Y-64980365D01*
X140511446Y-64900920D01*
X140065028Y-64841381D01*
X139640630Y-64808079D01*
X139270078Y-64807348D01*
X139168011Y-64815033D01*
G36*
X136109528Y-63547386D02*
X135687994Y-63712573D01*
X135436228Y-63900416D01*
X135130967Y-64271634D01*
X134972243Y-64683724D01*
X134963191Y-65107438D01*
X135106950Y-65513530D01*
X135242454Y-65707215D01*
X135605853Y-66020920D01*
X136029558Y-66189069D01*
X136482505Y-66203414D01*
X136795290Y-66119547D01*
X137186244Y-65877856D01*
X137465222Y-65520829D01*
X137617514Y-65071741D01*
X137642000Y-64779782D01*
X137625339Y-64500509D01*
X137553670Y-64294291D01*
X137394467Y-64079624D01*
X137336544Y-64014384D01*
X136955778Y-63699609D01*
X136539448Y-63543504D01*
X136109528Y-63547386D01*
X136109528Y-63547386D01*
G37*
X136109528Y-63547386D02*
X135687994Y-63712573D01*
X135436228Y-63900416D01*
X135130967Y-64271634D01*
X134972243Y-64683724D01*
X134963191Y-65107438D01*
X135106950Y-65513530D01*
X135242454Y-65707215D01*
X135605853Y-66020920D01*
X136029558Y-66189069D01*
X136482505Y-66203414D01*
X136795290Y-66119547D01*
X137186244Y-65877856D01*
X137465222Y-65520829D01*
X137617514Y-65071741D01*
X137642000Y-64779782D01*
X137625339Y-64500509D01*
X137553670Y-64294291D01*
X137394467Y-64079624D01*
X137336544Y-64014384D01*
X136955778Y-63699609D01*
X136539448Y-63543504D01*
X136109528Y-63547386D01*
G36*
X128658759Y-57219184D02*
X128632247Y-57232282D01*
X128599553Y-57255106D01*
X128575725Y-57279996D01*
X128559406Y-57311249D01*
X128549240Y-57353166D01*
X128543872Y-57410044D01*
X128541944Y-57486184D01*
X128541831Y-57518917D01*
X128542161Y-57590656D01*
X128543527Y-57641927D01*
X128546500Y-57677404D01*
X128551649Y-57701763D01*
X128559543Y-57719680D01*
X128567757Y-57731902D01*
X128620187Y-57783905D01*
X128681930Y-57815184D01*
X128748536Y-57824592D01*
X128815558Y-57810980D01*
X128836792Y-57801354D01*
X128887624Y-57774859D01*
X128887624Y-58190052D01*
X128850525Y-58170868D01*
X128801643Y-58156025D01*
X128741561Y-58152222D01*
X128681564Y-58159243D01*
X128636256Y-58175013D01*
X128598675Y-58205047D01*
X128566564Y-58248024D01*
X128564150Y-58252436D01*
X128553967Y-58273221D01*
X128546530Y-58294170D01*
X128541411Y-58319548D01*
X128538181Y-58353618D01*
X128536413Y-58400641D01*
X128535677Y-58464882D01*
X128535544Y-58537176D01*
X128535544Y-58767822D01*
X128673861Y-58767822D01*
X128673861Y-58342533D01*
X128712549Y-58309979D01*
X128752738Y-58283940D01*
X128790797Y-58279205D01*
X128829066Y-58291389D01*
X128849462Y-58303320D01*
X128864642Y-58320313D01*
X128875438Y-58345995D01*
X128882683Y-58383991D01*
X128887208Y-58437926D01*
X128889844Y-58511425D01*
X128890772Y-58560347D01*
X128893911Y-58761535D01*
X128959926Y-58765336D01*
X129025940Y-58769136D01*
X129025940Y-57520650D01*
X128887624Y-57520650D01*
X128884097Y-57590254D01*
X128872215Y-57638569D01*
X128850020Y-57668631D01*
X128815559Y-57683471D01*
X128780742Y-57686436D01*
X128741329Y-57683028D01*
X128715171Y-57669617D01*
X128698814Y-57651896D01*
X128685937Y-57632835D01*
X128678272Y-57611601D01*
X128674861Y-57581849D01*
X128674749Y-57537236D01*
X128675897Y-57499880D01*
X128678532Y-57443604D01*
X128682456Y-57406658D01*
X128689063Y-57383223D01*
X128699749Y-57367480D01*
X128709833Y-57358380D01*
X128751970Y-57338537D01*
X128801840Y-57335332D01*
X128830476Y-57342168D01*
X128858828Y-57366464D01*
X128877609Y-57413728D01*
X128886712Y-57483624D01*
X128887624Y-57520650D01*
X129025940Y-57520650D01*
X129025940Y-57208614D01*
X128956782Y-57208614D01*
X128915260Y-57210256D01*
X128893838Y-57216087D01*
X128887626Y-57227461D01*
X128887624Y-57227798D01*
X128884742Y-57238938D01*
X128872030Y-57237673D01*
X128846757Y-57225433D01*
X128787869Y-57206707D01*
X128721615Y-57204739D01*
X128658759Y-57219184D01*
X128658759Y-57219184D01*
G37*
X128658759Y-57219184D02*
X128632247Y-57232282D01*
X128599553Y-57255106D01*
X128575725Y-57279996D01*
X128559406Y-57311249D01*
X128549240Y-57353166D01*
X128543872Y-57410044D01*
X128541944Y-57486184D01*
X128541831Y-57518917D01*
X128542161Y-57590656D01*
X128543527Y-57641927D01*
X128546500Y-57677404D01*
X128551649Y-57701763D01*
X128559543Y-57719680D01*
X128567757Y-57731902D01*
X128620187Y-57783905D01*
X128681930Y-57815184D01*
X128748536Y-57824592D01*
X128815558Y-57810980D01*
X128836792Y-57801354D01*
X128887624Y-57774859D01*
X128887624Y-58190052D01*
X128850525Y-58170868D01*
X128801643Y-58156025D01*
X128741561Y-58152222D01*
X128681564Y-58159243D01*
X128636256Y-58175013D01*
X128598675Y-58205047D01*
X128566564Y-58248024D01*
X128564150Y-58252436D01*
X128553967Y-58273221D01*
X128546530Y-58294170D01*
X128541411Y-58319548D01*
X128538181Y-58353618D01*
X128536413Y-58400641D01*
X128535677Y-58464882D01*
X128535544Y-58537176D01*
X128535544Y-58767822D01*
X128673861Y-58767822D01*
X128673861Y-58342533D01*
X128712549Y-58309979D01*
X128752738Y-58283940D01*
X128790797Y-58279205D01*
X128829066Y-58291389D01*
X128849462Y-58303320D01*
X128864642Y-58320313D01*
X128875438Y-58345995D01*
X128882683Y-58383991D01*
X128887208Y-58437926D01*
X128889844Y-58511425D01*
X128890772Y-58560347D01*
X128893911Y-58761535D01*
X128959926Y-58765336D01*
X129025940Y-58769136D01*
X129025940Y-57520650D01*
X128887624Y-57520650D01*
X128884097Y-57590254D01*
X128872215Y-57638569D01*
X128850020Y-57668631D01*
X128815559Y-57683471D01*
X128780742Y-57686436D01*
X128741329Y-57683028D01*
X128715171Y-57669617D01*
X128698814Y-57651896D01*
X128685937Y-57632835D01*
X128678272Y-57611601D01*
X128674861Y-57581849D01*
X128674749Y-57537236D01*
X128675897Y-57499880D01*
X128678532Y-57443604D01*
X128682456Y-57406658D01*
X128689063Y-57383223D01*
X128699749Y-57367480D01*
X128709833Y-57358380D01*
X128751970Y-57338537D01*
X128801840Y-57335332D01*
X128830476Y-57342168D01*
X128858828Y-57366464D01*
X128877609Y-57413728D01*
X128886712Y-57483624D01*
X128887624Y-57520650D01*
X129025940Y-57520650D01*
X129025940Y-57208614D01*
X128956782Y-57208614D01*
X128915260Y-57210256D01*
X128893838Y-57216087D01*
X128887626Y-57227461D01*
X128887624Y-57227798D01*
X128884742Y-57238938D01*
X128872030Y-57237673D01*
X128846757Y-57225433D01*
X128787869Y-57206707D01*
X128721615Y-57204739D01*
X128658759Y-57219184D01*
G36*
X128134210Y-58156555D02*
X128075055Y-58172339D01*
X128030023Y-58200948D01*
X127998246Y-58238419D01*
X127988366Y-58254411D01*
X127981073Y-58271163D01*
X127975974Y-58292592D01*
X127972679Y-58322616D01*
X127970797Y-58365154D01*
X127969937Y-58424122D01*
X127969707Y-58503440D01*
X127969703Y-58524484D01*
X127969703Y-58767822D01*
X128030059Y-58767822D01*
X128068557Y-58765126D01*
X128097023Y-58758295D01*
X128104155Y-58754083D01*
X128123652Y-58746813D01*
X128143566Y-58754083D01*
X128176353Y-58763160D01*
X128223978Y-58766813D01*
X128276764Y-58765228D01*
X128325036Y-58758589D01*
X128353218Y-58750072D01*
X128407753Y-58715063D01*
X128441835Y-58666479D01*
X128457157Y-58601882D01*
X128457299Y-58600223D01*
X128455955Y-58571566D01*
X128334356Y-58571566D01*
X128323726Y-58604161D01*
X128306410Y-58622505D01*
X128271652Y-58636379D01*
X128225773Y-58641917D01*
X128178988Y-58639191D01*
X128141514Y-58628274D01*
X128131015Y-58621269D01*
X128112668Y-58588904D01*
X128108020Y-58552111D01*
X128108020Y-58503763D01*
X128177582Y-58503763D01*
X128243667Y-58508850D01*
X128293764Y-58523263D01*
X128324929Y-58545729D01*
X128334356Y-58571566D01*
X128455955Y-58571566D01*
X128453987Y-58529647D01*
X128430710Y-58473845D01*
X128386948Y-58431647D01*
X128380899Y-58427808D01*
X128354907Y-58415309D01*
X128322735Y-58407740D01*
X128277760Y-58404061D01*
X128224331Y-58403216D01*
X128108020Y-58403169D01*
X128108020Y-58354411D01*
X128112953Y-58316581D01*
X128125543Y-58291236D01*
X128127017Y-58289887D01*
X128155034Y-58278800D01*
X128197326Y-58274503D01*
X128244064Y-58276615D01*
X128285418Y-58284756D01*
X128309957Y-58296965D01*
X128323253Y-58306746D01*
X128337294Y-58308613D01*
X128356671Y-58300600D01*
X128385976Y-58280739D01*
X128429803Y-58247063D01*
X128433825Y-58243909D01*
X128431764Y-58232236D01*
X128414568Y-58212822D01*
X128388433Y-58191248D01*
X128359552Y-58173096D01*
X128350478Y-58168809D01*
X128317380Y-58160256D01*
X128268880Y-58154155D01*
X128214695Y-58151708D01*
X128212161Y-58151703D01*
X128134210Y-58156555D01*
X128134210Y-58156555D01*
G37*
X128134210Y-58156555D02*
X128075055Y-58172339D01*
X128030023Y-58200948D01*
X127998246Y-58238419D01*
X127988366Y-58254411D01*
X127981073Y-58271163D01*
X127975974Y-58292592D01*
X127972679Y-58322616D01*
X127970797Y-58365154D01*
X127969937Y-58424122D01*
X127969707Y-58503440D01*
X127969703Y-58524484D01*
X127969703Y-58767822D01*
X128030059Y-58767822D01*
X128068557Y-58765126D01*
X128097023Y-58758295D01*
X128104155Y-58754083D01*
X128123652Y-58746813D01*
X128143566Y-58754083D01*
X128176353Y-58763160D01*
X128223978Y-58766813D01*
X128276764Y-58765228D01*
X128325036Y-58758589D01*
X128353218Y-58750072D01*
X128407753Y-58715063D01*
X128441835Y-58666479D01*
X128457157Y-58601882D01*
X128457299Y-58600223D01*
X128455955Y-58571566D01*
X128334356Y-58571566D01*
X128323726Y-58604161D01*
X128306410Y-58622505D01*
X128271652Y-58636379D01*
X128225773Y-58641917D01*
X128178988Y-58639191D01*
X128141514Y-58628274D01*
X128131015Y-58621269D01*
X128112668Y-58588904D01*
X128108020Y-58552111D01*
X128108020Y-58503763D01*
X128177582Y-58503763D01*
X128243667Y-58508850D01*
X128293764Y-58523263D01*
X128324929Y-58545729D01*
X128334356Y-58571566D01*
X128455955Y-58571566D01*
X128453987Y-58529647D01*
X128430710Y-58473845D01*
X128386948Y-58431647D01*
X128380899Y-58427808D01*
X128354907Y-58415309D01*
X128322735Y-58407740D01*
X128277760Y-58404061D01*
X128224331Y-58403216D01*
X128108020Y-58403169D01*
X128108020Y-58354411D01*
X128112953Y-58316581D01*
X128125543Y-58291236D01*
X128127017Y-58289887D01*
X128155034Y-58278800D01*
X128197326Y-58274503D01*
X128244064Y-58276615D01*
X128285418Y-58284756D01*
X128309957Y-58296965D01*
X128323253Y-58306746D01*
X128337294Y-58308613D01*
X128356671Y-58300600D01*
X128385976Y-58280739D01*
X128429803Y-58247063D01*
X128433825Y-58243909D01*
X128431764Y-58232236D01*
X128414568Y-58212822D01*
X128388433Y-58191248D01*
X128359552Y-58173096D01*
X128350478Y-58168809D01*
X128317380Y-58160256D01*
X128268880Y-58154155D01*
X128214695Y-58151708D01*
X128212161Y-58151703D01*
X128134210Y-58156555D01*
G36*
X127743356Y-58153020D02*
X127724539Y-58158660D01*
X127718473Y-58171053D01*
X127718218Y-58176647D01*
X127717129Y-58192230D01*
X127709632Y-58194676D01*
X127689381Y-58183993D01*
X127677351Y-58176694D01*
X127639400Y-58161063D01*
X127594072Y-58153334D01*
X127546544Y-58152740D01*
X127501995Y-58158513D01*
X127465602Y-58169884D01*
X127442543Y-58186088D01*
X127437996Y-58206355D01*
X127440291Y-58211843D01*
X127457020Y-58234626D01*
X127482963Y-58262647D01*
X127487655Y-58267177D01*
X127512383Y-58288005D01*
X127533718Y-58294735D01*
X127563555Y-58290038D01*
X127575508Y-58286917D01*
X127612705Y-58279421D01*
X127638859Y-58282792D01*
X127660946Y-58294681D01*
X127681178Y-58310635D01*
X127696079Y-58330700D01*
X127706434Y-58358702D01*
X127713029Y-58398467D01*
X127716649Y-58453823D01*
X127718078Y-58528594D01*
X127718218Y-58573740D01*
X127718218Y-58767822D01*
X127843960Y-58767822D01*
X127843960Y-58151683D01*
X127781089Y-58151683D01*
X127743356Y-58153020D01*
X127743356Y-58153020D01*
G37*
X127743356Y-58153020D02*
X127724539Y-58158660D01*
X127718473Y-58171053D01*
X127718218Y-58176647D01*
X127717129Y-58192230D01*
X127709632Y-58194676D01*
X127689381Y-58183993D01*
X127677351Y-58176694D01*
X127639400Y-58161063D01*
X127594072Y-58153334D01*
X127546544Y-58152740D01*
X127501995Y-58158513D01*
X127465602Y-58169884D01*
X127442543Y-58186088D01*
X127437996Y-58206355D01*
X127440291Y-58211843D01*
X127457020Y-58234626D01*
X127482963Y-58262647D01*
X127487655Y-58267177D01*
X127512383Y-58288005D01*
X127533718Y-58294735D01*
X127563555Y-58290038D01*
X127575508Y-58286917D01*
X127612705Y-58279421D01*
X127638859Y-58282792D01*
X127660946Y-58294681D01*
X127681178Y-58310635D01*
X127696079Y-58330700D01*
X127706434Y-58358702D01*
X127713029Y-58398467D01*
X127716649Y-58453823D01*
X127718078Y-58528594D01*
X127718218Y-58573740D01*
X127718218Y-58767822D01*
X127843960Y-58767822D01*
X127843960Y-58151683D01*
X127781089Y-58151683D01*
X127743356Y-58153020D01*
G36*
X126951188Y-58767822D02*
X127020346Y-58767822D01*
X127060488Y-58766645D01*
X127081394Y-58761772D01*
X127088922Y-58751186D01*
X127089505Y-58744029D01*
X127090774Y-58729676D01*
X127098779Y-58726923D01*
X127119815Y-58735771D01*
X127136173Y-58744029D01*
X127198977Y-58763597D01*
X127267248Y-58764729D01*
X127322752Y-58750135D01*
X127374438Y-58714877D01*
X127413838Y-58662835D01*
X127435413Y-58601450D01*
X127435962Y-58598018D01*
X127439167Y-58560571D01*
X127440761Y-58506813D01*
X127440633Y-58466155D01*
X127303279Y-58466155D01*
X127300097Y-58520194D01*
X127292859Y-58564735D01*
X127283060Y-58589888D01*
X127245989Y-58624260D01*
X127201974Y-58636582D01*
X127156584Y-58626618D01*
X127117797Y-58596895D01*
X127103108Y-58576905D01*
X127094519Y-58553050D01*
X127090496Y-58518230D01*
X127089505Y-58465930D01*
X127091278Y-58414139D01*
X127095963Y-58368634D01*
X127102603Y-58338181D01*
X127103710Y-58335452D01*
X127130491Y-58303000D01*
X127169579Y-58285183D01*
X127213315Y-58282306D01*
X127254038Y-58294674D01*
X127284087Y-58322593D01*
X127287204Y-58328148D01*
X127296961Y-58362022D01*
X127302277Y-58410728D01*
X127303279Y-58466155D01*
X127440633Y-58466155D01*
X127440568Y-58445540D01*
X127439664Y-58412563D01*
X127433514Y-58330981D01*
X127420733Y-58269730D01*
X127399471Y-58224449D01*
X127367878Y-58190779D01*
X127337207Y-58171014D01*
X127294354Y-58157120D01*
X127241056Y-58152354D01*
X127186480Y-58156236D01*
X127139792Y-58168282D01*
X127115124Y-58182693D01*
X127089505Y-58205878D01*
X127089505Y-57912773D01*
X126951188Y-57912773D01*
X126951188Y-58767822D01*
X126951188Y-58767822D01*
G37*
X126951188Y-58767822D02*
X127020346Y-58767822D01*
X127060488Y-58766645D01*
X127081394Y-58761772D01*
X127088922Y-58751186D01*
X127089505Y-58744029D01*
X127090774Y-58729676D01*
X127098779Y-58726923D01*
X127119815Y-58735771D01*
X127136173Y-58744029D01*
X127198977Y-58763597D01*
X127267248Y-58764729D01*
X127322752Y-58750135D01*
X127374438Y-58714877D01*
X127413838Y-58662835D01*
X127435413Y-58601450D01*
X127435962Y-58598018D01*
X127439167Y-58560571D01*
X127440761Y-58506813D01*
X127440633Y-58466155D01*
X127303279Y-58466155D01*
X127300097Y-58520194D01*
X127292859Y-58564735D01*
X127283060Y-58589888D01*
X127245989Y-58624260D01*
X127201974Y-58636582D01*
X127156584Y-58626618D01*
X127117797Y-58596895D01*
X127103108Y-58576905D01*
X127094519Y-58553050D01*
X127090496Y-58518230D01*
X127089505Y-58465930D01*
X127091278Y-58414139D01*
X127095963Y-58368634D01*
X127102603Y-58338181D01*
X127103710Y-58335452D01*
X127130491Y-58303000D01*
X127169579Y-58285183D01*
X127213315Y-58282306D01*
X127254038Y-58294674D01*
X127284087Y-58322593D01*
X127287204Y-58328148D01*
X127296961Y-58362022D01*
X127302277Y-58410728D01*
X127303279Y-58466155D01*
X127440633Y-58466155D01*
X127440568Y-58445540D01*
X127439664Y-58412563D01*
X127433514Y-58330981D01*
X127420733Y-58269730D01*
X127399471Y-58224449D01*
X127367878Y-58190779D01*
X127337207Y-58171014D01*
X127294354Y-58157120D01*
X127241056Y-58152354D01*
X127186480Y-58156236D01*
X127139792Y-58168282D01*
X127115124Y-58182693D01*
X127089505Y-58205878D01*
X127089505Y-57912773D01*
X126951188Y-57912773D01*
X126951188Y-58767822D01*
G36*
X126468476Y-58154237D02*
X126418745Y-58157971D01*
X126288709Y-58547773D01*
X126268322Y-58478614D01*
X126256054Y-58435874D01*
X126239915Y-58378115D01*
X126222488Y-58314625D01*
X126213274Y-58280570D01*
X126178612Y-58151683D01*
X126035609Y-58151683D01*
X126078354Y-58286857D01*
X126099404Y-58353342D01*
X126124833Y-58433539D01*
X126151390Y-58517193D01*
X126175098Y-58591782D01*
X126229098Y-58761535D01*
X126287402Y-58765328D01*
X126345705Y-58769122D01*
X126377321Y-58664734D01*
X126396818Y-58599889D01*
X126418096Y-58528400D01*
X126436692Y-58465263D01*
X126437426Y-58462750D01*
X126451316Y-58419969D01*
X126463571Y-58390779D01*
X126472154Y-58379741D01*
X126473918Y-58381018D01*
X126480109Y-58398130D01*
X126491872Y-58434787D01*
X126507775Y-58486378D01*
X126526386Y-58548294D01*
X126536457Y-58582352D01*
X126590993Y-58767822D01*
X126706736Y-58767822D01*
X126799263Y-58475471D01*
X126825256Y-58393462D01*
X126848934Y-58318987D01*
X126869180Y-58255544D01*
X126884874Y-58206632D01*
X126894898Y-58175749D01*
X126897945Y-58166726D01*
X126895533Y-58157487D01*
X126876592Y-58153441D01*
X126837177Y-58153846D01*
X126831007Y-58154152D01*
X126757914Y-58157971D01*
X126710043Y-58334010D01*
X126692447Y-58398211D01*
X126676723Y-58454649D01*
X126664254Y-58498422D01*
X126656426Y-58524630D01*
X126654980Y-58528903D01*
X126648986Y-58523990D01*
X126636899Y-58498532D01*
X126620107Y-58455997D01*
X126599997Y-58399850D01*
X126582997Y-58349130D01*
X126518206Y-58150504D01*
X126468476Y-58154237D01*
X126468476Y-58154237D01*
G37*
X126468476Y-58154237D02*
X126418745Y-58157971D01*
X126288709Y-58547773D01*
X126268322Y-58478614D01*
X126256054Y-58435874D01*
X126239915Y-58378115D01*
X126222488Y-58314625D01*
X126213274Y-58280570D01*
X126178612Y-58151683D01*
X126035609Y-58151683D01*
X126078354Y-58286857D01*
X126099404Y-58353342D01*
X126124833Y-58433539D01*
X126151390Y-58517193D01*
X126175098Y-58591782D01*
X126229098Y-58761535D01*
X126287402Y-58765328D01*
X126345705Y-58769122D01*
X126377321Y-58664734D01*
X126396818Y-58599889D01*
X126418096Y-58528400D01*
X126436692Y-58465263D01*
X126437426Y-58462750D01*
X126451316Y-58419969D01*
X126463571Y-58390779D01*
X126472154Y-58379741D01*
X126473918Y-58381018D01*
X126480109Y-58398130D01*
X126491872Y-58434787D01*
X126507775Y-58486378D01*
X126526386Y-58548294D01*
X126536457Y-58582352D01*
X126590993Y-58767822D01*
X126706736Y-58767822D01*
X126799263Y-58475471D01*
X126825256Y-58393462D01*
X126848934Y-58318987D01*
X126869180Y-58255544D01*
X126884874Y-58206632D01*
X126894898Y-58175749D01*
X126897945Y-58166726D01*
X126895533Y-58157487D01*
X126876592Y-58153441D01*
X126837177Y-58153846D01*
X126831007Y-58154152D01*
X126757914Y-58157971D01*
X126710043Y-58334010D01*
X126692447Y-58398211D01*
X126676723Y-58454649D01*
X126664254Y-58498422D01*
X126656426Y-58524630D01*
X126654980Y-58528903D01*
X126648986Y-58523990D01*
X126636899Y-58498532D01*
X126620107Y-58455997D01*
X126599997Y-58399850D01*
X126582997Y-58349130D01*
X126518206Y-58150504D01*
X126468476Y-58154237D01*
G36*
X125711589Y-58155417D02*
X125658589Y-58168290D01*
X125643269Y-58175110D01*
X125613572Y-58192974D01*
X125590780Y-58213093D01*
X125573917Y-58238962D01*
X125562002Y-58274073D01*
X125554058Y-58321920D01*
X125549106Y-58385996D01*
X125546169Y-58469794D01*
X125545053Y-58525768D01*
X125540948Y-58767822D01*
X125611068Y-58767822D01*
X125653607Y-58766038D01*
X125675524Y-58759942D01*
X125681188Y-58749706D01*
X125684179Y-58738637D01*
X125697549Y-58740754D01*
X125715767Y-58749629D01*
X125761376Y-58763233D01*
X125819993Y-58766899D01*
X125881646Y-58760903D01*
X125936362Y-58745521D01*
X125941270Y-58743386D01*
X125991277Y-58708255D01*
X126024244Y-58659419D01*
X126039413Y-58602333D01*
X126038254Y-58581824D01*
X125914492Y-58581824D01*
X125903587Y-58609425D01*
X125871255Y-58629204D01*
X125819090Y-58639819D01*
X125791213Y-58641228D01*
X125744753Y-58637620D01*
X125713871Y-58623597D01*
X125706336Y-58616931D01*
X125685924Y-58580666D01*
X125681188Y-58547773D01*
X125681188Y-58503763D01*
X125742487Y-58503763D01*
X125813744Y-58507395D01*
X125863724Y-58518818D01*
X125895304Y-58538824D01*
X125902374Y-58547743D01*
X125914492Y-58581824D01*
X126038254Y-58581824D01*
X126036029Y-58542456D01*
X126013337Y-58485244D01*
X125982376Y-58446580D01*
X125963624Y-58429864D01*
X125945267Y-58418878D01*
X125921381Y-58412180D01*
X125886043Y-58408326D01*
X125833331Y-58405873D01*
X125812423Y-58405168D01*
X125681188Y-58400879D01*
X125681380Y-58361158D01*
X125686463Y-58319405D01*
X125704838Y-58294158D01*
X125741961Y-58278030D01*
X125742957Y-58277742D01*
X125795590Y-58271400D01*
X125847094Y-58279684D01*
X125885370Y-58299827D01*
X125900728Y-58309773D01*
X125917270Y-58308397D01*
X125942725Y-58293987D01*
X125957672Y-58283817D01*
X125986909Y-58262088D01*
X126005020Y-58245800D01*
X126007926Y-58241137D01*
X125995960Y-58217005D01*
X125960604Y-58188185D01*
X125945247Y-58178461D01*
X125901099Y-58161714D01*
X125841602Y-58152227D01*
X125775513Y-58150095D01*
X125711589Y-58155417D01*
X125711589Y-58155417D01*
G37*
X125711589Y-58155417D02*
X125658589Y-58168290D01*
X125643269Y-58175110D01*
X125613572Y-58192974D01*
X125590780Y-58213093D01*
X125573917Y-58238962D01*
X125562002Y-58274073D01*
X125554058Y-58321920D01*
X125549106Y-58385996D01*
X125546169Y-58469794D01*
X125545053Y-58525768D01*
X125540948Y-58767822D01*
X125611068Y-58767822D01*
X125653607Y-58766038D01*
X125675524Y-58759942D01*
X125681188Y-58749706D01*
X125684179Y-58738637D01*
X125697549Y-58740754D01*
X125715767Y-58749629D01*
X125761376Y-58763233D01*
X125819993Y-58766899D01*
X125881646Y-58760903D01*
X125936362Y-58745521D01*
X125941270Y-58743386D01*
X125991277Y-58708255D01*
X126024244Y-58659419D01*
X126039413Y-58602333D01*
X126038254Y-58581824D01*
X125914492Y-58581824D01*
X125903587Y-58609425D01*
X125871255Y-58629204D01*
X125819090Y-58639819D01*
X125791213Y-58641228D01*
X125744753Y-58637620D01*
X125713871Y-58623597D01*
X125706336Y-58616931D01*
X125685924Y-58580666D01*
X125681188Y-58547773D01*
X125681188Y-58503763D01*
X125742487Y-58503763D01*
X125813744Y-58507395D01*
X125863724Y-58518818D01*
X125895304Y-58538824D01*
X125902374Y-58547743D01*
X125914492Y-58581824D01*
X126038254Y-58581824D01*
X126036029Y-58542456D01*
X126013337Y-58485244D01*
X125982376Y-58446580D01*
X125963624Y-58429864D01*
X125945267Y-58418878D01*
X125921381Y-58412180D01*
X125886043Y-58408326D01*
X125833331Y-58405873D01*
X125812423Y-58405168D01*
X125681188Y-58400879D01*
X125681380Y-58361158D01*
X125686463Y-58319405D01*
X125704838Y-58294158D01*
X125741961Y-58278030D01*
X125742957Y-58277742D01*
X125795590Y-58271400D01*
X125847094Y-58279684D01*
X125885370Y-58299827D01*
X125900728Y-58309773D01*
X125917270Y-58308397D01*
X125942725Y-58293987D01*
X125957672Y-58283817D01*
X125986909Y-58262088D01*
X126005020Y-58245800D01*
X126007926Y-58241137D01*
X125995960Y-58217005D01*
X125960604Y-58188185D01*
X125945247Y-58178461D01*
X125901099Y-58161714D01*
X125841602Y-58152227D01*
X125775513Y-58150095D01*
X125711589Y-58155417D01*
G36*
X125114745Y-58151486D02*
X125066405Y-58161015D01*
X125038886Y-58175125D01*
X125009936Y-58198568D01*
X125051124Y-58250571D01*
X125076518Y-58282064D01*
X125093762Y-58297428D01*
X125110898Y-58299776D01*
X125135973Y-58292217D01*
X125147743Y-58287941D01*
X125195730Y-58281631D01*
X125239676Y-58295156D01*
X125271940Y-58325710D01*
X125277181Y-58335452D01*
X125282888Y-58361258D01*
X125287294Y-58408817D01*
X125290189Y-58474758D01*
X125291369Y-58555710D01*
X125291386Y-58567226D01*
X125291386Y-58767822D01*
X125429703Y-58767822D01*
X125429703Y-58151683D01*
X125360544Y-58151683D01*
X125320667Y-58152725D01*
X125299893Y-58157358D01*
X125292211Y-58167849D01*
X125291386Y-58177745D01*
X125291386Y-58203806D01*
X125258255Y-58177745D01*
X125220265Y-58159965D01*
X125169230Y-58151174D01*
X125114745Y-58151486D01*
X125114745Y-58151486D01*
G37*
X125114745Y-58151486D02*
X125066405Y-58161015D01*
X125038886Y-58175125D01*
X125009936Y-58198568D01*
X125051124Y-58250571D01*
X125076518Y-58282064D01*
X125093762Y-58297428D01*
X125110898Y-58299776D01*
X125135973Y-58292217D01*
X125147743Y-58287941D01*
X125195730Y-58281631D01*
X125239676Y-58295156D01*
X125271940Y-58325710D01*
X125277181Y-58335452D01*
X125282888Y-58361258D01*
X125287294Y-58408817D01*
X125290189Y-58474758D01*
X125291369Y-58555710D01*
X125291386Y-58567226D01*
X125291386Y-58767822D01*
X125429703Y-58767822D01*
X125429703Y-58151683D01*
X125360544Y-58151683D01*
X125320667Y-58152725D01*
X125299893Y-58157358D01*
X125292211Y-58167849D01*
X125291386Y-58177745D01*
X125291386Y-58203806D01*
X125258255Y-58177745D01*
X125220265Y-58159965D01*
X125169230Y-58151174D01*
X125114745Y-58151486D01*
G36*
X124717419Y-58154970D02*
X124657315Y-58170597D01*
X124606979Y-58202848D01*
X124582607Y-58226940D01*
X124542655Y-58283895D01*
X124519758Y-58349965D01*
X124511892Y-58431182D01*
X124511852Y-58437748D01*
X124511782Y-58503763D01*
X124891736Y-58503763D01*
X124883637Y-58538342D01*
X124869013Y-58569659D01*
X124843419Y-58602291D01*
X124838065Y-58607500D01*
X124792057Y-58635694D01*
X124739590Y-58640475D01*
X124679197Y-58621926D01*
X124668960Y-58616931D01*
X124637561Y-58601745D01*
X124616530Y-58593094D01*
X124612861Y-58592293D01*
X124600052Y-58600063D01*
X124575622Y-58619072D01*
X124563221Y-58629460D01*
X124537524Y-58653321D01*
X124529085Y-58669077D01*
X124534942Y-58683571D01*
X124538072Y-58687534D01*
X124559275Y-58704879D01*
X124594262Y-58725959D01*
X124618663Y-58738265D01*
X124687928Y-58759946D01*
X124764612Y-58766971D01*
X124837235Y-58758647D01*
X124857574Y-58752686D01*
X124920524Y-58718952D01*
X124967185Y-58667045D01*
X124997827Y-58596459D01*
X125012718Y-58506692D01*
X125014353Y-58459753D01*
X125009579Y-58391413D01*
X124889010Y-58391413D01*
X124877348Y-58396465D01*
X124846002Y-58400429D01*
X124800429Y-58402768D01*
X124769554Y-58403169D01*
X124714019Y-58402783D01*
X124678967Y-58400975D01*
X124659738Y-58396773D01*
X124651670Y-58389203D01*
X124650099Y-58378218D01*
X124660879Y-58344381D01*
X124688020Y-58310940D01*
X124723723Y-58285272D01*
X124759440Y-58274772D01*
X124807952Y-58284086D01*
X124849947Y-58311013D01*
X124879064Y-58349827D01*
X124889010Y-58391413D01*
X125009579Y-58391413D01*
X125007401Y-58360236D01*
X124985945Y-58280949D01*
X124949530Y-58221263D01*
X124897703Y-58180549D01*
X124830010Y-58158179D01*
X124793338Y-58153871D01*
X124717419Y-58154970D01*
X124717419Y-58154970D01*
G37*
X124717419Y-58154970D02*
X124657315Y-58170597D01*
X124606979Y-58202848D01*
X124582607Y-58226940D01*
X124542655Y-58283895D01*
X124519758Y-58349965D01*
X124511892Y-58431182D01*
X124511852Y-58437748D01*
X124511782Y-58503763D01*
X124891736Y-58503763D01*
X124883637Y-58538342D01*
X124869013Y-58569659D01*
X124843419Y-58602291D01*
X124838065Y-58607500D01*
X124792057Y-58635694D01*
X124739590Y-58640475D01*
X124679197Y-58621926D01*
X124668960Y-58616931D01*
X124637561Y-58601745D01*
X124616530Y-58593094D01*
X124612861Y-58592293D01*
X124600052Y-58600063D01*
X124575622Y-58619072D01*
X124563221Y-58629460D01*
X124537524Y-58653321D01*
X124529085Y-58669077D01*
X124534942Y-58683571D01*
X124538072Y-58687534D01*
X124559275Y-58704879D01*
X124594262Y-58725959D01*
X124618663Y-58738265D01*
X124687928Y-58759946D01*
X124764612Y-58766971D01*
X124837235Y-58758647D01*
X124857574Y-58752686D01*
X124920524Y-58718952D01*
X124967185Y-58667045D01*
X124997827Y-58596459D01*
X125012718Y-58506692D01*
X125014353Y-58459753D01*
X125009579Y-58391413D01*
X124889010Y-58391413D01*
X124877348Y-58396465D01*
X124846002Y-58400429D01*
X124800429Y-58402768D01*
X124769554Y-58403169D01*
X124714019Y-58402783D01*
X124678967Y-58400975D01*
X124659738Y-58396773D01*
X124651670Y-58389203D01*
X124650099Y-58378218D01*
X124660879Y-58344381D01*
X124688020Y-58310940D01*
X124723723Y-58285272D01*
X124759440Y-58274772D01*
X124807952Y-58284086D01*
X124849947Y-58311013D01*
X124879064Y-58349827D01*
X124889010Y-58391413D01*
X125009579Y-58391413D01*
X125007401Y-58360236D01*
X124985945Y-58280949D01*
X124949530Y-58221263D01*
X124897703Y-58180549D01*
X124830010Y-58158179D01*
X124793338Y-58153871D01*
X124717419Y-58154970D01*
G36*
X129288261Y-57215148D02*
X129222479Y-57244231D01*
X129172540Y-57292793D01*
X129138374Y-57360908D01*
X129119907Y-57448651D01*
X129118583Y-57462351D01*
X129117546Y-57558939D01*
X129130993Y-57643602D01*
X129158108Y-57712221D01*
X129172627Y-57734294D01*
X129223201Y-57781011D01*
X129287609Y-57811268D01*
X129359666Y-57823824D01*
X129433185Y-57817439D01*
X129489072Y-57797772D01*
X129537132Y-57764629D01*
X129576412Y-57721175D01*
X129577092Y-57720158D01*
X129593044Y-57693338D01*
X129603410Y-57666368D01*
X129609688Y-57632332D01*
X129613373Y-57584310D01*
X129614997Y-57544931D01*
X129615672Y-57509219D01*
X129489955Y-57509219D01*
X129488726Y-57544770D01*
X129484266Y-57592094D01*
X129476397Y-57622465D01*
X129462207Y-57644072D01*
X129448917Y-57656694D01*
X129401802Y-57683122D01*
X129352505Y-57686653D01*
X129306593Y-57667639D01*
X129283638Y-57646331D01*
X129267096Y-57624859D01*
X129257421Y-57604313D01*
X129253174Y-57577574D01*
X129252920Y-57537523D01*
X129254228Y-57500638D01*
X129257043Y-57447947D01*
X129261505Y-57413772D01*
X129269548Y-57391480D01*
X129283103Y-57374442D01*
X129293845Y-57364703D01*
X129338777Y-57339123D01*
X129387249Y-57337847D01*
X129427894Y-57352999D01*
X129462567Y-57384642D01*
X129483224Y-57436620D01*
X129489955Y-57509219D01*
X129615672Y-57509219D01*
X129616479Y-57466621D01*
X129613948Y-57408056D01*
X129606362Y-57364007D01*
X129592681Y-57329248D01*
X129571865Y-57298551D01*
X129564147Y-57289436D01*
X129515889Y-57244021D01*
X129464128Y-57217493D01*
X129400828Y-57206379D01*
X129369961Y-57205471D01*
X129288261Y-57215148D01*
X129288261Y-57215148D01*
G37*
X129288261Y-57215148D02*
X129222479Y-57244231D01*
X129172540Y-57292793D01*
X129138374Y-57360908D01*
X129119907Y-57448651D01*
X129118583Y-57462351D01*
X129117546Y-57558939D01*
X129130993Y-57643602D01*
X129158108Y-57712221D01*
X129172627Y-57734294D01*
X129223201Y-57781011D01*
X129287609Y-57811268D01*
X129359666Y-57823824D01*
X129433185Y-57817439D01*
X129489072Y-57797772D01*
X129537132Y-57764629D01*
X129576412Y-57721175D01*
X129577092Y-57720158D01*
X129593044Y-57693338D01*
X129603410Y-57666368D01*
X129609688Y-57632332D01*
X129613373Y-57584310D01*
X129614997Y-57544931D01*
X129615672Y-57509219D01*
X129489955Y-57509219D01*
X129488726Y-57544770D01*
X129484266Y-57592094D01*
X129476397Y-57622465D01*
X129462207Y-57644072D01*
X129448917Y-57656694D01*
X129401802Y-57683122D01*
X129352505Y-57686653D01*
X129306593Y-57667639D01*
X129283638Y-57646331D01*
X129267096Y-57624859D01*
X129257421Y-57604313D01*
X129253174Y-57577574D01*
X129252920Y-57537523D01*
X129254228Y-57500638D01*
X129257043Y-57447947D01*
X129261505Y-57413772D01*
X129269548Y-57391480D01*
X129283103Y-57374442D01*
X129293845Y-57364703D01*
X129338777Y-57339123D01*
X129387249Y-57337847D01*
X129427894Y-57352999D01*
X129462567Y-57384642D01*
X129483224Y-57436620D01*
X129489955Y-57509219D01*
X129615672Y-57509219D01*
X129616479Y-57466621D01*
X129613948Y-57408056D01*
X129606362Y-57364007D01*
X129592681Y-57329248D01*
X129571865Y-57298551D01*
X129564147Y-57289436D01*
X129515889Y-57244021D01*
X129464128Y-57217493D01*
X129400828Y-57206379D01*
X129369961Y-57205471D01*
X129288261Y-57215148D01*
G36*
X128106699Y-57222614D02*
X128094168Y-57228514D01*
X128050799Y-57260283D01*
X128009790Y-57306646D01*
X127979168Y-57357696D01*
X127970459Y-57381166D01*
X127962512Y-57423091D01*
X127957774Y-57473757D01*
X127957199Y-57494679D01*
X127957129Y-57560693D01*
X128337083Y-57560693D01*
X128328983Y-57595273D01*
X128309104Y-57636170D01*
X128274347Y-57671514D01*
X128232998Y-57694282D01*
X128206649Y-57699010D01*
X128170916Y-57693273D01*
X128128282Y-57678882D01*
X128113799Y-57672262D01*
X128060240Y-57645513D01*
X128014533Y-57680376D01*
X127988158Y-57703955D01*
X127974124Y-57723417D01*
X127973414Y-57729129D01*
X127985951Y-57742973D01*
X128013428Y-57764012D01*
X128038366Y-57780425D01*
X128105664Y-57809930D01*
X128181110Y-57823284D01*
X128255888Y-57819812D01*
X128315495Y-57801663D01*
X128376941Y-57762784D01*
X128420608Y-57711595D01*
X128447926Y-57645367D01*
X128460322Y-57561371D01*
X128461421Y-57522936D01*
X128457022Y-57434861D01*
X128456482Y-57432299D01*
X128330582Y-57432299D01*
X128327115Y-57440558D01*
X128312863Y-57445113D01*
X128283470Y-57447065D01*
X128234575Y-57447517D01*
X128215748Y-57447525D01*
X128158467Y-57446843D01*
X128122141Y-57444364D01*
X128102604Y-57439443D01*
X128095690Y-57431434D01*
X128095445Y-57428862D01*
X128103336Y-57408423D01*
X128123085Y-57379789D01*
X128131575Y-57369763D01*
X128163094Y-57341408D01*
X128195949Y-57330259D01*
X128213651Y-57329327D01*
X128261539Y-57340981D01*
X128301699Y-57372285D01*
X128327173Y-57417752D01*
X128327625Y-57419233D01*
X128330582Y-57432299D01*
X128456482Y-57432299D01*
X128442392Y-57365510D01*
X128416038Y-57310025D01*
X128383807Y-57270639D01*
X128324217Y-57227931D01*
X128254168Y-57205109D01*
X128179661Y-57203046D01*
X128106699Y-57222614D01*
X128106699Y-57222614D01*
G37*
X128106699Y-57222614D02*
X128094168Y-57228514D01*
X128050799Y-57260283D01*
X128009790Y-57306646D01*
X127979168Y-57357696D01*
X127970459Y-57381166D01*
X127962512Y-57423091D01*
X127957774Y-57473757D01*
X127957199Y-57494679D01*
X127957129Y-57560693D01*
X128337083Y-57560693D01*
X128328983Y-57595273D01*
X128309104Y-57636170D01*
X128274347Y-57671514D01*
X128232998Y-57694282D01*
X128206649Y-57699010D01*
X128170916Y-57693273D01*
X128128282Y-57678882D01*
X128113799Y-57672262D01*
X128060240Y-57645513D01*
X128014533Y-57680376D01*
X127988158Y-57703955D01*
X127974124Y-57723417D01*
X127973414Y-57729129D01*
X127985951Y-57742973D01*
X128013428Y-57764012D01*
X128038366Y-57780425D01*
X128105664Y-57809930D01*
X128181110Y-57823284D01*
X128255888Y-57819812D01*
X128315495Y-57801663D01*
X128376941Y-57762784D01*
X128420608Y-57711595D01*
X128447926Y-57645367D01*
X128460322Y-57561371D01*
X128461421Y-57522936D01*
X128457022Y-57434861D01*
X128456482Y-57432299D01*
X128330582Y-57432299D01*
X128327115Y-57440558D01*
X128312863Y-57445113D01*
X128283470Y-57447065D01*
X128234575Y-57447517D01*
X128215748Y-57447525D01*
X128158467Y-57446843D01*
X128122141Y-57444364D01*
X128102604Y-57439443D01*
X128095690Y-57431434D01*
X128095445Y-57428862D01*
X128103336Y-57408423D01*
X128123085Y-57379789D01*
X128131575Y-57369763D01*
X128163094Y-57341408D01*
X128195949Y-57330259D01*
X128213651Y-57329327D01*
X128261539Y-57340981D01*
X128301699Y-57372285D01*
X128327173Y-57417752D01*
X128327625Y-57419233D01*
X128330582Y-57432299D01*
X128456482Y-57432299D01*
X128442392Y-57365510D01*
X128416038Y-57310025D01*
X128383807Y-57270639D01*
X128324217Y-57227931D01*
X128254168Y-57205109D01*
X128179661Y-57203046D01*
X128106699Y-57222614D01*
G36*
X126735983Y-57206452D02*
X126688366Y-57215482D01*
X126638966Y-57234370D01*
X126633688Y-57236777D01*
X126596226Y-57256476D01*
X126570283Y-57274781D01*
X126561897Y-57286508D01*
X126569883Y-57305632D01*
X126589280Y-57333850D01*
X126597890Y-57344384D01*
X126633372Y-57385847D01*
X126679115Y-57358858D01*
X126722650Y-57340878D01*
X126772950Y-57331267D01*
X126821188Y-57330660D01*
X126858533Y-57339691D01*
X126867495Y-57345327D01*
X126884563Y-57371171D01*
X126886637Y-57400941D01*
X126873866Y-57424197D01*
X126866312Y-57428708D01*
X126843675Y-57434309D01*
X126803885Y-57440892D01*
X126754834Y-57447183D01*
X126745785Y-57448170D01*
X126667004Y-57461798D01*
X126609864Y-57484946D01*
X126571970Y-57519752D01*
X126550921Y-57568354D01*
X126544365Y-57627718D01*
X126553423Y-57695198D01*
X126582836Y-57748188D01*
X126632722Y-57786783D01*
X126703200Y-57811081D01*
X126781435Y-57820667D01*
X126845234Y-57820552D01*
X126896984Y-57811845D01*
X126932327Y-57799825D01*
X126976983Y-57778880D01*
X127018253Y-57754574D01*
X127032921Y-57743876D01*
X127070643Y-57713084D01*
X127025148Y-57667049D01*
X126979653Y-57621013D01*
X126927928Y-57655243D01*
X126876048Y-57680952D01*
X126820649Y-57694399D01*
X126767395Y-57695818D01*
X126721951Y-57685443D01*
X126689984Y-57663507D01*
X126679662Y-57644998D01*
X126681211Y-57615314D01*
X126706860Y-57592615D01*
X126756540Y-57576940D01*
X126810969Y-57569695D01*
X126894736Y-57555873D01*
X126956967Y-57529796D01*
X126998493Y-57490699D01*
X127020147Y-57437820D01*
X127023147Y-57375126D01*
X127008329Y-57309642D01*
X126974546Y-57260144D01*
X126921495Y-57226408D01*
X126848874Y-57208207D01*
X126795072Y-57204639D01*
X126735983Y-57206452D01*
X126735983Y-57206452D01*
G37*
X126735983Y-57206452D02*
X126688366Y-57215482D01*
X126638966Y-57234370D01*
X126633688Y-57236777D01*
X126596226Y-57256476D01*
X126570283Y-57274781D01*
X126561897Y-57286508D01*
X126569883Y-57305632D01*
X126589280Y-57333850D01*
X126597890Y-57344384D01*
X126633372Y-57385847D01*
X126679115Y-57358858D01*
X126722650Y-57340878D01*
X126772950Y-57331267D01*
X126821188Y-57330660D01*
X126858533Y-57339691D01*
X126867495Y-57345327D01*
X126884563Y-57371171D01*
X126886637Y-57400941D01*
X126873866Y-57424197D01*
X126866312Y-57428708D01*
X126843675Y-57434309D01*
X126803885Y-57440892D01*
X126754834Y-57447183D01*
X126745785Y-57448170D01*
X126667004Y-57461798D01*
X126609864Y-57484946D01*
X126571970Y-57519752D01*
X126550921Y-57568354D01*
X126544365Y-57627718D01*
X126553423Y-57695198D01*
X126582836Y-57748188D01*
X126632722Y-57786783D01*
X126703200Y-57811081D01*
X126781435Y-57820667D01*
X126845234Y-57820552D01*
X126896984Y-57811845D01*
X126932327Y-57799825D01*
X126976983Y-57778880D01*
X127018253Y-57754574D01*
X127032921Y-57743876D01*
X127070643Y-57713084D01*
X127025148Y-57667049D01*
X126979653Y-57621013D01*
X126927928Y-57655243D01*
X126876048Y-57680952D01*
X126820649Y-57694399D01*
X126767395Y-57695818D01*
X126721951Y-57685443D01*
X126689984Y-57663507D01*
X126679662Y-57644998D01*
X126681211Y-57615314D01*
X126706860Y-57592615D01*
X126756540Y-57576940D01*
X126810969Y-57569695D01*
X126894736Y-57555873D01*
X126956967Y-57529796D01*
X126998493Y-57490699D01*
X127020147Y-57437820D01*
X127023147Y-57375126D01*
X127008329Y-57309642D01*
X126974546Y-57260144D01*
X126921495Y-57226408D01*
X126848874Y-57208207D01*
X126795072Y-57204639D01*
X126735983Y-57206452D01*
G36*
X126139238Y-57216055D02*
X126075637Y-57250692D01*
X126025877Y-57305372D01*
X126002432Y-57349842D01*
X125992366Y-57389121D01*
X125985844Y-57445116D01*
X125983049Y-57509621D01*
X125984164Y-57574429D01*
X125989374Y-57631334D01*
X125995459Y-57661727D01*
X126015986Y-57703306D01*
X126051537Y-57747468D01*
X126094381Y-57786087D01*
X126136789Y-57811034D01*
X126137823Y-57811430D01*
X126190447Y-57822331D01*
X126252812Y-57822601D01*
X126312076Y-57812676D01*
X126334960Y-57804722D01*
X126393898Y-57771300D01*
X126436110Y-57727511D01*
X126463844Y-57669538D01*
X126479349Y-57593565D01*
X126482857Y-57553771D01*
X126482410Y-57503766D01*
X126347624Y-57503766D01*
X126343083Y-57576732D01*
X126330014Y-57632334D01*
X126309244Y-57667861D01*
X126294448Y-57678020D01*
X126256536Y-57685104D01*
X126211473Y-57683007D01*
X126172513Y-57672812D01*
X126162296Y-57667204D01*
X126135341Y-57634538D01*
X126117549Y-57584545D01*
X126109976Y-57523705D01*
X126113675Y-57458497D01*
X126121943Y-57419253D01*
X126145680Y-57373805D01*
X126183151Y-57345396D01*
X126228280Y-57335573D01*
X126274989Y-57345887D01*
X126310868Y-57371112D01*
X126329723Y-57391925D01*
X126340728Y-57412439D01*
X126345974Y-57440203D01*
X126347551Y-57482762D01*
X126347624Y-57503766D01*
X126482410Y-57503766D01*
X126481906Y-57447580D01*
X126464612Y-57360501D01*
X126430971Y-57292530D01*
X126380982Y-57243664D01*
X126314644Y-57213899D01*
X126300399Y-57210448D01*
X126214790Y-57202345D01*
X126139238Y-57216055D01*
X126139238Y-57216055D01*
G37*
X126139238Y-57216055D02*
X126075637Y-57250692D01*
X126025877Y-57305372D01*
X126002432Y-57349842D01*
X125992366Y-57389121D01*
X125985844Y-57445116D01*
X125983049Y-57509621D01*
X125984164Y-57574429D01*
X125989374Y-57631334D01*
X125995459Y-57661727D01*
X126015986Y-57703306D01*
X126051537Y-57747468D01*
X126094381Y-57786087D01*
X126136789Y-57811034D01*
X126137823Y-57811430D01*
X126190447Y-57822331D01*
X126252812Y-57822601D01*
X126312076Y-57812676D01*
X126334960Y-57804722D01*
X126393898Y-57771300D01*
X126436110Y-57727511D01*
X126463844Y-57669538D01*
X126479349Y-57593565D01*
X126482857Y-57553771D01*
X126482410Y-57503766D01*
X126347624Y-57503766D01*
X126343083Y-57576732D01*
X126330014Y-57632334D01*
X126309244Y-57667861D01*
X126294448Y-57678020D01*
X126256536Y-57685104D01*
X126211473Y-57683007D01*
X126172513Y-57672812D01*
X126162296Y-57667204D01*
X126135341Y-57634538D01*
X126117549Y-57584545D01*
X126109976Y-57523705D01*
X126113675Y-57458497D01*
X126121943Y-57419253D01*
X126145680Y-57373805D01*
X126183151Y-57345396D01*
X126228280Y-57335573D01*
X126274989Y-57345887D01*
X126310868Y-57371112D01*
X126329723Y-57391925D01*
X126340728Y-57412439D01*
X126345974Y-57440203D01*
X126347551Y-57482762D01*
X126347624Y-57503766D01*
X126482410Y-57503766D01*
X126481906Y-57447580D01*
X126464612Y-57360501D01*
X126430971Y-57292530D01*
X126380982Y-57243664D01*
X126314644Y-57213899D01*
X126300399Y-57210448D01*
X126214790Y-57202345D01*
X126139238Y-57216055D01*
G36*
X125756633Y-57404342D02*
X125755445Y-57496563D01*
X125751103Y-57566610D01*
X125742442Y-57617381D01*
X125728296Y-57651772D01*
X125707500Y-57672679D01*
X125678890Y-57683000D01*
X125643465Y-57685636D01*
X125606364Y-57682682D01*
X125578182Y-57671889D01*
X125557757Y-57650360D01*
X125543921Y-57615199D01*
X125535509Y-57563510D01*
X125531357Y-57492394D01*
X125530297Y-57404342D01*
X125530297Y-57208614D01*
X125391980Y-57208614D01*
X125391980Y-57812179D01*
X125461138Y-57812179D01*
X125502830Y-57810489D01*
X125524299Y-57804556D01*
X125530297Y-57793293D01*
X125533909Y-57783261D01*
X125548286Y-57785383D01*
X125577264Y-57799580D01*
X125643681Y-57821480D01*
X125714125Y-57819928D01*
X125781623Y-57796147D01*
X125813767Y-57777362D01*
X125838285Y-57757022D01*
X125856196Y-57731573D01*
X125868521Y-57697458D01*
X125876277Y-57651121D01*
X125880484Y-57589007D01*
X125882160Y-57507561D01*
X125882376Y-57444578D01*
X125882376Y-57208614D01*
X125756633Y-57208614D01*
X125756633Y-57404342D01*
X125756633Y-57404342D01*
G37*
X125756633Y-57404342D02*
X125755445Y-57496563D01*
X125751103Y-57566610D01*
X125742442Y-57617381D01*
X125728296Y-57651772D01*
X125707500Y-57672679D01*
X125678890Y-57683000D01*
X125643465Y-57685636D01*
X125606364Y-57682682D01*
X125578182Y-57671889D01*
X125557757Y-57650360D01*
X125543921Y-57615199D01*
X125535509Y-57563510D01*
X125531357Y-57492394D01*
X125530297Y-57404342D01*
X125530297Y-57208614D01*
X125391980Y-57208614D01*
X125391980Y-57812179D01*
X125461138Y-57812179D01*
X125502830Y-57810489D01*
X125524299Y-57804556D01*
X125530297Y-57793293D01*
X125533909Y-57783261D01*
X125548286Y-57785383D01*
X125577264Y-57799580D01*
X125643681Y-57821480D01*
X125714125Y-57819928D01*
X125781623Y-57796147D01*
X125813767Y-57777362D01*
X125838285Y-57757022D01*
X125856196Y-57731573D01*
X125868521Y-57697458D01*
X125876277Y-57651121D01*
X125880484Y-57589007D01*
X125882160Y-57507561D01*
X125882376Y-57444578D01*
X125882376Y-57208614D01*
X125756633Y-57208614D01*
X125756633Y-57404342D01*
G36*
X124532774Y-57213880D02*
X124459920Y-57244830D01*
X124436973Y-57259895D01*
X124407646Y-57283048D01*
X124389236Y-57301253D01*
X124386039Y-57307183D01*
X124395065Y-57320340D01*
X124418163Y-57342667D01*
X124436656Y-57358250D01*
X124487272Y-57398926D01*
X124527240Y-57365295D01*
X124558126Y-57343584D01*
X124588241Y-57336090D01*
X124622708Y-57337920D01*
X124677439Y-57351528D01*
X124715114Y-57379772D01*
X124738009Y-57425433D01*
X124748403Y-57491289D01*
X124748405Y-57491331D01*
X124747506Y-57564939D01*
X124733537Y-57618946D01*
X124705672Y-57655716D01*
X124686675Y-57668168D01*
X124636224Y-57683673D01*
X124582337Y-57683683D01*
X124535454Y-57668638D01*
X124524356Y-57661287D01*
X124496524Y-57642511D01*
X124474764Y-57639434D01*
X124451296Y-57653409D01*
X124425351Y-57678510D01*
X124384284Y-57720880D01*
X124429879Y-57758464D01*
X124500326Y-57800882D01*
X124579767Y-57821785D01*
X124662785Y-57820272D01*
X124717306Y-57806411D01*
X124781030Y-57772135D01*
X124831995Y-57718212D01*
X124855149Y-57680149D01*
X124873901Y-57625536D01*
X124883285Y-57556369D01*
X124883357Y-57481407D01*
X124874176Y-57409409D01*
X124855801Y-57349137D01*
X124852907Y-57342958D01*
X124810048Y-57282351D01*
X124752021Y-57238224D01*
X124683409Y-57211493D01*
X124608799Y-57203073D01*
X124532774Y-57213880D01*
X124532774Y-57213880D01*
G37*
X124532774Y-57213880D02*
X124459920Y-57244830D01*
X124436973Y-57259895D01*
X124407646Y-57283048D01*
X124389236Y-57301253D01*
X124386039Y-57307183D01*
X124395065Y-57320340D01*
X124418163Y-57342667D01*
X124436656Y-57358250D01*
X124487272Y-57398926D01*
X124527240Y-57365295D01*
X124558126Y-57343584D01*
X124588241Y-57336090D01*
X124622708Y-57337920D01*
X124677439Y-57351528D01*
X124715114Y-57379772D01*
X124738009Y-57425433D01*
X124748403Y-57491289D01*
X124748405Y-57491331D01*
X124747506Y-57564939D01*
X124733537Y-57618946D01*
X124705672Y-57655716D01*
X124686675Y-57668168D01*
X124636224Y-57683673D01*
X124582337Y-57683683D01*
X124535454Y-57668638D01*
X124524356Y-57661287D01*
X124496524Y-57642511D01*
X124474764Y-57639434D01*
X124451296Y-57653409D01*
X124425351Y-57678510D01*
X124384284Y-57720880D01*
X124429879Y-57758464D01*
X124500326Y-57800882D01*
X124579767Y-57821785D01*
X124662785Y-57820272D01*
X124717306Y-57806411D01*
X124781030Y-57772135D01*
X124831995Y-57718212D01*
X124855149Y-57680149D01*
X124873901Y-57625536D01*
X124883285Y-57556369D01*
X124883357Y-57481407D01*
X124874176Y-57409409D01*
X124855801Y-57349137D01*
X124852907Y-57342958D01*
X124810048Y-57282351D01*
X124752021Y-57238224D01*
X124683409Y-57211493D01*
X124608799Y-57203073D01*
X124532774Y-57213880D01*
G36*
X124072102Y-57206457D02*
X124039904Y-57214279D01*
X123978175Y-57242921D01*
X123925390Y-57286667D01*
X123888859Y-57339117D01*
X123883840Y-57350893D01*
X123876955Y-57381740D01*
X123872136Y-57427371D01*
X123870495Y-57473492D01*
X123870495Y-57560693D01*
X124052822Y-57560693D01*
X124128021Y-57560978D01*
X124180997Y-57562704D01*
X124214675Y-57567181D01*
X124231980Y-57575720D01*
X124235837Y-57589630D01*
X124229171Y-57610222D01*
X124217230Y-57634315D01*
X124183920Y-57674525D01*
X124137632Y-57694558D01*
X124081056Y-57693905D01*
X124016969Y-57672101D01*
X123961583Y-57645193D01*
X123915625Y-57681532D01*
X123869667Y-57717872D01*
X123912904Y-57757819D01*
X123970626Y-57795563D01*
X124041614Y-57818320D01*
X124117971Y-57824688D01*
X124191801Y-57813268D01*
X124203713Y-57809393D01*
X124268601Y-57775506D01*
X124316870Y-57724986D01*
X124349535Y-57656325D01*
X124367615Y-57568014D01*
X124367825Y-57566121D01*
X124369444Y-57469878D01*
X124362900Y-57435542D01*
X124235148Y-57435542D01*
X124223416Y-57440822D01*
X124191562Y-57444867D01*
X124144603Y-57447176D01*
X124114846Y-57447525D01*
X124059352Y-57447306D01*
X124024654Y-57445916D01*
X124006399Y-57442251D01*
X124000234Y-57435210D01*
X124001805Y-57423690D01*
X124003122Y-57419233D01*
X124025618Y-57377355D01*
X124060997Y-57343604D01*
X124092220Y-57328773D01*
X124133699Y-57329668D01*
X124175731Y-57348164D01*
X124210988Y-57378786D01*
X124232146Y-57416062D01*
X124235148Y-57435542D01*
X124362900Y-57435542D01*
X124353310Y-57385229D01*
X124321302Y-57314191D01*
X124275299Y-57258779D01*
X124217179Y-57221009D01*
X124148820Y-57202896D01*
X124072102Y-57206457D01*
X124072102Y-57206457D01*
G37*
X124072102Y-57206457D02*
X124039904Y-57214279D01*
X123978175Y-57242921D01*
X123925390Y-57286667D01*
X123888859Y-57339117D01*
X123883840Y-57350893D01*
X123876955Y-57381740D01*
X123872136Y-57427371D01*
X123870495Y-57473492D01*
X123870495Y-57560693D01*
X124052822Y-57560693D01*
X124128021Y-57560978D01*
X124180997Y-57562704D01*
X124214675Y-57567181D01*
X124231980Y-57575720D01*
X124235837Y-57589630D01*
X124229171Y-57610222D01*
X124217230Y-57634315D01*
X124183920Y-57674525D01*
X124137632Y-57694558D01*
X124081056Y-57693905D01*
X124016969Y-57672101D01*
X123961583Y-57645193D01*
X123915625Y-57681532D01*
X123869667Y-57717872D01*
X123912904Y-57757819D01*
X123970626Y-57795563D01*
X124041614Y-57818320D01*
X124117971Y-57824688D01*
X124191801Y-57813268D01*
X124203713Y-57809393D01*
X124268601Y-57775506D01*
X124316870Y-57724986D01*
X124349535Y-57656325D01*
X124367615Y-57568014D01*
X124367825Y-57566121D01*
X124369444Y-57469878D01*
X124362900Y-57435542D01*
X124235148Y-57435542D01*
X124223416Y-57440822D01*
X124191562Y-57444867D01*
X124144603Y-57447176D01*
X124114846Y-57447525D01*
X124059352Y-57447306D01*
X124024654Y-57445916D01*
X124006399Y-57442251D01*
X124000234Y-57435210D01*
X124001805Y-57423690D01*
X124003122Y-57419233D01*
X124025618Y-57377355D01*
X124060997Y-57343604D01*
X124092220Y-57328773D01*
X124133699Y-57329668D01*
X124175731Y-57348164D01*
X124210988Y-57378786D01*
X124232146Y-57416062D01*
X124235148Y-57435542D01*
X124362900Y-57435542D01*
X124353310Y-57385229D01*
X124321302Y-57314191D01*
X124275299Y-57258779D01*
X124217179Y-57221009D01*
X124148820Y-57202896D01*
X124072102Y-57206457D01*
G36*
X127504012Y-57219002D02*
X127472717Y-57233950D01*
X127442409Y-57255541D01*
X127419318Y-57280391D01*
X127402500Y-57312087D01*
X127391006Y-57354214D01*
X127383891Y-57410358D01*
X127380207Y-57484106D01*
X127379008Y-57579044D01*
X127378989Y-57588985D01*
X127378713Y-57812179D01*
X127517030Y-57812179D01*
X127517030Y-57606418D01*
X127517128Y-57530189D01*
X127517809Y-57474939D01*
X127519651Y-57436501D01*
X127523233Y-57410706D01*
X127529132Y-57393384D01*
X127537927Y-57380368D01*
X127550180Y-57367507D01*
X127593047Y-57339873D01*
X127639843Y-57334745D01*
X127684424Y-57352217D01*
X127699928Y-57365221D01*
X127711310Y-57377447D01*
X127719481Y-57390540D01*
X127724974Y-57408615D01*
X127728320Y-57435787D01*
X127730051Y-57476170D01*
X127730697Y-57533879D01*
X127730792Y-57604132D01*
X127730792Y-57812179D01*
X127869109Y-57812179D01*
X127869109Y-57208614D01*
X127799950Y-57208614D01*
X127758428Y-57210256D01*
X127737006Y-57216087D01*
X127730795Y-57227461D01*
X127730792Y-57227798D01*
X127727910Y-57238938D01*
X127715199Y-57237674D01*
X127689926Y-57225434D01*
X127632605Y-57207424D01*
X127567037Y-57205421D01*
X127504012Y-57219002D01*
X127504012Y-57219002D01*
G37*
X127504012Y-57219002D02*
X127472717Y-57233950D01*
X127442409Y-57255541D01*
X127419318Y-57280391D01*
X127402500Y-57312087D01*
X127391006Y-57354214D01*
X127383891Y-57410358D01*
X127380207Y-57484106D01*
X127379008Y-57579044D01*
X127378989Y-57588985D01*
X127378713Y-57812179D01*
X127517030Y-57812179D01*
X127517030Y-57606418D01*
X127517128Y-57530189D01*
X127517809Y-57474939D01*
X127519651Y-57436501D01*
X127523233Y-57410706D01*
X127529132Y-57393384D01*
X127537927Y-57380368D01*
X127550180Y-57367507D01*
X127593047Y-57339873D01*
X127639843Y-57334745D01*
X127684424Y-57352217D01*
X127699928Y-57365221D01*
X127711310Y-57377447D01*
X127719481Y-57390540D01*
X127724974Y-57408615D01*
X127728320Y-57435787D01*
X127730051Y-57476170D01*
X127730697Y-57533879D01*
X127730792Y-57604132D01*
X127730792Y-57812179D01*
X127869109Y-57812179D01*
X127869109Y-57208614D01*
X127799950Y-57208614D01*
X127758428Y-57210256D01*
X127737006Y-57216087D01*
X127730795Y-57227461D01*
X127730792Y-57227798D01*
X127727910Y-57238938D01*
X127715199Y-57237674D01*
X127689926Y-57225434D01*
X127632605Y-57207424D01*
X127567037Y-57205421D01*
X127504012Y-57219002D01*
G36*
X124950540Y-57208030D02*
X124907289Y-57221245D01*
X124879442Y-57237941D01*
X124870371Y-57251145D01*
X124872868Y-57266797D01*
X124889069Y-57291385D01*
X124902768Y-57308800D01*
X124931008Y-57340283D01*
X124952225Y-57353529D01*
X124970312Y-57352664D01*
X125023965Y-57339010D01*
X125063370Y-57339630D01*
X125095368Y-57355104D01*
X125106110Y-57364161D01*
X125140495Y-57396027D01*
X125140495Y-57812179D01*
X125278812Y-57812179D01*
X125278812Y-57208614D01*
X125209653Y-57208614D01*
X125168131Y-57210256D01*
X125146709Y-57216087D01*
X125140498Y-57227461D01*
X125140495Y-57227798D01*
X125137561Y-57239713D01*
X125124296Y-57238159D01*
X125105916Y-57229563D01*
X125067954Y-57213568D01*
X125037128Y-57203945D01*
X124997464Y-57201478D01*
X124950540Y-57208030D01*
X124950540Y-57208030D01*
G37*
X124950540Y-57208030D02*
X124907289Y-57221245D01*
X124879442Y-57237941D01*
X124870371Y-57251145D01*
X124872868Y-57266797D01*
X124889069Y-57291385D01*
X124902768Y-57308800D01*
X124931008Y-57340283D01*
X124952225Y-57353529D01*
X124970312Y-57352664D01*
X125023965Y-57339010D01*
X125063370Y-57339630D01*
X125095368Y-57355104D01*
X125106110Y-57364161D01*
X125140495Y-57396027D01*
X125140495Y-57812179D01*
X125278812Y-57812179D01*
X125278812Y-57208614D01*
X125209653Y-57208614D01*
X125168131Y-57210256D01*
X125146709Y-57216087D01*
X125140498Y-57227461D01*
X125140495Y-57227798D01*
X125137561Y-57239713D01*
X125124296Y-57238159D01*
X125105916Y-57229563D01*
X125067954Y-57213568D01*
X125037128Y-57203945D01*
X124997464Y-57201478D01*
X124950540Y-57208030D01*
G36*
X126373036Y-53040018D02*
X126316188Y-53341570D01*
X125896662Y-53514512D01*
X125645016Y-53343395D01*
X125574542Y-53295750D01*
X125510837Y-53253210D01*
X125456874Y-53217715D01*
X125415627Y-53191210D01*
X125390066Y-53175636D01*
X125383105Y-53172278D01*
X125370565Y-53180914D01*
X125343769Y-53204792D01*
X125305720Y-53240859D01*
X125259421Y-53286067D01*
X125207877Y-53337364D01*
X125154091Y-53391701D01*
X125101065Y-53446028D01*
X125051805Y-53497295D01*
X125009313Y-53542451D01*
X124976593Y-53578446D01*
X124956649Y-53602230D01*
X124951881Y-53610190D01*
X124958743Y-53624865D01*
X124977980Y-53657014D01*
X125007570Y-53703492D01*
X125045490Y-53761156D01*
X125089718Y-53826860D01*
X125115346Y-53864336D01*
X125162059Y-53932768D01*
X125203568Y-53994520D01*
X125237860Y-54046519D01*
X125262920Y-54085692D01*
X125276736Y-54108965D01*
X125278812Y-54113855D01*
X125274105Y-54127755D01*
X125261277Y-54160150D01*
X125242262Y-54206485D01*
X125218997Y-54262206D01*
X125193416Y-54322758D01*
X125167455Y-54383586D01*
X125143050Y-54440136D01*
X125122137Y-54487852D01*
X125106651Y-54522181D01*
X125098528Y-54538568D01*
X125098048Y-54539212D01*
X125085293Y-54542341D01*
X125051323Y-54549321D01*
X124999660Y-54559467D01*
X124933824Y-54572092D01*
X124857336Y-54586509D01*
X124812710Y-54594823D01*
X124730979Y-54610384D01*
X124657157Y-54625192D01*
X124594979Y-54638436D01*
X124548178Y-54649305D01*
X124520491Y-54656989D01*
X124514926Y-54659427D01*
X124509474Y-54675930D01*
X124505076Y-54713200D01*
X124501728Y-54766880D01*
X124499426Y-54832612D01*
X124498168Y-54906037D01*
X124497952Y-54982796D01*
X124498773Y-55058532D01*
X124500629Y-55128886D01*
X124503518Y-55189500D01*
X124507435Y-55236016D01*
X124512378Y-55264075D01*
X124515343Y-55269916D01*
X124533066Y-55276917D01*
X124570619Y-55286927D01*
X124623036Y-55298769D01*
X124685348Y-55311267D01*
X124707100Y-55315310D01*
X124811976Y-55334520D01*
X124894820Y-55349991D01*
X124958370Y-55362337D01*
X125005363Y-55372173D01*
X125038537Y-55380114D01*
X125060629Y-55386776D01*
X125074376Y-55392773D01*
X125082516Y-55398719D01*
X125083655Y-55399894D01*
X125095023Y-55418826D01*
X125112365Y-55455669D01*
X125133950Y-55505913D01*
X125158046Y-55565046D01*
X125182921Y-55628556D01*
X125206843Y-55691932D01*
X125228081Y-55750662D01*
X125244903Y-55800235D01*
X125255578Y-55836139D01*
X125258373Y-55853862D01*
X125258140Y-55854483D01*
X125248669Y-55868970D01*
X125227182Y-55900844D01*
X125195937Y-55946789D01*
X125157193Y-56003485D01*
X125113207Y-56067617D01*
X125100681Y-56085842D01*
X125056016Y-56151914D01*
X125016712Y-56212200D01*
X124984912Y-56263235D01*
X124962755Y-56301560D01*
X124952383Y-56323711D01*
X124951881Y-56326432D01*
X124960595Y-56340736D01*
X124984675Y-56369072D01*
X125021024Y-56408396D01*
X125066547Y-56455661D01*
X125118148Y-56507823D01*
X125172733Y-56561835D01*
X125227206Y-56614653D01*
X125278471Y-56663231D01*
X125323433Y-56704523D01*
X125358996Y-56735485D01*
X125382065Y-56753070D01*
X125388446Y-56755941D01*
X125403301Y-56749178D01*
X125433714Y-56730939D01*
X125474732Y-56704297D01*
X125506291Y-56682852D01*
X125563475Y-56643503D01*
X125631194Y-56597171D01*
X125699120Y-56550913D01*
X125735639Y-56526155D01*
X125859248Y-56442547D01*
X125963009Y-56498650D01*
X126010280Y-56523228D01*
X126050477Y-56542331D01*
X126077674Y-56553227D01*
X126084598Y-56554743D01*
X126092923Y-56543549D01*
X126109346Y-56511917D01*
X126132643Y-56462765D01*
X126161586Y-56399010D01*
X126194950Y-56323571D01*
X126231509Y-56239364D01*
X126270036Y-56149308D01*
X126309306Y-56056321D01*
X126348092Y-55963320D01*
X126385170Y-55873223D01*
X126419311Y-55788948D01*
X126449292Y-55713413D01*
X126473884Y-55649534D01*
X126491864Y-55600231D01*
X126502003Y-55568421D01*
X126503634Y-55557496D01*
X126490709Y-55543561D01*
X126462411Y-55520940D01*
X126424654Y-55494333D01*
X126421485Y-55492228D01*
X126323900Y-55414114D01*
X126245214Y-55322982D01*
X126186109Y-55221745D01*
X126147268Y-55113318D01*
X126129372Y-55000614D01*
X126133103Y-54886548D01*
X126159143Y-54774034D01*
X126208175Y-54665985D01*
X126222600Y-54642345D01*
X126297631Y-54546887D01*
X126386270Y-54470232D01*
X126485451Y-54412780D01*
X126592105Y-54374929D01*
X126703164Y-54357078D01*
X126815561Y-54359625D01*
X126926227Y-54382970D01*
X127032094Y-54427510D01*
X127130095Y-54493645D01*
X127160410Y-54520487D01*
X127237562Y-54604512D01*
X127293782Y-54692966D01*
X127332347Y-54792115D01*
X127353826Y-54890303D01*
X127359128Y-55000697D01*
X127341448Y-55111640D01*
X127302581Y-55219381D01*
X127244323Y-55320169D01*
X127168469Y-55410256D01*
X127076817Y-55485892D01*
X127064772Y-55493864D01*
X127026611Y-55519974D01*
X126997601Y-55542595D01*
X126983732Y-55557039D01*
X126983531Y-55557496D01*
X126986508Y-55573121D01*
X126998311Y-55608582D01*
X127017714Y-55660962D01*
X127043488Y-55727345D01*
X127074409Y-55804814D01*
X127109249Y-55890450D01*
X127146783Y-55981337D01*
X127185783Y-56074559D01*
X127225023Y-56167197D01*
X127263276Y-56256335D01*
X127299317Y-56339055D01*
X127331917Y-56412441D01*
X127359852Y-56473575D01*
X127381895Y-56519541D01*
X127396818Y-56547421D01*
X127402828Y-56554743D01*
X127421191Y-56549041D01*
X127455552Y-56533749D01*
X127499984Y-56511599D01*
X127524417Y-56498650D01*
X127628178Y-56442547D01*
X127751787Y-56526155D01*
X127814886Y-56568987D01*
X127883970Y-56616122D01*
X127948707Y-56660503D01*
X127981134Y-56682852D01*
X128026741Y-56713477D01*
X128065360Y-56737747D01*
X128091952Y-56752587D01*
X128100590Y-56755724D01*
X128113161Y-56747261D01*
X128140984Y-56723636D01*
X128181361Y-56687302D01*
X128231595Y-56640711D01*
X128288988Y-56586317D01*
X128325286Y-56551392D01*
X128388790Y-56488996D01*
X128443673Y-56433188D01*
X128487714Y-56386354D01*
X128518695Y-56350882D01*
X128534398Y-56329161D01*
X128535905Y-56324752D01*
X128528914Y-56307985D01*
X128509594Y-56274082D01*
X128480091Y-56226476D01*
X128442545Y-56168599D01*
X128399100Y-56103884D01*
X128386745Y-56085842D01*
X128341727Y-56020267D01*
X128301340Y-55961228D01*
X128267840Y-55912042D01*
X128243486Y-55876028D01*
X128230536Y-55856502D01*
X128229285Y-55854483D01*
X128231156Y-55838922D01*
X128241087Y-55804709D01*
X128257347Y-55756355D01*
X128278205Y-55698371D01*
X128301927Y-55635270D01*
X128326784Y-55571563D01*
X128351042Y-55511761D01*
X128372971Y-55460376D01*
X128390838Y-55421919D01*
X128402913Y-55400902D01*
X128403771Y-55399894D01*
X128411154Y-55393888D01*
X128423625Y-55387948D01*
X128443920Y-55381460D01*
X128474778Y-55373809D01*
X128518934Y-55364380D01*
X128579126Y-55352559D01*
X128658093Y-55337729D01*
X128758570Y-55319277D01*
X128780325Y-55315310D01*
X128844802Y-55302853D01*
X128901011Y-55290666D01*
X128943987Y-55279926D01*
X128968760Y-55271809D01*
X128972082Y-55269916D01*
X128977556Y-55253138D01*
X128982006Y-55215645D01*
X128985428Y-55161794D01*
X128987819Y-55095944D01*
X128989177Y-55022453D01*
X128989499Y-54945680D01*
X128988781Y-54869983D01*
X128987021Y-54799720D01*
X128984216Y-54739250D01*
X128980362Y-54692930D01*
X128975457Y-54665119D01*
X128972500Y-54659427D01*
X128956037Y-54653686D01*
X128918551Y-54644345D01*
X128863775Y-54632215D01*
X128795445Y-54618107D01*
X128717294Y-54602830D01*
X128674716Y-54594823D01*
X128593929Y-54579721D01*
X128521887Y-54566040D01*
X128462111Y-54554467D01*
X128418121Y-54545687D01*
X128393439Y-54540387D01*
X128389377Y-54539212D01*
X128382511Y-54525965D01*
X128367998Y-54494057D01*
X128347771Y-54448047D01*
X128323766Y-54392492D01*
X128297918Y-54331953D01*
X128272160Y-54270986D01*
X128248427Y-54214151D01*
X128228654Y-54166006D01*
X128214776Y-54131110D01*
X128208726Y-54114021D01*
X128208614Y-54113274D01*
X128215472Y-54099793D01*
X128234698Y-54068770D01*
X128264272Y-54023289D01*
X128302173Y-53966432D01*
X128346380Y-53901283D01*
X128372079Y-53863862D01*
X128418907Y-53795247D01*
X128460499Y-53732952D01*
X128494825Y-53680129D01*
X128519857Y-53639927D01*
X128533565Y-53615500D01*
X128535544Y-53610024D01*
X128527034Y-53597278D01*
X128503507Y-53570063D01*
X128467968Y-53531428D01*
X128423423Y-53484423D01*
X128372877Y-53432095D01*
X128319336Y-53377495D01*
X128265805Y-53323670D01*
X128215289Y-53273670D01*
X128170794Y-53230543D01*
X128135325Y-53197339D01*
X128111887Y-53177106D01*
X128104046Y-53172278D01*
X128091280Y-53179067D01*
X128060744Y-53198142D01*
X128015410Y-53227561D01*
X127958244Y-53265381D01*
X127892216Y-53309661D01*
X127842410Y-53343395D01*
X127590764Y-53514512D01*
X127381001Y-53428041D01*
X127171237Y-53341570D01*
X127114389Y-53040018D01*
X127057540Y-52738466D01*
X126429885Y-52738466D01*
X126373036Y-53040018D01*
X126373036Y-53040018D01*
G37*
X126373036Y-53040018D02*
X126316188Y-53341570D01*
X125896662Y-53514512D01*
X125645016Y-53343395D01*
X125574542Y-53295750D01*
X125510837Y-53253210D01*
X125456874Y-53217715D01*
X125415627Y-53191210D01*
X125390066Y-53175636D01*
X125383105Y-53172278D01*
X125370565Y-53180914D01*
X125343769Y-53204792D01*
X125305720Y-53240859D01*
X125259421Y-53286067D01*
X125207877Y-53337364D01*
X125154091Y-53391701D01*
X125101065Y-53446028D01*
X125051805Y-53497295D01*
X125009313Y-53542451D01*
X124976593Y-53578446D01*
X124956649Y-53602230D01*
X124951881Y-53610190D01*
X124958743Y-53624865D01*
X124977980Y-53657014D01*
X125007570Y-53703492D01*
X125045490Y-53761156D01*
X125089718Y-53826860D01*
X125115346Y-53864336D01*
X125162059Y-53932768D01*
X125203568Y-53994520D01*
X125237860Y-54046519D01*
X125262920Y-54085692D01*
X125276736Y-54108965D01*
X125278812Y-54113855D01*
X125274105Y-54127755D01*
X125261277Y-54160150D01*
X125242262Y-54206485D01*
X125218997Y-54262206D01*
X125193416Y-54322758D01*
X125167455Y-54383586D01*
X125143050Y-54440136D01*
X125122137Y-54487852D01*
X125106651Y-54522181D01*
X125098528Y-54538568D01*
X125098048Y-54539212D01*
X125085293Y-54542341D01*
X125051323Y-54549321D01*
X124999660Y-54559467D01*
X124933824Y-54572092D01*
X124857336Y-54586509D01*
X124812710Y-54594823D01*
X124730979Y-54610384D01*
X124657157Y-54625192D01*
X124594979Y-54638436D01*
X124548178Y-54649305D01*
X124520491Y-54656989D01*
X124514926Y-54659427D01*
X124509474Y-54675930D01*
X124505076Y-54713200D01*
X124501728Y-54766880D01*
X124499426Y-54832612D01*
X124498168Y-54906037D01*
X124497952Y-54982796D01*
X124498773Y-55058532D01*
X124500629Y-55128886D01*
X124503518Y-55189500D01*
X124507435Y-55236016D01*
X124512378Y-55264075D01*
X124515343Y-55269916D01*
X124533066Y-55276917D01*
X124570619Y-55286927D01*
X124623036Y-55298769D01*
X124685348Y-55311267D01*
X124707100Y-55315310D01*
X124811976Y-55334520D01*
X124894820Y-55349991D01*
X124958370Y-55362337D01*
X125005363Y-55372173D01*
X125038537Y-55380114D01*
X125060629Y-55386776D01*
X125074376Y-55392773D01*
X125082516Y-55398719D01*
X125083655Y-55399894D01*
X125095023Y-55418826D01*
X125112365Y-55455669D01*
X125133950Y-55505913D01*
X125158046Y-55565046D01*
X125182921Y-55628556D01*
X125206843Y-55691932D01*
X125228081Y-55750662D01*
X125244903Y-55800235D01*
X125255578Y-55836139D01*
X125258373Y-55853862D01*
X125258140Y-55854483D01*
X125248669Y-55868970D01*
X125227182Y-55900844D01*
X125195937Y-55946789D01*
X125157193Y-56003485D01*
X125113207Y-56067617D01*
X125100681Y-56085842D01*
X125056016Y-56151914D01*
X125016712Y-56212200D01*
X124984912Y-56263235D01*
X124962755Y-56301560D01*
X124952383Y-56323711D01*
X124951881Y-56326432D01*
X124960595Y-56340736D01*
X124984675Y-56369072D01*
X125021024Y-56408396D01*
X125066547Y-56455661D01*
X125118148Y-56507823D01*
X125172733Y-56561835D01*
X125227206Y-56614653D01*
X125278471Y-56663231D01*
X125323433Y-56704523D01*
X125358996Y-56735485D01*
X125382065Y-56753070D01*
X125388446Y-56755941D01*
X125403301Y-56749178D01*
X125433714Y-56730939D01*
X125474732Y-56704297D01*
X125506291Y-56682852D01*
X125563475Y-56643503D01*
X125631194Y-56597171D01*
X125699120Y-56550913D01*
X125735639Y-56526155D01*
X125859248Y-56442547D01*
X125963009Y-56498650D01*
X126010280Y-56523228D01*
X126050477Y-56542331D01*
X126077674Y-56553227D01*
X126084598Y-56554743D01*
X126092923Y-56543549D01*
X126109346Y-56511917D01*
X126132643Y-56462765D01*
X126161586Y-56399010D01*
X126194950Y-56323571D01*
X126231509Y-56239364D01*
X126270036Y-56149308D01*
X126309306Y-56056321D01*
X126348092Y-55963320D01*
X126385170Y-55873223D01*
X126419311Y-55788948D01*
X126449292Y-55713413D01*
X126473884Y-55649534D01*
X126491864Y-55600231D01*
X126502003Y-55568421D01*
X126503634Y-55557496D01*
X126490709Y-55543561D01*
X126462411Y-55520940D01*
X126424654Y-55494333D01*
X126421485Y-55492228D01*
X126323900Y-55414114D01*
X126245214Y-55322982D01*
X126186109Y-55221745D01*
X126147268Y-55113318D01*
X126129372Y-55000614D01*
X126133103Y-54886548D01*
X126159143Y-54774034D01*
X126208175Y-54665985D01*
X126222600Y-54642345D01*
X126297631Y-54546887D01*
X126386270Y-54470232D01*
X126485451Y-54412780D01*
X126592105Y-54374929D01*
X126703164Y-54357078D01*
X126815561Y-54359625D01*
X126926227Y-54382970D01*
X127032094Y-54427510D01*
X127130095Y-54493645D01*
X127160410Y-54520487D01*
X127237562Y-54604512D01*
X127293782Y-54692966D01*
X127332347Y-54792115D01*
X127353826Y-54890303D01*
X127359128Y-55000697D01*
X127341448Y-55111640D01*
X127302581Y-55219381D01*
X127244323Y-55320169D01*
X127168469Y-55410256D01*
X127076817Y-55485892D01*
X127064772Y-55493864D01*
X127026611Y-55519974D01*
X126997601Y-55542595D01*
X126983732Y-55557039D01*
X126983531Y-55557496D01*
X126986508Y-55573121D01*
X126998311Y-55608582D01*
X127017714Y-55660962D01*
X127043488Y-55727345D01*
X127074409Y-55804814D01*
X127109249Y-55890450D01*
X127146783Y-55981337D01*
X127185783Y-56074559D01*
X127225023Y-56167197D01*
X127263276Y-56256335D01*
X127299317Y-56339055D01*
X127331917Y-56412441D01*
X127359852Y-56473575D01*
X127381895Y-56519541D01*
X127396818Y-56547421D01*
X127402828Y-56554743D01*
X127421191Y-56549041D01*
X127455552Y-56533749D01*
X127499984Y-56511599D01*
X127524417Y-56498650D01*
X127628178Y-56442547D01*
X127751787Y-56526155D01*
X127814886Y-56568987D01*
X127883970Y-56616122D01*
X127948707Y-56660503D01*
X127981134Y-56682852D01*
X128026741Y-56713477D01*
X128065360Y-56737747D01*
X128091952Y-56752587D01*
X128100590Y-56755724D01*
X128113161Y-56747261D01*
X128140984Y-56723636D01*
X128181361Y-56687302D01*
X128231595Y-56640711D01*
X128288988Y-56586317D01*
X128325286Y-56551392D01*
X128388790Y-56488996D01*
X128443673Y-56433188D01*
X128487714Y-56386354D01*
X128518695Y-56350882D01*
X128534398Y-56329161D01*
X128535905Y-56324752D01*
X128528914Y-56307985D01*
X128509594Y-56274082D01*
X128480091Y-56226476D01*
X128442545Y-56168599D01*
X128399100Y-56103884D01*
X128386745Y-56085842D01*
X128341727Y-56020267D01*
X128301340Y-55961228D01*
X128267840Y-55912042D01*
X128243486Y-55876028D01*
X128230536Y-55856502D01*
X128229285Y-55854483D01*
X128231156Y-55838922D01*
X128241087Y-55804709D01*
X128257347Y-55756355D01*
X128278205Y-55698371D01*
X128301927Y-55635270D01*
X128326784Y-55571563D01*
X128351042Y-55511761D01*
X128372971Y-55460376D01*
X128390838Y-55421919D01*
X128402913Y-55400902D01*
X128403771Y-55399894D01*
X128411154Y-55393888D01*
X128423625Y-55387948D01*
X128443920Y-55381460D01*
X128474778Y-55373809D01*
X128518934Y-55364380D01*
X128579126Y-55352559D01*
X128658093Y-55337729D01*
X128758570Y-55319277D01*
X128780325Y-55315310D01*
X128844802Y-55302853D01*
X128901011Y-55290666D01*
X128943987Y-55279926D01*
X128968760Y-55271809D01*
X128972082Y-55269916D01*
X128977556Y-55253138D01*
X128982006Y-55215645D01*
X128985428Y-55161794D01*
X128987819Y-55095944D01*
X128989177Y-55022453D01*
X128989499Y-54945680D01*
X128988781Y-54869983D01*
X128987021Y-54799720D01*
X128984216Y-54739250D01*
X128980362Y-54692930D01*
X128975457Y-54665119D01*
X128972500Y-54659427D01*
X128956037Y-54653686D01*
X128918551Y-54644345D01*
X128863775Y-54632215D01*
X128795445Y-54618107D01*
X128717294Y-54602830D01*
X128674716Y-54594823D01*
X128593929Y-54579721D01*
X128521887Y-54566040D01*
X128462111Y-54554467D01*
X128418121Y-54545687D01*
X128393439Y-54540387D01*
X128389377Y-54539212D01*
X128382511Y-54525965D01*
X128367998Y-54494057D01*
X128347771Y-54448047D01*
X128323766Y-54392492D01*
X128297918Y-54331953D01*
X128272160Y-54270986D01*
X128248427Y-54214151D01*
X128228654Y-54166006D01*
X128214776Y-54131110D01*
X128208726Y-54114021D01*
X128208614Y-54113274D01*
X128215472Y-54099793D01*
X128234698Y-54068770D01*
X128264272Y-54023289D01*
X128302173Y-53966432D01*
X128346380Y-53901283D01*
X128372079Y-53863862D01*
X128418907Y-53795247D01*
X128460499Y-53732952D01*
X128494825Y-53680129D01*
X128519857Y-53639927D01*
X128533565Y-53615500D01*
X128535544Y-53610024D01*
X128527034Y-53597278D01*
X128503507Y-53570063D01*
X128467968Y-53531428D01*
X128423423Y-53484423D01*
X128372877Y-53432095D01*
X128319336Y-53377495D01*
X128265805Y-53323670D01*
X128215289Y-53273670D01*
X128170794Y-53230543D01*
X128135325Y-53197339D01*
X128111887Y-53177106D01*
X128104046Y-53172278D01*
X128091280Y-53179067D01*
X128060744Y-53198142D01*
X128015410Y-53227561D01*
X127958244Y-53265381D01*
X127892216Y-53309661D01*
X127842410Y-53343395D01*
X127590764Y-53514512D01*
X127381001Y-53428041D01*
X127171237Y-53341570D01*
X127114389Y-53040018D01*
X127057540Y-52738466D01*
X126429885Y-52738466D01*
X126373036Y-53040018D01*
D10*
X140252528Y-52862772D02*
X146063820Y-52862772D01*
X146063820Y-52862772D02*
X146090151Y-54146205D01*
X146090151Y-54146205D02*
X154921373Y-54139517D01*
X154921373Y-54139517D02*
X154919397Y-52937264D01*
X154919397Y-52937264D02*
X164000193Y-52963342D01*
X164000193Y-52963342D02*
X163986195Y-84133493D01*
X163986195Y-84133493D02*
X163753384Y-84736286D01*
X163753384Y-84736286D02*
X163469901Y-85281167D01*
X163469901Y-85281167D02*
X163135253Y-85767577D01*
X163135253Y-85767577D02*
X162748953Y-86194952D01*
X162748953Y-86194952D02*
X162310512Y-86562741D01*
X162310512Y-86562741D02*
X161819440Y-86870377D01*
X161819440Y-86870377D02*
X161275250Y-87117310D01*
X161275250Y-87117310D02*
X160677453Y-87302976D01*
X160677453Y-87302976D02*
X141639540Y-87331734D01*
X141639540Y-87331734D02*
X141020176Y-87097741D01*
X141020176Y-87097741D02*
X140431982Y-86813258D01*
X140431982Y-86813258D02*
X139888555Y-86463743D01*
X139888555Y-86463743D02*
X139403497Y-86034658D01*
X139403497Y-86034658D02*
X138990405Y-85511460D01*
X138990405Y-85511460D02*
X138662878Y-84879613D01*
X138662878Y-84879613D02*
X138434518Y-84124575D01*
X138434518Y-84124575D02*
X138318922Y-83231807D01*
X138318922Y-83231807D02*
X138293974Y-60676715D01*
X138293974Y-60676715D02*
X140237520Y-59715819D01*
X140237520Y-59715819D02*
X140267314Y-52907476D01*
X154249650Y-59088549D02*
X147110069Y-59088549D01*
X147110069Y-59088549D02*
X147110069Y-53274812D01*
X147110069Y-53274812D02*
X154249650Y-53274812D01*
X154249650Y-53274812D02*
X154249650Y-59088549D01*
X140326400Y-59737651D02*
X141878622Y-59737651D01*
X141878622Y-59737651D02*
X142407789Y-59208485D01*
X142407789Y-59208485D02*
X143660150Y-59208485D01*
X143660150Y-59208485D02*
X143660150Y-54146124D01*
X143660150Y-54146124D02*
X142372511Y-54146124D01*
X142372511Y-54146124D02*
X141843344Y-53652235D01*
X141843344Y-53652235D02*
X140273483Y-53652235D01*
X140291122Y-57656262D02*
X139638483Y-57656262D01*
X139638483Y-57656262D02*
X139638483Y-55663068D01*
X139638483Y-55663068D02*
X140255844Y-55663068D01*
D11*
X156784286Y-87654762D02*
X156189048Y-89654762D01*
X155712858Y-88226190D01*
X155236667Y-89654762D01*
X154641429Y-87654762D01*
X152736667Y-89559524D02*
X152974762Y-89654762D01*
X153450953Y-89654762D01*
X153689048Y-89559524D01*
X153808096Y-89369048D01*
X153808096Y-88607143D01*
X153689048Y-88416667D01*
X153450953Y-88321429D01*
X152974762Y-88321429D01*
X152736667Y-88416667D01*
X152617619Y-88607143D01*
X152617619Y-88797619D01*
X153808096Y-88988095D01*
X151546191Y-89654762D02*
X151546191Y-87654762D01*
X150712858Y-89083333D01*
X149879524Y-87654762D01*
X149879524Y-89654762D01*
X148331905Y-89654762D02*
X148570000Y-89559524D01*
X148689048Y-89464286D01*
X148808096Y-89273810D01*
X148808096Y-88702381D01*
X148689048Y-88511905D01*
X148570000Y-88416667D01*
X148331905Y-88321429D01*
X147974762Y-88321429D01*
X147736667Y-88416667D01*
X147617619Y-88511905D01*
X147498572Y-88702381D01*
X147498572Y-89273810D01*
X147617619Y-89464286D01*
X147736667Y-89559524D01*
X147974762Y-89654762D01*
X148331905Y-89654762D01*
X146546191Y-89559524D02*
X146308095Y-89654762D01*
X145831905Y-89654762D01*
X145593810Y-89559524D01*
X145474762Y-89369048D01*
X145474762Y-89273810D01*
X145593810Y-89083333D01*
X145831905Y-88988095D01*
X146189048Y-88988095D01*
X146427143Y-88892857D01*
X146546191Y-88702381D01*
X146546191Y-88607143D01*
X146427143Y-88416667D01*
X146189048Y-88321429D01*
X145831905Y-88321429D01*
X145593810Y-88416667D01*
M02*
