G04 #@! TF.FileFunction,Legend,Bot*
%FSLAX46Y46*%
G04 Gerber Fmt 4.6, Leading zero omitted, Abs format (unit mm)*
G04 Created by KiCad (PCBNEW 4.0.7-e2-6376~58~ubuntu14.04.1) date Sun Dec 17 21:17:51 2017*
%MOMM*%
%LPD*%
G01*
G04 APERTURE LIST*
%ADD10C,0.100000*%
%ADD11C,0.150000*%
%ADD12C,0.125000*%
%ADD13C,0.200000*%
%ADD14C,0.300000*%
%ADD15C,0.010000*%
G04 APERTURE END LIST*
D10*
D11*
X167988095Y-100500000D02*
X168083333Y-100452381D01*
X168226190Y-100452381D01*
X168369048Y-100500000D01*
X168464286Y-100595238D01*
X168511905Y-100690476D01*
X168559524Y-100880952D01*
X168559524Y-101023810D01*
X168511905Y-101214286D01*
X168464286Y-101309524D01*
X168369048Y-101404762D01*
X168226190Y-101452381D01*
X168130952Y-101452381D01*
X167988095Y-101404762D01*
X167940476Y-101357143D01*
X167940476Y-101023810D01*
X168130952Y-101023810D01*
X162488095Y-100500000D02*
X162583333Y-100452381D01*
X162726190Y-100452381D01*
X162869048Y-100500000D01*
X162964286Y-100595238D01*
X163011905Y-100690476D01*
X163059524Y-100880952D01*
X163059524Y-101023810D01*
X163011905Y-101214286D01*
X162964286Y-101309524D01*
X162869048Y-101404762D01*
X162726190Y-101452381D01*
X162630952Y-101452381D01*
X162488095Y-101404762D01*
X162440476Y-101357143D01*
X162440476Y-101023810D01*
X162630952Y-101023810D01*
X156988095Y-100500000D02*
X157083333Y-100452381D01*
X157226190Y-100452381D01*
X157369048Y-100500000D01*
X157464286Y-100595238D01*
X157511905Y-100690476D01*
X157559524Y-100880952D01*
X157559524Y-101023810D01*
X157511905Y-101214286D01*
X157464286Y-101309524D01*
X157369048Y-101404762D01*
X157226190Y-101452381D01*
X157130952Y-101452381D01*
X156988095Y-101404762D01*
X156940476Y-101357143D01*
X156940476Y-101023810D01*
X157130952Y-101023810D01*
X150988095Y-100500000D02*
X151083333Y-100452381D01*
X151226190Y-100452381D01*
X151369048Y-100500000D01*
X151464286Y-100595238D01*
X151511905Y-100690476D01*
X151559524Y-100880952D01*
X151559524Y-101023810D01*
X151511905Y-101214286D01*
X151464286Y-101309524D01*
X151369048Y-101404762D01*
X151226190Y-101452381D01*
X151130952Y-101452381D01*
X150988095Y-101404762D01*
X150940476Y-101357143D01*
X150940476Y-101023810D01*
X151130952Y-101023810D01*
X145488095Y-100500000D02*
X145583333Y-100452381D01*
X145726190Y-100452381D01*
X145869048Y-100500000D01*
X145964286Y-100595238D01*
X146011905Y-100690476D01*
X146059524Y-100880952D01*
X146059524Y-101023810D01*
X146011905Y-101214286D01*
X145964286Y-101309524D01*
X145869048Y-101404762D01*
X145726190Y-101452381D01*
X145630952Y-101452381D01*
X145488095Y-101404762D01*
X145440476Y-101357143D01*
X145440476Y-101023810D01*
X145630952Y-101023810D01*
X139988095Y-100500000D02*
X140083333Y-100452381D01*
X140226190Y-100452381D01*
X140369048Y-100500000D01*
X140464286Y-100595238D01*
X140511905Y-100690476D01*
X140559524Y-100880952D01*
X140559524Y-101023810D01*
X140511905Y-101214286D01*
X140464286Y-101309524D01*
X140369048Y-101404762D01*
X140226190Y-101452381D01*
X140130952Y-101452381D01*
X139988095Y-101404762D01*
X139940476Y-101357143D01*
X139940476Y-101023810D01*
X140130952Y-101023810D01*
X133261904Y-54750000D02*
X133357142Y-54702381D01*
X133499999Y-54702381D01*
X133642857Y-54750000D01*
X133738095Y-54845238D01*
X133785714Y-54940476D01*
X133833333Y-55130952D01*
X133833333Y-55273810D01*
X133785714Y-55464286D01*
X133738095Y-55559524D01*
X133642857Y-55654762D01*
X133499999Y-55702381D01*
X133404761Y-55702381D01*
X133261904Y-55654762D01*
X133214285Y-55607143D01*
X133214285Y-55273810D01*
X133404761Y-55273810D01*
X132785714Y-55702381D02*
X132785714Y-54702381D01*
X132214285Y-55702381D01*
X132214285Y-54702381D01*
X131738095Y-55702381D02*
X131738095Y-54702381D01*
X131500000Y-54702381D01*
X131357142Y-54750000D01*
X131261904Y-54845238D01*
X131214285Y-54940476D01*
X131166666Y-55130952D01*
X131166666Y-55273810D01*
X131214285Y-55464286D01*
X131261904Y-55559524D01*
X131357142Y-55654762D01*
X131500000Y-55702381D01*
X131738095Y-55702381D01*
X152369048Y-56952381D02*
X152845239Y-56952381D01*
X152845239Y-55952381D01*
X152035715Y-56428571D02*
X151702381Y-56428571D01*
X151559524Y-56952381D02*
X152035715Y-56952381D01*
X152035715Y-55952381D01*
X151559524Y-55952381D01*
X151130953Y-56952381D02*
X151130953Y-55952381D01*
X150892858Y-55952381D01*
X150750000Y-56000000D01*
X150654762Y-56095238D01*
X150607143Y-56190476D01*
X150559524Y-56380952D01*
X150559524Y-56523810D01*
X150607143Y-56714286D01*
X150654762Y-56809524D01*
X150750000Y-56904762D01*
X150892858Y-56952381D01*
X151130953Y-56952381D01*
X150369048Y-57047619D02*
X149607143Y-57047619D01*
X149035714Y-56428571D02*
X148892857Y-56476190D01*
X148845238Y-56523810D01*
X148797619Y-56619048D01*
X148797619Y-56761905D01*
X148845238Y-56857143D01*
X148892857Y-56904762D01*
X148988095Y-56952381D01*
X149369048Y-56952381D01*
X149369048Y-55952381D01*
X149035714Y-55952381D01*
X148940476Y-56000000D01*
X148892857Y-56047619D01*
X148845238Y-56142857D01*
X148845238Y-56238095D01*
X148892857Y-56333333D01*
X148940476Y-56380952D01*
X149035714Y-56428571D01*
X149369048Y-56428571D01*
X147940476Y-56285714D02*
X147940476Y-56952381D01*
X148369048Y-56285714D02*
X148369048Y-56809524D01*
X148321429Y-56904762D01*
X148226191Y-56952381D01*
X148083333Y-56952381D01*
X147988095Y-56904762D01*
X147940476Y-56857143D01*
X147464286Y-56952381D02*
X147464286Y-56285714D01*
X147464286Y-55952381D02*
X147511905Y-56000000D01*
X147464286Y-56047619D01*
X147416667Y-56000000D01*
X147464286Y-55952381D01*
X147464286Y-56047619D01*
X146845239Y-56952381D02*
X146940477Y-56904762D01*
X146988096Y-56809524D01*
X146988096Y-55952381D01*
X146607143Y-56285714D02*
X146226191Y-56285714D01*
X146464286Y-55952381D02*
X146464286Y-56809524D01*
X146416667Y-56904762D01*
X146321429Y-56952381D01*
X146226191Y-56952381D01*
X145892857Y-56952381D02*
X145892857Y-55952381D01*
X145416667Y-56285714D02*
X145416667Y-56952381D01*
X145416667Y-56380952D02*
X145369048Y-56333333D01*
X145273810Y-56285714D01*
X145130952Y-56285714D01*
X145035714Y-56333333D01*
X144988095Y-56428571D01*
X144988095Y-56952381D01*
X147369048Y-58452381D02*
X146750000Y-58452381D01*
X147083334Y-58833333D01*
X146940476Y-58833333D01*
X146845238Y-58880952D01*
X146797619Y-58928571D01*
X146750000Y-59023810D01*
X146750000Y-59261905D01*
X146797619Y-59357143D01*
X146845238Y-59404762D01*
X146940476Y-59452381D01*
X147226191Y-59452381D01*
X147321429Y-59404762D01*
X147369048Y-59357143D01*
X146464286Y-58452381D02*
X146130953Y-59452381D01*
X145797619Y-58452381D01*
X145559524Y-58452381D02*
X144940476Y-58452381D01*
X145273810Y-58833333D01*
X145130952Y-58833333D01*
X145035714Y-58880952D01*
X144988095Y-58928571D01*
X144940476Y-59023810D01*
X144940476Y-59261905D01*
X144988095Y-59357143D01*
X145035714Y-59404762D01*
X145130952Y-59452381D01*
X145416667Y-59452381D01*
X145511905Y-59404762D01*
X145559524Y-59357143D01*
X145845238Y-83952381D02*
X146321429Y-83952381D01*
X146369048Y-84428571D01*
X146321429Y-84380952D01*
X146226191Y-84333333D01*
X145988095Y-84333333D01*
X145892857Y-84380952D01*
X145845238Y-84428571D01*
X145797619Y-84523810D01*
X145797619Y-84761905D01*
X145845238Y-84857143D01*
X145892857Y-84904762D01*
X145988095Y-84952381D01*
X146226191Y-84952381D01*
X146321429Y-84904762D01*
X146369048Y-84857143D01*
X145511905Y-83952381D02*
X145178572Y-84952381D01*
X144845238Y-83952381D01*
X146750000Y-92452381D02*
X147321429Y-92452381D01*
X147035715Y-92452381D02*
X147035715Y-91452381D01*
X147130953Y-91595238D01*
X147226191Y-91690476D01*
X147321429Y-91738095D01*
X146369048Y-91547619D02*
X146321429Y-91500000D01*
X146226191Y-91452381D01*
X145988095Y-91452381D01*
X145892857Y-91500000D01*
X145845238Y-91547619D01*
X145797619Y-91642857D01*
X145797619Y-91738095D01*
X145845238Y-91880952D01*
X146416667Y-92452381D01*
X145797619Y-92452381D01*
X145511905Y-91452381D02*
X145178572Y-92452381D01*
X144845238Y-91452381D01*
X147035714Y-89000000D02*
X147130952Y-88952381D01*
X147273809Y-88952381D01*
X147416667Y-89000000D01*
X147511905Y-89095238D01*
X147559524Y-89190476D01*
X147607143Y-89380952D01*
X147607143Y-89523810D01*
X147559524Y-89714286D01*
X147511905Y-89809524D01*
X147416667Y-89904762D01*
X147273809Y-89952381D01*
X147178571Y-89952381D01*
X147035714Y-89904762D01*
X146988095Y-89857143D01*
X146988095Y-89523810D01*
X147178571Y-89523810D01*
X146559524Y-89952381D02*
X146559524Y-88952381D01*
X145988095Y-89952381D01*
X145988095Y-88952381D01*
X145511905Y-89952381D02*
X145511905Y-88952381D01*
X145273810Y-88952381D01*
X145130952Y-89000000D01*
X145035714Y-89095238D01*
X144988095Y-89190476D01*
X144940476Y-89380952D01*
X144940476Y-89523810D01*
X144988095Y-89714286D01*
X145035714Y-89809524D01*
X145130952Y-89904762D01*
X145273810Y-89952381D01*
X145511905Y-89952381D01*
X156738095Y-84000000D02*
X156833333Y-83952381D01*
X156976190Y-83952381D01*
X157119048Y-84000000D01*
X157214286Y-84095238D01*
X157261905Y-84190476D01*
X157309524Y-84380952D01*
X157309524Y-84523810D01*
X157261905Y-84714286D01*
X157214286Y-84809524D01*
X157119048Y-84904762D01*
X156976190Y-84952381D01*
X156880952Y-84952381D01*
X156738095Y-84904762D01*
X156690476Y-84857143D01*
X156690476Y-84523810D01*
X156880952Y-84523810D01*
X156261905Y-84952381D02*
X156261905Y-83952381D01*
X155690476Y-84952381D01*
X155690476Y-83952381D01*
X155214286Y-84952381D02*
X155214286Y-83952381D01*
X154976191Y-83952381D01*
X154833333Y-84000000D01*
X154738095Y-84095238D01*
X154690476Y-84190476D01*
X154642857Y-84380952D01*
X154642857Y-84523810D01*
X154690476Y-84714286D01*
X154738095Y-84809524D01*
X154833333Y-84904762D01*
X154976191Y-84952381D01*
X155214286Y-84952381D01*
D12*
X157142857Y-77202381D02*
X157380952Y-77202381D01*
X157380952Y-76202381D01*
X156976190Y-76678571D02*
X156809524Y-76678571D01*
X156738095Y-77202381D02*
X156976190Y-77202381D01*
X156976190Y-76202381D01*
X156738095Y-76202381D01*
X156523809Y-77202381D02*
X156523809Y-76202381D01*
X156404762Y-76202381D01*
X156333333Y-76250000D01*
X156285714Y-76345238D01*
X156261905Y-76440476D01*
X156238095Y-76630952D01*
X156238095Y-76773810D01*
X156261905Y-76964286D01*
X156285714Y-77059524D01*
X156333333Y-77154762D01*
X156404762Y-77202381D01*
X156523809Y-77202381D01*
X156071428Y-76202381D02*
X155952381Y-77202381D01*
X155857143Y-76488095D01*
X155761905Y-77202381D01*
X155642857Y-76202381D01*
X155476190Y-77154762D02*
X155404761Y-77202381D01*
X155285714Y-77202381D01*
X155238095Y-77154762D01*
X155214285Y-77107143D01*
X155190476Y-77011905D01*
X155190476Y-76916667D01*
X155214285Y-76821429D01*
X155238095Y-76773810D01*
X155285714Y-76726190D01*
X155380952Y-76678571D01*
X155428571Y-76630952D01*
X155452380Y-76583333D01*
X155476190Y-76488095D01*
X155476190Y-76392857D01*
X155452380Y-76297619D01*
X155428571Y-76250000D01*
X155380952Y-76202381D01*
X155261904Y-76202381D01*
X155190476Y-76250000D01*
X155095238Y-77297619D02*
X154714286Y-77297619D01*
X154595238Y-77202381D02*
X154595238Y-76202381D01*
X154476191Y-76202381D01*
X154404762Y-76250000D01*
X154357143Y-76345238D01*
X154333334Y-76440476D01*
X154309524Y-76630952D01*
X154309524Y-76773810D01*
X154333334Y-76964286D01*
X154357143Y-77059524D01*
X154404762Y-77154762D01*
X154476191Y-77202381D01*
X154595238Y-77202381D01*
X154095238Y-77202381D02*
X154095238Y-76535714D01*
X154095238Y-76202381D02*
X154119048Y-76250000D01*
X154095238Y-76297619D01*
X154071429Y-76250000D01*
X154095238Y-76202381D01*
X154095238Y-76297619D01*
X153857143Y-76535714D02*
X153857143Y-77202381D01*
X153857143Y-76630952D02*
X153833334Y-76583333D01*
X153785715Y-76535714D01*
X153714286Y-76535714D01*
X153666667Y-76583333D01*
X153642858Y-76678571D01*
X153642858Y-77202381D01*
D11*
X156928571Y-72202381D02*
X157309524Y-72202381D01*
X157309524Y-71202381D01*
X156661905Y-71678571D02*
X156395238Y-71678571D01*
X156280952Y-72202381D02*
X156661905Y-72202381D01*
X156661905Y-71202381D01*
X156280952Y-71202381D01*
X155938095Y-72202381D02*
X155938095Y-71202381D01*
X155747619Y-71202381D01*
X155633333Y-71250000D01*
X155557142Y-71345238D01*
X155519047Y-71440476D01*
X155480952Y-71630952D01*
X155480952Y-71773810D01*
X155519047Y-71964286D01*
X155557142Y-72059524D01*
X155633333Y-72154762D01*
X155747619Y-72202381D01*
X155938095Y-72202381D01*
X154719047Y-72202381D02*
X155176190Y-72202381D01*
X154947619Y-72202381D02*
X154947619Y-71202381D01*
X155023809Y-71345238D01*
X155100000Y-71440476D01*
X155176190Y-71488095D01*
X154566666Y-72297619D02*
X153957142Y-72297619D01*
X153499999Y-71678571D02*
X153385713Y-71726190D01*
X153347618Y-71773810D01*
X153309523Y-71869048D01*
X153309523Y-72011905D01*
X153347618Y-72107143D01*
X153385713Y-72154762D01*
X153461904Y-72202381D01*
X153766666Y-72202381D01*
X153766666Y-71202381D01*
X153499999Y-71202381D01*
X153423809Y-71250000D01*
X153385713Y-71297619D01*
X153347618Y-71392857D01*
X153347618Y-71488095D01*
X153385713Y-71583333D01*
X153423809Y-71630952D01*
X153499999Y-71678571D01*
X153766666Y-71678571D01*
X156928571Y-74702381D02*
X157309524Y-74702381D01*
X157309524Y-73702381D01*
X156661905Y-74178571D02*
X156395238Y-74178571D01*
X156280952Y-74702381D02*
X156661905Y-74702381D01*
X156661905Y-73702381D01*
X156280952Y-73702381D01*
X155938095Y-74702381D02*
X155938095Y-73702381D01*
X155747619Y-73702381D01*
X155633333Y-73750000D01*
X155557142Y-73845238D01*
X155519047Y-73940476D01*
X155480952Y-74130952D01*
X155480952Y-74273810D01*
X155519047Y-74464286D01*
X155557142Y-74559524D01*
X155633333Y-74654762D01*
X155747619Y-74702381D01*
X155938095Y-74702381D01*
X154985714Y-73702381D02*
X154909523Y-73702381D01*
X154833333Y-73750000D01*
X154795238Y-73797619D01*
X154757142Y-73892857D01*
X154719047Y-74083333D01*
X154719047Y-74321429D01*
X154757142Y-74511905D01*
X154795238Y-74607143D01*
X154833333Y-74654762D01*
X154909523Y-74702381D01*
X154985714Y-74702381D01*
X155061904Y-74654762D01*
X155100000Y-74607143D01*
X155138095Y-74511905D01*
X155176190Y-74321429D01*
X155176190Y-74083333D01*
X155138095Y-73892857D01*
X155100000Y-73797619D01*
X155061904Y-73750000D01*
X154985714Y-73702381D01*
X154566666Y-74797619D02*
X153957142Y-74797619D01*
X153347618Y-73750000D02*
X153423809Y-73702381D01*
X153538094Y-73702381D01*
X153652380Y-73750000D01*
X153728571Y-73845238D01*
X153766666Y-73940476D01*
X153804761Y-74130952D01*
X153804761Y-74273810D01*
X153766666Y-74464286D01*
X153728571Y-74559524D01*
X153652380Y-74654762D01*
X153538094Y-74702381D01*
X153461904Y-74702381D01*
X153347618Y-74654762D01*
X153309523Y-74607143D01*
X153309523Y-74273810D01*
X153461904Y-74273810D01*
X156964286Y-79702381D02*
X157321429Y-79702381D01*
X157321429Y-78702381D01*
X156714286Y-79178571D02*
X156464286Y-79178571D01*
X156357143Y-79702381D02*
X156714286Y-79702381D01*
X156714286Y-78702381D01*
X156357143Y-78702381D01*
X156035715Y-79702381D02*
X156035715Y-78702381D01*
X155857143Y-78702381D01*
X155750000Y-78750000D01*
X155678572Y-78845238D01*
X155642857Y-78940476D01*
X155607143Y-79130952D01*
X155607143Y-79273810D01*
X155642857Y-79464286D01*
X155678572Y-79559524D01*
X155750000Y-79654762D01*
X155857143Y-79702381D01*
X156035715Y-79702381D01*
X154892857Y-79702381D02*
X155321429Y-79702381D01*
X155107143Y-79702381D02*
X155107143Y-78702381D01*
X155178572Y-78845238D01*
X155250000Y-78940476D01*
X155321429Y-78988095D01*
X154750000Y-79797619D02*
X154178571Y-79797619D01*
X153571428Y-79702381D02*
X153821428Y-79226190D01*
X154000000Y-79702381D02*
X154000000Y-78702381D01*
X153714285Y-78702381D01*
X153642857Y-78750000D01*
X153607142Y-78797619D01*
X153571428Y-78892857D01*
X153571428Y-79035714D01*
X153607142Y-79130952D01*
X153642857Y-79178571D01*
X153714285Y-79226190D01*
X154000000Y-79226190D01*
X156785714Y-64452381D02*
X157261905Y-64452381D01*
X157261905Y-63452381D01*
X156452381Y-63928571D02*
X156119047Y-63928571D01*
X155976190Y-64452381D02*
X156452381Y-64452381D01*
X156452381Y-63452381D01*
X155976190Y-63452381D01*
X155547619Y-64452381D02*
X155547619Y-63452381D01*
X155309524Y-63452381D01*
X155166666Y-63500000D01*
X155071428Y-63595238D01*
X155023809Y-63690476D01*
X154976190Y-63880952D01*
X154976190Y-64023810D01*
X155023809Y-64214286D01*
X155071428Y-64309524D01*
X155166666Y-64404762D01*
X155309524Y-64452381D01*
X155547619Y-64452381D01*
X154357143Y-63452381D02*
X154261904Y-63452381D01*
X154166666Y-63500000D01*
X154119047Y-63547619D01*
X154071428Y-63642857D01*
X154023809Y-63833333D01*
X154023809Y-64071429D01*
X154071428Y-64261905D01*
X154119047Y-64357143D01*
X154166666Y-64404762D01*
X154261904Y-64452381D01*
X154357143Y-64452381D01*
X154452381Y-64404762D01*
X154500000Y-64357143D01*
X154547619Y-64261905D01*
X154595238Y-64071429D01*
X154595238Y-63833333D01*
X154547619Y-63642857D01*
X154500000Y-63547619D01*
X154452381Y-63500000D01*
X154357143Y-63452381D01*
X153833333Y-64547619D02*
X153071428Y-64547619D01*
X152309523Y-63500000D02*
X152404761Y-63452381D01*
X152547618Y-63452381D01*
X152690476Y-63500000D01*
X152785714Y-63595238D01*
X152833333Y-63690476D01*
X152880952Y-63880952D01*
X152880952Y-64023810D01*
X152833333Y-64214286D01*
X152785714Y-64309524D01*
X152690476Y-64404762D01*
X152547618Y-64452381D01*
X152452380Y-64452381D01*
X152309523Y-64404762D01*
X152261904Y-64357143D01*
X152261904Y-64023810D01*
X152452380Y-64023810D01*
X156785714Y-61952381D02*
X157261905Y-61952381D01*
X157261905Y-60952381D01*
X156452381Y-61428571D02*
X156119047Y-61428571D01*
X155976190Y-61952381D02*
X156452381Y-61952381D01*
X156452381Y-60952381D01*
X155976190Y-60952381D01*
X155547619Y-61952381D02*
X155547619Y-60952381D01*
X155309524Y-60952381D01*
X155166666Y-61000000D01*
X155071428Y-61095238D01*
X155023809Y-61190476D01*
X154976190Y-61380952D01*
X154976190Y-61523810D01*
X155023809Y-61714286D01*
X155071428Y-61809524D01*
X155166666Y-61904762D01*
X155309524Y-61952381D01*
X155547619Y-61952381D01*
X154357143Y-60952381D02*
X154261904Y-60952381D01*
X154166666Y-61000000D01*
X154119047Y-61047619D01*
X154071428Y-61142857D01*
X154023809Y-61333333D01*
X154023809Y-61571429D01*
X154071428Y-61761905D01*
X154119047Y-61857143D01*
X154166666Y-61904762D01*
X154261904Y-61952381D01*
X154357143Y-61952381D01*
X154452381Y-61904762D01*
X154500000Y-61857143D01*
X154547619Y-61761905D01*
X154595238Y-61571429D01*
X154595238Y-61333333D01*
X154547619Y-61142857D01*
X154500000Y-61047619D01*
X154452381Y-61000000D01*
X154357143Y-60952381D01*
X153833333Y-62047619D02*
X153071428Y-62047619D01*
X152261904Y-61952381D02*
X152595238Y-61476190D01*
X152833333Y-61952381D02*
X152833333Y-60952381D01*
X152452380Y-60952381D01*
X152357142Y-61000000D01*
X152309523Y-61047619D01*
X152261904Y-61142857D01*
X152261904Y-61285714D01*
X152309523Y-61380952D01*
X152357142Y-61428571D01*
X152452380Y-61476190D01*
X152833333Y-61476190D01*
X156785714Y-59452381D02*
X157261905Y-59452381D01*
X157261905Y-58452381D01*
X156452381Y-58928571D02*
X156119047Y-58928571D01*
X155976190Y-59452381D02*
X156452381Y-59452381D01*
X156452381Y-58452381D01*
X155976190Y-58452381D01*
X155547619Y-59452381D02*
X155547619Y-58452381D01*
X155309524Y-58452381D01*
X155166666Y-58500000D01*
X155071428Y-58595238D01*
X155023809Y-58690476D01*
X154976190Y-58880952D01*
X154976190Y-59023810D01*
X155023809Y-59214286D01*
X155071428Y-59309524D01*
X155166666Y-59404762D01*
X155309524Y-59452381D01*
X155547619Y-59452381D01*
X154357143Y-58452381D02*
X154261904Y-58452381D01*
X154166666Y-58500000D01*
X154119047Y-58547619D01*
X154071428Y-58642857D01*
X154023809Y-58833333D01*
X154023809Y-59071429D01*
X154071428Y-59261905D01*
X154119047Y-59357143D01*
X154166666Y-59404762D01*
X154261904Y-59452381D01*
X154357143Y-59452381D01*
X154452381Y-59404762D01*
X154500000Y-59357143D01*
X154547619Y-59261905D01*
X154595238Y-59071429D01*
X154595238Y-58833333D01*
X154547619Y-58642857D01*
X154500000Y-58547619D01*
X154452381Y-58500000D01*
X154357143Y-58452381D01*
X153833333Y-59547619D02*
X153071428Y-59547619D01*
X152499999Y-58928571D02*
X152357142Y-58976190D01*
X152309523Y-59023810D01*
X152261904Y-59119048D01*
X152261904Y-59261905D01*
X152309523Y-59357143D01*
X152357142Y-59404762D01*
X152452380Y-59452381D01*
X152833333Y-59452381D01*
X152833333Y-58452381D01*
X152499999Y-58452381D01*
X152404761Y-58500000D01*
X152357142Y-58547619D01*
X152309523Y-58642857D01*
X152309523Y-58738095D01*
X152357142Y-58833333D01*
X152404761Y-58880952D01*
X152499999Y-58928571D01*
X152833333Y-58928571D01*
X157261905Y-56952381D02*
X157261905Y-55952381D01*
X156214286Y-56952381D02*
X156547620Y-56476190D01*
X156785715Y-56952381D02*
X156785715Y-55952381D01*
X156404762Y-55952381D01*
X156309524Y-56000000D01*
X156261905Y-56047619D01*
X156214286Y-56142857D01*
X156214286Y-56285714D01*
X156261905Y-56380952D01*
X156309524Y-56428571D01*
X156404762Y-56476190D01*
X156785715Y-56476190D01*
X151369047Y-108452381D02*
X151845238Y-108452381D01*
X151845238Y-107452381D01*
X151035714Y-107928571D02*
X150702380Y-107928571D01*
X150559523Y-108452381D02*
X151035714Y-108452381D01*
X151035714Y-107452381D01*
X150559523Y-107452381D01*
X150130952Y-108452381D02*
X150130952Y-107452381D01*
X149892857Y-107452381D01*
X149749999Y-107500000D01*
X149654761Y-107595238D01*
X149607142Y-107690476D01*
X149559523Y-107880952D01*
X149559523Y-108023810D01*
X149607142Y-108214286D01*
X149654761Y-108309524D01*
X149749999Y-108404762D01*
X149892857Y-108452381D01*
X150130952Y-108452381D01*
X148940476Y-107452381D02*
X148845237Y-107452381D01*
X148749999Y-107500000D01*
X148702380Y-107547619D01*
X148654761Y-107642857D01*
X148607142Y-107833333D01*
X148607142Y-108071429D01*
X148654761Y-108261905D01*
X148702380Y-108357143D01*
X148749999Y-108404762D01*
X148845237Y-108452381D01*
X148940476Y-108452381D01*
X149035714Y-108404762D01*
X149083333Y-108357143D01*
X149130952Y-108261905D01*
X149178571Y-108071429D01*
X149178571Y-107833333D01*
X149130952Y-107642857D01*
X149083333Y-107547619D01*
X149035714Y-107500000D01*
X148940476Y-107452381D01*
X163869047Y-108452381D02*
X164345238Y-108452381D01*
X164345238Y-107452381D01*
X163535714Y-107928571D02*
X163202380Y-107928571D01*
X163059523Y-108452381D02*
X163535714Y-108452381D01*
X163535714Y-107452381D01*
X163059523Y-107452381D01*
X162630952Y-108452381D02*
X162630952Y-107452381D01*
X162392857Y-107452381D01*
X162249999Y-107500000D01*
X162154761Y-107595238D01*
X162107142Y-107690476D01*
X162059523Y-107880952D01*
X162059523Y-108023810D01*
X162107142Y-108214286D01*
X162154761Y-108309524D01*
X162249999Y-108404762D01*
X162392857Y-108452381D01*
X162630952Y-108452381D01*
X161107142Y-108452381D02*
X161678571Y-108452381D01*
X161392857Y-108452381D02*
X161392857Y-107452381D01*
X161488095Y-107595238D01*
X161583333Y-107690476D01*
X161678571Y-107738095D01*
X158778571Y-109178571D02*
X158635714Y-109226190D01*
X158588095Y-109273810D01*
X158540476Y-109369048D01*
X158540476Y-109511905D01*
X158588095Y-109607143D01*
X158635714Y-109654762D01*
X158730952Y-109702381D01*
X159111905Y-109702381D01*
X159111905Y-108702381D01*
X158778571Y-108702381D01*
X158683333Y-108750000D01*
X158635714Y-108797619D01*
X158588095Y-108892857D01*
X158588095Y-108988095D01*
X158635714Y-109083333D01*
X158683333Y-109130952D01*
X158778571Y-109178571D01*
X159111905Y-109178571D01*
X161140476Y-109702381D02*
X161473810Y-109226190D01*
X161711905Y-109702381D02*
X161711905Y-108702381D01*
X161330952Y-108702381D01*
X161235714Y-108750000D01*
X161188095Y-108797619D01*
X161140476Y-108892857D01*
X161140476Y-109035714D01*
X161188095Y-109130952D01*
X161235714Y-109178571D01*
X161330952Y-109226190D01*
X161711905Y-109226190D01*
X163738095Y-108750000D02*
X163833333Y-108702381D01*
X163976190Y-108702381D01*
X164119048Y-108750000D01*
X164214286Y-108845238D01*
X164261905Y-108940476D01*
X164309524Y-109130952D01*
X164309524Y-109273810D01*
X164261905Y-109464286D01*
X164214286Y-109559524D01*
X164119048Y-109654762D01*
X163976190Y-109702381D01*
X163880952Y-109702381D01*
X163738095Y-109654762D01*
X163690476Y-109607143D01*
X163690476Y-109273810D01*
X163880952Y-109273810D01*
X167119047Y-109702381D02*
X167690476Y-109702381D01*
X167404762Y-109702381D02*
X167404762Y-108702381D01*
X167500000Y-108845238D01*
X167595238Y-108940476D01*
X167690476Y-108988095D01*
X166738095Y-108797619D02*
X166690476Y-108750000D01*
X166595238Y-108702381D01*
X166357142Y-108702381D01*
X166261904Y-108750000D01*
X166214285Y-108797619D01*
X166166666Y-108892857D01*
X166166666Y-108988095D01*
X166214285Y-109130952D01*
X166785714Y-109702381D01*
X166166666Y-109702381D01*
X165880952Y-108702381D02*
X165547619Y-109702381D01*
X165214285Y-108702381D01*
X146278571Y-109178571D02*
X146135714Y-109226190D01*
X146088095Y-109273810D01*
X146040476Y-109369048D01*
X146040476Y-109511905D01*
X146088095Y-109607143D01*
X146135714Y-109654762D01*
X146230952Y-109702381D01*
X146611905Y-109702381D01*
X146611905Y-108702381D01*
X146278571Y-108702381D01*
X146183333Y-108750000D01*
X146135714Y-108797619D01*
X146088095Y-108892857D01*
X146088095Y-108988095D01*
X146135714Y-109083333D01*
X146183333Y-109130952D01*
X146278571Y-109178571D01*
X146611905Y-109178571D01*
X148640476Y-109702381D02*
X148973810Y-109226190D01*
X149211905Y-109702381D02*
X149211905Y-108702381D01*
X148830952Y-108702381D01*
X148735714Y-108750000D01*
X148688095Y-108797619D01*
X148640476Y-108892857D01*
X148640476Y-109035714D01*
X148688095Y-109130952D01*
X148735714Y-109178571D01*
X148830952Y-109226190D01*
X149211905Y-109226190D01*
X151238095Y-108750000D02*
X151333333Y-108702381D01*
X151476190Y-108702381D01*
X151619048Y-108750000D01*
X151714286Y-108845238D01*
X151761905Y-108940476D01*
X151809524Y-109130952D01*
X151809524Y-109273810D01*
X151761905Y-109464286D01*
X151714286Y-109559524D01*
X151619048Y-109654762D01*
X151476190Y-109702381D01*
X151380952Y-109702381D01*
X151238095Y-109654762D01*
X151190476Y-109607143D01*
X151190476Y-109273810D01*
X151380952Y-109273810D01*
X154619047Y-109702381D02*
X155190476Y-109702381D01*
X154904762Y-109702381D02*
X154904762Y-108702381D01*
X155000000Y-108845238D01*
X155095238Y-108940476D01*
X155190476Y-108988095D01*
X154238095Y-108797619D02*
X154190476Y-108750000D01*
X154095238Y-108702381D01*
X153857142Y-108702381D01*
X153761904Y-108750000D01*
X153714285Y-108797619D01*
X153666666Y-108892857D01*
X153666666Y-108988095D01*
X153714285Y-109130952D01*
X154285714Y-109702381D01*
X153666666Y-109702381D01*
X153380952Y-108702381D02*
X153047619Y-109702381D01*
X152714285Y-108702381D01*
X140261905Y-109702381D02*
X140261905Y-108702381D01*
X140071429Y-108702381D01*
X139957143Y-108750000D01*
X139880952Y-108845238D01*
X139842857Y-108940476D01*
X139804762Y-109130952D01*
X139804762Y-109273810D01*
X139842857Y-109464286D01*
X139880952Y-109559524D01*
X139957143Y-109654762D01*
X140071429Y-109702381D01*
X140261905Y-109702381D01*
X139461905Y-109702381D02*
X139461905Y-109035714D01*
X139461905Y-108702381D02*
X139500000Y-108750000D01*
X139461905Y-108797619D01*
X139423810Y-108750000D01*
X139461905Y-108702381D01*
X139461905Y-108797619D01*
X139080953Y-109035714D02*
X139080953Y-109702381D01*
X139080953Y-109130952D02*
X139042858Y-109083333D01*
X138966667Y-109035714D01*
X138852381Y-109035714D01*
X138776191Y-109083333D01*
X138738096Y-109178571D01*
X138738096Y-109702381D01*
X137190476Y-108702381D02*
X137666667Y-108702381D01*
X137714286Y-109178571D01*
X137666667Y-109130952D01*
X137571429Y-109083333D01*
X137333333Y-109083333D01*
X137238095Y-109130952D01*
X137190476Y-109178571D01*
X137142857Y-109273810D01*
X137142857Y-109511905D01*
X137190476Y-109607143D01*
X137238095Y-109654762D01*
X137333333Y-109702381D01*
X137571429Y-109702381D01*
X137666667Y-109654762D01*
X137714286Y-109607143D01*
X136857143Y-108702381D02*
X136523810Y-109702381D01*
X136190476Y-108702381D01*
X142609523Y-108750000D02*
X142685714Y-108702381D01*
X142799999Y-108702381D01*
X142914285Y-108750000D01*
X142990476Y-108845238D01*
X143028571Y-108940476D01*
X143066666Y-109130952D01*
X143066666Y-109273810D01*
X143028571Y-109464286D01*
X142990476Y-109559524D01*
X142914285Y-109654762D01*
X142799999Y-109702381D01*
X142723809Y-109702381D01*
X142609523Y-109654762D01*
X142571428Y-109607143D01*
X142571428Y-109273810D01*
X142723809Y-109273810D01*
X142228571Y-109702381D02*
X142228571Y-108702381D01*
X141771428Y-109702381D01*
X141771428Y-108702381D01*
X141390476Y-109702381D02*
X141390476Y-108702381D01*
X141200000Y-108702381D01*
X141085714Y-108750000D01*
X141009523Y-108845238D01*
X140971428Y-108940476D01*
X140933333Y-109130952D01*
X140933333Y-109273810D01*
X140971428Y-109464286D01*
X141009523Y-109559524D01*
X141085714Y-109654762D01*
X141200000Y-109702381D01*
X141390476Y-109702381D01*
X127500000Y-109702381D02*
X127500000Y-108702381D01*
X126452381Y-109702381D02*
X126785715Y-109226190D01*
X127023810Y-109702381D02*
X127023810Y-108702381D01*
X126642857Y-108702381D01*
X126547619Y-108750000D01*
X126500000Y-108797619D01*
X126452381Y-108892857D01*
X126452381Y-109035714D01*
X126500000Y-109130952D01*
X126547619Y-109178571D01*
X126642857Y-109226190D01*
X127023810Y-109226190D01*
X130109523Y-108750000D02*
X130185714Y-108702381D01*
X130299999Y-108702381D01*
X130414285Y-108750000D01*
X130490476Y-108845238D01*
X130528571Y-108940476D01*
X130566666Y-109130952D01*
X130566666Y-109273810D01*
X130528571Y-109464286D01*
X130490476Y-109559524D01*
X130414285Y-109654762D01*
X130299999Y-109702381D01*
X130223809Y-109702381D01*
X130109523Y-109654762D01*
X130071428Y-109607143D01*
X130071428Y-109273810D01*
X130223809Y-109273810D01*
X129728571Y-109702381D02*
X129728571Y-108702381D01*
X129271428Y-109702381D01*
X129271428Y-108702381D01*
X128890476Y-109702381D02*
X128890476Y-108702381D01*
X128700000Y-108702381D01*
X128585714Y-108750000D01*
X128509523Y-108845238D01*
X128471428Y-108940476D01*
X128433333Y-109130952D01*
X128433333Y-109273810D01*
X128471428Y-109464286D01*
X128509523Y-109559524D01*
X128585714Y-109654762D01*
X128700000Y-109702381D01*
X128890476Y-109702381D01*
X132190476Y-108702381D02*
X132666667Y-108702381D01*
X132714286Y-109178571D01*
X132666667Y-109130952D01*
X132571429Y-109083333D01*
X132333333Y-109083333D01*
X132238095Y-109130952D01*
X132190476Y-109178571D01*
X132142857Y-109273810D01*
X132142857Y-109511905D01*
X132190476Y-109607143D01*
X132238095Y-109654762D01*
X132333333Y-109702381D01*
X132571429Y-109702381D01*
X132666667Y-109654762D01*
X132714286Y-109607143D01*
X131857143Y-108702381D02*
X131523810Y-109702381D01*
X131190476Y-108702381D01*
X128535714Y-104702381D02*
X129011905Y-104702381D01*
X129059524Y-105178571D01*
X129011905Y-105130952D01*
X128916667Y-105083333D01*
X128678571Y-105083333D01*
X128583333Y-105130952D01*
X128535714Y-105178571D01*
X128488095Y-105273810D01*
X128488095Y-105511905D01*
X128535714Y-105607143D01*
X128583333Y-105654762D01*
X128678571Y-105702381D01*
X128916667Y-105702381D01*
X129011905Y-105654762D01*
X129059524Y-105607143D01*
X128202381Y-104702381D02*
X127869048Y-105702381D01*
X127535714Y-104702381D01*
D13*
X131750000Y-106000000D02*
X125250000Y-106000000D01*
X131750000Y-97500000D02*
X125250000Y-97500000D01*
D11*
X128535714Y-96202381D02*
X129011905Y-96202381D01*
X129059524Y-96678571D01*
X129011905Y-96630952D01*
X128916667Y-96583333D01*
X128678571Y-96583333D01*
X128583333Y-96630952D01*
X128535714Y-96678571D01*
X128488095Y-96773810D01*
X128488095Y-97011905D01*
X128535714Y-97107143D01*
X128583333Y-97154762D01*
X128678571Y-97202381D01*
X128916667Y-97202381D01*
X129011905Y-97154762D01*
X129059524Y-97107143D01*
X128202381Y-96202381D02*
X127869048Y-97202381D01*
X127535714Y-96202381D01*
X134035714Y-85452381D02*
X134511905Y-85452381D01*
X134559524Y-85928571D01*
X134511905Y-85880952D01*
X134416667Y-85833333D01*
X134178571Y-85833333D01*
X134083333Y-85880952D01*
X134035714Y-85928571D01*
X133988095Y-86023810D01*
X133988095Y-86261905D01*
X134035714Y-86357143D01*
X134083333Y-86404762D01*
X134178571Y-86452381D01*
X134416667Y-86452381D01*
X134511905Y-86404762D01*
X134559524Y-86357143D01*
X133702381Y-85452381D02*
X133369048Y-86452381D01*
X133035714Y-85452381D01*
X133988095Y-80500000D02*
X134083333Y-80452381D01*
X134226190Y-80452381D01*
X134369048Y-80500000D01*
X134464286Y-80595238D01*
X134511905Y-80690476D01*
X134559524Y-80880952D01*
X134559524Y-81023810D01*
X134511905Y-81214286D01*
X134464286Y-81309524D01*
X134369048Y-81404762D01*
X134226190Y-81452381D01*
X134130952Y-81452381D01*
X133988095Y-81404762D01*
X133940476Y-81357143D01*
X133940476Y-81023810D01*
X134130952Y-81023810D01*
X133511905Y-81452381D02*
X133511905Y-80452381D01*
X132940476Y-81452381D01*
X132940476Y-80452381D01*
X132464286Y-81452381D02*
X132464286Y-80452381D01*
X132226191Y-80452381D01*
X132083333Y-80500000D01*
X131988095Y-80595238D01*
X131940476Y-80690476D01*
X131892857Y-80880952D01*
X131892857Y-81023810D01*
X131940476Y-81214286D01*
X131988095Y-81309524D01*
X132083333Y-81404762D01*
X132226191Y-81452381D01*
X132464286Y-81452381D01*
X128511904Y-57750000D02*
X128607142Y-57702381D01*
X128749999Y-57702381D01*
X128892857Y-57750000D01*
X128988095Y-57845238D01*
X129035714Y-57940476D01*
X129083333Y-58130952D01*
X129083333Y-58273810D01*
X129035714Y-58464286D01*
X128988095Y-58559524D01*
X128892857Y-58654762D01*
X128749999Y-58702381D01*
X128654761Y-58702381D01*
X128511904Y-58654762D01*
X128464285Y-58607143D01*
X128464285Y-58273810D01*
X128654761Y-58273810D01*
X128035714Y-58702381D02*
X128035714Y-57702381D01*
X127464285Y-58702381D01*
X127464285Y-57702381D01*
X126988095Y-58702381D02*
X126988095Y-57702381D01*
X126750000Y-57702381D01*
X126607142Y-57750000D01*
X126511904Y-57845238D01*
X126464285Y-57940476D01*
X126416666Y-58130952D01*
X126416666Y-58273810D01*
X126464285Y-58464286D01*
X126511904Y-58559524D01*
X126607142Y-58654762D01*
X126750000Y-58702381D01*
X126988095Y-58702381D01*
X133119047Y-61952381D02*
X133690476Y-61952381D01*
X133404762Y-61952381D02*
X133404762Y-60952381D01*
X133500000Y-61095238D01*
X133595238Y-61190476D01*
X133690476Y-61238095D01*
X132738095Y-61047619D02*
X132690476Y-61000000D01*
X132595238Y-60952381D01*
X132357142Y-60952381D01*
X132261904Y-61000000D01*
X132214285Y-61047619D01*
X132166666Y-61142857D01*
X132166666Y-61238095D01*
X132214285Y-61380952D01*
X132785714Y-61952381D01*
X132166666Y-61952381D01*
X131880952Y-60952381D02*
X131547619Y-61952381D01*
X131214285Y-60952381D01*
D14*
X163214286Y-95475000D02*
X162500000Y-95475000D01*
X163357143Y-95903571D02*
X162857143Y-94403571D01*
X162357143Y-95903571D01*
X161857143Y-95903571D02*
X161857143Y-94903571D01*
X161857143Y-95189286D02*
X161785715Y-95046429D01*
X161714286Y-94975000D01*
X161571429Y-94903571D01*
X161428572Y-94903571D01*
X160285715Y-95903571D02*
X160285715Y-94403571D01*
X160285715Y-95832143D02*
X160428572Y-95903571D01*
X160714286Y-95903571D01*
X160857144Y-95832143D01*
X160928572Y-95760714D01*
X161000001Y-95617857D01*
X161000001Y-95189286D01*
X160928572Y-95046429D01*
X160857144Y-94975000D01*
X160714286Y-94903571D01*
X160428572Y-94903571D01*
X160285715Y-94975000D01*
X158928572Y-94903571D02*
X158928572Y-95903571D01*
X159571429Y-94903571D02*
X159571429Y-95689286D01*
X159500001Y-95832143D01*
X159357143Y-95903571D01*
X159142858Y-95903571D01*
X159000001Y-95832143D01*
X158928572Y-95760714D01*
X158214286Y-95903571D02*
X158214286Y-94903571D01*
X158214286Y-94403571D02*
X158285715Y-94475000D01*
X158214286Y-94546429D01*
X158142858Y-94475000D01*
X158214286Y-94403571D01*
X158214286Y-94546429D01*
X157500000Y-94903571D02*
X157500000Y-95903571D01*
X157500000Y-95046429D02*
X157428572Y-94975000D01*
X157285714Y-94903571D01*
X157071429Y-94903571D01*
X156928572Y-94975000D01*
X156857143Y-95117857D01*
X156857143Y-95903571D01*
X155928571Y-95903571D02*
X156071429Y-95832143D01*
X156142857Y-95760714D01*
X156214286Y-95617857D01*
X156214286Y-95189286D01*
X156142857Y-95046429D01*
X156071429Y-94975000D01*
X155928571Y-94903571D01*
X155714286Y-94903571D01*
X155571429Y-94975000D01*
X155500000Y-95046429D01*
X155428571Y-95189286D01*
X155428571Y-95617857D01*
X155500000Y-95760714D01*
X155571429Y-95832143D01*
X155714286Y-95903571D01*
X155928571Y-95903571D01*
X152928571Y-95903571D02*
X153642857Y-95903571D01*
X153642857Y-94403571D01*
X152428571Y-95117857D02*
X151928571Y-95117857D01*
X151714285Y-95903571D02*
X152428571Y-95903571D01*
X152428571Y-94403571D01*
X151714285Y-94403571D01*
X151071428Y-95903571D02*
X151071428Y-94403571D01*
X150714285Y-94403571D01*
X150500000Y-94475000D01*
X150357142Y-94617857D01*
X150285714Y-94760714D01*
X150214285Y-95046429D01*
X150214285Y-95260714D01*
X150285714Y-95546429D01*
X150357142Y-95689286D01*
X150500000Y-95832143D01*
X150714285Y-95903571D01*
X151071428Y-95903571D01*
X148500000Y-95832143D02*
X148285714Y-95903571D01*
X147928571Y-95903571D01*
X147785714Y-95832143D01*
X147714285Y-95760714D01*
X147642857Y-95617857D01*
X147642857Y-95475000D01*
X147714285Y-95332143D01*
X147785714Y-95260714D01*
X147928571Y-95189286D01*
X148214285Y-95117857D01*
X148357143Y-95046429D01*
X148428571Y-94975000D01*
X148500000Y-94832143D01*
X148500000Y-94689286D01*
X148428571Y-94546429D01*
X148357143Y-94475000D01*
X148214285Y-94403571D01*
X147857143Y-94403571D01*
X147642857Y-94475000D01*
X147214286Y-94903571D02*
X146642857Y-94903571D01*
X147000000Y-94403571D02*
X147000000Y-95689286D01*
X146928572Y-95832143D01*
X146785714Y-95903571D01*
X146642857Y-95903571D01*
X146142857Y-95903571D02*
X146142857Y-94903571D01*
X146142857Y-95189286D02*
X146071429Y-95046429D01*
X146000000Y-94975000D01*
X145857143Y-94903571D01*
X145714286Y-94903571D01*
X145214286Y-95903571D02*
X145214286Y-94903571D01*
X145214286Y-94403571D02*
X145285715Y-94475000D01*
X145214286Y-94546429D01*
X145142858Y-94475000D01*
X145214286Y-94403571D01*
X145214286Y-94546429D01*
X144500000Y-94903571D02*
X144500000Y-96403571D01*
X144500000Y-94975000D02*
X144357143Y-94903571D01*
X144071429Y-94903571D01*
X143928572Y-94975000D01*
X143857143Y-95046429D01*
X143785714Y-95189286D01*
X143785714Y-95617857D01*
X143857143Y-95760714D01*
X143928572Y-95832143D01*
X144071429Y-95903571D01*
X144357143Y-95903571D01*
X144500000Y-95832143D01*
X142214286Y-94403571D02*
X141714286Y-95903571D01*
X141214286Y-94403571D01*
X139928572Y-95903571D02*
X140785715Y-95903571D01*
X140357143Y-95903571D02*
X140357143Y-94403571D01*
X140500000Y-94617857D01*
X140642858Y-94760714D01*
X140785715Y-94832143D01*
X139285715Y-95903571D02*
X139285715Y-94903571D01*
X139285715Y-95189286D02*
X139214287Y-95046429D01*
X139142858Y-94975000D01*
X139000001Y-94903571D01*
X138857144Y-94903571D01*
X137571430Y-95903571D02*
X138428573Y-95903571D01*
X138000001Y-95903571D02*
X138000001Y-94403571D01*
X138142858Y-94617857D01*
X138285716Y-94760714D01*
X138428573Y-94832143D01*
X162642857Y-97667857D02*
X162428571Y-97739286D01*
X162357143Y-97810714D01*
X162285714Y-97953571D01*
X162285714Y-98167857D01*
X162357143Y-98310714D01*
X162428571Y-98382143D01*
X162571429Y-98453571D01*
X163142857Y-98453571D01*
X163142857Y-96953571D01*
X162642857Y-96953571D01*
X162500000Y-97025000D01*
X162428571Y-97096429D01*
X162357143Y-97239286D01*
X162357143Y-97382143D01*
X162428571Y-97525000D01*
X162500000Y-97596429D01*
X162642857Y-97667857D01*
X163142857Y-97667857D01*
X161785714Y-97453571D02*
X161428571Y-98453571D01*
X161071429Y-97453571D02*
X161428571Y-98453571D01*
X161571429Y-98810714D01*
X161642857Y-98882143D01*
X161785714Y-98953571D01*
X158571429Y-97025000D02*
X158714286Y-96953571D01*
X158928572Y-96953571D01*
X159142857Y-97025000D01*
X159285715Y-97167857D01*
X159357143Y-97310714D01*
X159428572Y-97596429D01*
X159428572Y-97810714D01*
X159357143Y-98096429D01*
X159285715Y-98239286D01*
X159142857Y-98382143D01*
X158928572Y-98453571D01*
X158785715Y-98453571D01*
X158571429Y-98382143D01*
X158500000Y-98310714D01*
X158500000Y-97810714D01*
X158785715Y-97810714D01*
X157642857Y-98453571D02*
X157785715Y-98382143D01*
X157857143Y-98310714D01*
X157928572Y-98167857D01*
X157928572Y-97739286D01*
X157857143Y-97596429D01*
X157785715Y-97525000D01*
X157642857Y-97453571D01*
X157428572Y-97453571D01*
X157285715Y-97525000D01*
X157214286Y-97596429D01*
X157142857Y-97739286D01*
X157142857Y-98167857D01*
X157214286Y-98310714D01*
X157285715Y-98382143D01*
X157428572Y-98453571D01*
X157642857Y-98453571D01*
X156500000Y-98453571D02*
X156500000Y-96953571D01*
X155785714Y-97453571D02*
X155785714Y-98453571D01*
X155785714Y-97596429D02*
X155714286Y-97525000D01*
X155571428Y-97453571D01*
X155357143Y-97453571D01*
X155214286Y-97525000D01*
X155142857Y-97667857D01*
X155142857Y-98453571D01*
X154428571Y-98453571D02*
X154428571Y-96953571D01*
X153571428Y-98453571D02*
X154214285Y-97596429D01*
X153571428Y-96953571D02*
X154428571Y-97810714D01*
X152857143Y-98382143D02*
X152857143Y-98453571D01*
X152928571Y-98596429D01*
X153000000Y-98667857D01*
X151142857Y-97096429D02*
X151071428Y-97025000D01*
X150928571Y-96953571D01*
X150571428Y-96953571D01*
X150428571Y-97025000D01*
X150357142Y-97096429D01*
X150285714Y-97239286D01*
X150285714Y-97382143D01*
X150357142Y-97596429D01*
X151214285Y-98453571D01*
X150285714Y-98453571D01*
X149357143Y-96953571D02*
X149214286Y-96953571D01*
X149071429Y-97025000D01*
X149000000Y-97096429D01*
X148928571Y-97239286D01*
X148857143Y-97525000D01*
X148857143Y-97882143D01*
X148928571Y-98167857D01*
X149000000Y-98310714D01*
X149071429Y-98382143D01*
X149214286Y-98453571D01*
X149357143Y-98453571D01*
X149500000Y-98382143D01*
X149571429Y-98310714D01*
X149642857Y-98167857D01*
X149714286Y-97882143D01*
X149714286Y-97525000D01*
X149642857Y-97239286D01*
X149571429Y-97096429D01*
X149500000Y-97025000D01*
X149357143Y-96953571D01*
X147428572Y-98453571D02*
X148285715Y-98453571D01*
X147857143Y-98453571D02*
X147857143Y-96953571D01*
X148000000Y-97167857D01*
X148142858Y-97310714D01*
X148285715Y-97382143D01*
X146928572Y-96953571D02*
X145928572Y-96953571D01*
X146571429Y-98453571D01*
X144285716Y-96882143D02*
X145571430Y-98810714D01*
X143000001Y-98453571D02*
X143857144Y-98453571D01*
X143428572Y-98453571D02*
X143428572Y-96953571D01*
X143571429Y-97167857D01*
X143714287Y-97310714D01*
X143857144Y-97382143D01*
X142428573Y-97096429D02*
X142357144Y-97025000D01*
X142214287Y-96953571D01*
X141857144Y-96953571D01*
X141714287Y-97025000D01*
X141642858Y-97096429D01*
X141571430Y-97239286D01*
X141571430Y-97382143D01*
X141642858Y-97596429D01*
X142500001Y-98453571D01*
X141571430Y-98453571D01*
X139857145Y-96882143D02*
X141142859Y-98810714D01*
X138571430Y-98453571D02*
X139428573Y-98453571D01*
X139000001Y-98453571D02*
X139000001Y-96953571D01*
X139142858Y-97167857D01*
X139285716Y-97310714D01*
X139428573Y-97382143D01*
X138071430Y-96953571D02*
X137071430Y-96953571D01*
X137714287Y-98453571D01*
D15*
G36*
X142855001Y-65944876D02*
X142708765Y-66133160D01*
X142517607Y-66413338D01*
X142301159Y-66757892D01*
X142267038Y-66814573D01*
X141705277Y-67753146D01*
X142084856Y-68197448D01*
X142331037Y-68522741D01*
X142568226Y-68896187D01*
X142699051Y-69142708D01*
X142817956Y-69421625D01*
X142888913Y-69673436D01*
X142923569Y-69960836D01*
X142933570Y-70346524D01*
X142933667Y-70405667D01*
X142925717Y-70810633D01*
X142894351Y-71108629D01*
X142828291Y-71361583D01*
X142716261Y-71631421D01*
X142706755Y-71651796D01*
X142517205Y-71987101D01*
X142267404Y-72341891D01*
X142087397Y-72555483D01*
X141694950Y-72975041D01*
X141834680Y-73245249D01*
X141916860Y-73441909D01*
X141908432Y-73559912D01*
X141794559Y-73602181D01*
X141560405Y-73571642D01*
X141191136Y-73471219D01*
X140996914Y-73410423D01*
X140519027Y-73233359D01*
X140115602Y-73037153D01*
X139811052Y-72837089D01*
X139629795Y-72648446D01*
X139589333Y-72529403D01*
X139523357Y-72388985D01*
X139357299Y-72209328D01*
X139138969Y-72033667D01*
X138916176Y-71905239D01*
X138885322Y-71892720D01*
X138550643Y-71810664D01*
X138281596Y-71862189D01*
X138027253Y-72058045D01*
X138008311Y-72077833D01*
X137766785Y-72371707D01*
X137543484Y-72729165D01*
X137330398Y-73169545D01*
X137119513Y-73712185D01*
X136902818Y-74376422D01*
X136672299Y-75181594D01*
X136580926Y-75522789D01*
X136474889Y-75945622D01*
X136410644Y-76279129D01*
X136381500Y-76589900D01*
X136380766Y-76944527D01*
X136398118Y-77342173D01*
X136506580Y-78348378D01*
X136725121Y-79247662D01*
X137063932Y-80069844D01*
X137533208Y-80844741D01*
X137650739Y-81006192D01*
X137887270Y-81305586D01*
X138108098Y-81536084D01*
X138360758Y-81738132D01*
X138692783Y-81952177D01*
X138919066Y-82085401D01*
X139392425Y-82350970D01*
X139800191Y-82554449D01*
X140181120Y-82706766D01*
X140573970Y-82818850D01*
X141017498Y-82901630D01*
X141550462Y-82966033D01*
X142211619Y-83022989D01*
X142256333Y-83026418D01*
X144167673Y-83118173D01*
X146191521Y-83109618D01*
X147675000Y-83044427D01*
X148211423Y-83004449D01*
X148772450Y-82948618D01*
X149296753Y-82883867D01*
X149722999Y-82817127D01*
X149778137Y-82806701D01*
X150197251Y-82717101D01*
X150505852Y-82625879D01*
X150761422Y-82510202D01*
X151021447Y-82347232D01*
X151132803Y-82268571D01*
X151578219Y-81918329D01*
X151994965Y-81536391D01*
X152346213Y-81159673D01*
X152595133Y-80825092D01*
X152626935Y-80770925D01*
X153040854Y-79980895D01*
X153341287Y-79289506D01*
X153531275Y-78672536D01*
X153613861Y-78105765D01*
X153592088Y-77564972D01*
X153468998Y-77025938D01*
X153247634Y-76464440D01*
X153184496Y-76332333D01*
X153006610Y-76009837D01*
X152784412Y-75688151D01*
X152496964Y-75342599D01*
X152123326Y-74948505D01*
X151642559Y-74481194D01*
X151499176Y-74346292D01*
X151132258Y-73977174D01*
X150898710Y-73668538D01*
X150788220Y-73391259D01*
X150790477Y-73116210D01*
X150895169Y-72814266D01*
X150930954Y-72741277D01*
X151178859Y-72376578D01*
X151521900Y-72092729D01*
X151990979Y-71866449D01*
X152180675Y-71799796D01*
X152872495Y-71516925D01*
X153473633Y-71157354D01*
X153951228Y-70741914D01*
X154072868Y-70600238D01*
X154310312Y-70238961D01*
X154400278Y-69931925D01*
X154346934Y-69658024D01*
X154281157Y-69545439D01*
X154202663Y-69461059D01*
X154084854Y-69404744D01*
X153891783Y-69368416D01*
X153629098Y-69347333D01*
X149580000Y-69347333D01*
X149522487Y-69526791D01*
X149382971Y-69721156D01*
X149372182Y-69732182D01*
X149180037Y-69875334D01*
X148996803Y-69939721D01*
X148987333Y-69940000D01*
X148807876Y-69882487D01*
X148613511Y-69742970D01*
X148602485Y-69732182D01*
X148459333Y-69540037D01*
X148394946Y-69356802D01*
X148394667Y-69347333D01*
X148452180Y-69167875D01*
X148591696Y-68973511D01*
X148602485Y-68962485D01*
X148794630Y-68819332D01*
X148977864Y-68754945D01*
X148987333Y-68754667D01*
X149166791Y-68812180D01*
X149361156Y-68951696D01*
X149372182Y-68962485D01*
X149515334Y-69154630D01*
X149579721Y-69337864D01*
X149580000Y-69347333D01*
X153629098Y-69347333D01*
X153587507Y-69343995D01*
X153328657Y-69331352D01*
X152816528Y-69293811D01*
X152447704Y-69229712D01*
X152212933Y-69143239D01*
X151819002Y-68896762D01*
X151408997Y-68578099D01*
X151049022Y-68241428D01*
X150887180Y-68056677D01*
X150626120Y-67785471D01*
X150274653Y-67500283D01*
X149888917Y-67240376D01*
X149525052Y-67045014D01*
X149340878Y-66975197D01*
X148887184Y-66876079D01*
X148339237Y-66805778D01*
X147761418Y-66768459D01*
X147218104Y-66768282D01*
X146774531Y-66809268D01*
X146035644Y-67004584D01*
X145381234Y-67320051D01*
X144829732Y-67742097D01*
X144399569Y-68257152D01*
X144149199Y-68742213D01*
X144000243Y-69310954D01*
X143952054Y-69963890D01*
X144004646Y-70649118D01*
X144148425Y-71284183D01*
X144254276Y-71603123D01*
X144366853Y-71878385D01*
X144507055Y-72146823D01*
X144695779Y-72445291D01*
X144953922Y-72810642D01*
X145210420Y-73157085D01*
X145417495Y-73442591D01*
X145578547Y-73681279D01*
X145670808Y-73838554D01*
X145684037Y-73876751D01*
X145603033Y-74075421D01*
X145391867Y-74232609D01*
X145088601Y-74326214D01*
X144881725Y-74342667D01*
X144656696Y-74326372D01*
X144387123Y-74284874D01*
X144124328Y-74229252D01*
X143919631Y-74170587D01*
X143824353Y-74119956D01*
X143822667Y-74114031D01*
X143871269Y-74031667D01*
X143996137Y-73862035D01*
X144106241Y-73721916D01*
X144304309Y-73460554D01*
X144481391Y-73202528D01*
X144541439Y-73104651D01*
X144693063Y-72840301D01*
X144385896Y-72342651D01*
X144069460Y-71776057D01*
X143862713Y-71256189D01*
X143747432Y-70718814D01*
X143705390Y-70099700D01*
X143704162Y-69940000D01*
X143725907Y-69362877D01*
X143799575Y-68905831D01*
X143939463Y-68523841D01*
X144159867Y-68171886D01*
X144332505Y-67961175D01*
X144605037Y-67650778D01*
X144369837Y-67292556D01*
X144203720Y-67071642D01*
X143974190Y-66807643D01*
X143711238Y-66530203D01*
X143444854Y-66268963D01*
X143205030Y-66053568D01*
X143021755Y-65913661D01*
X142936683Y-65876000D01*
X142855001Y-65944876D01*
X142855001Y-65944876D01*
G37*
X142855001Y-65944876D02*
X142708765Y-66133160D01*
X142517607Y-66413338D01*
X142301159Y-66757892D01*
X142267038Y-66814573D01*
X141705277Y-67753146D01*
X142084856Y-68197448D01*
X142331037Y-68522741D01*
X142568226Y-68896187D01*
X142699051Y-69142708D01*
X142817956Y-69421625D01*
X142888913Y-69673436D01*
X142923569Y-69960836D01*
X142933570Y-70346524D01*
X142933667Y-70405667D01*
X142925717Y-70810633D01*
X142894351Y-71108629D01*
X142828291Y-71361583D01*
X142716261Y-71631421D01*
X142706755Y-71651796D01*
X142517205Y-71987101D01*
X142267404Y-72341891D01*
X142087397Y-72555483D01*
X141694950Y-72975041D01*
X141834680Y-73245249D01*
X141916860Y-73441909D01*
X141908432Y-73559912D01*
X141794559Y-73602181D01*
X141560405Y-73571642D01*
X141191136Y-73471219D01*
X140996914Y-73410423D01*
X140519027Y-73233359D01*
X140115602Y-73037153D01*
X139811052Y-72837089D01*
X139629795Y-72648446D01*
X139589333Y-72529403D01*
X139523357Y-72388985D01*
X139357299Y-72209328D01*
X139138969Y-72033667D01*
X138916176Y-71905239D01*
X138885322Y-71892720D01*
X138550643Y-71810664D01*
X138281596Y-71862189D01*
X138027253Y-72058045D01*
X138008311Y-72077833D01*
X137766785Y-72371707D01*
X137543484Y-72729165D01*
X137330398Y-73169545D01*
X137119513Y-73712185D01*
X136902818Y-74376422D01*
X136672299Y-75181594D01*
X136580926Y-75522789D01*
X136474889Y-75945622D01*
X136410644Y-76279129D01*
X136381500Y-76589900D01*
X136380766Y-76944527D01*
X136398118Y-77342173D01*
X136506580Y-78348378D01*
X136725121Y-79247662D01*
X137063932Y-80069844D01*
X137533208Y-80844741D01*
X137650739Y-81006192D01*
X137887270Y-81305586D01*
X138108098Y-81536084D01*
X138360758Y-81738132D01*
X138692783Y-81952177D01*
X138919066Y-82085401D01*
X139392425Y-82350970D01*
X139800191Y-82554449D01*
X140181120Y-82706766D01*
X140573970Y-82818850D01*
X141017498Y-82901630D01*
X141550462Y-82966033D01*
X142211619Y-83022989D01*
X142256333Y-83026418D01*
X144167673Y-83118173D01*
X146191521Y-83109618D01*
X147675000Y-83044427D01*
X148211423Y-83004449D01*
X148772450Y-82948618D01*
X149296753Y-82883867D01*
X149722999Y-82817127D01*
X149778137Y-82806701D01*
X150197251Y-82717101D01*
X150505852Y-82625879D01*
X150761422Y-82510202D01*
X151021447Y-82347232D01*
X151132803Y-82268571D01*
X151578219Y-81918329D01*
X151994965Y-81536391D01*
X152346213Y-81159673D01*
X152595133Y-80825092D01*
X152626935Y-80770925D01*
X153040854Y-79980895D01*
X153341287Y-79289506D01*
X153531275Y-78672536D01*
X153613861Y-78105765D01*
X153592088Y-77564972D01*
X153468998Y-77025938D01*
X153247634Y-76464440D01*
X153184496Y-76332333D01*
X153006610Y-76009837D01*
X152784412Y-75688151D01*
X152496964Y-75342599D01*
X152123326Y-74948505D01*
X151642559Y-74481194D01*
X151499176Y-74346292D01*
X151132258Y-73977174D01*
X150898710Y-73668538D01*
X150788220Y-73391259D01*
X150790477Y-73116210D01*
X150895169Y-72814266D01*
X150930954Y-72741277D01*
X151178859Y-72376578D01*
X151521900Y-72092729D01*
X151990979Y-71866449D01*
X152180675Y-71799796D01*
X152872495Y-71516925D01*
X153473633Y-71157354D01*
X153951228Y-70741914D01*
X154072868Y-70600238D01*
X154310312Y-70238961D01*
X154400278Y-69931925D01*
X154346934Y-69658024D01*
X154281157Y-69545439D01*
X154202663Y-69461059D01*
X154084854Y-69404744D01*
X153891783Y-69368416D01*
X153629098Y-69347333D01*
X149580000Y-69347333D01*
X149522487Y-69526791D01*
X149382971Y-69721156D01*
X149372182Y-69732182D01*
X149180037Y-69875334D01*
X148996803Y-69939721D01*
X148987333Y-69940000D01*
X148807876Y-69882487D01*
X148613511Y-69742970D01*
X148602485Y-69732182D01*
X148459333Y-69540037D01*
X148394946Y-69356802D01*
X148394667Y-69347333D01*
X148452180Y-69167875D01*
X148591696Y-68973511D01*
X148602485Y-68962485D01*
X148794630Y-68819332D01*
X148977864Y-68754945D01*
X148987333Y-68754667D01*
X149166791Y-68812180D01*
X149361156Y-68951696D01*
X149372182Y-68962485D01*
X149515334Y-69154630D01*
X149579721Y-69337864D01*
X149580000Y-69347333D01*
X153629098Y-69347333D01*
X153587507Y-69343995D01*
X153328657Y-69331352D01*
X152816528Y-69293811D01*
X152447704Y-69229712D01*
X152212933Y-69143239D01*
X151819002Y-68896762D01*
X151408997Y-68578099D01*
X151049022Y-68241428D01*
X150887180Y-68056677D01*
X150626120Y-67785471D01*
X150274653Y-67500283D01*
X149888917Y-67240376D01*
X149525052Y-67045014D01*
X149340878Y-66975197D01*
X148887184Y-66876079D01*
X148339237Y-66805778D01*
X147761418Y-66768459D01*
X147218104Y-66768282D01*
X146774531Y-66809268D01*
X146035644Y-67004584D01*
X145381234Y-67320051D01*
X144829732Y-67742097D01*
X144399569Y-68257152D01*
X144149199Y-68742213D01*
X144000243Y-69310954D01*
X143952054Y-69963890D01*
X144004646Y-70649118D01*
X144148425Y-71284183D01*
X144254276Y-71603123D01*
X144366853Y-71878385D01*
X144507055Y-72146823D01*
X144695779Y-72445291D01*
X144953922Y-72810642D01*
X145210420Y-73157085D01*
X145417495Y-73442591D01*
X145578547Y-73681279D01*
X145670808Y-73838554D01*
X145684037Y-73876751D01*
X145603033Y-74075421D01*
X145391867Y-74232609D01*
X145088601Y-74326214D01*
X144881725Y-74342667D01*
X144656696Y-74326372D01*
X144387123Y-74284874D01*
X144124328Y-74229252D01*
X143919631Y-74170587D01*
X143824353Y-74119956D01*
X143822667Y-74114031D01*
X143871269Y-74031667D01*
X143996137Y-73862035D01*
X144106241Y-73721916D01*
X144304309Y-73460554D01*
X144481391Y-73202528D01*
X144541439Y-73104651D01*
X144693063Y-72840301D01*
X144385896Y-72342651D01*
X144069460Y-71776057D01*
X143862713Y-71256189D01*
X143747432Y-70718814D01*
X143705390Y-70099700D01*
X143704162Y-69940000D01*
X143725907Y-69362877D01*
X143799575Y-68905831D01*
X143939463Y-68523841D01*
X144159867Y-68171886D01*
X144332505Y-67961175D01*
X144605037Y-67650778D01*
X144369837Y-67292556D01*
X144203720Y-67071642D01*
X143974190Y-66807643D01*
X143711238Y-66530203D01*
X143444854Y-66268963D01*
X143205030Y-66053568D01*
X143021755Y-65913661D01*
X142936683Y-65876000D01*
X142855001Y-65944876D01*
G36*
X136071164Y-74538663D02*
X135659966Y-74683094D01*
X135331255Y-74948263D01*
X135099267Y-75299939D01*
X134978240Y-75703890D01*
X134982410Y-76125884D01*
X135126015Y-76531689D01*
X135196302Y-76642198D01*
X135382228Y-76839580D01*
X135619921Y-77013445D01*
X135845586Y-77121058D01*
X135934448Y-77136667D01*
X135976640Y-77058625D01*
X136021257Y-76850419D01*
X136060779Y-76550923D01*
X136072955Y-76420579D01*
X136129896Y-75972602D01*
X136215344Y-75596189D01*
X136294636Y-75386677D01*
X136397201Y-75154928D01*
X136453169Y-74969001D01*
X136456667Y-74934364D01*
X136513119Y-74756484D01*
X136555491Y-74701042D01*
X136589001Y-74602576D01*
X136485349Y-74538457D01*
X136274980Y-74518891D01*
X136071164Y-74538663D01*
X136071164Y-74538663D01*
G37*
X136071164Y-74538663D02*
X135659966Y-74683094D01*
X135331255Y-74948263D01*
X135099267Y-75299939D01*
X134978240Y-75703890D01*
X134982410Y-76125884D01*
X135126015Y-76531689D01*
X135196302Y-76642198D01*
X135382228Y-76839580D01*
X135619921Y-77013445D01*
X135845586Y-77121058D01*
X135934448Y-77136667D01*
X135976640Y-77058625D01*
X136021257Y-76850419D01*
X136060779Y-76550923D01*
X136072955Y-76420579D01*
X136129896Y-75972602D01*
X136215344Y-75596189D01*
X136294636Y-75386677D01*
X136397201Y-75154928D01*
X136453169Y-74969001D01*
X136456667Y-74934364D01*
X136513119Y-74756484D01*
X136555491Y-74701042D01*
X136589001Y-74602576D01*
X136485349Y-74538457D01*
X136274980Y-74518891D01*
X136071164Y-74538663D01*
G36*
X134632661Y-70830099D02*
X134318747Y-70836364D01*
X134119369Y-70852250D01*
X134007128Y-70882209D01*
X133954626Y-70930694D01*
X133934466Y-71002160D01*
X133932281Y-71016935D01*
X133942654Y-71337707D01*
X134037040Y-71756918D01*
X134200007Y-72235948D01*
X134416123Y-72736178D01*
X134669957Y-73218990D01*
X134946077Y-73645765D01*
X135023445Y-73747638D01*
X135222610Y-73992342D01*
X135355131Y-74122188D01*
X135456176Y-74157623D01*
X135560914Y-74119094D01*
X135610000Y-74088667D01*
X135762259Y-74042534D01*
X136016918Y-74012173D01*
X136208533Y-74005296D01*
X136680065Y-74004000D01*
X136955064Y-73378246D01*
X137230063Y-72752491D01*
X136893624Y-72307980D01*
X136676511Y-71970754D01*
X136479559Y-71581156D01*
X136387601Y-71346234D01*
X136218016Y-70829000D01*
X135088508Y-70829000D01*
X134632661Y-70830099D01*
X134632661Y-70830099D01*
G37*
X134632661Y-70830099D02*
X134318747Y-70836364D01*
X134119369Y-70852250D01*
X134007128Y-70882209D01*
X133954626Y-70930694D01*
X133934466Y-71002160D01*
X133932281Y-71016935D01*
X133942654Y-71337707D01*
X134037040Y-71756918D01*
X134200007Y-72235948D01*
X134416123Y-72736178D01*
X134669957Y-73218990D01*
X134946077Y-73645765D01*
X135023445Y-73747638D01*
X135222610Y-73992342D01*
X135355131Y-74122188D01*
X135456176Y-74157623D01*
X135560914Y-74119094D01*
X135610000Y-74088667D01*
X135762259Y-74042534D01*
X136016918Y-74012173D01*
X136208533Y-74005296D01*
X136680065Y-74004000D01*
X136955064Y-73378246D01*
X137230063Y-72752491D01*
X136893624Y-72307980D01*
X136676511Y-71970754D01*
X136479559Y-71581156D01*
X136387601Y-71346234D01*
X136218016Y-70829000D01*
X135088508Y-70829000D01*
X134632661Y-70830099D01*
G36*
X139168011Y-64815033D02*
X138785516Y-64857467D01*
X138536628Y-64905137D01*
X138386188Y-64977127D01*
X138299037Y-65092518D01*
X138240015Y-65270392D01*
X138225627Y-65326492D01*
X138055876Y-65722416D01*
X137771636Y-66106755D01*
X137421423Y-66422079D01*
X137181059Y-66562974D01*
X136839992Y-66664978D01*
X136424738Y-66715169D01*
X136010515Y-66709853D01*
X135672543Y-66645340D01*
X135652368Y-66638013D01*
X135493224Y-66599953D01*
X135364342Y-66651040D01*
X135202493Y-66816355D01*
X135202356Y-66816512D01*
X134761936Y-67419125D01*
X134388294Y-68112084D01*
X134108185Y-68837334D01*
X133948365Y-69536821D01*
X133948228Y-69537833D01*
X133893650Y-69940000D01*
X136126641Y-69940000D01*
X136252167Y-69622500D01*
X136573457Y-68917934D01*
X136931008Y-68357029D01*
X137346093Y-67914774D01*
X137839986Y-67566162D01*
X138128610Y-67416585D01*
X138382037Y-67307638D01*
X138612821Y-67239708D01*
X138875275Y-67203500D01*
X139223709Y-67189721D01*
X139462333Y-67188333D01*
X139855501Y-67195030D01*
X140212284Y-67213007D01*
X140480477Y-67239096D01*
X140570828Y-67255631D01*
X140680175Y-67278922D01*
X140769891Y-67269612D01*
X140860406Y-67206056D01*
X140972150Y-67066614D01*
X141125553Y-66829641D01*
X141341047Y-66473496D01*
X141396328Y-66381162D01*
X141607466Y-66023358D01*
X141782584Y-65717000D01*
X141905219Y-65491600D01*
X141958908Y-65376676D01*
X141960000Y-65370557D01*
X141880842Y-65274811D01*
X141664583Y-65173643D01*
X141343048Y-65073383D01*
X140948061Y-64980365D01*
X140511446Y-64900920D01*
X140065028Y-64841381D01*
X139640630Y-64808079D01*
X139270078Y-64807348D01*
X139168011Y-64815033D01*
X139168011Y-64815033D01*
G37*
X139168011Y-64815033D02*
X138785516Y-64857467D01*
X138536628Y-64905137D01*
X138386188Y-64977127D01*
X138299037Y-65092518D01*
X138240015Y-65270392D01*
X138225627Y-65326492D01*
X138055876Y-65722416D01*
X137771636Y-66106755D01*
X137421423Y-66422079D01*
X137181059Y-66562974D01*
X136839992Y-66664978D01*
X136424738Y-66715169D01*
X136010515Y-66709853D01*
X135672543Y-66645340D01*
X135652368Y-66638013D01*
X135493224Y-66599953D01*
X135364342Y-66651040D01*
X135202493Y-66816355D01*
X135202356Y-66816512D01*
X134761936Y-67419125D01*
X134388294Y-68112084D01*
X134108185Y-68837334D01*
X133948365Y-69536821D01*
X133948228Y-69537833D01*
X133893650Y-69940000D01*
X136126641Y-69940000D01*
X136252167Y-69622500D01*
X136573457Y-68917934D01*
X136931008Y-68357029D01*
X137346093Y-67914774D01*
X137839986Y-67566162D01*
X138128610Y-67416585D01*
X138382037Y-67307638D01*
X138612821Y-67239708D01*
X138875275Y-67203500D01*
X139223709Y-67189721D01*
X139462333Y-67188333D01*
X139855501Y-67195030D01*
X140212284Y-67213007D01*
X140480477Y-67239096D01*
X140570828Y-67255631D01*
X140680175Y-67278922D01*
X140769891Y-67269612D01*
X140860406Y-67206056D01*
X140972150Y-67066614D01*
X141125553Y-66829641D01*
X141341047Y-66473496D01*
X141396328Y-66381162D01*
X141607466Y-66023358D01*
X141782584Y-65717000D01*
X141905219Y-65491600D01*
X141958908Y-65376676D01*
X141960000Y-65370557D01*
X141880842Y-65274811D01*
X141664583Y-65173643D01*
X141343048Y-65073383D01*
X140948061Y-64980365D01*
X140511446Y-64900920D01*
X140065028Y-64841381D01*
X139640630Y-64808079D01*
X139270078Y-64807348D01*
X139168011Y-64815033D01*
G36*
X136109528Y-63547386D02*
X135687994Y-63712573D01*
X135436228Y-63900416D01*
X135130967Y-64271634D01*
X134972243Y-64683724D01*
X134963191Y-65107438D01*
X135106950Y-65513530D01*
X135242454Y-65707215D01*
X135605853Y-66020920D01*
X136029558Y-66189069D01*
X136482505Y-66203414D01*
X136795290Y-66119547D01*
X137186244Y-65877856D01*
X137465222Y-65520829D01*
X137617514Y-65071741D01*
X137642000Y-64779782D01*
X137625339Y-64500509D01*
X137553670Y-64294291D01*
X137394467Y-64079624D01*
X137336544Y-64014384D01*
X136955778Y-63699609D01*
X136539448Y-63543504D01*
X136109528Y-63547386D01*
X136109528Y-63547386D01*
G37*
X136109528Y-63547386D02*
X135687994Y-63712573D01*
X135436228Y-63900416D01*
X135130967Y-64271634D01*
X134972243Y-64683724D01*
X134963191Y-65107438D01*
X135106950Y-65513530D01*
X135242454Y-65707215D01*
X135605853Y-66020920D01*
X136029558Y-66189069D01*
X136482505Y-66203414D01*
X136795290Y-66119547D01*
X137186244Y-65877856D01*
X137465222Y-65520829D01*
X137617514Y-65071741D01*
X137642000Y-64779782D01*
X137625339Y-64500509D01*
X137553670Y-64294291D01*
X137394467Y-64079624D01*
X137336544Y-64014384D01*
X136955778Y-63699609D01*
X136539448Y-63543504D01*
X136109528Y-63547386D01*
M02*
