G04 #@! TF.FileFunction,Soldermask,Top*
%FSLAX46Y46*%
G04 Gerber Fmt 4.6, Leading zero omitted, Abs format (unit mm)*
G04 Created by KiCad (PCBNEW 4.0.7-e2-6376~58~ubuntu14.04.1) date Sun Jan 14 16:44:04 2018*
%MOMM*%
%LPD*%
G01*
G04 APERTURE LIST*
%ADD10C,0.100000*%
%ADD11R,2.200000X2.200000*%
%ADD12O,2.200000X2.200000*%
%ADD13R,2.000000X2.000000*%
%ADD14O,2.000000X2.000000*%
%ADD15C,2.000000*%
%ADD16R,2.100000X2.100000*%
%ADD17O,2.100000X2.100000*%
%ADD18R,3.900000X3.900000*%
%ADD19R,1.600000X1.300000*%
%ADD20C,2.200000*%
%ADD21C,4.400000*%
%ADD22C,2.400000*%
%ADD23C,3.600000*%
G04 APERTURE END LIST*
D10*
D11*
X161000000Y-101000000D03*
D12*
X161000000Y-103540000D03*
X161000000Y-106080000D03*
D13*
X158740000Y-92000000D03*
D14*
X143500000Y-58980000D03*
X158740000Y-89460000D03*
X143500000Y-61520000D03*
X158740000Y-86920000D03*
X143500000Y-64060000D03*
X158740000Y-84380000D03*
X143500000Y-66600000D03*
X158740000Y-81840000D03*
X143500000Y-69140000D03*
X158740000Y-79300000D03*
X143500000Y-71680000D03*
X158740000Y-76760000D03*
X143500000Y-74220000D03*
X158740000Y-74220000D03*
X143500000Y-76760000D03*
X158740000Y-71680000D03*
X143500000Y-79300000D03*
X158740000Y-69140000D03*
X143500000Y-81840000D03*
X158740000Y-66600000D03*
X143500000Y-84380000D03*
X158740000Y-64060000D03*
X143500000Y-86920000D03*
X158740000Y-61520000D03*
X143500000Y-89460000D03*
X158740000Y-58980000D03*
X143500000Y-92000000D03*
X158740000Y-56440000D03*
X143500000Y-56440000D03*
D13*
X134500000Y-72000000D03*
D15*
X131000000Y-72000000D03*
D16*
X139500000Y-56440000D03*
D17*
X139500000Y-58980000D03*
X139500000Y-61520000D03*
X139500000Y-64060000D03*
X139500000Y-66600000D03*
X139500000Y-69140000D03*
X139500000Y-71680000D03*
X139500000Y-74220000D03*
X139500000Y-76760000D03*
X139500000Y-79300000D03*
X139500000Y-81840000D03*
X139500000Y-84380000D03*
X139500000Y-86920000D03*
X139500000Y-89460000D03*
X139500000Y-92000000D03*
D16*
X162500000Y-56440000D03*
D17*
X162500000Y-58980000D03*
X162500000Y-61520000D03*
X162500000Y-64060000D03*
X162500000Y-66600000D03*
X162500000Y-69140000D03*
X162500000Y-71680000D03*
X162500000Y-74220000D03*
X162500000Y-76760000D03*
X162500000Y-79300000D03*
X162500000Y-81840000D03*
X162500000Y-84380000D03*
X162500000Y-86920000D03*
X162500000Y-89460000D03*
X162500000Y-92000000D03*
D16*
X154000000Y-111000000D03*
D17*
X151460000Y-111000000D03*
X148920000Y-111000000D03*
X146380000Y-111000000D03*
D16*
X166540000Y-111000000D03*
D17*
X164000000Y-111000000D03*
X161460000Y-111000000D03*
X158920000Y-111000000D03*
D18*
X132500000Y-64000000D03*
X132500000Y-58000000D03*
X127800000Y-61000000D03*
D11*
X144000000Y-101000000D03*
D12*
X144000000Y-103540000D03*
X144000000Y-106080000D03*
D11*
X149500000Y-101000000D03*
D12*
X149500000Y-103540000D03*
X149500000Y-106080000D03*
D11*
X138500000Y-101000000D03*
D12*
X138500000Y-103540000D03*
X138500000Y-106080000D03*
D11*
X166500000Y-101000000D03*
D12*
X166500000Y-103540000D03*
X166500000Y-106080000D03*
D11*
X155500000Y-101000000D03*
D12*
X155500000Y-103540000D03*
X155500000Y-106080000D03*
D19*
X137350000Y-92000000D03*
X135150000Y-92000000D03*
X135150000Y-94500000D03*
X137350000Y-94500000D03*
D20*
X136000000Y-86000000D03*
X136000000Y-83500000D03*
X136000000Y-81000000D03*
D21*
X129000000Y-87900000D03*
X129000000Y-79100000D03*
D22*
X131750000Y-93000000D03*
X131750000Y-97500000D03*
X125250000Y-93000000D03*
X125250000Y-97500000D03*
X131750000Y-101500000D03*
X131750000Y-106000000D03*
X125250000Y-101500000D03*
X125250000Y-106000000D03*
D11*
X126920000Y-111000000D03*
D20*
X129460000Y-111000000D03*
X132000000Y-111000000D03*
D16*
X142080000Y-111000000D03*
D17*
X139540000Y-111000000D03*
X137000000Y-111000000D03*
D19*
X143150000Y-97100000D03*
X145350000Y-97100000D03*
X148650000Y-97100000D03*
X150850000Y-97100000D03*
X137650000Y-97100000D03*
X139850000Y-97100000D03*
X160150000Y-97100000D03*
X162350000Y-97100000D03*
X165700000Y-97100000D03*
X167900000Y-97100000D03*
X154800000Y-97100000D03*
X157000000Y-97100000D03*
D23*
X167000000Y-55500000D03*
X167500000Y-92500000D03*
X125750000Y-68750000D03*
X150000000Y-91000000D03*
M02*
