M48
;DRILL file {KiCad 4.0.7-e2-6376~58~ubuntu14.04.1} date Fri Nov 24 16:32:32 2017
;FORMAT={-:-/ absolute / metric / decimal}
FMAT,2
METRIC,TZ
T1C0.400
T2C0.800
T3C0.900
T4C1.000
T5C1.100
%
G90
G05
M71
T1
X124.75Y-61.
X124.75Y-64.
X128.75Y-57.5
X132.5Y-55.
X132.5Y-60.75
X134.5Y-76.75
X134.5Y-82.
X134.75Y-106.5
X136.Y-101.
X136.Y-105.5
X137.35Y-93.25
X141.25Y-102.5
X146.75Y-102.5
X151.Y-76.75
X151.25Y-67.25
X152.25Y-102.5
X158.Y-102.5
X163.5Y-102.5
X167.5Y-63.5
X167.5Y-73.5
X167.5Y-83.5
T2
X131.Y-72.
X134.5Y-72.
X143.5Y-56.44
X143.5Y-58.98
X143.5Y-61.52
X143.5Y-64.06
X143.5Y-66.6
X143.5Y-69.14
X143.5Y-71.68
X143.5Y-74.22
X143.5Y-76.76
X143.5Y-79.3
X143.5Y-81.84
X143.5Y-84.38
X143.5Y-86.92
X143.5Y-89.46
X143.5Y-92.
X158.74Y-56.44
X158.74Y-58.98
X158.74Y-61.52
X158.74Y-64.06
X158.74Y-66.6
X158.74Y-69.14
X158.74Y-71.68
X158.74Y-74.22
X158.74Y-76.76
X158.74Y-79.3
X158.74Y-81.84
X158.74Y-84.38
X158.74Y-86.92
X158.74Y-89.46
X158.74Y-92.
T3
X126.92Y-111.
X129.46Y-111.
X132.Y-111.
T4
X136.Y-81.
X136.Y-83.5
X136.Y-86.
X137.Y-111.
X138.5Y-101.
X138.5Y-103.54
X138.5Y-106.08
X139.5Y-56.44
X139.5Y-58.98
X139.5Y-61.52
X139.5Y-64.06
X139.5Y-66.6
X139.5Y-69.14
X139.5Y-71.68
X139.5Y-74.22
X139.5Y-76.76
X139.5Y-79.3
X139.5Y-81.84
X139.5Y-84.38
X139.5Y-86.92
X139.5Y-89.46
X139.5Y-92.
X139.54Y-111.
X142.08Y-111.
X144.Y-101.
X144.Y-103.54
X144.Y-106.08
X146.38Y-111.
X148.92Y-111.
X149.5Y-101.
X149.5Y-103.54
X149.5Y-106.08
X151.46Y-111.
X154.Y-111.
X155.5Y-101.
X155.5Y-103.54
X155.5Y-106.08
X158.92Y-111.
X161.Y-101.
X161.Y-103.54
X161.Y-106.08
X161.46Y-111.
X162.5Y-56.44
X162.5Y-58.98
X162.5Y-61.52
X162.5Y-64.06
X162.5Y-66.6
X162.5Y-69.14
X162.5Y-71.68
X162.5Y-74.22
X162.5Y-76.76
X162.5Y-79.3
X162.5Y-81.84
X162.5Y-84.38
X162.5Y-86.92
X162.5Y-89.46
X162.5Y-92.
X164.Y-111.
X166.5Y-101.
X166.5Y-103.54
X166.5Y-106.08
X166.54Y-111.
T5
X125.25Y-93.
X125.25Y-97.5
X125.25Y-101.5
X125.25Y-106.
X131.75Y-93.
X131.75Y-97.5
X131.75Y-101.5
X131.75Y-106.
T4
X127.8Y-60.G85X127.8Y-62.
G05
X133.5Y-58.G85X131.5Y-58.
G05
X133.5Y-64.G85X131.5Y-64.
G05
T0
M30
