G04 #@! TF.FileFunction,Copper,L2,Bot,Signal*
%FSLAX46Y46*%
G04 Gerber Fmt 4.6, Leading zero omitted, Abs format (unit mm)*
G04 Created by KiCad (PCBNEW 4.0.7-e2-6376~58~ubuntu14.04.1) date Fri Nov 24 16:32:43 2017*
%MOMM*%
%LPD*%
G01*
G04 APERTURE LIST*
%ADD10C,0.100000*%
%ADD11R,1.600000X1.600000*%
%ADD12O,1.600000X1.600000*%
%ADD13C,1.600000*%
%ADD14R,1.700000X1.700000*%
%ADD15O,1.700000X1.700000*%
%ADD16R,3.500000X3.500000*%
%ADD17R,1.800000X1.800000*%
%ADD18O,1.800000X1.800000*%
%ADD19C,1.800000*%
%ADD20C,4.000000*%
%ADD21C,2.000000*%
%ADD22C,0.600000*%
%ADD23C,0.400000*%
%ADD24C,1.000000*%
%ADD25C,0.250000*%
%ADD26C,2.000000*%
%ADD27C,1.500000*%
%ADD28C,2.500000*%
%ADD29C,0.254000*%
G04 APERTURE END LIST*
D10*
D11*
X158740000Y-92000000D03*
D12*
X143500000Y-58980000D03*
X158740000Y-89460000D03*
X143500000Y-61520000D03*
X158740000Y-86920000D03*
X143500000Y-64060000D03*
X158740000Y-84380000D03*
X143500000Y-66600000D03*
X158740000Y-81840000D03*
X143500000Y-69140000D03*
X158740000Y-79300000D03*
X143500000Y-71680000D03*
X158740000Y-76760000D03*
X143500000Y-74220000D03*
X158740000Y-74220000D03*
X143500000Y-76760000D03*
X158740000Y-71680000D03*
X143500000Y-79300000D03*
X158740000Y-69140000D03*
X143500000Y-81840000D03*
X158740000Y-66600000D03*
X143500000Y-84380000D03*
X158740000Y-64060000D03*
X143500000Y-86920000D03*
X158740000Y-61520000D03*
X143500000Y-89460000D03*
X158740000Y-58980000D03*
X143500000Y-92000000D03*
X158740000Y-56440000D03*
X143500000Y-56440000D03*
D11*
X134500000Y-72000000D03*
D13*
X131000000Y-72000000D03*
D14*
X139500000Y-56440000D03*
D15*
X139500000Y-58980000D03*
X139500000Y-61520000D03*
X139500000Y-64060000D03*
X139500000Y-66600000D03*
X139500000Y-69140000D03*
X139500000Y-71680000D03*
X139500000Y-74220000D03*
X139500000Y-76760000D03*
X139500000Y-79300000D03*
X139500000Y-81840000D03*
X139500000Y-84380000D03*
X139500000Y-86920000D03*
X139500000Y-89460000D03*
X139500000Y-92000000D03*
D14*
X162500000Y-56440000D03*
D15*
X162500000Y-58980000D03*
X162500000Y-61520000D03*
X162500000Y-64060000D03*
X162500000Y-66600000D03*
X162500000Y-69140000D03*
X162500000Y-71680000D03*
X162500000Y-74220000D03*
X162500000Y-76760000D03*
X162500000Y-79300000D03*
X162500000Y-81840000D03*
X162500000Y-84380000D03*
X162500000Y-86920000D03*
X162500000Y-89460000D03*
X162500000Y-92000000D03*
D14*
X154000000Y-111000000D03*
D15*
X151460000Y-111000000D03*
X148920000Y-111000000D03*
X146380000Y-111000000D03*
D14*
X166540000Y-111000000D03*
D15*
X164000000Y-111000000D03*
X161460000Y-111000000D03*
X158920000Y-111000000D03*
D16*
X132500000Y-64000000D03*
X132500000Y-58000000D03*
X127800000Y-61000000D03*
D17*
X144000000Y-101000000D03*
D18*
X144000000Y-103540000D03*
X144000000Y-106080000D03*
D17*
X149500000Y-101000000D03*
D18*
X149500000Y-103540000D03*
X149500000Y-106080000D03*
D17*
X138500000Y-101000000D03*
D18*
X138500000Y-103540000D03*
X138500000Y-106080000D03*
D17*
X161000000Y-101000000D03*
D18*
X161000000Y-103540000D03*
X161000000Y-106080000D03*
D17*
X166500000Y-101000000D03*
D18*
X166500000Y-103540000D03*
X166500000Y-106080000D03*
D17*
X155500000Y-101000000D03*
D18*
X155500000Y-103540000D03*
X155500000Y-106080000D03*
D19*
X136000000Y-86000000D03*
X136000000Y-83500000D03*
X136000000Y-81000000D03*
D20*
X129000000Y-87900000D03*
X129000000Y-79100000D03*
D21*
X131750000Y-93000000D03*
X131750000Y-97500000D03*
X125250000Y-93000000D03*
X125250000Y-97500000D03*
X125250000Y-106000000D03*
X125250000Y-101500000D03*
X131750000Y-106000000D03*
X131750000Y-101500000D03*
D17*
X126920000Y-111000000D03*
D19*
X129460000Y-111000000D03*
X132000000Y-111000000D03*
D14*
X142080000Y-111000000D03*
D15*
X139540000Y-111000000D03*
X137000000Y-111000000D03*
D22*
X134500000Y-82000000D03*
X134500000Y-76750000D03*
X136000000Y-101000000D03*
X136000000Y-105500000D03*
X132500000Y-60750000D03*
X124750000Y-64000000D03*
X128750000Y-57500000D03*
X132500000Y-55000000D03*
X124750000Y-61000000D03*
X151250000Y-67250000D03*
X167500000Y-63500000D03*
X167500000Y-73500000D03*
X167500000Y-83500000D03*
X163500000Y-102500000D03*
X158000000Y-102500000D03*
X152250000Y-102500000D03*
X146750000Y-102500000D03*
X141250000Y-102500000D03*
X137350000Y-93250000D03*
X134750000Y-106500000D03*
X151000000Y-76750000D03*
D23*
X134500000Y-76750000D02*
X134500000Y-82000000D01*
X136750000Y-106750000D02*
X136750000Y-105290000D01*
X136750000Y-107500000D02*
X136750000Y-106750000D01*
X136750000Y-106750000D02*
X136750000Y-106250000D01*
X136750000Y-106250000D02*
X136000000Y-105500000D01*
D24*
X134000000Y-103540000D02*
X134000000Y-100000000D01*
X134000000Y-100000000D02*
X133500000Y-99500000D01*
X130500000Y-99500000D02*
X129460000Y-100540000D01*
X133500000Y-99500000D02*
X130500000Y-99500000D01*
X129460000Y-100540000D02*
X129460000Y-104790000D01*
X137350000Y-93250000D02*
X137350000Y-98400000D01*
X137350000Y-98400000D02*
X136500000Y-99250000D01*
X136500000Y-99250000D02*
X136500000Y-103500000D01*
X136540000Y-103540000D02*
X138500000Y-103540000D01*
X136500000Y-103500000D02*
X136540000Y-103540000D01*
D25*
X132500000Y-58000000D02*
X132500000Y-55000000D01*
D24*
X149000000Y-85000000D02*
X158120000Y-85000000D01*
X147960000Y-85000000D02*
X149000000Y-85000000D01*
D25*
X149000000Y-85000000D02*
X149000000Y-69500000D01*
X149000000Y-69500000D02*
X151250000Y-67250000D01*
X167500000Y-73500000D02*
X167500000Y-63500000D01*
X162500000Y-84380000D02*
X166620000Y-84380000D01*
X166620000Y-84380000D02*
X167500000Y-83500000D01*
D26*
X163500000Y-103540000D02*
X166500000Y-103540000D01*
X161000000Y-103540000D02*
X163500000Y-103540000D01*
D25*
X163500000Y-103540000D02*
X163500000Y-102500000D01*
D26*
X158000000Y-103540000D02*
X161000000Y-103540000D01*
X155500000Y-103540000D02*
X158000000Y-103540000D01*
D25*
X158000000Y-103540000D02*
X158000000Y-102500000D01*
X152750000Y-103540000D02*
X152250000Y-103040000D01*
X152250000Y-103040000D02*
X152250000Y-102500000D01*
X146750000Y-103540000D02*
X146750000Y-102500000D01*
D26*
X152750000Y-103540000D02*
X155500000Y-103540000D01*
X149500000Y-103540000D02*
X152750000Y-103540000D01*
X146750000Y-103540000D02*
X149500000Y-103540000D01*
X144000000Y-103540000D02*
X146750000Y-103540000D01*
X141250000Y-103540000D02*
X144000000Y-103540000D01*
D25*
X141250000Y-103540000D02*
X141250000Y-102500000D01*
D26*
X138500000Y-103540000D02*
X141250000Y-103540000D01*
D24*
X139292857Y-108074055D02*
X137324055Y-108074055D01*
X137324055Y-108074055D02*
X136750000Y-107500000D01*
D23*
X139000000Y-108074055D02*
X137324055Y-108074055D01*
D27*
X142080000Y-111000000D02*
X142080000Y-110861198D01*
X142080000Y-110861198D02*
X139292857Y-108074055D01*
X139292857Y-108074055D02*
X139000000Y-108074055D01*
D23*
X129460000Y-111000000D02*
X129460000Y-104790000D01*
X129460000Y-104790000D02*
X130710000Y-103540000D01*
X130710000Y-103540000D02*
X134000000Y-103540000D01*
D28*
X127800000Y-61000000D02*
X128810001Y-62010001D01*
X128810001Y-62010001D02*
X128810001Y-69810001D01*
X128810001Y-69810001D02*
X131000000Y-72000000D01*
X132500000Y-58000000D02*
X130800000Y-58000000D01*
X130800000Y-58000000D02*
X127800000Y-61000000D01*
D24*
X143500000Y-89460000D02*
X147960000Y-85000000D01*
X158120000Y-85000000D02*
X158740000Y-84380000D01*
X136000000Y-81000000D02*
X136000000Y-76755198D01*
X136000000Y-76755198D02*
X131244802Y-72000000D01*
X131244802Y-72000000D02*
X131000000Y-72000000D01*
D26*
X138500000Y-103540000D02*
X134000000Y-103540000D01*
D23*
X136750000Y-105290000D02*
X138500000Y-103540000D01*
X129460000Y-111000000D02*
X129500000Y-110960000D01*
X137350000Y-93250000D02*
X137350000Y-91400000D01*
X137350000Y-91400000D02*
X139290000Y-89460000D01*
X139290000Y-89460000D02*
X139500000Y-89460000D01*
D28*
X131750000Y-106000000D02*
X131750000Y-107347608D01*
X131750000Y-107347608D02*
X135402392Y-111000000D01*
X132000000Y-106250000D02*
X132000000Y-108500000D01*
X131750000Y-106000000D02*
X132000000Y-106250000D01*
D23*
X139540000Y-111000000D02*
X139500000Y-111000000D01*
X139500000Y-111000000D02*
X139500000Y-110750000D01*
X139500000Y-110750000D02*
X137750000Y-109000000D01*
X137750000Y-109000000D02*
X136000000Y-109000000D01*
X136000000Y-109000000D02*
X134750000Y-107750000D01*
X134750000Y-107750000D02*
X134750000Y-106500000D01*
X158740000Y-76760000D02*
X151010000Y-76760000D01*
X151010000Y-76760000D02*
X151000000Y-76750000D01*
D28*
X125250000Y-97500000D02*
X125250000Y-101500000D01*
X136000000Y-86000000D02*
X135000000Y-87000000D01*
X135000000Y-87000000D02*
X135000000Y-94250000D01*
X135000000Y-94250000D02*
X131750000Y-97500000D01*
X135402392Y-111000000D02*
X137000000Y-111000000D01*
X136920000Y-111000000D02*
X132000000Y-111000000D01*
X132000000Y-108500000D02*
X132000000Y-111000000D01*
X132500000Y-64000000D02*
X134500000Y-66000000D01*
X134500000Y-66000000D02*
X134500000Y-72000000D01*
D26*
X151460000Y-111000000D02*
X151460000Y-108040000D01*
X151460000Y-108040000D02*
X149500000Y-106080000D01*
X148920000Y-111000000D02*
X148920000Y-109170000D01*
X148920000Y-109170000D02*
X145830000Y-106080000D01*
X145830000Y-106080000D02*
X144508802Y-106080000D01*
X144508802Y-106080000D02*
X144000000Y-106080000D01*
X138500000Y-106080000D02*
X138670000Y-106080000D01*
X138670000Y-106080000D02*
X138750000Y-106000000D01*
X138750000Y-106000000D02*
X140250000Y-106000000D01*
X140250000Y-106000000D02*
X142750000Y-108500000D01*
X142750000Y-108500000D02*
X143880000Y-108500000D01*
X143880000Y-108500000D02*
X146380000Y-111000000D01*
X166500000Y-106080000D02*
X164000000Y-108580000D01*
X164000000Y-108580000D02*
X164000000Y-111000000D01*
X161460000Y-111000000D02*
X161460000Y-106540000D01*
X161460000Y-106540000D02*
X161000000Y-106080000D01*
X155500000Y-106080000D02*
X155580000Y-106080000D01*
X155580000Y-106080000D02*
X158920000Y-109420000D01*
X158920000Y-109420000D02*
X158920000Y-111000000D01*
D29*
G36*
X144857760Y-111790000D02*
X143565000Y-111790000D01*
X143565000Y-111285750D01*
X143406250Y-111127000D01*
X142207000Y-111127000D01*
X142207000Y-111147000D01*
X141953000Y-111147000D01*
X141953000Y-111127000D01*
X141933000Y-111127000D01*
X141933000Y-110873000D01*
X141953000Y-110873000D01*
X141953000Y-110853000D01*
X142207000Y-110853000D01*
X142207000Y-110873000D01*
X143406250Y-110873000D01*
X143565000Y-110714250D01*
X143565000Y-110497240D01*
X144857760Y-111790000D01*
X144857760Y-111790000D01*
G37*
X144857760Y-111790000D02*
X143565000Y-111790000D01*
X143565000Y-111285750D01*
X143406250Y-111127000D01*
X142207000Y-111127000D01*
X142207000Y-111147000D01*
X141953000Y-111147000D01*
X141953000Y-111127000D01*
X141933000Y-111127000D01*
X141933000Y-110873000D01*
X141953000Y-110873000D01*
X141953000Y-110853000D01*
X142207000Y-110853000D01*
X142207000Y-110873000D01*
X143406250Y-110873000D01*
X143565000Y-110714250D01*
X143565000Y-110497240D01*
X144857760Y-111790000D01*
G36*
X167753707Y-52973288D02*
X168816546Y-53683454D01*
X169526712Y-54746295D01*
X169790000Y-56069931D01*
X169790000Y-108430069D01*
X169526712Y-109753705D01*
X168816546Y-110816546D01*
X168037440Y-111337128D01*
X168037440Y-110150000D01*
X167993162Y-109914683D01*
X167854090Y-109698559D01*
X167641890Y-109553569D01*
X167390000Y-109502560D01*
X165690000Y-109502560D01*
X165635000Y-109512909D01*
X165635000Y-109257240D01*
X167656120Y-107236120D01*
X168010543Y-106705688D01*
X168135001Y-106080000D01*
X168010543Y-105454312D01*
X167656120Y-104923880D01*
X167402880Y-104754671D01*
X167737966Y-104447576D01*
X167991046Y-103904742D01*
X167870997Y-103667000D01*
X166627000Y-103667000D01*
X166627000Y-103687000D01*
X166373000Y-103687000D01*
X166373000Y-103667000D01*
X165129003Y-103667000D01*
X165008954Y-103904742D01*
X165262034Y-104447576D01*
X165597120Y-104754671D01*
X165343880Y-104923880D01*
X163095000Y-107172760D01*
X163095000Y-106540000D01*
X163092903Y-106529457D01*
X162970543Y-105914312D01*
X162737248Y-105565162D01*
X162616120Y-105383880D01*
X162616117Y-105383878D01*
X162156120Y-104923880D01*
X161902880Y-104754671D01*
X162237966Y-104447576D01*
X162491046Y-103904742D01*
X162370997Y-103667000D01*
X161127000Y-103667000D01*
X161127000Y-103687000D01*
X160873000Y-103687000D01*
X160873000Y-103667000D01*
X159629003Y-103667000D01*
X159508954Y-103904742D01*
X159762034Y-104447576D01*
X160097120Y-104754671D01*
X159843880Y-104923880D01*
X159489457Y-105454312D01*
X159364999Y-106080000D01*
X159489457Y-106705688D01*
X159825000Y-107207864D01*
X159825000Y-108012761D01*
X156736120Y-104923880D01*
X156436613Y-104723756D01*
X156737966Y-104447576D01*
X156991046Y-103904742D01*
X156870997Y-103667000D01*
X155627000Y-103667000D01*
X155627000Y-103687000D01*
X155373000Y-103687000D01*
X155373000Y-103667000D01*
X154129003Y-103667000D01*
X154008954Y-103904742D01*
X154262034Y-104447576D01*
X154597120Y-104754671D01*
X154343880Y-104923880D01*
X153989457Y-105454313D01*
X153865000Y-106080000D01*
X153989457Y-106705687D01*
X154343880Y-107236120D01*
X154584972Y-107397212D01*
X157285000Y-110097239D01*
X157285000Y-111000000D01*
X157409457Y-111625687D01*
X157519247Y-111790000D01*
X155497440Y-111790000D01*
X155497440Y-110150000D01*
X155453162Y-109914683D01*
X155314090Y-109698559D01*
X155101890Y-109553569D01*
X154850000Y-109502560D01*
X153150000Y-109502560D01*
X153095000Y-109512909D01*
X153095000Y-108040005D01*
X153095001Y-108040000D01*
X152970543Y-107414313D01*
X152916142Y-107332896D01*
X152616120Y-106883880D01*
X152616117Y-106883878D01*
X150656120Y-104923880D01*
X150402880Y-104754671D01*
X150737966Y-104447576D01*
X150991046Y-103904742D01*
X150870997Y-103667000D01*
X149627000Y-103667000D01*
X149627000Y-103687000D01*
X149373000Y-103687000D01*
X149373000Y-103667000D01*
X148129003Y-103667000D01*
X148008954Y-103904742D01*
X148262034Y-104447576D01*
X148597120Y-104754671D01*
X148343880Y-104923880D01*
X147989457Y-105454312D01*
X147910997Y-105848757D01*
X146986120Y-104923880D01*
X146455688Y-104569457D01*
X145830000Y-104444999D01*
X145829995Y-104445000D01*
X145239167Y-104445000D01*
X145491046Y-103904742D01*
X145370997Y-103667000D01*
X144127000Y-103667000D01*
X144127000Y-103687000D01*
X143873000Y-103687000D01*
X143873000Y-103667000D01*
X142629003Y-103667000D01*
X142508954Y-103904742D01*
X142762034Y-104447576D01*
X143097120Y-104754671D01*
X142843880Y-104923880D01*
X142489457Y-105454313D01*
X142410997Y-105848757D01*
X141406120Y-104843880D01*
X140875688Y-104489457D01*
X140250000Y-104364999D01*
X140249995Y-104365000D01*
X139776465Y-104365000D01*
X139991046Y-103904742D01*
X139870997Y-103667000D01*
X138627000Y-103667000D01*
X138627000Y-103687000D01*
X138373000Y-103687000D01*
X138373000Y-103667000D01*
X137129003Y-103667000D01*
X137008954Y-103904742D01*
X137262034Y-104447576D01*
X137597120Y-104754671D01*
X137343880Y-104923880D01*
X136989457Y-105454313D01*
X136865000Y-106080000D01*
X136989457Y-106705687D01*
X137343880Y-107236120D01*
X137874313Y-107590543D01*
X138500000Y-107715000D01*
X138669995Y-107715000D01*
X138670000Y-107715001D01*
X139072189Y-107635000D01*
X139572760Y-107635000D01*
X141452760Y-109515000D01*
X141103690Y-109515000D01*
X140870301Y-109611673D01*
X140691673Y-109790302D01*
X140619403Y-109964777D01*
X140590054Y-109920853D01*
X140108285Y-109598946D01*
X139540000Y-109485907D01*
X139437219Y-109506351D01*
X138340434Y-108409566D01*
X138268477Y-108361486D01*
X138069541Y-108228561D01*
X137750000Y-108165000D01*
X136345868Y-108165000D01*
X135585000Y-107404132D01*
X135585000Y-106927234D01*
X135684838Y-106686799D01*
X135685162Y-106314833D01*
X135543117Y-105971057D01*
X135280327Y-105707808D01*
X134936799Y-105565162D01*
X134564833Y-105564838D01*
X134221057Y-105706883D01*
X133957808Y-105969673D01*
X133870881Y-106179017D01*
X133741513Y-105528642D01*
X133741513Y-105528641D01*
X133332896Y-104917103D01*
X133082896Y-104667104D01*
X132471359Y-104258487D01*
X131750000Y-104115000D01*
X131028641Y-104258487D01*
X130417104Y-104667104D01*
X130008487Y-105278641D01*
X129882988Y-105909566D01*
X129865000Y-106000000D01*
X129865000Y-107347608D01*
X130008487Y-108068967D01*
X130115000Y-108228375D01*
X130115000Y-109605131D01*
X129700664Y-109453542D01*
X129090540Y-109479161D01*
X128645852Y-109663357D01*
X128559447Y-109919839D01*
X128444890Y-109805282D01*
X128408412Y-109841760D01*
X128284090Y-109648559D01*
X128071890Y-109503569D01*
X127820000Y-109452560D01*
X126020000Y-109452560D01*
X125784683Y-109496838D01*
X125568559Y-109635910D01*
X125423569Y-109848110D01*
X125372560Y-110100000D01*
X125372560Y-111551828D01*
X125246295Y-111526712D01*
X124183454Y-110816546D01*
X123473288Y-109753707D01*
X123210000Y-108430069D01*
X123210000Y-106323795D01*
X123614716Y-106323795D01*
X123863106Y-106924943D01*
X124322637Y-107385278D01*
X124923352Y-107634716D01*
X125573795Y-107635284D01*
X126174943Y-107386894D01*
X126635278Y-106927363D01*
X126884716Y-106326648D01*
X126885284Y-105676205D01*
X126636894Y-105075057D01*
X126177363Y-104614722D01*
X125576648Y-104365284D01*
X124926205Y-104364716D01*
X124325057Y-104613106D01*
X123864722Y-105072637D01*
X123615284Y-105673352D01*
X123614716Y-106323795D01*
X123210000Y-106323795D01*
X123210000Y-97500000D01*
X123365000Y-97500000D01*
X123365000Y-101500000D01*
X123508487Y-102221358D01*
X123917104Y-102832896D01*
X124528642Y-103241513D01*
X125250000Y-103385000D01*
X125971358Y-103241513D01*
X126582896Y-102832896D01*
X126991513Y-102221358D01*
X127070593Y-101823795D01*
X130114716Y-101823795D01*
X130363106Y-102424943D01*
X130822637Y-102885278D01*
X131423352Y-103134716D01*
X132073795Y-103135284D01*
X132674943Y-102886894D01*
X133135278Y-102427363D01*
X133384716Y-101826648D01*
X133385284Y-101176205D01*
X133136894Y-100575057D01*
X132677363Y-100114722D01*
X132641909Y-100100000D01*
X136952560Y-100100000D01*
X136952560Y-101900000D01*
X136996838Y-102135317D01*
X137135910Y-102351441D01*
X137348110Y-102496431D01*
X137399146Y-102506766D01*
X137262034Y-102632424D01*
X137008954Y-103175258D01*
X137129003Y-103413000D01*
X138373000Y-103413000D01*
X138373000Y-103393000D01*
X138627000Y-103393000D01*
X138627000Y-103413000D01*
X139870997Y-103413000D01*
X139991046Y-103175258D01*
X139737966Y-102632424D01*
X139603462Y-102509156D01*
X139635317Y-102503162D01*
X139851441Y-102364090D01*
X139996431Y-102151890D01*
X140047440Y-101900000D01*
X140047440Y-100100000D01*
X142452560Y-100100000D01*
X142452560Y-101900000D01*
X142496838Y-102135317D01*
X142635910Y-102351441D01*
X142848110Y-102496431D01*
X142899146Y-102506766D01*
X142762034Y-102632424D01*
X142508954Y-103175258D01*
X142629003Y-103413000D01*
X143873000Y-103413000D01*
X143873000Y-103393000D01*
X144127000Y-103393000D01*
X144127000Y-103413000D01*
X145370997Y-103413000D01*
X145491046Y-103175258D01*
X145237966Y-102632424D01*
X145103462Y-102509156D01*
X145135317Y-102503162D01*
X145351441Y-102364090D01*
X145496431Y-102151890D01*
X145547440Y-101900000D01*
X145547440Y-100100000D01*
X147952560Y-100100000D01*
X147952560Y-101900000D01*
X147996838Y-102135317D01*
X148135910Y-102351441D01*
X148348110Y-102496431D01*
X148399146Y-102506766D01*
X148262034Y-102632424D01*
X148008954Y-103175258D01*
X148129003Y-103413000D01*
X149373000Y-103413000D01*
X149373000Y-103393000D01*
X149627000Y-103393000D01*
X149627000Y-103413000D01*
X150870997Y-103413000D01*
X150991046Y-103175258D01*
X150737966Y-102632424D01*
X150603462Y-102509156D01*
X150635317Y-102503162D01*
X150851441Y-102364090D01*
X150996431Y-102151890D01*
X151047440Y-101900000D01*
X151047440Y-100100000D01*
X153952560Y-100100000D01*
X153952560Y-101900000D01*
X153996838Y-102135317D01*
X154135910Y-102351441D01*
X154348110Y-102496431D01*
X154399146Y-102506766D01*
X154262034Y-102632424D01*
X154008954Y-103175258D01*
X154129003Y-103413000D01*
X155373000Y-103413000D01*
X155373000Y-103393000D01*
X155627000Y-103393000D01*
X155627000Y-103413000D01*
X156870997Y-103413000D01*
X156991046Y-103175258D01*
X156737966Y-102632424D01*
X156603462Y-102509156D01*
X156635317Y-102503162D01*
X156851441Y-102364090D01*
X156996431Y-102151890D01*
X157047440Y-101900000D01*
X157047440Y-100100000D01*
X159452560Y-100100000D01*
X159452560Y-101900000D01*
X159496838Y-102135317D01*
X159635910Y-102351441D01*
X159848110Y-102496431D01*
X159899146Y-102506766D01*
X159762034Y-102632424D01*
X159508954Y-103175258D01*
X159629003Y-103413000D01*
X160873000Y-103413000D01*
X160873000Y-103393000D01*
X161127000Y-103393000D01*
X161127000Y-103413000D01*
X162370997Y-103413000D01*
X162491046Y-103175258D01*
X162237966Y-102632424D01*
X162103462Y-102509156D01*
X162135317Y-102503162D01*
X162351441Y-102364090D01*
X162496431Y-102151890D01*
X162547440Y-101900000D01*
X162547440Y-100100000D01*
X164952560Y-100100000D01*
X164952560Y-101900000D01*
X164996838Y-102135317D01*
X165135910Y-102351441D01*
X165348110Y-102496431D01*
X165399146Y-102506766D01*
X165262034Y-102632424D01*
X165008954Y-103175258D01*
X165129003Y-103413000D01*
X166373000Y-103413000D01*
X166373000Y-103393000D01*
X166627000Y-103393000D01*
X166627000Y-103413000D01*
X167870997Y-103413000D01*
X167991046Y-103175258D01*
X167737966Y-102632424D01*
X167603462Y-102509156D01*
X167635317Y-102503162D01*
X167851441Y-102364090D01*
X167996431Y-102151890D01*
X168047440Y-101900000D01*
X168047440Y-100100000D01*
X168003162Y-99864683D01*
X167864090Y-99648559D01*
X167651890Y-99503569D01*
X167400000Y-99452560D01*
X165600000Y-99452560D01*
X165364683Y-99496838D01*
X165148559Y-99635910D01*
X165003569Y-99848110D01*
X164952560Y-100100000D01*
X162547440Y-100100000D01*
X162503162Y-99864683D01*
X162364090Y-99648559D01*
X162151890Y-99503569D01*
X161900000Y-99452560D01*
X160100000Y-99452560D01*
X159864683Y-99496838D01*
X159648559Y-99635910D01*
X159503569Y-99848110D01*
X159452560Y-100100000D01*
X157047440Y-100100000D01*
X157003162Y-99864683D01*
X156864090Y-99648559D01*
X156651890Y-99503569D01*
X156400000Y-99452560D01*
X154600000Y-99452560D01*
X154364683Y-99496838D01*
X154148559Y-99635910D01*
X154003569Y-99848110D01*
X153952560Y-100100000D01*
X151047440Y-100100000D01*
X151003162Y-99864683D01*
X150864090Y-99648559D01*
X150651890Y-99503569D01*
X150400000Y-99452560D01*
X148600000Y-99452560D01*
X148364683Y-99496838D01*
X148148559Y-99635910D01*
X148003569Y-99848110D01*
X147952560Y-100100000D01*
X145547440Y-100100000D01*
X145503162Y-99864683D01*
X145364090Y-99648559D01*
X145151890Y-99503569D01*
X144900000Y-99452560D01*
X143100000Y-99452560D01*
X142864683Y-99496838D01*
X142648559Y-99635910D01*
X142503569Y-99848110D01*
X142452560Y-100100000D01*
X140047440Y-100100000D01*
X140003162Y-99864683D01*
X139864090Y-99648559D01*
X139651890Y-99503569D01*
X139400000Y-99452560D01*
X137600000Y-99452560D01*
X137364683Y-99496838D01*
X137148559Y-99635910D01*
X137003569Y-99848110D01*
X136952560Y-100100000D01*
X132641909Y-100100000D01*
X132076648Y-99865284D01*
X131426205Y-99864716D01*
X130825057Y-100113106D01*
X130364722Y-100572637D01*
X130115284Y-101173352D01*
X130114716Y-101823795D01*
X127070593Y-101823795D01*
X127135000Y-101500000D01*
X127135000Y-97500000D01*
X129865000Y-97500000D01*
X130008487Y-98221359D01*
X130417104Y-98832896D01*
X131028641Y-99241513D01*
X131750000Y-99385000D01*
X132471359Y-99241513D01*
X133082896Y-98832896D01*
X136332896Y-95582896D01*
X136741513Y-94971359D01*
X136885000Y-94250000D01*
X136885000Y-92000000D01*
X137985907Y-92000000D01*
X138098946Y-92568285D01*
X138420853Y-93050054D01*
X138902622Y-93371961D01*
X139470907Y-93485000D01*
X139529093Y-93485000D01*
X140097378Y-93371961D01*
X140579147Y-93050054D01*
X140901054Y-92568285D01*
X141014093Y-92000000D01*
X142036887Y-92000000D01*
X142146120Y-92549151D01*
X142457189Y-93014698D01*
X142922736Y-93325767D01*
X143471887Y-93435000D01*
X143528113Y-93435000D01*
X144077264Y-93325767D01*
X144542811Y-93014698D01*
X144853880Y-92549151D01*
X144963113Y-92000000D01*
X144853880Y-91450849D01*
X144848381Y-91442619D01*
X147764613Y-91442619D01*
X148104155Y-92264372D01*
X148732321Y-92893636D01*
X149553481Y-93234611D01*
X150442619Y-93235387D01*
X151264372Y-92895845D01*
X151893636Y-92267679D01*
X152234611Y-91446519D01*
X152235387Y-90557381D01*
X151895845Y-89735628D01*
X151267679Y-89106364D01*
X150446519Y-88765389D01*
X149557381Y-88764613D01*
X148735628Y-89104155D01*
X148106364Y-89732321D01*
X147765389Y-90553481D01*
X147764613Y-91442619D01*
X144848381Y-91442619D01*
X144542811Y-90985302D01*
X144138297Y-90715014D01*
X144355134Y-90612389D01*
X144731041Y-90197423D01*
X144891904Y-89809039D01*
X144769915Y-89587000D01*
X143627000Y-89587000D01*
X143627000Y-89607000D01*
X143373000Y-89607000D01*
X143373000Y-89587000D01*
X142230085Y-89587000D01*
X142108096Y-89809039D01*
X142268959Y-90197423D01*
X142644866Y-90612389D01*
X142861703Y-90715014D01*
X142457189Y-90985302D01*
X142146120Y-91450849D01*
X142036887Y-92000000D01*
X141014093Y-92000000D01*
X140901054Y-91431715D01*
X140579147Y-90949946D01*
X140238447Y-90722298D01*
X140381358Y-90655183D01*
X140771645Y-90226924D01*
X140941476Y-89816890D01*
X140820155Y-89587000D01*
X139627000Y-89587000D01*
X139627000Y-89607000D01*
X139373000Y-89607000D01*
X139373000Y-89587000D01*
X138179845Y-89587000D01*
X138058524Y-89816890D01*
X138228355Y-90226924D01*
X138618642Y-90655183D01*
X138761553Y-90722298D01*
X138420853Y-90949946D01*
X138098946Y-91431715D01*
X137985907Y-92000000D01*
X136885000Y-92000000D01*
X136885000Y-87780793D01*
X137332897Y-87332896D01*
X137741513Y-86721358D01*
X137885000Y-86000000D01*
X137741513Y-85278641D01*
X137332897Y-84667103D01*
X137135619Y-84535287D01*
X137300551Y-84370643D01*
X137534733Y-83806670D01*
X137535265Y-83196009D01*
X137302068Y-82631629D01*
X136870643Y-82199449D01*
X136861628Y-82195706D01*
X136900554Y-82080159D01*
X136000000Y-81179605D01*
X135985858Y-81193748D01*
X135806253Y-81014143D01*
X135820395Y-81000000D01*
X136179605Y-81000000D01*
X137080159Y-81900554D01*
X137336643Y-81814148D01*
X137546458Y-81240664D01*
X137520839Y-80630540D01*
X137336643Y-80185852D01*
X137080159Y-80099446D01*
X136179605Y-81000000D01*
X135820395Y-81000000D01*
X135806253Y-80985858D01*
X135985858Y-80806253D01*
X136000000Y-80820395D01*
X136900554Y-79919841D01*
X136814148Y-79663357D01*
X136240664Y-79453542D01*
X135630540Y-79479161D01*
X135335000Y-79601578D01*
X135335000Y-77177234D01*
X135434838Y-76936799D01*
X135435162Y-76564833D01*
X135293117Y-76221057D01*
X135030327Y-75957808D01*
X134686799Y-75815162D01*
X134314833Y-75814838D01*
X133971057Y-75956883D01*
X133707808Y-76219673D01*
X133565162Y-76563201D01*
X133564838Y-76935167D01*
X133665000Y-77177578D01*
X133665000Y-81572766D01*
X133565162Y-81813201D01*
X133564838Y-82185167D01*
X133706883Y-82528943D01*
X133969673Y-82792192D01*
X134313201Y-82934838D01*
X134572508Y-82935064D01*
X134465267Y-83193330D01*
X134464735Y-83803991D01*
X134697932Y-84368371D01*
X134864486Y-84535217D01*
X134667104Y-84667103D01*
X133667104Y-85667104D01*
X133258487Y-86278641D01*
X133258487Y-86278642D01*
X133115000Y-87000000D01*
X133115000Y-92053125D01*
X132677363Y-91614722D01*
X132076648Y-91365284D01*
X131426205Y-91364716D01*
X130825057Y-91613106D01*
X130364722Y-92072637D01*
X130115284Y-92673352D01*
X130114716Y-93323795D01*
X130363106Y-93924943D01*
X130822637Y-94385278D01*
X131423352Y-94634716D01*
X131949033Y-94635175D01*
X130417104Y-96167104D01*
X130008487Y-96778641D01*
X129865000Y-97500000D01*
X127135000Y-97500000D01*
X126991513Y-96778642D01*
X126582896Y-96167104D01*
X125971358Y-95758487D01*
X125250000Y-95615000D01*
X124528642Y-95758487D01*
X123917104Y-96167104D01*
X123508487Y-96778642D01*
X123365000Y-97500000D01*
X123210000Y-97500000D01*
X123210000Y-93323795D01*
X123614716Y-93323795D01*
X123863106Y-93924943D01*
X124322637Y-94385278D01*
X124923352Y-94634716D01*
X125573795Y-94635284D01*
X126174943Y-94386894D01*
X126635278Y-93927363D01*
X126884716Y-93326648D01*
X126885284Y-92676205D01*
X126636894Y-92075057D01*
X126177363Y-91614722D01*
X125576648Y-91365284D01*
X124926205Y-91364716D01*
X124325057Y-91613106D01*
X123864722Y-92072637D01*
X123615284Y-92673352D01*
X123614716Y-93323795D01*
X123210000Y-93323795D01*
X123210000Y-88421834D01*
X126364543Y-88421834D01*
X126764853Y-89390658D01*
X127505443Y-90132542D01*
X128473567Y-90534542D01*
X129521834Y-90535457D01*
X130490658Y-90135147D01*
X131232542Y-89394557D01*
X131634542Y-88426433D01*
X131635457Y-87378166D01*
X131235147Y-86409342D01*
X130494557Y-85667458D01*
X129526433Y-85265458D01*
X128478166Y-85264543D01*
X127509342Y-85664853D01*
X126767458Y-86405443D01*
X126365458Y-87373567D01*
X126364543Y-88421834D01*
X123210000Y-88421834D01*
X123210000Y-79621834D01*
X126364543Y-79621834D01*
X126764853Y-80590658D01*
X127505443Y-81332542D01*
X128473567Y-81734542D01*
X129521834Y-81735457D01*
X130490658Y-81335147D01*
X131232542Y-80594557D01*
X131634542Y-79626433D01*
X131635457Y-78578166D01*
X131235147Y-77609342D01*
X130494557Y-76867458D01*
X129526433Y-76465458D01*
X128478166Y-76464543D01*
X127509342Y-76864853D01*
X126767458Y-77605443D01*
X126365458Y-78573567D01*
X126364543Y-79621834D01*
X123210000Y-79621834D01*
X123210000Y-73007745D01*
X130171861Y-73007745D01*
X130245995Y-73253864D01*
X130783223Y-73446965D01*
X131353454Y-73419778D01*
X131754005Y-73253864D01*
X131828139Y-73007745D01*
X131000000Y-72179605D01*
X130171861Y-73007745D01*
X123210000Y-73007745D01*
X123210000Y-71783223D01*
X129553035Y-71783223D01*
X129580222Y-72353454D01*
X129746136Y-72754005D01*
X129992255Y-72828139D01*
X130820395Y-72000000D01*
X131179605Y-72000000D01*
X132007745Y-72828139D01*
X132253864Y-72754005D01*
X132446965Y-72216777D01*
X132419778Y-71646546D01*
X132253864Y-71245995D01*
X132007745Y-71171861D01*
X131179605Y-72000000D01*
X130820395Y-72000000D01*
X129992255Y-71171861D01*
X129746136Y-71245995D01*
X129553035Y-71783223D01*
X123210000Y-71783223D01*
X123210000Y-70992255D01*
X130171861Y-70992255D01*
X131000000Y-71820395D01*
X131828139Y-70992255D01*
X131754005Y-70746136D01*
X131216777Y-70553035D01*
X130646546Y-70580222D01*
X130245995Y-70746136D01*
X130171861Y-70992255D01*
X123210000Y-70992255D01*
X123210000Y-69192619D01*
X123514613Y-69192619D01*
X123854155Y-70014372D01*
X124482321Y-70643636D01*
X125303481Y-70984611D01*
X126192619Y-70985387D01*
X127014372Y-70645845D01*
X127643636Y-70017679D01*
X127984611Y-69196519D01*
X127985387Y-68307381D01*
X127645845Y-67485628D01*
X127017679Y-66856364D01*
X126196519Y-66515389D01*
X125307381Y-66514613D01*
X124485628Y-66854155D01*
X123856364Y-67482321D01*
X123515389Y-68303481D01*
X123514613Y-69192619D01*
X123210000Y-69192619D01*
X123210000Y-61285750D01*
X125415000Y-61285750D01*
X125415000Y-62876309D01*
X125511673Y-63109698D01*
X125690301Y-63288327D01*
X125923690Y-63385000D01*
X127514250Y-63385000D01*
X127673000Y-63226250D01*
X127673000Y-61127000D01*
X127927000Y-61127000D01*
X127927000Y-63226250D01*
X128085750Y-63385000D01*
X129676310Y-63385000D01*
X129909699Y-63288327D01*
X130088327Y-63109698D01*
X130102560Y-63075337D01*
X130102560Y-65750000D01*
X130146838Y-65985317D01*
X130285910Y-66201441D01*
X130498110Y-66346431D01*
X130750000Y-66397440D01*
X132231648Y-66397440D01*
X132615000Y-66780792D01*
X132615000Y-72000000D01*
X132758487Y-72721358D01*
X133167104Y-73332896D01*
X133778642Y-73741513D01*
X134500000Y-73885000D01*
X135221358Y-73741513D01*
X135832896Y-73332896D01*
X136241513Y-72721358D01*
X136385000Y-72000000D01*
X136385000Y-66000000D01*
X136335272Y-65750000D01*
X136241513Y-65278641D01*
X135832896Y-64667104D01*
X134897440Y-63731648D01*
X134897440Y-62250000D01*
X134853162Y-62014683D01*
X134714090Y-61798559D01*
X134501890Y-61653569D01*
X134250000Y-61602560D01*
X130750000Y-61602560D01*
X130514683Y-61646838D01*
X130298559Y-61785910D01*
X130185000Y-61952109D01*
X130185000Y-61285750D01*
X130026250Y-61127000D01*
X127927000Y-61127000D01*
X127673000Y-61127000D01*
X125573750Y-61127000D01*
X125415000Y-61285750D01*
X123210000Y-61285750D01*
X123210000Y-59123691D01*
X125415000Y-59123691D01*
X125415000Y-60714250D01*
X125573750Y-60873000D01*
X127673000Y-60873000D01*
X127673000Y-58773750D01*
X127927000Y-58773750D01*
X127927000Y-60873000D01*
X130026250Y-60873000D01*
X130185000Y-60714250D01*
X130185000Y-60045304D01*
X130211673Y-60109698D01*
X130390301Y-60288327D01*
X130623690Y-60385000D01*
X132214250Y-60385000D01*
X132373000Y-60226250D01*
X132373000Y-58127000D01*
X132627000Y-58127000D01*
X132627000Y-60226250D01*
X132785750Y-60385000D01*
X134376310Y-60385000D01*
X134609699Y-60288327D01*
X134788327Y-60109698D01*
X134885000Y-59876309D01*
X134885000Y-58980000D01*
X137985907Y-58980000D01*
X138098946Y-59548285D01*
X138420853Y-60030054D01*
X138750026Y-60250000D01*
X138420853Y-60469946D01*
X138098946Y-60951715D01*
X137985907Y-61520000D01*
X138098946Y-62088285D01*
X138420853Y-62570054D01*
X138750026Y-62790000D01*
X138420853Y-63009946D01*
X138098946Y-63491715D01*
X137985907Y-64060000D01*
X138098946Y-64628285D01*
X138420853Y-65110054D01*
X138750026Y-65330000D01*
X138420853Y-65549946D01*
X138098946Y-66031715D01*
X137985907Y-66600000D01*
X138098946Y-67168285D01*
X138420853Y-67650054D01*
X138750026Y-67870000D01*
X138420853Y-68089946D01*
X138098946Y-68571715D01*
X137985907Y-69140000D01*
X138098946Y-69708285D01*
X138420853Y-70190054D01*
X138750026Y-70410000D01*
X138420853Y-70629946D01*
X138098946Y-71111715D01*
X137985907Y-71680000D01*
X138098946Y-72248285D01*
X138420853Y-72730054D01*
X138750026Y-72950000D01*
X138420853Y-73169946D01*
X138098946Y-73651715D01*
X137985907Y-74220000D01*
X138098946Y-74788285D01*
X138420853Y-75270054D01*
X138750026Y-75490000D01*
X138420853Y-75709946D01*
X138098946Y-76191715D01*
X137985907Y-76760000D01*
X138098946Y-77328285D01*
X138420853Y-77810054D01*
X138750026Y-78030000D01*
X138420853Y-78249946D01*
X138098946Y-78731715D01*
X137985907Y-79300000D01*
X138098946Y-79868285D01*
X138420853Y-80350054D01*
X138750026Y-80570000D01*
X138420853Y-80789946D01*
X138098946Y-81271715D01*
X137985907Y-81840000D01*
X138098946Y-82408285D01*
X138420853Y-82890054D01*
X138750026Y-83110000D01*
X138420853Y-83329946D01*
X138098946Y-83811715D01*
X137985907Y-84380000D01*
X138098946Y-84948285D01*
X138420853Y-85430054D01*
X138750026Y-85650000D01*
X138420853Y-85869946D01*
X138098946Y-86351715D01*
X137985907Y-86920000D01*
X138098946Y-87488285D01*
X138420853Y-87970054D01*
X138761553Y-88197702D01*
X138618642Y-88264817D01*
X138228355Y-88693076D01*
X138058524Y-89103110D01*
X138179845Y-89333000D01*
X139373000Y-89333000D01*
X139373000Y-89313000D01*
X139627000Y-89313000D01*
X139627000Y-89333000D01*
X140820155Y-89333000D01*
X140941476Y-89103110D01*
X140771645Y-88693076D01*
X140381358Y-88264817D01*
X140238447Y-88197702D01*
X140579147Y-87970054D01*
X140901054Y-87488285D01*
X141014093Y-86920000D01*
X140901054Y-86351715D01*
X140579147Y-85869946D01*
X140249974Y-85650000D01*
X140579147Y-85430054D01*
X140901054Y-84948285D01*
X141014093Y-84380000D01*
X140901054Y-83811715D01*
X140579147Y-83329946D01*
X140249974Y-83110000D01*
X140579147Y-82890054D01*
X140901054Y-82408285D01*
X141014093Y-81840000D01*
X140901054Y-81271715D01*
X140579147Y-80789946D01*
X140249974Y-80570000D01*
X140579147Y-80350054D01*
X140901054Y-79868285D01*
X141014093Y-79300000D01*
X140901054Y-78731715D01*
X140579147Y-78249946D01*
X140249974Y-78030000D01*
X140579147Y-77810054D01*
X140901054Y-77328285D01*
X141014093Y-76760000D01*
X140901054Y-76191715D01*
X140579147Y-75709946D01*
X140249974Y-75490000D01*
X140579147Y-75270054D01*
X140901054Y-74788285D01*
X141014093Y-74220000D01*
X140901054Y-73651715D01*
X140579147Y-73169946D01*
X140249974Y-72950000D01*
X140579147Y-72730054D01*
X140901054Y-72248285D01*
X141014093Y-71680000D01*
X140901054Y-71111715D01*
X140579147Y-70629946D01*
X140249974Y-70410000D01*
X140579147Y-70190054D01*
X140901054Y-69708285D01*
X141014093Y-69140000D01*
X140901054Y-68571715D01*
X140579147Y-68089946D01*
X140249974Y-67870000D01*
X140579147Y-67650054D01*
X140901054Y-67168285D01*
X141014093Y-66600000D01*
X140901054Y-66031715D01*
X140579147Y-65549946D01*
X140249974Y-65330000D01*
X140579147Y-65110054D01*
X140901054Y-64628285D01*
X141014093Y-64060000D01*
X140901054Y-63491715D01*
X140579147Y-63009946D01*
X140249974Y-62790000D01*
X140579147Y-62570054D01*
X140901054Y-62088285D01*
X141014093Y-61520000D01*
X140901054Y-60951715D01*
X140579147Y-60469946D01*
X140249974Y-60250000D01*
X140579147Y-60030054D01*
X140901054Y-59548285D01*
X141014093Y-58980000D01*
X140901054Y-58411715D01*
X140579147Y-57929946D01*
X140537548Y-57902150D01*
X140585317Y-57893162D01*
X140801441Y-57754090D01*
X140946431Y-57541890D01*
X140997440Y-57290000D01*
X140997440Y-56440000D01*
X142036887Y-56440000D01*
X142146120Y-56989151D01*
X142457189Y-57454698D01*
X142839275Y-57710000D01*
X142457189Y-57965302D01*
X142146120Y-58430849D01*
X142036887Y-58980000D01*
X142146120Y-59529151D01*
X142457189Y-59994698D01*
X142839275Y-60250000D01*
X142457189Y-60505302D01*
X142146120Y-60970849D01*
X142036887Y-61520000D01*
X142146120Y-62069151D01*
X142457189Y-62534698D01*
X142839275Y-62790000D01*
X142457189Y-63045302D01*
X142146120Y-63510849D01*
X142036887Y-64060000D01*
X142146120Y-64609151D01*
X142457189Y-65074698D01*
X142839275Y-65330000D01*
X142457189Y-65585302D01*
X142146120Y-66050849D01*
X142036887Y-66600000D01*
X142146120Y-67149151D01*
X142457189Y-67614698D01*
X142839275Y-67870000D01*
X142457189Y-68125302D01*
X142146120Y-68590849D01*
X142036887Y-69140000D01*
X142146120Y-69689151D01*
X142457189Y-70154698D01*
X142839275Y-70410000D01*
X142457189Y-70665302D01*
X142146120Y-71130849D01*
X142036887Y-71680000D01*
X142146120Y-72229151D01*
X142457189Y-72694698D01*
X142839275Y-72950000D01*
X142457189Y-73205302D01*
X142146120Y-73670849D01*
X142036887Y-74220000D01*
X142146120Y-74769151D01*
X142457189Y-75234698D01*
X142839275Y-75490000D01*
X142457189Y-75745302D01*
X142146120Y-76210849D01*
X142036887Y-76760000D01*
X142146120Y-77309151D01*
X142457189Y-77774698D01*
X142839275Y-78030000D01*
X142457189Y-78285302D01*
X142146120Y-78750849D01*
X142036887Y-79300000D01*
X142146120Y-79849151D01*
X142457189Y-80314698D01*
X142839275Y-80570000D01*
X142457189Y-80825302D01*
X142146120Y-81290849D01*
X142036887Y-81840000D01*
X142146120Y-82389151D01*
X142457189Y-82854698D01*
X142839275Y-83110000D01*
X142457189Y-83365302D01*
X142146120Y-83830849D01*
X142036887Y-84380000D01*
X142146120Y-84929151D01*
X142457189Y-85394698D01*
X142839275Y-85650000D01*
X142457189Y-85905302D01*
X142146120Y-86370849D01*
X142036887Y-86920000D01*
X142146120Y-87469151D01*
X142457189Y-87934698D01*
X142861703Y-88204986D01*
X142644866Y-88307611D01*
X142268959Y-88722577D01*
X142108096Y-89110961D01*
X142230085Y-89333000D01*
X143373000Y-89333000D01*
X143373000Y-89313000D01*
X143627000Y-89313000D01*
X143627000Y-89333000D01*
X144769915Y-89333000D01*
X144891904Y-89110961D01*
X144731041Y-88722577D01*
X144355134Y-88307611D01*
X144138297Y-88204986D01*
X144542811Y-87934698D01*
X144853880Y-87469151D01*
X144963113Y-86920000D01*
X157276887Y-86920000D01*
X157386120Y-87469151D01*
X157697189Y-87934698D01*
X158079275Y-88190000D01*
X157697189Y-88445302D01*
X157386120Y-88910849D01*
X157276887Y-89460000D01*
X157386120Y-90009151D01*
X157697189Y-90474698D01*
X157841465Y-90571101D01*
X157704683Y-90596838D01*
X157488559Y-90735910D01*
X157343569Y-90948110D01*
X157292560Y-91200000D01*
X157292560Y-92800000D01*
X157336838Y-93035317D01*
X157475910Y-93251441D01*
X157688110Y-93396431D01*
X157940000Y-93447440D01*
X159540000Y-93447440D01*
X159775317Y-93403162D01*
X159991441Y-93264090D01*
X160136431Y-93051890D01*
X160187440Y-92800000D01*
X160187440Y-91200000D01*
X160143162Y-90964683D01*
X160004090Y-90748559D01*
X159791890Y-90603569D01*
X159636911Y-90572185D01*
X159782811Y-90474698D01*
X160093880Y-90009151D01*
X160203113Y-89460000D01*
X160093880Y-88910849D01*
X159782811Y-88445302D01*
X159400725Y-88190000D01*
X159782811Y-87934698D01*
X160093880Y-87469151D01*
X160203113Y-86920000D01*
X160985907Y-86920000D01*
X161098946Y-87488285D01*
X161420853Y-87970054D01*
X161750026Y-88190000D01*
X161420853Y-88409946D01*
X161098946Y-88891715D01*
X160985907Y-89460000D01*
X161098946Y-90028285D01*
X161420853Y-90510054D01*
X161750026Y-90730000D01*
X161420853Y-90949946D01*
X161098946Y-91431715D01*
X160985907Y-92000000D01*
X161098946Y-92568285D01*
X161420853Y-93050054D01*
X161902622Y-93371961D01*
X162470907Y-93485000D01*
X162529093Y-93485000D01*
X163097378Y-93371961D01*
X163579147Y-93050054D01*
X163650932Y-92942619D01*
X165264613Y-92942619D01*
X165604155Y-93764372D01*
X166232321Y-94393636D01*
X167053481Y-94734611D01*
X167942619Y-94735387D01*
X168764372Y-94395845D01*
X169393636Y-93767679D01*
X169734611Y-92946519D01*
X169735387Y-92057381D01*
X169395845Y-91235628D01*
X168767679Y-90606364D01*
X167946519Y-90265389D01*
X167057381Y-90264613D01*
X166235628Y-90604155D01*
X165606364Y-91232321D01*
X165265389Y-92053481D01*
X165264613Y-92942619D01*
X163650932Y-92942619D01*
X163901054Y-92568285D01*
X164014093Y-92000000D01*
X163901054Y-91431715D01*
X163579147Y-90949946D01*
X163249974Y-90730000D01*
X163579147Y-90510054D01*
X163901054Y-90028285D01*
X164014093Y-89460000D01*
X163901054Y-88891715D01*
X163579147Y-88409946D01*
X163249974Y-88190000D01*
X163579147Y-87970054D01*
X163901054Y-87488285D01*
X164014093Y-86920000D01*
X163901054Y-86351715D01*
X163579147Y-85869946D01*
X163238447Y-85642298D01*
X163381358Y-85575183D01*
X163771645Y-85146924D01*
X163941476Y-84736890D01*
X163820155Y-84507000D01*
X162627000Y-84507000D01*
X162627000Y-84527000D01*
X162373000Y-84527000D01*
X162373000Y-84507000D01*
X161179845Y-84507000D01*
X161058524Y-84736890D01*
X161228355Y-85146924D01*
X161618642Y-85575183D01*
X161761553Y-85642298D01*
X161420853Y-85869946D01*
X161098946Y-86351715D01*
X160985907Y-86920000D01*
X160203113Y-86920000D01*
X160093880Y-86370849D01*
X159782811Y-85905302D01*
X159378297Y-85635014D01*
X159595134Y-85532389D01*
X159971041Y-85117423D01*
X160131904Y-84729039D01*
X160009915Y-84507000D01*
X158867000Y-84507000D01*
X158867000Y-84527000D01*
X158613000Y-84527000D01*
X158613000Y-84507000D01*
X157470085Y-84507000D01*
X157348096Y-84729039D01*
X157508959Y-85117423D01*
X157884866Y-85532389D01*
X158101703Y-85635014D01*
X157697189Y-85905302D01*
X157386120Y-86370849D01*
X157276887Y-86920000D01*
X144963113Y-86920000D01*
X144853880Y-86370849D01*
X144542811Y-85905302D01*
X144160725Y-85650000D01*
X144542811Y-85394698D01*
X144853880Y-84929151D01*
X144963113Y-84380000D01*
X144853880Y-83830849D01*
X144542811Y-83365302D01*
X144160725Y-83110000D01*
X144542811Y-82854698D01*
X144853880Y-82389151D01*
X144963113Y-81840000D01*
X144853880Y-81290849D01*
X144542811Y-80825302D01*
X144160725Y-80570000D01*
X144542811Y-80314698D01*
X144853880Y-79849151D01*
X144963113Y-79300000D01*
X144853880Y-78750849D01*
X144542811Y-78285302D01*
X144160725Y-78030000D01*
X144542811Y-77774698D01*
X144853880Y-77309151D01*
X144928270Y-76935167D01*
X150064838Y-76935167D01*
X150206883Y-77278943D01*
X150469673Y-77542192D01*
X150813201Y-77684838D01*
X151185167Y-77685162D01*
X151403376Y-77595000D01*
X157577118Y-77595000D01*
X157697189Y-77774698D01*
X158079275Y-78030000D01*
X157697189Y-78285302D01*
X157386120Y-78750849D01*
X157276887Y-79300000D01*
X157386120Y-79849151D01*
X157697189Y-80314698D01*
X158079275Y-80570000D01*
X157697189Y-80825302D01*
X157386120Y-81290849D01*
X157276887Y-81840000D01*
X157386120Y-82389151D01*
X157697189Y-82854698D01*
X158101703Y-83124986D01*
X157884866Y-83227611D01*
X157508959Y-83642577D01*
X157348096Y-84030961D01*
X157470085Y-84253000D01*
X158613000Y-84253000D01*
X158613000Y-84233000D01*
X158867000Y-84233000D01*
X158867000Y-84253000D01*
X160009915Y-84253000D01*
X160131904Y-84030961D01*
X159971041Y-83642577D01*
X159595134Y-83227611D01*
X159378297Y-83124986D01*
X159782811Y-82854698D01*
X160093880Y-82389151D01*
X160203113Y-81840000D01*
X160093880Y-81290849D01*
X159782811Y-80825302D01*
X159400725Y-80570000D01*
X159782811Y-80314698D01*
X160093880Y-79849151D01*
X160203113Y-79300000D01*
X160093880Y-78750849D01*
X159782811Y-78285302D01*
X159400725Y-78030000D01*
X159782811Y-77774698D01*
X160093880Y-77309151D01*
X160203113Y-76760000D01*
X160093880Y-76210849D01*
X159782811Y-75745302D01*
X159400725Y-75490000D01*
X159782811Y-75234698D01*
X160093880Y-74769151D01*
X160203113Y-74220000D01*
X160093880Y-73670849D01*
X159782811Y-73205302D01*
X159400725Y-72950000D01*
X159782811Y-72694698D01*
X160093880Y-72229151D01*
X160203113Y-71680000D01*
X160093880Y-71130849D01*
X159782811Y-70665302D01*
X159400725Y-70410000D01*
X159782811Y-70154698D01*
X160093880Y-69689151D01*
X160203113Y-69140000D01*
X160093880Y-68590849D01*
X159782811Y-68125302D01*
X159400725Y-67870000D01*
X159782811Y-67614698D01*
X160093880Y-67149151D01*
X160203113Y-66600000D01*
X160093880Y-66050849D01*
X159782811Y-65585302D01*
X159400725Y-65330000D01*
X159782811Y-65074698D01*
X160093880Y-64609151D01*
X160203113Y-64060000D01*
X160093880Y-63510849D01*
X159782811Y-63045302D01*
X159400725Y-62790000D01*
X159782811Y-62534698D01*
X160093880Y-62069151D01*
X160203113Y-61520000D01*
X160093880Y-60970849D01*
X159782811Y-60505302D01*
X159400725Y-60250000D01*
X159782811Y-59994698D01*
X160093880Y-59529151D01*
X160203113Y-58980000D01*
X160985907Y-58980000D01*
X161098946Y-59548285D01*
X161420853Y-60030054D01*
X161750026Y-60250000D01*
X161420853Y-60469946D01*
X161098946Y-60951715D01*
X160985907Y-61520000D01*
X161098946Y-62088285D01*
X161420853Y-62570054D01*
X161750026Y-62790000D01*
X161420853Y-63009946D01*
X161098946Y-63491715D01*
X160985907Y-64060000D01*
X161098946Y-64628285D01*
X161420853Y-65110054D01*
X161750026Y-65330000D01*
X161420853Y-65549946D01*
X161098946Y-66031715D01*
X160985907Y-66600000D01*
X161098946Y-67168285D01*
X161420853Y-67650054D01*
X161750026Y-67870000D01*
X161420853Y-68089946D01*
X161098946Y-68571715D01*
X160985907Y-69140000D01*
X161098946Y-69708285D01*
X161420853Y-70190054D01*
X161750026Y-70410000D01*
X161420853Y-70629946D01*
X161098946Y-71111715D01*
X160985907Y-71680000D01*
X161098946Y-72248285D01*
X161420853Y-72730054D01*
X161750026Y-72950000D01*
X161420853Y-73169946D01*
X161098946Y-73651715D01*
X160985907Y-74220000D01*
X161098946Y-74788285D01*
X161420853Y-75270054D01*
X161750026Y-75490000D01*
X161420853Y-75709946D01*
X161098946Y-76191715D01*
X160985907Y-76760000D01*
X161098946Y-77328285D01*
X161420853Y-77810054D01*
X161750026Y-78030000D01*
X161420853Y-78249946D01*
X161098946Y-78731715D01*
X160985907Y-79300000D01*
X161098946Y-79868285D01*
X161420853Y-80350054D01*
X161750026Y-80570000D01*
X161420853Y-80789946D01*
X161098946Y-81271715D01*
X160985907Y-81840000D01*
X161098946Y-82408285D01*
X161420853Y-82890054D01*
X161761553Y-83117702D01*
X161618642Y-83184817D01*
X161228355Y-83613076D01*
X161058524Y-84023110D01*
X161179845Y-84253000D01*
X162373000Y-84253000D01*
X162373000Y-84233000D01*
X162627000Y-84233000D01*
X162627000Y-84253000D01*
X163820155Y-84253000D01*
X163941476Y-84023110D01*
X163771645Y-83613076D01*
X163381358Y-83184817D01*
X163238447Y-83117702D01*
X163579147Y-82890054D01*
X163901054Y-82408285D01*
X164014093Y-81840000D01*
X163901054Y-81271715D01*
X163579147Y-80789946D01*
X163249974Y-80570000D01*
X163579147Y-80350054D01*
X163901054Y-79868285D01*
X164014093Y-79300000D01*
X163901054Y-78731715D01*
X163579147Y-78249946D01*
X163249974Y-78030000D01*
X163579147Y-77810054D01*
X163901054Y-77328285D01*
X164014093Y-76760000D01*
X163901054Y-76191715D01*
X163579147Y-75709946D01*
X163249974Y-75490000D01*
X163579147Y-75270054D01*
X163901054Y-74788285D01*
X164014093Y-74220000D01*
X163901054Y-73651715D01*
X163579147Y-73169946D01*
X163249974Y-72950000D01*
X163579147Y-72730054D01*
X163901054Y-72248285D01*
X164014093Y-71680000D01*
X163901054Y-71111715D01*
X163579147Y-70629946D01*
X163249974Y-70410000D01*
X163579147Y-70190054D01*
X163901054Y-69708285D01*
X164014093Y-69140000D01*
X163901054Y-68571715D01*
X163579147Y-68089946D01*
X163249974Y-67870000D01*
X163579147Y-67650054D01*
X163901054Y-67168285D01*
X164014093Y-66600000D01*
X163901054Y-66031715D01*
X163579147Y-65549946D01*
X163249974Y-65330000D01*
X163579147Y-65110054D01*
X163901054Y-64628285D01*
X164014093Y-64060000D01*
X163901054Y-63491715D01*
X163579147Y-63009946D01*
X163249974Y-62790000D01*
X163579147Y-62570054D01*
X163901054Y-62088285D01*
X164014093Y-61520000D01*
X163901054Y-60951715D01*
X163579147Y-60469946D01*
X163249974Y-60250000D01*
X163579147Y-60030054D01*
X163901054Y-59548285D01*
X164014093Y-58980000D01*
X163901054Y-58411715D01*
X163579147Y-57929946D01*
X163537548Y-57902150D01*
X163585317Y-57893162D01*
X163801441Y-57754090D01*
X163946431Y-57541890D01*
X163997440Y-57290000D01*
X163997440Y-55942619D01*
X164764613Y-55942619D01*
X165104155Y-56764372D01*
X165732321Y-57393636D01*
X166553481Y-57734611D01*
X167442619Y-57735387D01*
X168264372Y-57395845D01*
X168893636Y-56767679D01*
X169234611Y-55946519D01*
X169235387Y-55057381D01*
X168895845Y-54235628D01*
X168267679Y-53606364D01*
X167446519Y-53265389D01*
X166557381Y-53264613D01*
X165735628Y-53604155D01*
X165106364Y-54232321D01*
X164765389Y-55053481D01*
X164764613Y-55942619D01*
X163997440Y-55942619D01*
X163997440Y-55590000D01*
X163953162Y-55354683D01*
X163814090Y-55138559D01*
X163601890Y-54993569D01*
X163350000Y-54942560D01*
X161650000Y-54942560D01*
X161414683Y-54986838D01*
X161198559Y-55125910D01*
X161053569Y-55338110D01*
X161002560Y-55590000D01*
X161002560Y-57290000D01*
X161046838Y-57525317D01*
X161185910Y-57741441D01*
X161398110Y-57886431D01*
X161465541Y-57900086D01*
X161420853Y-57929946D01*
X161098946Y-58411715D01*
X160985907Y-58980000D01*
X160203113Y-58980000D01*
X160093880Y-58430849D01*
X159782811Y-57965302D01*
X159400725Y-57710000D01*
X159782811Y-57454698D01*
X160093880Y-56989151D01*
X160203113Y-56440000D01*
X160093880Y-55890849D01*
X159782811Y-55425302D01*
X159317264Y-55114233D01*
X158768113Y-55005000D01*
X158711887Y-55005000D01*
X158162736Y-55114233D01*
X157697189Y-55425302D01*
X157386120Y-55890849D01*
X157276887Y-56440000D01*
X157386120Y-56989151D01*
X157697189Y-57454698D01*
X158079275Y-57710000D01*
X157697189Y-57965302D01*
X157386120Y-58430849D01*
X157276887Y-58980000D01*
X157386120Y-59529151D01*
X157697189Y-59994698D01*
X158079275Y-60250000D01*
X157697189Y-60505302D01*
X157386120Y-60970849D01*
X157276887Y-61520000D01*
X157386120Y-62069151D01*
X157697189Y-62534698D01*
X158079275Y-62790000D01*
X157697189Y-63045302D01*
X157386120Y-63510849D01*
X157276887Y-64060000D01*
X157386120Y-64609151D01*
X157697189Y-65074698D01*
X158079275Y-65330000D01*
X157697189Y-65585302D01*
X157386120Y-66050849D01*
X157276887Y-66600000D01*
X157386120Y-67149151D01*
X157697189Y-67614698D01*
X158079275Y-67870000D01*
X157697189Y-68125302D01*
X157386120Y-68590849D01*
X157276887Y-69140000D01*
X157386120Y-69689151D01*
X157697189Y-70154698D01*
X158079275Y-70410000D01*
X157697189Y-70665302D01*
X157386120Y-71130849D01*
X157276887Y-71680000D01*
X157386120Y-72229151D01*
X157697189Y-72694698D01*
X158079275Y-72950000D01*
X157697189Y-73205302D01*
X157386120Y-73670849D01*
X157276887Y-74220000D01*
X157386120Y-74769151D01*
X157697189Y-75234698D01*
X158079275Y-75490000D01*
X157697189Y-75745302D01*
X157577118Y-75925000D01*
X151451317Y-75925000D01*
X151186799Y-75815162D01*
X150814833Y-75814838D01*
X150471057Y-75956883D01*
X150207808Y-76219673D01*
X150065162Y-76563201D01*
X150064838Y-76935167D01*
X144928270Y-76935167D01*
X144963113Y-76760000D01*
X144853880Y-76210849D01*
X144542811Y-75745302D01*
X144160725Y-75490000D01*
X144542811Y-75234698D01*
X144853880Y-74769151D01*
X144963113Y-74220000D01*
X144853880Y-73670849D01*
X144542811Y-73205302D01*
X144160725Y-72950000D01*
X144542811Y-72694698D01*
X144853880Y-72229151D01*
X144963113Y-71680000D01*
X144853880Y-71130849D01*
X144542811Y-70665302D01*
X144160725Y-70410000D01*
X144542811Y-70154698D01*
X144853880Y-69689151D01*
X144963113Y-69140000D01*
X144853880Y-68590849D01*
X144542811Y-68125302D01*
X144160725Y-67870000D01*
X144542811Y-67614698D01*
X144853880Y-67149151D01*
X144963113Y-66600000D01*
X144853880Y-66050849D01*
X144542811Y-65585302D01*
X144160725Y-65330000D01*
X144542811Y-65074698D01*
X144853880Y-64609151D01*
X144963113Y-64060000D01*
X144853880Y-63510849D01*
X144542811Y-63045302D01*
X144160725Y-62790000D01*
X144542811Y-62534698D01*
X144853880Y-62069151D01*
X144963113Y-61520000D01*
X144853880Y-60970849D01*
X144542811Y-60505302D01*
X144160725Y-60250000D01*
X144542811Y-59994698D01*
X144853880Y-59529151D01*
X144963113Y-58980000D01*
X144853880Y-58430849D01*
X144542811Y-57965302D01*
X144160725Y-57710000D01*
X144542811Y-57454698D01*
X144853880Y-56989151D01*
X144963113Y-56440000D01*
X144853880Y-55890849D01*
X144542811Y-55425302D01*
X144077264Y-55114233D01*
X143528113Y-55005000D01*
X143471887Y-55005000D01*
X142922736Y-55114233D01*
X142457189Y-55425302D01*
X142146120Y-55890849D01*
X142036887Y-56440000D01*
X140997440Y-56440000D01*
X140997440Y-55590000D01*
X140953162Y-55354683D01*
X140814090Y-55138559D01*
X140601890Y-54993569D01*
X140350000Y-54942560D01*
X138650000Y-54942560D01*
X138414683Y-54986838D01*
X138198559Y-55125910D01*
X138053569Y-55338110D01*
X138002560Y-55590000D01*
X138002560Y-57290000D01*
X138046838Y-57525317D01*
X138185910Y-57741441D01*
X138398110Y-57886431D01*
X138465541Y-57900086D01*
X138420853Y-57929946D01*
X138098946Y-58411715D01*
X137985907Y-58980000D01*
X134885000Y-58980000D01*
X134885000Y-58285750D01*
X134726250Y-58127000D01*
X132627000Y-58127000D01*
X132373000Y-58127000D01*
X130273750Y-58127000D01*
X130115000Y-58285750D01*
X130115000Y-58954696D01*
X130088327Y-58890302D01*
X129909699Y-58711673D01*
X129676310Y-58615000D01*
X128085750Y-58615000D01*
X127927000Y-58773750D01*
X127673000Y-58773750D01*
X127514250Y-58615000D01*
X125923690Y-58615000D01*
X125690301Y-58711673D01*
X125511673Y-58890302D01*
X125415000Y-59123691D01*
X123210000Y-59123691D01*
X123210000Y-56123691D01*
X130115000Y-56123691D01*
X130115000Y-57714250D01*
X130273750Y-57873000D01*
X132373000Y-57873000D01*
X132373000Y-55773750D01*
X132627000Y-55773750D01*
X132627000Y-57873000D01*
X134726250Y-57873000D01*
X134885000Y-57714250D01*
X134885000Y-56123691D01*
X134788327Y-55890302D01*
X134609699Y-55711673D01*
X134376310Y-55615000D01*
X132785750Y-55615000D01*
X132627000Y-55773750D01*
X132373000Y-55773750D01*
X132214250Y-55615000D01*
X130623690Y-55615000D01*
X130390301Y-55711673D01*
X130211673Y-55890302D01*
X130115000Y-56123691D01*
X123210000Y-56123691D01*
X123210000Y-56069931D01*
X123473288Y-54746293D01*
X124183454Y-53683454D01*
X125246295Y-52973288D01*
X126569931Y-52710000D01*
X166430069Y-52710000D01*
X167753707Y-52973288D01*
X167753707Y-52973288D01*
G37*
X167753707Y-52973288D02*
X168816546Y-53683454D01*
X169526712Y-54746295D01*
X169790000Y-56069931D01*
X169790000Y-108430069D01*
X169526712Y-109753705D01*
X168816546Y-110816546D01*
X168037440Y-111337128D01*
X168037440Y-110150000D01*
X167993162Y-109914683D01*
X167854090Y-109698559D01*
X167641890Y-109553569D01*
X167390000Y-109502560D01*
X165690000Y-109502560D01*
X165635000Y-109512909D01*
X165635000Y-109257240D01*
X167656120Y-107236120D01*
X168010543Y-106705688D01*
X168135001Y-106080000D01*
X168010543Y-105454312D01*
X167656120Y-104923880D01*
X167402880Y-104754671D01*
X167737966Y-104447576D01*
X167991046Y-103904742D01*
X167870997Y-103667000D01*
X166627000Y-103667000D01*
X166627000Y-103687000D01*
X166373000Y-103687000D01*
X166373000Y-103667000D01*
X165129003Y-103667000D01*
X165008954Y-103904742D01*
X165262034Y-104447576D01*
X165597120Y-104754671D01*
X165343880Y-104923880D01*
X163095000Y-107172760D01*
X163095000Y-106540000D01*
X163092903Y-106529457D01*
X162970543Y-105914312D01*
X162737248Y-105565162D01*
X162616120Y-105383880D01*
X162616117Y-105383878D01*
X162156120Y-104923880D01*
X161902880Y-104754671D01*
X162237966Y-104447576D01*
X162491046Y-103904742D01*
X162370997Y-103667000D01*
X161127000Y-103667000D01*
X161127000Y-103687000D01*
X160873000Y-103687000D01*
X160873000Y-103667000D01*
X159629003Y-103667000D01*
X159508954Y-103904742D01*
X159762034Y-104447576D01*
X160097120Y-104754671D01*
X159843880Y-104923880D01*
X159489457Y-105454312D01*
X159364999Y-106080000D01*
X159489457Y-106705688D01*
X159825000Y-107207864D01*
X159825000Y-108012761D01*
X156736120Y-104923880D01*
X156436613Y-104723756D01*
X156737966Y-104447576D01*
X156991046Y-103904742D01*
X156870997Y-103667000D01*
X155627000Y-103667000D01*
X155627000Y-103687000D01*
X155373000Y-103687000D01*
X155373000Y-103667000D01*
X154129003Y-103667000D01*
X154008954Y-103904742D01*
X154262034Y-104447576D01*
X154597120Y-104754671D01*
X154343880Y-104923880D01*
X153989457Y-105454313D01*
X153865000Y-106080000D01*
X153989457Y-106705687D01*
X154343880Y-107236120D01*
X154584972Y-107397212D01*
X157285000Y-110097239D01*
X157285000Y-111000000D01*
X157409457Y-111625687D01*
X157519247Y-111790000D01*
X155497440Y-111790000D01*
X155497440Y-110150000D01*
X155453162Y-109914683D01*
X155314090Y-109698559D01*
X155101890Y-109553569D01*
X154850000Y-109502560D01*
X153150000Y-109502560D01*
X153095000Y-109512909D01*
X153095000Y-108040005D01*
X153095001Y-108040000D01*
X152970543Y-107414313D01*
X152916142Y-107332896D01*
X152616120Y-106883880D01*
X152616117Y-106883878D01*
X150656120Y-104923880D01*
X150402880Y-104754671D01*
X150737966Y-104447576D01*
X150991046Y-103904742D01*
X150870997Y-103667000D01*
X149627000Y-103667000D01*
X149627000Y-103687000D01*
X149373000Y-103687000D01*
X149373000Y-103667000D01*
X148129003Y-103667000D01*
X148008954Y-103904742D01*
X148262034Y-104447576D01*
X148597120Y-104754671D01*
X148343880Y-104923880D01*
X147989457Y-105454312D01*
X147910997Y-105848757D01*
X146986120Y-104923880D01*
X146455688Y-104569457D01*
X145830000Y-104444999D01*
X145829995Y-104445000D01*
X145239167Y-104445000D01*
X145491046Y-103904742D01*
X145370997Y-103667000D01*
X144127000Y-103667000D01*
X144127000Y-103687000D01*
X143873000Y-103687000D01*
X143873000Y-103667000D01*
X142629003Y-103667000D01*
X142508954Y-103904742D01*
X142762034Y-104447576D01*
X143097120Y-104754671D01*
X142843880Y-104923880D01*
X142489457Y-105454313D01*
X142410997Y-105848757D01*
X141406120Y-104843880D01*
X140875688Y-104489457D01*
X140250000Y-104364999D01*
X140249995Y-104365000D01*
X139776465Y-104365000D01*
X139991046Y-103904742D01*
X139870997Y-103667000D01*
X138627000Y-103667000D01*
X138627000Y-103687000D01*
X138373000Y-103687000D01*
X138373000Y-103667000D01*
X137129003Y-103667000D01*
X137008954Y-103904742D01*
X137262034Y-104447576D01*
X137597120Y-104754671D01*
X137343880Y-104923880D01*
X136989457Y-105454313D01*
X136865000Y-106080000D01*
X136989457Y-106705687D01*
X137343880Y-107236120D01*
X137874313Y-107590543D01*
X138500000Y-107715000D01*
X138669995Y-107715000D01*
X138670000Y-107715001D01*
X139072189Y-107635000D01*
X139572760Y-107635000D01*
X141452760Y-109515000D01*
X141103690Y-109515000D01*
X140870301Y-109611673D01*
X140691673Y-109790302D01*
X140619403Y-109964777D01*
X140590054Y-109920853D01*
X140108285Y-109598946D01*
X139540000Y-109485907D01*
X139437219Y-109506351D01*
X138340434Y-108409566D01*
X138268477Y-108361486D01*
X138069541Y-108228561D01*
X137750000Y-108165000D01*
X136345868Y-108165000D01*
X135585000Y-107404132D01*
X135585000Y-106927234D01*
X135684838Y-106686799D01*
X135685162Y-106314833D01*
X135543117Y-105971057D01*
X135280327Y-105707808D01*
X134936799Y-105565162D01*
X134564833Y-105564838D01*
X134221057Y-105706883D01*
X133957808Y-105969673D01*
X133870881Y-106179017D01*
X133741513Y-105528642D01*
X133741513Y-105528641D01*
X133332896Y-104917103D01*
X133082896Y-104667104D01*
X132471359Y-104258487D01*
X131750000Y-104115000D01*
X131028641Y-104258487D01*
X130417104Y-104667104D01*
X130008487Y-105278641D01*
X129882988Y-105909566D01*
X129865000Y-106000000D01*
X129865000Y-107347608D01*
X130008487Y-108068967D01*
X130115000Y-108228375D01*
X130115000Y-109605131D01*
X129700664Y-109453542D01*
X129090540Y-109479161D01*
X128645852Y-109663357D01*
X128559447Y-109919839D01*
X128444890Y-109805282D01*
X128408412Y-109841760D01*
X128284090Y-109648559D01*
X128071890Y-109503569D01*
X127820000Y-109452560D01*
X126020000Y-109452560D01*
X125784683Y-109496838D01*
X125568559Y-109635910D01*
X125423569Y-109848110D01*
X125372560Y-110100000D01*
X125372560Y-111551828D01*
X125246295Y-111526712D01*
X124183454Y-110816546D01*
X123473288Y-109753707D01*
X123210000Y-108430069D01*
X123210000Y-106323795D01*
X123614716Y-106323795D01*
X123863106Y-106924943D01*
X124322637Y-107385278D01*
X124923352Y-107634716D01*
X125573795Y-107635284D01*
X126174943Y-107386894D01*
X126635278Y-106927363D01*
X126884716Y-106326648D01*
X126885284Y-105676205D01*
X126636894Y-105075057D01*
X126177363Y-104614722D01*
X125576648Y-104365284D01*
X124926205Y-104364716D01*
X124325057Y-104613106D01*
X123864722Y-105072637D01*
X123615284Y-105673352D01*
X123614716Y-106323795D01*
X123210000Y-106323795D01*
X123210000Y-97500000D01*
X123365000Y-97500000D01*
X123365000Y-101500000D01*
X123508487Y-102221358D01*
X123917104Y-102832896D01*
X124528642Y-103241513D01*
X125250000Y-103385000D01*
X125971358Y-103241513D01*
X126582896Y-102832896D01*
X126991513Y-102221358D01*
X127070593Y-101823795D01*
X130114716Y-101823795D01*
X130363106Y-102424943D01*
X130822637Y-102885278D01*
X131423352Y-103134716D01*
X132073795Y-103135284D01*
X132674943Y-102886894D01*
X133135278Y-102427363D01*
X133384716Y-101826648D01*
X133385284Y-101176205D01*
X133136894Y-100575057D01*
X132677363Y-100114722D01*
X132641909Y-100100000D01*
X136952560Y-100100000D01*
X136952560Y-101900000D01*
X136996838Y-102135317D01*
X137135910Y-102351441D01*
X137348110Y-102496431D01*
X137399146Y-102506766D01*
X137262034Y-102632424D01*
X137008954Y-103175258D01*
X137129003Y-103413000D01*
X138373000Y-103413000D01*
X138373000Y-103393000D01*
X138627000Y-103393000D01*
X138627000Y-103413000D01*
X139870997Y-103413000D01*
X139991046Y-103175258D01*
X139737966Y-102632424D01*
X139603462Y-102509156D01*
X139635317Y-102503162D01*
X139851441Y-102364090D01*
X139996431Y-102151890D01*
X140047440Y-101900000D01*
X140047440Y-100100000D01*
X142452560Y-100100000D01*
X142452560Y-101900000D01*
X142496838Y-102135317D01*
X142635910Y-102351441D01*
X142848110Y-102496431D01*
X142899146Y-102506766D01*
X142762034Y-102632424D01*
X142508954Y-103175258D01*
X142629003Y-103413000D01*
X143873000Y-103413000D01*
X143873000Y-103393000D01*
X144127000Y-103393000D01*
X144127000Y-103413000D01*
X145370997Y-103413000D01*
X145491046Y-103175258D01*
X145237966Y-102632424D01*
X145103462Y-102509156D01*
X145135317Y-102503162D01*
X145351441Y-102364090D01*
X145496431Y-102151890D01*
X145547440Y-101900000D01*
X145547440Y-100100000D01*
X147952560Y-100100000D01*
X147952560Y-101900000D01*
X147996838Y-102135317D01*
X148135910Y-102351441D01*
X148348110Y-102496431D01*
X148399146Y-102506766D01*
X148262034Y-102632424D01*
X148008954Y-103175258D01*
X148129003Y-103413000D01*
X149373000Y-103413000D01*
X149373000Y-103393000D01*
X149627000Y-103393000D01*
X149627000Y-103413000D01*
X150870997Y-103413000D01*
X150991046Y-103175258D01*
X150737966Y-102632424D01*
X150603462Y-102509156D01*
X150635317Y-102503162D01*
X150851441Y-102364090D01*
X150996431Y-102151890D01*
X151047440Y-101900000D01*
X151047440Y-100100000D01*
X153952560Y-100100000D01*
X153952560Y-101900000D01*
X153996838Y-102135317D01*
X154135910Y-102351441D01*
X154348110Y-102496431D01*
X154399146Y-102506766D01*
X154262034Y-102632424D01*
X154008954Y-103175258D01*
X154129003Y-103413000D01*
X155373000Y-103413000D01*
X155373000Y-103393000D01*
X155627000Y-103393000D01*
X155627000Y-103413000D01*
X156870997Y-103413000D01*
X156991046Y-103175258D01*
X156737966Y-102632424D01*
X156603462Y-102509156D01*
X156635317Y-102503162D01*
X156851441Y-102364090D01*
X156996431Y-102151890D01*
X157047440Y-101900000D01*
X157047440Y-100100000D01*
X159452560Y-100100000D01*
X159452560Y-101900000D01*
X159496838Y-102135317D01*
X159635910Y-102351441D01*
X159848110Y-102496431D01*
X159899146Y-102506766D01*
X159762034Y-102632424D01*
X159508954Y-103175258D01*
X159629003Y-103413000D01*
X160873000Y-103413000D01*
X160873000Y-103393000D01*
X161127000Y-103393000D01*
X161127000Y-103413000D01*
X162370997Y-103413000D01*
X162491046Y-103175258D01*
X162237966Y-102632424D01*
X162103462Y-102509156D01*
X162135317Y-102503162D01*
X162351441Y-102364090D01*
X162496431Y-102151890D01*
X162547440Y-101900000D01*
X162547440Y-100100000D01*
X164952560Y-100100000D01*
X164952560Y-101900000D01*
X164996838Y-102135317D01*
X165135910Y-102351441D01*
X165348110Y-102496431D01*
X165399146Y-102506766D01*
X165262034Y-102632424D01*
X165008954Y-103175258D01*
X165129003Y-103413000D01*
X166373000Y-103413000D01*
X166373000Y-103393000D01*
X166627000Y-103393000D01*
X166627000Y-103413000D01*
X167870997Y-103413000D01*
X167991046Y-103175258D01*
X167737966Y-102632424D01*
X167603462Y-102509156D01*
X167635317Y-102503162D01*
X167851441Y-102364090D01*
X167996431Y-102151890D01*
X168047440Y-101900000D01*
X168047440Y-100100000D01*
X168003162Y-99864683D01*
X167864090Y-99648559D01*
X167651890Y-99503569D01*
X167400000Y-99452560D01*
X165600000Y-99452560D01*
X165364683Y-99496838D01*
X165148559Y-99635910D01*
X165003569Y-99848110D01*
X164952560Y-100100000D01*
X162547440Y-100100000D01*
X162503162Y-99864683D01*
X162364090Y-99648559D01*
X162151890Y-99503569D01*
X161900000Y-99452560D01*
X160100000Y-99452560D01*
X159864683Y-99496838D01*
X159648559Y-99635910D01*
X159503569Y-99848110D01*
X159452560Y-100100000D01*
X157047440Y-100100000D01*
X157003162Y-99864683D01*
X156864090Y-99648559D01*
X156651890Y-99503569D01*
X156400000Y-99452560D01*
X154600000Y-99452560D01*
X154364683Y-99496838D01*
X154148559Y-99635910D01*
X154003569Y-99848110D01*
X153952560Y-100100000D01*
X151047440Y-100100000D01*
X151003162Y-99864683D01*
X150864090Y-99648559D01*
X150651890Y-99503569D01*
X150400000Y-99452560D01*
X148600000Y-99452560D01*
X148364683Y-99496838D01*
X148148559Y-99635910D01*
X148003569Y-99848110D01*
X147952560Y-100100000D01*
X145547440Y-100100000D01*
X145503162Y-99864683D01*
X145364090Y-99648559D01*
X145151890Y-99503569D01*
X144900000Y-99452560D01*
X143100000Y-99452560D01*
X142864683Y-99496838D01*
X142648559Y-99635910D01*
X142503569Y-99848110D01*
X142452560Y-100100000D01*
X140047440Y-100100000D01*
X140003162Y-99864683D01*
X139864090Y-99648559D01*
X139651890Y-99503569D01*
X139400000Y-99452560D01*
X137600000Y-99452560D01*
X137364683Y-99496838D01*
X137148559Y-99635910D01*
X137003569Y-99848110D01*
X136952560Y-100100000D01*
X132641909Y-100100000D01*
X132076648Y-99865284D01*
X131426205Y-99864716D01*
X130825057Y-100113106D01*
X130364722Y-100572637D01*
X130115284Y-101173352D01*
X130114716Y-101823795D01*
X127070593Y-101823795D01*
X127135000Y-101500000D01*
X127135000Y-97500000D01*
X129865000Y-97500000D01*
X130008487Y-98221359D01*
X130417104Y-98832896D01*
X131028641Y-99241513D01*
X131750000Y-99385000D01*
X132471359Y-99241513D01*
X133082896Y-98832896D01*
X136332896Y-95582896D01*
X136741513Y-94971359D01*
X136885000Y-94250000D01*
X136885000Y-92000000D01*
X137985907Y-92000000D01*
X138098946Y-92568285D01*
X138420853Y-93050054D01*
X138902622Y-93371961D01*
X139470907Y-93485000D01*
X139529093Y-93485000D01*
X140097378Y-93371961D01*
X140579147Y-93050054D01*
X140901054Y-92568285D01*
X141014093Y-92000000D01*
X142036887Y-92000000D01*
X142146120Y-92549151D01*
X142457189Y-93014698D01*
X142922736Y-93325767D01*
X143471887Y-93435000D01*
X143528113Y-93435000D01*
X144077264Y-93325767D01*
X144542811Y-93014698D01*
X144853880Y-92549151D01*
X144963113Y-92000000D01*
X144853880Y-91450849D01*
X144848381Y-91442619D01*
X147764613Y-91442619D01*
X148104155Y-92264372D01*
X148732321Y-92893636D01*
X149553481Y-93234611D01*
X150442619Y-93235387D01*
X151264372Y-92895845D01*
X151893636Y-92267679D01*
X152234611Y-91446519D01*
X152235387Y-90557381D01*
X151895845Y-89735628D01*
X151267679Y-89106364D01*
X150446519Y-88765389D01*
X149557381Y-88764613D01*
X148735628Y-89104155D01*
X148106364Y-89732321D01*
X147765389Y-90553481D01*
X147764613Y-91442619D01*
X144848381Y-91442619D01*
X144542811Y-90985302D01*
X144138297Y-90715014D01*
X144355134Y-90612389D01*
X144731041Y-90197423D01*
X144891904Y-89809039D01*
X144769915Y-89587000D01*
X143627000Y-89587000D01*
X143627000Y-89607000D01*
X143373000Y-89607000D01*
X143373000Y-89587000D01*
X142230085Y-89587000D01*
X142108096Y-89809039D01*
X142268959Y-90197423D01*
X142644866Y-90612389D01*
X142861703Y-90715014D01*
X142457189Y-90985302D01*
X142146120Y-91450849D01*
X142036887Y-92000000D01*
X141014093Y-92000000D01*
X140901054Y-91431715D01*
X140579147Y-90949946D01*
X140238447Y-90722298D01*
X140381358Y-90655183D01*
X140771645Y-90226924D01*
X140941476Y-89816890D01*
X140820155Y-89587000D01*
X139627000Y-89587000D01*
X139627000Y-89607000D01*
X139373000Y-89607000D01*
X139373000Y-89587000D01*
X138179845Y-89587000D01*
X138058524Y-89816890D01*
X138228355Y-90226924D01*
X138618642Y-90655183D01*
X138761553Y-90722298D01*
X138420853Y-90949946D01*
X138098946Y-91431715D01*
X137985907Y-92000000D01*
X136885000Y-92000000D01*
X136885000Y-87780793D01*
X137332897Y-87332896D01*
X137741513Y-86721358D01*
X137885000Y-86000000D01*
X137741513Y-85278641D01*
X137332897Y-84667103D01*
X137135619Y-84535287D01*
X137300551Y-84370643D01*
X137534733Y-83806670D01*
X137535265Y-83196009D01*
X137302068Y-82631629D01*
X136870643Y-82199449D01*
X136861628Y-82195706D01*
X136900554Y-82080159D01*
X136000000Y-81179605D01*
X135985858Y-81193748D01*
X135806253Y-81014143D01*
X135820395Y-81000000D01*
X136179605Y-81000000D01*
X137080159Y-81900554D01*
X137336643Y-81814148D01*
X137546458Y-81240664D01*
X137520839Y-80630540D01*
X137336643Y-80185852D01*
X137080159Y-80099446D01*
X136179605Y-81000000D01*
X135820395Y-81000000D01*
X135806253Y-80985858D01*
X135985858Y-80806253D01*
X136000000Y-80820395D01*
X136900554Y-79919841D01*
X136814148Y-79663357D01*
X136240664Y-79453542D01*
X135630540Y-79479161D01*
X135335000Y-79601578D01*
X135335000Y-77177234D01*
X135434838Y-76936799D01*
X135435162Y-76564833D01*
X135293117Y-76221057D01*
X135030327Y-75957808D01*
X134686799Y-75815162D01*
X134314833Y-75814838D01*
X133971057Y-75956883D01*
X133707808Y-76219673D01*
X133565162Y-76563201D01*
X133564838Y-76935167D01*
X133665000Y-77177578D01*
X133665000Y-81572766D01*
X133565162Y-81813201D01*
X133564838Y-82185167D01*
X133706883Y-82528943D01*
X133969673Y-82792192D01*
X134313201Y-82934838D01*
X134572508Y-82935064D01*
X134465267Y-83193330D01*
X134464735Y-83803991D01*
X134697932Y-84368371D01*
X134864486Y-84535217D01*
X134667104Y-84667103D01*
X133667104Y-85667104D01*
X133258487Y-86278641D01*
X133258487Y-86278642D01*
X133115000Y-87000000D01*
X133115000Y-92053125D01*
X132677363Y-91614722D01*
X132076648Y-91365284D01*
X131426205Y-91364716D01*
X130825057Y-91613106D01*
X130364722Y-92072637D01*
X130115284Y-92673352D01*
X130114716Y-93323795D01*
X130363106Y-93924943D01*
X130822637Y-94385278D01*
X131423352Y-94634716D01*
X131949033Y-94635175D01*
X130417104Y-96167104D01*
X130008487Y-96778641D01*
X129865000Y-97500000D01*
X127135000Y-97500000D01*
X126991513Y-96778642D01*
X126582896Y-96167104D01*
X125971358Y-95758487D01*
X125250000Y-95615000D01*
X124528642Y-95758487D01*
X123917104Y-96167104D01*
X123508487Y-96778642D01*
X123365000Y-97500000D01*
X123210000Y-97500000D01*
X123210000Y-93323795D01*
X123614716Y-93323795D01*
X123863106Y-93924943D01*
X124322637Y-94385278D01*
X124923352Y-94634716D01*
X125573795Y-94635284D01*
X126174943Y-94386894D01*
X126635278Y-93927363D01*
X126884716Y-93326648D01*
X126885284Y-92676205D01*
X126636894Y-92075057D01*
X126177363Y-91614722D01*
X125576648Y-91365284D01*
X124926205Y-91364716D01*
X124325057Y-91613106D01*
X123864722Y-92072637D01*
X123615284Y-92673352D01*
X123614716Y-93323795D01*
X123210000Y-93323795D01*
X123210000Y-88421834D01*
X126364543Y-88421834D01*
X126764853Y-89390658D01*
X127505443Y-90132542D01*
X128473567Y-90534542D01*
X129521834Y-90535457D01*
X130490658Y-90135147D01*
X131232542Y-89394557D01*
X131634542Y-88426433D01*
X131635457Y-87378166D01*
X131235147Y-86409342D01*
X130494557Y-85667458D01*
X129526433Y-85265458D01*
X128478166Y-85264543D01*
X127509342Y-85664853D01*
X126767458Y-86405443D01*
X126365458Y-87373567D01*
X126364543Y-88421834D01*
X123210000Y-88421834D01*
X123210000Y-79621834D01*
X126364543Y-79621834D01*
X126764853Y-80590658D01*
X127505443Y-81332542D01*
X128473567Y-81734542D01*
X129521834Y-81735457D01*
X130490658Y-81335147D01*
X131232542Y-80594557D01*
X131634542Y-79626433D01*
X131635457Y-78578166D01*
X131235147Y-77609342D01*
X130494557Y-76867458D01*
X129526433Y-76465458D01*
X128478166Y-76464543D01*
X127509342Y-76864853D01*
X126767458Y-77605443D01*
X126365458Y-78573567D01*
X126364543Y-79621834D01*
X123210000Y-79621834D01*
X123210000Y-73007745D01*
X130171861Y-73007745D01*
X130245995Y-73253864D01*
X130783223Y-73446965D01*
X131353454Y-73419778D01*
X131754005Y-73253864D01*
X131828139Y-73007745D01*
X131000000Y-72179605D01*
X130171861Y-73007745D01*
X123210000Y-73007745D01*
X123210000Y-71783223D01*
X129553035Y-71783223D01*
X129580222Y-72353454D01*
X129746136Y-72754005D01*
X129992255Y-72828139D01*
X130820395Y-72000000D01*
X131179605Y-72000000D01*
X132007745Y-72828139D01*
X132253864Y-72754005D01*
X132446965Y-72216777D01*
X132419778Y-71646546D01*
X132253864Y-71245995D01*
X132007745Y-71171861D01*
X131179605Y-72000000D01*
X130820395Y-72000000D01*
X129992255Y-71171861D01*
X129746136Y-71245995D01*
X129553035Y-71783223D01*
X123210000Y-71783223D01*
X123210000Y-70992255D01*
X130171861Y-70992255D01*
X131000000Y-71820395D01*
X131828139Y-70992255D01*
X131754005Y-70746136D01*
X131216777Y-70553035D01*
X130646546Y-70580222D01*
X130245995Y-70746136D01*
X130171861Y-70992255D01*
X123210000Y-70992255D01*
X123210000Y-69192619D01*
X123514613Y-69192619D01*
X123854155Y-70014372D01*
X124482321Y-70643636D01*
X125303481Y-70984611D01*
X126192619Y-70985387D01*
X127014372Y-70645845D01*
X127643636Y-70017679D01*
X127984611Y-69196519D01*
X127985387Y-68307381D01*
X127645845Y-67485628D01*
X127017679Y-66856364D01*
X126196519Y-66515389D01*
X125307381Y-66514613D01*
X124485628Y-66854155D01*
X123856364Y-67482321D01*
X123515389Y-68303481D01*
X123514613Y-69192619D01*
X123210000Y-69192619D01*
X123210000Y-61285750D01*
X125415000Y-61285750D01*
X125415000Y-62876309D01*
X125511673Y-63109698D01*
X125690301Y-63288327D01*
X125923690Y-63385000D01*
X127514250Y-63385000D01*
X127673000Y-63226250D01*
X127673000Y-61127000D01*
X127927000Y-61127000D01*
X127927000Y-63226250D01*
X128085750Y-63385000D01*
X129676310Y-63385000D01*
X129909699Y-63288327D01*
X130088327Y-63109698D01*
X130102560Y-63075337D01*
X130102560Y-65750000D01*
X130146838Y-65985317D01*
X130285910Y-66201441D01*
X130498110Y-66346431D01*
X130750000Y-66397440D01*
X132231648Y-66397440D01*
X132615000Y-66780792D01*
X132615000Y-72000000D01*
X132758487Y-72721358D01*
X133167104Y-73332896D01*
X133778642Y-73741513D01*
X134500000Y-73885000D01*
X135221358Y-73741513D01*
X135832896Y-73332896D01*
X136241513Y-72721358D01*
X136385000Y-72000000D01*
X136385000Y-66000000D01*
X136335272Y-65750000D01*
X136241513Y-65278641D01*
X135832896Y-64667104D01*
X134897440Y-63731648D01*
X134897440Y-62250000D01*
X134853162Y-62014683D01*
X134714090Y-61798559D01*
X134501890Y-61653569D01*
X134250000Y-61602560D01*
X130750000Y-61602560D01*
X130514683Y-61646838D01*
X130298559Y-61785910D01*
X130185000Y-61952109D01*
X130185000Y-61285750D01*
X130026250Y-61127000D01*
X127927000Y-61127000D01*
X127673000Y-61127000D01*
X125573750Y-61127000D01*
X125415000Y-61285750D01*
X123210000Y-61285750D01*
X123210000Y-59123691D01*
X125415000Y-59123691D01*
X125415000Y-60714250D01*
X125573750Y-60873000D01*
X127673000Y-60873000D01*
X127673000Y-58773750D01*
X127927000Y-58773750D01*
X127927000Y-60873000D01*
X130026250Y-60873000D01*
X130185000Y-60714250D01*
X130185000Y-60045304D01*
X130211673Y-60109698D01*
X130390301Y-60288327D01*
X130623690Y-60385000D01*
X132214250Y-60385000D01*
X132373000Y-60226250D01*
X132373000Y-58127000D01*
X132627000Y-58127000D01*
X132627000Y-60226250D01*
X132785750Y-60385000D01*
X134376310Y-60385000D01*
X134609699Y-60288327D01*
X134788327Y-60109698D01*
X134885000Y-59876309D01*
X134885000Y-58980000D01*
X137985907Y-58980000D01*
X138098946Y-59548285D01*
X138420853Y-60030054D01*
X138750026Y-60250000D01*
X138420853Y-60469946D01*
X138098946Y-60951715D01*
X137985907Y-61520000D01*
X138098946Y-62088285D01*
X138420853Y-62570054D01*
X138750026Y-62790000D01*
X138420853Y-63009946D01*
X138098946Y-63491715D01*
X137985907Y-64060000D01*
X138098946Y-64628285D01*
X138420853Y-65110054D01*
X138750026Y-65330000D01*
X138420853Y-65549946D01*
X138098946Y-66031715D01*
X137985907Y-66600000D01*
X138098946Y-67168285D01*
X138420853Y-67650054D01*
X138750026Y-67870000D01*
X138420853Y-68089946D01*
X138098946Y-68571715D01*
X137985907Y-69140000D01*
X138098946Y-69708285D01*
X138420853Y-70190054D01*
X138750026Y-70410000D01*
X138420853Y-70629946D01*
X138098946Y-71111715D01*
X137985907Y-71680000D01*
X138098946Y-72248285D01*
X138420853Y-72730054D01*
X138750026Y-72950000D01*
X138420853Y-73169946D01*
X138098946Y-73651715D01*
X137985907Y-74220000D01*
X138098946Y-74788285D01*
X138420853Y-75270054D01*
X138750026Y-75490000D01*
X138420853Y-75709946D01*
X138098946Y-76191715D01*
X137985907Y-76760000D01*
X138098946Y-77328285D01*
X138420853Y-77810054D01*
X138750026Y-78030000D01*
X138420853Y-78249946D01*
X138098946Y-78731715D01*
X137985907Y-79300000D01*
X138098946Y-79868285D01*
X138420853Y-80350054D01*
X138750026Y-80570000D01*
X138420853Y-80789946D01*
X138098946Y-81271715D01*
X137985907Y-81840000D01*
X138098946Y-82408285D01*
X138420853Y-82890054D01*
X138750026Y-83110000D01*
X138420853Y-83329946D01*
X138098946Y-83811715D01*
X137985907Y-84380000D01*
X138098946Y-84948285D01*
X138420853Y-85430054D01*
X138750026Y-85650000D01*
X138420853Y-85869946D01*
X138098946Y-86351715D01*
X137985907Y-86920000D01*
X138098946Y-87488285D01*
X138420853Y-87970054D01*
X138761553Y-88197702D01*
X138618642Y-88264817D01*
X138228355Y-88693076D01*
X138058524Y-89103110D01*
X138179845Y-89333000D01*
X139373000Y-89333000D01*
X139373000Y-89313000D01*
X139627000Y-89313000D01*
X139627000Y-89333000D01*
X140820155Y-89333000D01*
X140941476Y-89103110D01*
X140771645Y-88693076D01*
X140381358Y-88264817D01*
X140238447Y-88197702D01*
X140579147Y-87970054D01*
X140901054Y-87488285D01*
X141014093Y-86920000D01*
X140901054Y-86351715D01*
X140579147Y-85869946D01*
X140249974Y-85650000D01*
X140579147Y-85430054D01*
X140901054Y-84948285D01*
X141014093Y-84380000D01*
X140901054Y-83811715D01*
X140579147Y-83329946D01*
X140249974Y-83110000D01*
X140579147Y-82890054D01*
X140901054Y-82408285D01*
X141014093Y-81840000D01*
X140901054Y-81271715D01*
X140579147Y-80789946D01*
X140249974Y-80570000D01*
X140579147Y-80350054D01*
X140901054Y-79868285D01*
X141014093Y-79300000D01*
X140901054Y-78731715D01*
X140579147Y-78249946D01*
X140249974Y-78030000D01*
X140579147Y-77810054D01*
X140901054Y-77328285D01*
X141014093Y-76760000D01*
X140901054Y-76191715D01*
X140579147Y-75709946D01*
X140249974Y-75490000D01*
X140579147Y-75270054D01*
X140901054Y-74788285D01*
X141014093Y-74220000D01*
X140901054Y-73651715D01*
X140579147Y-73169946D01*
X140249974Y-72950000D01*
X140579147Y-72730054D01*
X140901054Y-72248285D01*
X141014093Y-71680000D01*
X140901054Y-71111715D01*
X140579147Y-70629946D01*
X140249974Y-70410000D01*
X140579147Y-70190054D01*
X140901054Y-69708285D01*
X141014093Y-69140000D01*
X140901054Y-68571715D01*
X140579147Y-68089946D01*
X140249974Y-67870000D01*
X140579147Y-67650054D01*
X140901054Y-67168285D01*
X141014093Y-66600000D01*
X140901054Y-66031715D01*
X140579147Y-65549946D01*
X140249974Y-65330000D01*
X140579147Y-65110054D01*
X140901054Y-64628285D01*
X141014093Y-64060000D01*
X140901054Y-63491715D01*
X140579147Y-63009946D01*
X140249974Y-62790000D01*
X140579147Y-62570054D01*
X140901054Y-62088285D01*
X141014093Y-61520000D01*
X140901054Y-60951715D01*
X140579147Y-60469946D01*
X140249974Y-60250000D01*
X140579147Y-60030054D01*
X140901054Y-59548285D01*
X141014093Y-58980000D01*
X140901054Y-58411715D01*
X140579147Y-57929946D01*
X140537548Y-57902150D01*
X140585317Y-57893162D01*
X140801441Y-57754090D01*
X140946431Y-57541890D01*
X140997440Y-57290000D01*
X140997440Y-56440000D01*
X142036887Y-56440000D01*
X142146120Y-56989151D01*
X142457189Y-57454698D01*
X142839275Y-57710000D01*
X142457189Y-57965302D01*
X142146120Y-58430849D01*
X142036887Y-58980000D01*
X142146120Y-59529151D01*
X142457189Y-59994698D01*
X142839275Y-60250000D01*
X142457189Y-60505302D01*
X142146120Y-60970849D01*
X142036887Y-61520000D01*
X142146120Y-62069151D01*
X142457189Y-62534698D01*
X142839275Y-62790000D01*
X142457189Y-63045302D01*
X142146120Y-63510849D01*
X142036887Y-64060000D01*
X142146120Y-64609151D01*
X142457189Y-65074698D01*
X142839275Y-65330000D01*
X142457189Y-65585302D01*
X142146120Y-66050849D01*
X142036887Y-66600000D01*
X142146120Y-67149151D01*
X142457189Y-67614698D01*
X142839275Y-67870000D01*
X142457189Y-68125302D01*
X142146120Y-68590849D01*
X142036887Y-69140000D01*
X142146120Y-69689151D01*
X142457189Y-70154698D01*
X142839275Y-70410000D01*
X142457189Y-70665302D01*
X142146120Y-71130849D01*
X142036887Y-71680000D01*
X142146120Y-72229151D01*
X142457189Y-72694698D01*
X142839275Y-72950000D01*
X142457189Y-73205302D01*
X142146120Y-73670849D01*
X142036887Y-74220000D01*
X142146120Y-74769151D01*
X142457189Y-75234698D01*
X142839275Y-75490000D01*
X142457189Y-75745302D01*
X142146120Y-76210849D01*
X142036887Y-76760000D01*
X142146120Y-77309151D01*
X142457189Y-77774698D01*
X142839275Y-78030000D01*
X142457189Y-78285302D01*
X142146120Y-78750849D01*
X142036887Y-79300000D01*
X142146120Y-79849151D01*
X142457189Y-80314698D01*
X142839275Y-80570000D01*
X142457189Y-80825302D01*
X142146120Y-81290849D01*
X142036887Y-81840000D01*
X142146120Y-82389151D01*
X142457189Y-82854698D01*
X142839275Y-83110000D01*
X142457189Y-83365302D01*
X142146120Y-83830849D01*
X142036887Y-84380000D01*
X142146120Y-84929151D01*
X142457189Y-85394698D01*
X142839275Y-85650000D01*
X142457189Y-85905302D01*
X142146120Y-86370849D01*
X142036887Y-86920000D01*
X142146120Y-87469151D01*
X142457189Y-87934698D01*
X142861703Y-88204986D01*
X142644866Y-88307611D01*
X142268959Y-88722577D01*
X142108096Y-89110961D01*
X142230085Y-89333000D01*
X143373000Y-89333000D01*
X143373000Y-89313000D01*
X143627000Y-89313000D01*
X143627000Y-89333000D01*
X144769915Y-89333000D01*
X144891904Y-89110961D01*
X144731041Y-88722577D01*
X144355134Y-88307611D01*
X144138297Y-88204986D01*
X144542811Y-87934698D01*
X144853880Y-87469151D01*
X144963113Y-86920000D01*
X157276887Y-86920000D01*
X157386120Y-87469151D01*
X157697189Y-87934698D01*
X158079275Y-88190000D01*
X157697189Y-88445302D01*
X157386120Y-88910849D01*
X157276887Y-89460000D01*
X157386120Y-90009151D01*
X157697189Y-90474698D01*
X157841465Y-90571101D01*
X157704683Y-90596838D01*
X157488559Y-90735910D01*
X157343569Y-90948110D01*
X157292560Y-91200000D01*
X157292560Y-92800000D01*
X157336838Y-93035317D01*
X157475910Y-93251441D01*
X157688110Y-93396431D01*
X157940000Y-93447440D01*
X159540000Y-93447440D01*
X159775317Y-93403162D01*
X159991441Y-93264090D01*
X160136431Y-93051890D01*
X160187440Y-92800000D01*
X160187440Y-91200000D01*
X160143162Y-90964683D01*
X160004090Y-90748559D01*
X159791890Y-90603569D01*
X159636911Y-90572185D01*
X159782811Y-90474698D01*
X160093880Y-90009151D01*
X160203113Y-89460000D01*
X160093880Y-88910849D01*
X159782811Y-88445302D01*
X159400725Y-88190000D01*
X159782811Y-87934698D01*
X160093880Y-87469151D01*
X160203113Y-86920000D01*
X160985907Y-86920000D01*
X161098946Y-87488285D01*
X161420853Y-87970054D01*
X161750026Y-88190000D01*
X161420853Y-88409946D01*
X161098946Y-88891715D01*
X160985907Y-89460000D01*
X161098946Y-90028285D01*
X161420853Y-90510054D01*
X161750026Y-90730000D01*
X161420853Y-90949946D01*
X161098946Y-91431715D01*
X160985907Y-92000000D01*
X161098946Y-92568285D01*
X161420853Y-93050054D01*
X161902622Y-93371961D01*
X162470907Y-93485000D01*
X162529093Y-93485000D01*
X163097378Y-93371961D01*
X163579147Y-93050054D01*
X163650932Y-92942619D01*
X165264613Y-92942619D01*
X165604155Y-93764372D01*
X166232321Y-94393636D01*
X167053481Y-94734611D01*
X167942619Y-94735387D01*
X168764372Y-94395845D01*
X169393636Y-93767679D01*
X169734611Y-92946519D01*
X169735387Y-92057381D01*
X169395845Y-91235628D01*
X168767679Y-90606364D01*
X167946519Y-90265389D01*
X167057381Y-90264613D01*
X166235628Y-90604155D01*
X165606364Y-91232321D01*
X165265389Y-92053481D01*
X165264613Y-92942619D01*
X163650932Y-92942619D01*
X163901054Y-92568285D01*
X164014093Y-92000000D01*
X163901054Y-91431715D01*
X163579147Y-90949946D01*
X163249974Y-90730000D01*
X163579147Y-90510054D01*
X163901054Y-90028285D01*
X164014093Y-89460000D01*
X163901054Y-88891715D01*
X163579147Y-88409946D01*
X163249974Y-88190000D01*
X163579147Y-87970054D01*
X163901054Y-87488285D01*
X164014093Y-86920000D01*
X163901054Y-86351715D01*
X163579147Y-85869946D01*
X163238447Y-85642298D01*
X163381358Y-85575183D01*
X163771645Y-85146924D01*
X163941476Y-84736890D01*
X163820155Y-84507000D01*
X162627000Y-84507000D01*
X162627000Y-84527000D01*
X162373000Y-84527000D01*
X162373000Y-84507000D01*
X161179845Y-84507000D01*
X161058524Y-84736890D01*
X161228355Y-85146924D01*
X161618642Y-85575183D01*
X161761553Y-85642298D01*
X161420853Y-85869946D01*
X161098946Y-86351715D01*
X160985907Y-86920000D01*
X160203113Y-86920000D01*
X160093880Y-86370849D01*
X159782811Y-85905302D01*
X159378297Y-85635014D01*
X159595134Y-85532389D01*
X159971041Y-85117423D01*
X160131904Y-84729039D01*
X160009915Y-84507000D01*
X158867000Y-84507000D01*
X158867000Y-84527000D01*
X158613000Y-84527000D01*
X158613000Y-84507000D01*
X157470085Y-84507000D01*
X157348096Y-84729039D01*
X157508959Y-85117423D01*
X157884866Y-85532389D01*
X158101703Y-85635014D01*
X157697189Y-85905302D01*
X157386120Y-86370849D01*
X157276887Y-86920000D01*
X144963113Y-86920000D01*
X144853880Y-86370849D01*
X144542811Y-85905302D01*
X144160725Y-85650000D01*
X144542811Y-85394698D01*
X144853880Y-84929151D01*
X144963113Y-84380000D01*
X144853880Y-83830849D01*
X144542811Y-83365302D01*
X144160725Y-83110000D01*
X144542811Y-82854698D01*
X144853880Y-82389151D01*
X144963113Y-81840000D01*
X144853880Y-81290849D01*
X144542811Y-80825302D01*
X144160725Y-80570000D01*
X144542811Y-80314698D01*
X144853880Y-79849151D01*
X144963113Y-79300000D01*
X144853880Y-78750849D01*
X144542811Y-78285302D01*
X144160725Y-78030000D01*
X144542811Y-77774698D01*
X144853880Y-77309151D01*
X144928270Y-76935167D01*
X150064838Y-76935167D01*
X150206883Y-77278943D01*
X150469673Y-77542192D01*
X150813201Y-77684838D01*
X151185167Y-77685162D01*
X151403376Y-77595000D01*
X157577118Y-77595000D01*
X157697189Y-77774698D01*
X158079275Y-78030000D01*
X157697189Y-78285302D01*
X157386120Y-78750849D01*
X157276887Y-79300000D01*
X157386120Y-79849151D01*
X157697189Y-80314698D01*
X158079275Y-80570000D01*
X157697189Y-80825302D01*
X157386120Y-81290849D01*
X157276887Y-81840000D01*
X157386120Y-82389151D01*
X157697189Y-82854698D01*
X158101703Y-83124986D01*
X157884866Y-83227611D01*
X157508959Y-83642577D01*
X157348096Y-84030961D01*
X157470085Y-84253000D01*
X158613000Y-84253000D01*
X158613000Y-84233000D01*
X158867000Y-84233000D01*
X158867000Y-84253000D01*
X160009915Y-84253000D01*
X160131904Y-84030961D01*
X159971041Y-83642577D01*
X159595134Y-83227611D01*
X159378297Y-83124986D01*
X159782811Y-82854698D01*
X160093880Y-82389151D01*
X160203113Y-81840000D01*
X160093880Y-81290849D01*
X159782811Y-80825302D01*
X159400725Y-80570000D01*
X159782811Y-80314698D01*
X160093880Y-79849151D01*
X160203113Y-79300000D01*
X160093880Y-78750849D01*
X159782811Y-78285302D01*
X159400725Y-78030000D01*
X159782811Y-77774698D01*
X160093880Y-77309151D01*
X160203113Y-76760000D01*
X160093880Y-76210849D01*
X159782811Y-75745302D01*
X159400725Y-75490000D01*
X159782811Y-75234698D01*
X160093880Y-74769151D01*
X160203113Y-74220000D01*
X160093880Y-73670849D01*
X159782811Y-73205302D01*
X159400725Y-72950000D01*
X159782811Y-72694698D01*
X160093880Y-72229151D01*
X160203113Y-71680000D01*
X160093880Y-71130849D01*
X159782811Y-70665302D01*
X159400725Y-70410000D01*
X159782811Y-70154698D01*
X160093880Y-69689151D01*
X160203113Y-69140000D01*
X160093880Y-68590849D01*
X159782811Y-68125302D01*
X159400725Y-67870000D01*
X159782811Y-67614698D01*
X160093880Y-67149151D01*
X160203113Y-66600000D01*
X160093880Y-66050849D01*
X159782811Y-65585302D01*
X159400725Y-65330000D01*
X159782811Y-65074698D01*
X160093880Y-64609151D01*
X160203113Y-64060000D01*
X160093880Y-63510849D01*
X159782811Y-63045302D01*
X159400725Y-62790000D01*
X159782811Y-62534698D01*
X160093880Y-62069151D01*
X160203113Y-61520000D01*
X160093880Y-60970849D01*
X159782811Y-60505302D01*
X159400725Y-60250000D01*
X159782811Y-59994698D01*
X160093880Y-59529151D01*
X160203113Y-58980000D01*
X160985907Y-58980000D01*
X161098946Y-59548285D01*
X161420853Y-60030054D01*
X161750026Y-60250000D01*
X161420853Y-60469946D01*
X161098946Y-60951715D01*
X160985907Y-61520000D01*
X161098946Y-62088285D01*
X161420853Y-62570054D01*
X161750026Y-62790000D01*
X161420853Y-63009946D01*
X161098946Y-63491715D01*
X160985907Y-64060000D01*
X161098946Y-64628285D01*
X161420853Y-65110054D01*
X161750026Y-65330000D01*
X161420853Y-65549946D01*
X161098946Y-66031715D01*
X160985907Y-66600000D01*
X161098946Y-67168285D01*
X161420853Y-67650054D01*
X161750026Y-67870000D01*
X161420853Y-68089946D01*
X161098946Y-68571715D01*
X160985907Y-69140000D01*
X161098946Y-69708285D01*
X161420853Y-70190054D01*
X161750026Y-70410000D01*
X161420853Y-70629946D01*
X161098946Y-71111715D01*
X160985907Y-71680000D01*
X161098946Y-72248285D01*
X161420853Y-72730054D01*
X161750026Y-72950000D01*
X161420853Y-73169946D01*
X161098946Y-73651715D01*
X160985907Y-74220000D01*
X161098946Y-74788285D01*
X161420853Y-75270054D01*
X161750026Y-75490000D01*
X161420853Y-75709946D01*
X161098946Y-76191715D01*
X160985907Y-76760000D01*
X161098946Y-77328285D01*
X161420853Y-77810054D01*
X161750026Y-78030000D01*
X161420853Y-78249946D01*
X161098946Y-78731715D01*
X160985907Y-79300000D01*
X161098946Y-79868285D01*
X161420853Y-80350054D01*
X161750026Y-80570000D01*
X161420853Y-80789946D01*
X161098946Y-81271715D01*
X160985907Y-81840000D01*
X161098946Y-82408285D01*
X161420853Y-82890054D01*
X161761553Y-83117702D01*
X161618642Y-83184817D01*
X161228355Y-83613076D01*
X161058524Y-84023110D01*
X161179845Y-84253000D01*
X162373000Y-84253000D01*
X162373000Y-84233000D01*
X162627000Y-84233000D01*
X162627000Y-84253000D01*
X163820155Y-84253000D01*
X163941476Y-84023110D01*
X163771645Y-83613076D01*
X163381358Y-83184817D01*
X163238447Y-83117702D01*
X163579147Y-82890054D01*
X163901054Y-82408285D01*
X164014093Y-81840000D01*
X163901054Y-81271715D01*
X163579147Y-80789946D01*
X163249974Y-80570000D01*
X163579147Y-80350054D01*
X163901054Y-79868285D01*
X164014093Y-79300000D01*
X163901054Y-78731715D01*
X163579147Y-78249946D01*
X163249974Y-78030000D01*
X163579147Y-77810054D01*
X163901054Y-77328285D01*
X164014093Y-76760000D01*
X163901054Y-76191715D01*
X163579147Y-75709946D01*
X163249974Y-75490000D01*
X163579147Y-75270054D01*
X163901054Y-74788285D01*
X164014093Y-74220000D01*
X163901054Y-73651715D01*
X163579147Y-73169946D01*
X163249974Y-72950000D01*
X163579147Y-72730054D01*
X163901054Y-72248285D01*
X164014093Y-71680000D01*
X163901054Y-71111715D01*
X163579147Y-70629946D01*
X163249974Y-70410000D01*
X163579147Y-70190054D01*
X163901054Y-69708285D01*
X164014093Y-69140000D01*
X163901054Y-68571715D01*
X163579147Y-68089946D01*
X163249974Y-67870000D01*
X163579147Y-67650054D01*
X163901054Y-67168285D01*
X164014093Y-66600000D01*
X163901054Y-66031715D01*
X163579147Y-65549946D01*
X163249974Y-65330000D01*
X163579147Y-65110054D01*
X163901054Y-64628285D01*
X164014093Y-64060000D01*
X163901054Y-63491715D01*
X163579147Y-63009946D01*
X163249974Y-62790000D01*
X163579147Y-62570054D01*
X163901054Y-62088285D01*
X164014093Y-61520000D01*
X163901054Y-60951715D01*
X163579147Y-60469946D01*
X163249974Y-60250000D01*
X163579147Y-60030054D01*
X163901054Y-59548285D01*
X164014093Y-58980000D01*
X163901054Y-58411715D01*
X163579147Y-57929946D01*
X163537548Y-57902150D01*
X163585317Y-57893162D01*
X163801441Y-57754090D01*
X163946431Y-57541890D01*
X163997440Y-57290000D01*
X163997440Y-55942619D01*
X164764613Y-55942619D01*
X165104155Y-56764372D01*
X165732321Y-57393636D01*
X166553481Y-57734611D01*
X167442619Y-57735387D01*
X168264372Y-57395845D01*
X168893636Y-56767679D01*
X169234611Y-55946519D01*
X169235387Y-55057381D01*
X168895845Y-54235628D01*
X168267679Y-53606364D01*
X167446519Y-53265389D01*
X166557381Y-53264613D01*
X165735628Y-53604155D01*
X165106364Y-54232321D01*
X164765389Y-55053481D01*
X164764613Y-55942619D01*
X163997440Y-55942619D01*
X163997440Y-55590000D01*
X163953162Y-55354683D01*
X163814090Y-55138559D01*
X163601890Y-54993569D01*
X163350000Y-54942560D01*
X161650000Y-54942560D01*
X161414683Y-54986838D01*
X161198559Y-55125910D01*
X161053569Y-55338110D01*
X161002560Y-55590000D01*
X161002560Y-57290000D01*
X161046838Y-57525317D01*
X161185910Y-57741441D01*
X161398110Y-57886431D01*
X161465541Y-57900086D01*
X161420853Y-57929946D01*
X161098946Y-58411715D01*
X160985907Y-58980000D01*
X160203113Y-58980000D01*
X160093880Y-58430849D01*
X159782811Y-57965302D01*
X159400725Y-57710000D01*
X159782811Y-57454698D01*
X160093880Y-56989151D01*
X160203113Y-56440000D01*
X160093880Y-55890849D01*
X159782811Y-55425302D01*
X159317264Y-55114233D01*
X158768113Y-55005000D01*
X158711887Y-55005000D01*
X158162736Y-55114233D01*
X157697189Y-55425302D01*
X157386120Y-55890849D01*
X157276887Y-56440000D01*
X157386120Y-56989151D01*
X157697189Y-57454698D01*
X158079275Y-57710000D01*
X157697189Y-57965302D01*
X157386120Y-58430849D01*
X157276887Y-58980000D01*
X157386120Y-59529151D01*
X157697189Y-59994698D01*
X158079275Y-60250000D01*
X157697189Y-60505302D01*
X157386120Y-60970849D01*
X157276887Y-61520000D01*
X157386120Y-62069151D01*
X157697189Y-62534698D01*
X158079275Y-62790000D01*
X157697189Y-63045302D01*
X157386120Y-63510849D01*
X157276887Y-64060000D01*
X157386120Y-64609151D01*
X157697189Y-65074698D01*
X158079275Y-65330000D01*
X157697189Y-65585302D01*
X157386120Y-66050849D01*
X157276887Y-66600000D01*
X157386120Y-67149151D01*
X157697189Y-67614698D01*
X158079275Y-67870000D01*
X157697189Y-68125302D01*
X157386120Y-68590849D01*
X157276887Y-69140000D01*
X157386120Y-69689151D01*
X157697189Y-70154698D01*
X158079275Y-70410000D01*
X157697189Y-70665302D01*
X157386120Y-71130849D01*
X157276887Y-71680000D01*
X157386120Y-72229151D01*
X157697189Y-72694698D01*
X158079275Y-72950000D01*
X157697189Y-73205302D01*
X157386120Y-73670849D01*
X157276887Y-74220000D01*
X157386120Y-74769151D01*
X157697189Y-75234698D01*
X158079275Y-75490000D01*
X157697189Y-75745302D01*
X157577118Y-75925000D01*
X151451317Y-75925000D01*
X151186799Y-75815162D01*
X150814833Y-75814838D01*
X150471057Y-75956883D01*
X150207808Y-76219673D01*
X150065162Y-76563201D01*
X150064838Y-76935167D01*
X144928270Y-76935167D01*
X144963113Y-76760000D01*
X144853880Y-76210849D01*
X144542811Y-75745302D01*
X144160725Y-75490000D01*
X144542811Y-75234698D01*
X144853880Y-74769151D01*
X144963113Y-74220000D01*
X144853880Y-73670849D01*
X144542811Y-73205302D01*
X144160725Y-72950000D01*
X144542811Y-72694698D01*
X144853880Y-72229151D01*
X144963113Y-71680000D01*
X144853880Y-71130849D01*
X144542811Y-70665302D01*
X144160725Y-70410000D01*
X144542811Y-70154698D01*
X144853880Y-69689151D01*
X144963113Y-69140000D01*
X144853880Y-68590849D01*
X144542811Y-68125302D01*
X144160725Y-67870000D01*
X144542811Y-67614698D01*
X144853880Y-67149151D01*
X144963113Y-66600000D01*
X144853880Y-66050849D01*
X144542811Y-65585302D01*
X144160725Y-65330000D01*
X144542811Y-65074698D01*
X144853880Y-64609151D01*
X144963113Y-64060000D01*
X144853880Y-63510849D01*
X144542811Y-63045302D01*
X144160725Y-62790000D01*
X144542811Y-62534698D01*
X144853880Y-62069151D01*
X144963113Y-61520000D01*
X144853880Y-60970849D01*
X144542811Y-60505302D01*
X144160725Y-60250000D01*
X144542811Y-59994698D01*
X144853880Y-59529151D01*
X144963113Y-58980000D01*
X144853880Y-58430849D01*
X144542811Y-57965302D01*
X144160725Y-57710000D01*
X144542811Y-57454698D01*
X144853880Y-56989151D01*
X144963113Y-56440000D01*
X144853880Y-55890849D01*
X144542811Y-55425302D01*
X144077264Y-55114233D01*
X143528113Y-55005000D01*
X143471887Y-55005000D01*
X142922736Y-55114233D01*
X142457189Y-55425302D01*
X142146120Y-55890849D01*
X142036887Y-56440000D01*
X140997440Y-56440000D01*
X140997440Y-55590000D01*
X140953162Y-55354683D01*
X140814090Y-55138559D01*
X140601890Y-54993569D01*
X140350000Y-54942560D01*
X138650000Y-54942560D01*
X138414683Y-54986838D01*
X138198559Y-55125910D01*
X138053569Y-55338110D01*
X138002560Y-55590000D01*
X138002560Y-57290000D01*
X138046838Y-57525317D01*
X138185910Y-57741441D01*
X138398110Y-57886431D01*
X138465541Y-57900086D01*
X138420853Y-57929946D01*
X138098946Y-58411715D01*
X137985907Y-58980000D01*
X134885000Y-58980000D01*
X134885000Y-58285750D01*
X134726250Y-58127000D01*
X132627000Y-58127000D01*
X132373000Y-58127000D01*
X130273750Y-58127000D01*
X130115000Y-58285750D01*
X130115000Y-58954696D01*
X130088327Y-58890302D01*
X129909699Y-58711673D01*
X129676310Y-58615000D01*
X128085750Y-58615000D01*
X127927000Y-58773750D01*
X127673000Y-58773750D01*
X127514250Y-58615000D01*
X125923690Y-58615000D01*
X125690301Y-58711673D01*
X125511673Y-58890302D01*
X125415000Y-59123691D01*
X123210000Y-59123691D01*
X123210000Y-56123691D01*
X130115000Y-56123691D01*
X130115000Y-57714250D01*
X130273750Y-57873000D01*
X132373000Y-57873000D01*
X132373000Y-55773750D01*
X132627000Y-55773750D01*
X132627000Y-57873000D01*
X134726250Y-57873000D01*
X134885000Y-57714250D01*
X134885000Y-56123691D01*
X134788327Y-55890302D01*
X134609699Y-55711673D01*
X134376310Y-55615000D01*
X132785750Y-55615000D01*
X132627000Y-55773750D01*
X132373000Y-55773750D01*
X132214250Y-55615000D01*
X130623690Y-55615000D01*
X130390301Y-55711673D01*
X130211673Y-55890302D01*
X130115000Y-56123691D01*
X123210000Y-56123691D01*
X123210000Y-56069931D01*
X123473288Y-54746293D01*
X124183454Y-53683454D01*
X125246295Y-52973288D01*
X126569931Y-52710000D01*
X166430069Y-52710000D01*
X167753707Y-52973288D01*
G36*
X129653748Y-110985858D02*
X129639605Y-111000000D01*
X129653748Y-111014143D01*
X129474143Y-111193748D01*
X129460000Y-111179605D01*
X129445858Y-111193748D01*
X129266253Y-111014143D01*
X129280395Y-111000000D01*
X129266253Y-110985858D01*
X129445858Y-110806253D01*
X129460000Y-110820395D01*
X129474143Y-110806253D01*
X129653748Y-110985858D01*
X129653748Y-110985858D01*
G37*
X129653748Y-110985858D02*
X129639605Y-111000000D01*
X129653748Y-111014143D01*
X129474143Y-111193748D01*
X129460000Y-111179605D01*
X129445858Y-111193748D01*
X129266253Y-111014143D01*
X129280395Y-111000000D01*
X129266253Y-110985858D01*
X129445858Y-110806253D01*
X129460000Y-110820395D01*
X129474143Y-110806253D01*
X129653748Y-110985858D01*
M02*
